<?xml version="1.0" encoding="utf-8" standalone="no"?>
<!DOCTYPE svg PUBLIC "-//W3C//DTD SVG 1.1//EN"
  "http://www.w3.org/Graphics/SVG/1.1/DTD/svg11.dtd">
<!-- Created with matplotlib (https://matplotlib.org/) -->
<svg height="272.16pt" version="1.1" viewBox="0 0 560.16 272.16" width="560.16pt" xmlns="http://www.w3.org/2000/svg" xmlns:xlink="http://www.w3.org/1999/xlink">
 <metadata>
  <rdf:RDF xmlns:cc="http://creativecommons.org/ns#" xmlns:dc="http://purl.org/dc/elements/1.1/" xmlns:rdf="http://www.w3.org/1999/02/22-rdf-syntax-ns#">
   <cc:Work>
    <dc:type rdf:resource="http://purl.org/dc/dcmitype/StillImage"/>
    <dc:date>2020-12-29T17:32:29.892947</dc:date>
    <dc:format>image/svg+xml</dc:format>
    <dc:creator>
     <cc:Agent>
      <dc:title>Matplotlib v3.3.2, https://matplotlib.org/</dc:title>
     </cc:Agent>
    </dc:creator>
   </cc:Work>
  </rdf:RDF>
 </metadata>
 <defs>
  <style type="text/css">*{stroke-linecap:butt;stroke-linejoin:round;}</style>
 </defs>
 <g id="figure_1">
  <g id="patch_1">
   <path d="M 0 272.16 
L 560.16 272.16 
L 560.16 0 
L 0 0 
z
" style="fill:none;"/>
  </g>
  <g id="axes_1">
   <g id="patch_2">
    <path d="M 31.650582 245.562095 
L 282.995291 245.562095 
L 282.995291 7.2 
L 31.650582 7.2 
z
" style="fill:#ffffff;"/>
   </g>
   <g id="patch_3">
    <path clip-path="url(#p2b3b963741)" d="M 43.075342 245.562095 
L 54.500101 245.562095 
L 54.500101 245.316305 
L 43.075342 245.316305 
z
" style="fill:#008000;stroke:#000000;stroke-linejoin:miter;"/>
   </g>
   <g id="patch_4">
    <path clip-path="url(#p2b3b963741)" d="M 54.500101 245.562095 
L 65.924861 245.562095 
L 65.924861 245.070515 
L 54.500101 245.070515 
z
" style="fill:#008000;stroke:#000000;stroke-linejoin:miter;"/>
   </g>
   <g id="patch_5">
    <path clip-path="url(#p2b3b963741)" d="M 65.924861 245.562095 
L 77.34962 245.562095 
L 77.34962 243.718671 
L 65.924861 243.718671 
z
" style="fill:#008000;stroke:#000000;stroke-linejoin:miter;"/>
   </g>
   <g id="patch_6">
    <path clip-path="url(#p2b3b963741)" d="M 77.34962 245.562095 
L 88.77438 245.562095 
L 88.77438 241.998142 
L 77.34962 241.998142 
z
" style="fill:#008000;stroke:#000000;stroke-linejoin:miter;"/>
   </g>
   <g id="patch_7">
    <path clip-path="url(#p2b3b963741)" d="M 88.77438 245.562095 
L 100.199139 245.562095 
L 100.199139 234.255762 
L 88.77438 234.255762 
z
" style="fill:#008000;stroke:#000000;stroke-linejoin:miter;"/>
   </g>
   <g id="patch_8">
    <path clip-path="url(#p2b3b963741)" d="M 100.199139 245.562095 
L 111.623899 245.562095 
L 111.623899 215.452838 
L 100.199139 215.452838 
z
" style="fill:#008000;stroke:#000000;stroke-linejoin:miter;"/>
   </g>
   <g id="patch_9">
    <path clip-path="url(#p2b3b963741)" d="M 111.623899 245.562095 
L 123.048658 245.562095 
L 123.048658 186.818321 
L 111.623899 186.818321 
z
" style="fill:#008000;stroke:#000000;stroke-linejoin:miter;"/>
   </g>
   <g id="patch_10">
    <path clip-path="url(#p2b3b963741)" d="M 123.048658 245.562095 
L 134.473418 245.562095 
L 134.473418 146.87747 
L 123.048658 146.87747 
z
" style="fill:#008000;stroke:#000000;stroke-linejoin:miter;"/>
   </g>
   <g id="patch_11">
    <path clip-path="url(#p2b3b963741)" d="M 134.473418 245.562095 
L 145.898177 245.562095 
L 145.898177 110.377677 
L 134.473418 110.377677 
z
" style="fill:#008000;stroke:#000000;stroke-linejoin:miter;"/>
   </g>
   <g id="patch_12">
    <path clip-path="url(#p2b3b963741)" d="M 145.898177 245.562095 
L 157.322937 245.562095 
L 157.322937 64.660765 
L 145.898177 64.660765 
z
" style="fill:#008000;stroke:#000000;stroke-linejoin:miter;"/>
   </g>
   <g id="patch_13">
    <path clip-path="url(#p2b3b963741)" d="M 157.322937 245.562095 
L 168.747696 245.562095 
L 168.747696 47.08679 
L 157.322937 47.08679 
z
" style="fill:#008000;stroke:#000000;stroke-linejoin:miter;"/>
   </g>
   <g id="patch_14">
    <path clip-path="url(#p2b3b963741)" d="M 168.747696 245.562095 
L 180.172456 245.562095 
L 180.172456 68.347613 
L 168.747696 68.347613 
z
" style="fill:#008000;stroke:#000000;stroke-linejoin:miter;"/>
   </g>
   <g id="patch_15">
    <path clip-path="url(#p2b3b963741)" d="M 180.172456 245.562095 
L 191.597215 245.562095 
L 191.597215 109.886097 
L 180.172456 109.886097 
z
" style="fill:#008000;stroke:#000000;stroke-linejoin:miter;"/>
   </g>
   <g id="patch_16">
    <path clip-path="url(#p2b3b963741)" d="M 191.597215 245.562095 
L 203.021975 245.562095 
L 203.021975 154.251166 
L 191.597215 154.251166 
z
" style="fill:#008000;stroke:#000000;stroke-linejoin:miter;"/>
   </g>
   <g id="patch_17">
    <path clip-path="url(#p2b3b963741)" d="M 203.021975 245.562095 
L 214.446734 245.562095 
L 214.446734 189.890694 
L 203.021975 189.890694 
z
" style="fill:#008000;stroke:#000000;stroke-linejoin:miter;"/>
   </g>
   <g id="patch_18">
    <path clip-path="url(#p2b3b963741)" d="M 214.446734 245.562095 
L 225.871494 245.562095 
L 225.871494 218.156527 
L 214.446734 218.156527 
z
" style="fill:#008000;stroke:#000000;stroke-linejoin:miter;"/>
   </g>
   <g id="patch_19">
    <path clip-path="url(#p2b3b963741)" d="M 225.871494 245.562095 
L 237.296253 245.562095 
L 237.296253 230.568914 
L 225.871494 230.568914 
z
" style="fill:#008000;stroke:#000000;stroke-linejoin:miter;"/>
   </g>
   <g id="patch_20">
    <path clip-path="url(#p2b3b963741)" d="M 237.296253 245.562095 
L 248.721013 245.562095 
L 248.721013 239.908929 
L 237.296253 239.908929 
z
" style="fill:#008000;stroke:#000000;stroke-linejoin:miter;"/>
   </g>
   <g id="patch_21">
    <path clip-path="url(#p2b3b963741)" d="M 248.721013 245.562095 
L 260.145772 245.562095 
L 260.145772 245.070515 
L 248.721013 245.070515 
z
" style="fill:#008000;stroke:#000000;stroke-linejoin:miter;"/>
   </g>
   <g id="patch_22">
    <path clip-path="url(#p2b3b963741)" d="M 260.145772 245.562095 
L 271.570532 245.562095 
L 271.570532 244.578936 
L 260.145772 244.578936 
z
" style="fill:#008000;stroke:#000000;stroke-linejoin:miter;"/>
   </g>
   <g id="matplotlib.axis_1">
    <g id="xtick_1">
     <g id="line2d_1">
      <defs>
       <path d="M 0 0 
L 0 3.5 
" id="m7fcd87020f" style="stroke:#000000;stroke-width:0.8;"/>
      </defs>
      <g>
       <use style="stroke:#000000;stroke-width:0.8;" x="45.539882" xlink:href="#m7fcd87020f" y="245.562095"/>
      </g>
     </g>
     <g id="text_1">
      <!-- $\mathdefault{−4}$ -->
      <g transform="translate(36.70152 262.247972)scale(0.14 -0.14)">
       <defs>
        <path d="M 65.90625 23 
C 67.59375 23 69.40625 23 69.40625 25 
C 69.40625 27 67.59375 27 65.90625 27 
L 11.796875 27 
C 10.09375 27 8.296875 27 8.296875 25 
C 8.296875 23 10.09375 23 11.796875 23 
z
" id="CMSY10-0"/>
        <path d="M 33.59375 64.796875 
C 33.59375 66.890625 33.5 67 31.703125 67 
L 2 19.59375 
L 2 17 
L 27.796875 17 
L 27.796875 7.1875 
C 27.796875 3.59375 27.59375 2.59375 20.59375 2.59375 
L 18.703125 2.59375 
L 18.703125 0 
C 21.90625 0.1875 27.296875 0.1875 30.703125 0.1875 
C 34.09375 0.1875 39.5 0.1875 42.703125 0 
L 42.703125 2.59375 
L 40.796875 2.59375 
C 33.796875 2.59375 33.59375 3.59375 33.59375 7.1875 
L 33.59375 17 
L 43.796875 17 
L 43.796875 19.59375 
L 33.59375 19.59375 
z
M 28.09375 58.171875 
L 28.09375 19.59375 
L 4 19.59375 
z
" id="CMR17-52"/>
       </defs>
       <use transform="scale(0.996264)" xlink:href="#CMSY10-0"/>
       <use transform="translate(77.487468 0)scale(0.996264)" xlink:href="#CMR17-52"/>
      </g>
     </g>
    </g>
    <g id="xtick_2">
     <g id="line2d_2">
      <g>
       <use style="stroke:#000000;stroke-width:0.8;" x="104.04943" xlink:href="#m7fcd87020f" y="245.562095"/>
      </g>
     </g>
     <g id="text_2">
      <!-- $\mathdefault{−2}$ -->
      <g transform="translate(95.211068 262.247972)scale(0.14 -0.14)">
       <defs>
        <path d="M 41.703125 15.46875 
L 39.90625 15.46875 
C 38.90625 8.390625 38.09375 7.1875 37.703125 6.59375 
C 37.203125 5.796875 30 5.796875 28.59375 5.796875 
L 9.40625 5.796875 
C 13 9.6875 20 16.765625 28.5 24.9375 
C 34.59375 30.71875 41.703125 37.5 41.703125 47.390625 
C 41.703125 59.1875 32.296875 66 21.796875 66 
C 10.796875 66 4.09375 56.296875 4.09375 47.296875 
C 4.09375 43.390625 7 42.890625 8.203125 42.890625 
C 9.203125 42.890625 12.203125 43.484375 12.203125 46.984375 
C 12.203125 50.09375 9.59375 51 8.203125 51 
C 7.59375 51 7 50.890625 6.59375 50.6875 
C 8.5 59.1875 14.296875 63.390625 20.40625 63.390625 
C 29.09375 63.390625 34.796875 56.5 34.796875 47.390625 
C 34.796875 38.703125 29.703125 31.21875 24 24.734375 
L 4.09375 2.296875 
L 4.09375 0 
L 39.296875 0 
z
" id="CMR17-50"/>
       </defs>
       <use transform="scale(0.996264)" xlink:href="#CMSY10-0"/>
       <use transform="translate(77.487468 0)scale(0.996264)" xlink:href="#CMR17-50"/>
      </g>
     </g>
    </g>
    <g id="xtick_3">
     <g id="line2d_3">
      <g>
       <use style="stroke:#000000;stroke-width:0.8;" x="162.558978" xlink:href="#m7fcd87020f" y="245.562095"/>
      </g>
     </g>
     <g id="text_3">
      <!-- $\mathdefault{0}$ -->
      <g transform="translate(159.144734 262.247972)scale(0.14 -0.14)">
       <defs>
        <path d="M 42 31.84375 
C 42 37.96875 41.90625 48.421875 37.703125 56.453125 
C 34 63.484375 28.09375 66 22.90625 66 
C 18.09375 66 12 63.78125 8.203125 56.5625 
C 4.203125 49.015625 3.796875 39.671875 3.796875 31.84375 
C 3.796875 26.109375 3.90625 17.375 7 9.734375 
C 11.296875 -0.609375 19 -2 22.90625 -2 
C 27.5 -2 34.5 -0.109375 38.59375 9.4375 
C 41.59375 16.375 42 24.5 42 31.84375 
z
M 22.90625 -0.40625 
C 16.5 -0.40625 12.703125 5.125 11.296875 12.75 
C 10.203125 18.6875 10.203125 27.328125 10.203125 32.953125 
C 10.203125 40.6875 10.203125 47.109375 11.5 53.234375 
C 13.40625 61.78125 19 64.390625 22.90625 64.390625 
C 27 64.390625 32.296875 61.671875 34.203125 53.4375 
C 35.5 47.71875 35.59375 40.984375 35.59375 32.953125 
C 35.59375 26.421875 35.59375 18.375 34.40625 12.453125 
C 32.296875 1.5 26.40625 -0.40625 22.90625 -0.40625 
z
" id="CMR17-48"/>
       </defs>
       <use transform="scale(0.996264)" xlink:href="#CMR17-48"/>
      </g>
     </g>
    </g>
    <g id="xtick_4">
     <g id="line2d_4">
      <g>
       <use style="stroke:#000000;stroke-width:0.8;" x="221.068526" xlink:href="#m7fcd87020f" y="245.562095"/>
      </g>
     </g>
     <g id="text_4">
      <!-- $\mathdefault{2}$ -->
      <g transform="translate(217.654282 262.247972)scale(0.14 -0.14)">
       <use transform="scale(0.996264)" xlink:href="#CMR17-50"/>
      </g>
     </g>
    </g>
    <g id="xtick_5">
     <g id="line2d_5">
      <g>
       <use style="stroke:#000000;stroke-width:0.8;" x="279.578074" xlink:href="#m7fcd87020f" y="245.562095"/>
      </g>
     </g>
     <g id="text_5">
      <!-- $\mathdefault{4}$ -->
      <g transform="translate(276.16383 262.247972)scale(0.14 -0.14)">
       <use transform="scale(0.996264)" xlink:href="#CMR17-52"/>
      </g>
     </g>
    </g>
   </g>
   <g id="matplotlib.axis_2">
    <g id="ytick_1">
     <g id="line2d_6">
      <defs>
       <path d="M 0 0 
L -3.5 0 
" id="m4687a42c3a" style="stroke:#000000;stroke-width:0.8;"/>
      </defs>
      <g>
       <use style="stroke:#000000;stroke-width:0.8;" x="31.650582" xlink:href="#m4687a42c3a" y="245.562095"/>
      </g>
     </g>
     <g id="text_6">
      <!-- $\mathdefault{0.0}$ -->
      <g transform="translate(7.2 250.405033)scale(0.14 -0.14)">
       <defs>
        <path d="M 18.40625 4.796875 
C 18.40625 7.6875 16 9.6875 13.59375 9.6875 
C 10.703125 9.6875 8.703125 7.296875 8.703125 4.890625 
C 8.703125 2 11.09375 0 13.5 0 
C 16.40625 0 18.40625 2.390625 18.40625 4.796875 
z
" id="CMMI12-58"/>
       </defs>
       <use transform="scale(0.996264)" xlink:href="#CMR17-48"/>
       <use transform="translate(45.690477 0)scale(0.996264)" xlink:href="#CMMI12-58"/>
       <use transform="translate(72.787654 0)scale(0.996264)" xlink:href="#CMR17-48"/>
      </g>
     </g>
    </g>
    <g id="ytick_2">
     <g id="line2d_7">
      <g>
       <use style="stroke:#000000;stroke-width:0.8;" x="31.650582" xlink:href="#m4687a42c3a" y="197.568391"/>
      </g>
     </g>
     <g id="text_7">
      <!-- $\mathdefault{0.1}$ -->
      <g transform="translate(7.2 202.411329)scale(0.14 -0.14)">
       <defs>
        <path d="M 26.59375 63.796875 
C 26.59375 65.890625 26.5 66 25.09375 66 
C 21.203125 61.359375 15.296875 59.890625 9.703125 59.6875 
C 9.40625 59.6875 8.90625 59.6875 8.796875 59.5 
C 8.703125 59.296875 8.703125 59.09375 8.703125 57 
C 11.796875 57 17 57.59375 21 59.984375 
L 21 7.296875 
C 21 3.796875 20.796875 2.59375 12.203125 2.59375 
L 9.203125 2.59375 
L 9.203125 0 
C 14 0.09375 19 0.1875 23.796875 0.1875 
C 28.59375 0.1875 33.59375 0.09375 38.40625 0 
L 38.40625 2.59375 
L 35.40625 2.59375 
C 26.796875 2.59375 26.59375 3.6875 26.59375 7.296875 
z
" id="CMR17-49"/>
       </defs>
       <use transform="scale(0.996264)" xlink:href="#CMR17-48"/>
       <use transform="translate(45.690477 0)scale(0.996264)" xlink:href="#CMMI12-58"/>
       <use transform="translate(72.787654 0)scale(0.996264)" xlink:href="#CMR17-49"/>
      </g>
     </g>
    </g>
    <g id="ytick_3">
     <g id="line2d_8">
      <g>
       <use style="stroke:#000000;stroke-width:0.8;" x="31.650582" xlink:href="#m4687a42c3a" y="149.574687"/>
      </g>
     </g>
     <g id="text_8">
      <!-- $\mathdefault{0.2}$ -->
      <g transform="translate(7.2 154.417625)scale(0.14 -0.14)">
       <use transform="scale(0.996264)" xlink:href="#CMR17-48"/>
       <use transform="translate(45.690477 0)scale(0.996264)" xlink:href="#CMMI12-58"/>
       <use transform="translate(72.787654 0)scale(0.996264)" xlink:href="#CMR17-50"/>
      </g>
     </g>
    </g>
    <g id="ytick_4">
     <g id="line2d_9">
      <g>
       <use style="stroke:#000000;stroke-width:0.8;" x="31.650582" xlink:href="#m4687a42c3a" y="101.580983"/>
      </g>
     </g>
     <g id="text_9">
      <!-- $\mathdefault{0.3}$ -->
      <g transform="translate(7.2 106.423921)scale(0.14 -0.14)">
       <defs>
        <path d="M 22.09375 34 
C 31 34 34.90625 26.140625 34.90625 17.09375 
C 34.90625 5.03125 28.5 0.390625 22.703125 0.390625 
C 17.40625 0.390625 8.796875 3.015625 6.09375 10.796875 
C 6.59375 10.59375 7.09375 10.59375 7.59375 10.59375 
C 10 10.59375 11.796875 12.1875 11.796875 14.796875 
C 11.796875 17.6875 9.59375 19 7.59375 19 
C 5.90625 19 3.296875 18.1875 3.296875 14.484375 
C 3.296875 5.234375 12.296875 -2 22.90625 -2 
C 34 -2 42.5 6.75 42.5 16.984375 
C 42.5 26.84375 34.5 34 25 35.09375 
C 32.59375 36.671875 39.90625 43.375 39.90625 52.390625 
C 39.90625 60.25 32 66 23 66 
C 13.90625 66 5.90625 60.34375 5.90625 52.296875 
C 5.90625 48.796875 8.5 48.1875 9.796875 48.1875 
C 11.90625 48.1875 13.703125 49.484375 13.703125 52.09375 
C 13.703125 54.6875 11.90625 56 9.796875 56 
C 9.40625 56 8.90625 56 8.5 55.796875 
C 11.40625 62.484375 19.296875 63.6875 22.796875 63.6875 
C 26.296875 63.6875 32.90625 61.96875 32.90625 52.296875 
C 32.90625 49.484375 32.5 44.546875 29.09375 40.21875 
C 26.09375 36.390625 22.703125 36.1875 19.40625 35.890625 
C 18.90625 35.890625 16.59375 35.6875 16.203125 35.6875 
C 15.5 35.59375 15.09375 35.5 15.09375 34.796875 
C 15.09375 34.09375 15.203125 34 17.203125 34 
z
" id="CMR17-51"/>
       </defs>
       <use transform="scale(0.996264)" xlink:href="#CMR17-48"/>
       <use transform="translate(45.690477 0)scale(0.996264)" xlink:href="#CMMI12-58"/>
       <use transform="translate(72.787654 0)scale(0.996264)" xlink:href="#CMR17-51"/>
      </g>
     </g>
    </g>
    <g id="ytick_5">
     <g id="line2d_10">
      <g>
       <use style="stroke:#000000;stroke-width:0.8;" x="31.650582" xlink:href="#m4687a42c3a" y="53.587279"/>
      </g>
     </g>
     <g id="text_10">
      <!-- $\mathdefault{0.4}$ -->
      <g transform="translate(7.2 58.430217)scale(0.14 -0.14)">
       <use transform="scale(0.996264)" xlink:href="#CMR17-48"/>
       <use transform="translate(45.690477 0)scale(0.996264)" xlink:href="#CMMI12-58"/>
       <use transform="translate(72.787654 0)scale(0.996264)" xlink:href="#CMR17-52"/>
      </g>
     </g>
    </g>
   </g>
   <g id="patch_23">
    <path d="M 31.650582 245.562095 
L 31.650582 7.2 
" style="fill:none;stroke:#000000;stroke-linecap:square;stroke-linejoin:miter;stroke-width:0.8;"/>
   </g>
   <g id="patch_24">
    <path d="M 282.995291 245.562095 
L 282.995291 7.2 
" style="fill:none;stroke:#000000;stroke-linecap:square;stroke-linejoin:miter;stroke-width:0.8;"/>
   </g>
   <g id="patch_25">
    <path d="M 31.650582 245.562095 
L 282.995291 245.562095 
" style="fill:none;stroke:#000000;stroke-linecap:square;stroke-linejoin:miter;stroke-width:0.8;"/>
   </g>
   <g id="patch_26">
    <path d="M 31.650582 7.2 
L 282.995291 7.2 
" style="fill:none;stroke:#000000;stroke-linecap:square;stroke-linejoin:miter;stroke-width:0.8;"/>
   </g>
  </g>
  <g id="axes_2">
   <g id="patch_27">
    <path d="M 301.615291 245.562095 
L 552.96 245.562095 
L 552.96 7.2 
L 301.615291 7.2 
z
" style="fill:#ffffff;"/>
   </g>
   <g id="patch_28">
    <path clip-path="url(#p0153eda8d4)" d="M 313.040051 245.562095 
L 313.836201 245.562095 
L 313.836201 240.199618 
L 313.040051 240.199618 
z
" style="fill:#1f77b4;"/>
   </g>
   <g id="patch_29">
    <path clip-path="url(#p0153eda8d4)" d="M 313.836201 245.562095 
L 314.632351 245.562095 
L 314.632351 245.562095 
L 313.836201 245.562095 
z
" style="fill:#1f77b4;"/>
   </g>
   <g id="patch_30">
    <path clip-path="url(#p0153eda8d4)" d="M 314.632351 245.562095 
L 315.428502 245.562095 
L 315.428502 245.562095 
L 314.632351 245.562095 
z
" style="fill:#1f77b4;"/>
   </g>
   <g id="patch_31">
    <path clip-path="url(#p0153eda8d4)" d="M 315.428502 245.562095 
L 316.224652 245.562095 
L 316.224652 245.562095 
L 315.428502 245.562095 
z
" style="fill:#1f77b4;"/>
   </g>
   <g id="patch_32">
    <path clip-path="url(#p0153eda8d4)" d="M 316.224652 245.562095 
L 317.020803 245.562095 
L 317.020803 245.562095 
L 316.224652 245.562095 
z
" style="fill:#1f77b4;"/>
   </g>
   <g id="patch_33">
    <path clip-path="url(#p0153eda8d4)" d="M 317.020803 245.562095 
L 317.816953 245.562095 
L 317.816953 245.562095 
L 317.020803 245.562095 
z
" style="fill:#1f77b4;"/>
   </g>
   <g id="patch_34">
    <path clip-path="url(#p0153eda8d4)" d="M 317.816953 245.562095 
L 318.613104 245.562095 
L 318.613104 245.562095 
L 317.816953 245.562095 
z
" style="fill:#1f77b4;"/>
   </g>
   <g id="patch_35">
    <path clip-path="url(#p0153eda8d4)" d="M 318.613104 245.562095 
L 319.409254 245.562095 
L 319.409254 245.562095 
L 318.613104 245.562095 
z
" style="fill:#1f77b4;"/>
   </g>
   <g id="patch_36">
    <path clip-path="url(#p0153eda8d4)" d="M 319.409254 245.562095 
L 320.205405 245.562095 
L 320.205405 245.562095 
L 319.409254 245.562095 
z
" style="fill:#1f77b4;"/>
   </g>
   <g id="patch_37">
    <path clip-path="url(#p0153eda8d4)" d="M 320.205405 245.562095 
L 321.001555 245.562095 
L 321.001555 245.562095 
L 320.205405 245.562095 
z
" style="fill:#1f77b4;"/>
   </g>
   <g id="patch_38">
    <path clip-path="url(#p0153eda8d4)" d="M 321.001555 245.562095 
L 321.797706 245.562095 
L 321.797706 245.562095 
L 321.001555 245.562095 
z
" style="fill:#1f77b4;"/>
   </g>
   <g id="patch_39">
    <path clip-path="url(#p0153eda8d4)" d="M 321.797706 245.562095 
L 322.593856 245.562095 
L 322.593856 243.774603 
L 321.797706 243.774603 
z
" style="fill:#1f77b4;"/>
   </g>
   <g id="patch_40">
    <path clip-path="url(#p0153eda8d4)" d="M 322.593856 245.562095 
L 323.390007 245.562095 
L 323.390007 245.562095 
L 322.593856 245.562095 
z
" style="fill:#1f77b4;"/>
   </g>
   <g id="patch_41">
    <path clip-path="url(#p0153eda8d4)" d="M 323.390007 245.562095 
L 324.186157 245.562095 
L 324.186157 241.987111 
L 323.390007 241.987111 
z
" style="fill:#1f77b4;"/>
   </g>
   <g id="patch_42">
    <path clip-path="url(#p0153eda8d4)" d="M 324.186157 245.562095 
L 324.982308 245.562095 
L 324.982308 245.562095 
L 324.186157 245.562095 
z
" style="fill:#1f77b4;"/>
   </g>
   <g id="patch_43">
    <path clip-path="url(#p0153eda8d4)" d="M 324.982308 245.562095 
L 325.778458 245.562095 
L 325.778458 245.562095 
L 324.982308 245.562095 
z
" style="fill:#1f77b4;"/>
   </g>
   <g id="patch_44">
    <path clip-path="url(#p0153eda8d4)" d="M 325.778458 245.562095 
L 326.574609 245.562095 
L 326.574609 243.774603 
L 325.778458 243.774603 
z
" style="fill:#1f77b4;"/>
   </g>
   <g id="patch_45">
    <path clip-path="url(#p0153eda8d4)" d="M 326.574609 245.562095 
L 327.370759 245.562095 
L 327.370759 243.774603 
L 326.574609 243.774603 
z
" style="fill:#1f77b4;"/>
   </g>
   <g id="patch_46">
    <path clip-path="url(#p0153eda8d4)" d="M 327.370759 245.562095 
L 328.16691 245.562095 
L 328.16691 243.774603 
L 327.370759 243.774603 
z
" style="fill:#1f77b4;"/>
   </g>
   <g id="patch_47">
    <path clip-path="url(#p0153eda8d4)" d="M 328.16691 245.562095 
L 328.96306 245.562095 
L 328.96306 245.562095 
L 328.16691 245.562095 
z
" style="fill:#1f77b4;"/>
   </g>
   <g id="patch_48">
    <path clip-path="url(#p0153eda8d4)" d="M 328.96306 245.562095 
L 329.759211 245.562095 
L 329.759211 245.562095 
L 328.96306 245.562095 
z
" style="fill:#1f77b4;"/>
   </g>
   <g id="patch_49">
    <path clip-path="url(#p0153eda8d4)" d="M 329.759211 245.562095 
L 330.555361 245.562095 
L 330.555361 243.774603 
L 329.759211 243.774603 
z
" style="fill:#1f77b4;"/>
   </g>
   <g id="patch_50">
    <path clip-path="url(#p0153eda8d4)" d="M 330.555361 245.562095 
L 331.351512 245.562095 
L 331.351512 243.774603 
L 330.555361 243.774603 
z
" style="fill:#1f77b4;"/>
   </g>
   <g id="patch_51">
    <path clip-path="url(#p0153eda8d4)" d="M 331.351512 245.562095 
L 332.147662 245.562095 
L 332.147662 243.774603 
L 331.351512 243.774603 
z
" style="fill:#1f77b4;"/>
   </g>
   <g id="patch_52">
    <path clip-path="url(#p0153eda8d4)" d="M 332.147662 245.562095 
L 332.943813 245.562095 
L 332.943813 243.774603 
L 332.147662 243.774603 
z
" style="fill:#1f77b4;"/>
   </g>
   <g id="patch_53">
    <path clip-path="url(#p0153eda8d4)" d="M 332.943813 245.562095 
L 333.739963 245.562095 
L 333.739963 240.199618 
L 332.943813 240.199618 
z
" style="fill:#1f77b4;"/>
   </g>
   <g id="patch_54">
    <path clip-path="url(#p0153eda8d4)" d="M 333.739963 245.562095 
L 334.536114 245.562095 
L 334.536114 245.562095 
L 333.739963 245.562095 
z
" style="fill:#1f77b4;"/>
   </g>
   <g id="patch_55">
    <path clip-path="url(#p0153eda8d4)" d="M 334.536114 245.562095 
L 335.332264 245.562095 
L 335.332264 243.774603 
L 334.536114 243.774603 
z
" style="fill:#1f77b4;"/>
   </g>
   <g id="patch_56">
    <path clip-path="url(#p0153eda8d4)" d="M 335.332264 245.562095 
L 336.128415 245.562095 
L 336.128415 240.199618 
L 335.332264 240.199618 
z
" style="fill:#1f77b4;"/>
   </g>
   <g id="patch_57">
    <path clip-path="url(#p0153eda8d4)" d="M 336.128415 245.562095 
L 336.924565 245.562095 
L 336.924565 240.199618 
L 336.128415 240.199618 
z
" style="fill:#1f77b4;"/>
   </g>
   <g id="patch_58">
    <path clip-path="url(#p0153eda8d4)" d="M 336.924565 245.562095 
L 337.720716 245.562095 
L 337.720716 241.987111 
L 336.924565 241.987111 
z
" style="fill:#1f77b4;"/>
   </g>
   <g id="patch_59">
    <path clip-path="url(#p0153eda8d4)" d="M 337.720716 245.562095 
L 338.516866 245.562095 
L 338.516866 243.774603 
L 337.720716 243.774603 
z
" style="fill:#1f77b4;"/>
   </g>
   <g id="patch_60">
    <path clip-path="url(#p0153eda8d4)" d="M 338.516866 245.562095 
L 339.313017 245.562095 
L 339.313017 241.987111 
L 338.516866 241.987111 
z
" style="fill:#1f77b4;"/>
   </g>
   <g id="patch_61">
    <path clip-path="url(#p0153eda8d4)" d="M 339.313017 245.562095 
L 340.109167 245.562095 
L 340.109167 241.987111 
L 339.313017 241.987111 
z
" style="fill:#1f77b4;"/>
   </g>
   <g id="patch_62">
    <path clip-path="url(#p0153eda8d4)" d="M 340.109167 245.562095 
L 340.905318 245.562095 
L 340.905318 241.987111 
L 340.109167 241.987111 
z
" style="fill:#1f77b4;"/>
   </g>
   <g id="patch_63">
    <path clip-path="url(#p0153eda8d4)" d="M 340.905318 245.562095 
L 341.701468 245.562095 
L 341.701468 238.412126 
L 340.905318 238.412126 
z
" style="fill:#1f77b4;"/>
   </g>
   <g id="patch_64">
    <path clip-path="url(#p0153eda8d4)" d="M 341.701468 245.562095 
L 342.497619 245.562095 
L 342.497619 240.199618 
L 341.701468 240.199618 
z
" style="fill:#1f77b4;"/>
   </g>
   <g id="patch_65">
    <path clip-path="url(#p0153eda8d4)" d="M 342.497619 245.562095 
L 343.293769 245.562095 
L 343.293769 234.837142 
L 342.497619 234.837142 
z
" style="fill:#1f77b4;"/>
   </g>
   <g id="patch_66">
    <path clip-path="url(#p0153eda8d4)" d="M 343.293769 245.562095 
L 344.08992 245.562095 
L 344.08992 241.987111 
L 343.293769 241.987111 
z
" style="fill:#1f77b4;"/>
   </g>
   <g id="patch_67">
    <path clip-path="url(#p0153eda8d4)" d="M 344.08992 245.562095 
L 344.88607 245.562095 
L 344.88607 234.837142 
L 344.08992 234.837142 
z
" style="fill:#1f77b4;"/>
   </g>
   <g id="patch_68">
    <path clip-path="url(#p0153eda8d4)" d="M 344.88607 245.562095 
L 345.682221 245.562095 
L 345.682221 231.262157 
L 344.88607 231.262157 
z
" style="fill:#1f77b4;"/>
   </g>
   <g id="patch_69">
    <path clip-path="url(#p0153eda8d4)" d="M 345.682221 245.562095 
L 346.478371 245.562095 
L 346.478371 238.412126 
L 345.682221 238.412126 
z
" style="fill:#1f77b4;"/>
   </g>
   <g id="patch_70">
    <path clip-path="url(#p0153eda8d4)" d="M 346.478371 245.562095 
L 347.274521 245.562095 
L 347.274521 240.199618 
L 346.478371 240.199618 
z
" style="fill:#1f77b4;"/>
   </g>
   <g id="patch_71">
    <path clip-path="url(#p0153eda8d4)" d="M 347.274521 245.562095 
L 348.070672 245.562095 
L 348.070672 233.049649 
L 347.274521 233.049649 
z
" style="fill:#1f77b4;"/>
   </g>
   <g id="patch_72">
    <path clip-path="url(#p0153eda8d4)" d="M 348.070672 245.562095 
L 348.866822 245.562095 
L 348.866822 238.412126 
L 348.070672 238.412126 
z
" style="fill:#1f77b4;"/>
   </g>
   <g id="patch_73">
    <path clip-path="url(#p0153eda8d4)" d="M 348.866822 245.562095 
L 349.662973 245.562095 
L 349.662973 238.412126 
L 348.866822 238.412126 
z
" style="fill:#1f77b4;"/>
   </g>
   <g id="patch_74">
    <path clip-path="url(#p0153eda8d4)" d="M 349.662973 245.562095 
L 350.459123 245.562095 
L 350.459123 238.412126 
L 349.662973 238.412126 
z
" style="fill:#1f77b4;"/>
   </g>
   <g id="patch_75">
    <path clip-path="url(#p0153eda8d4)" d="M 350.459123 245.562095 
L 351.255274 245.562095 
L 351.255274 229.474665 
L 350.459123 229.474665 
z
" style="fill:#1f77b4;"/>
   </g>
   <g id="patch_76">
    <path clip-path="url(#p0153eda8d4)" d="M 351.255274 245.562095 
L 352.051424 245.562095 
L 352.051424 224.112188 
L 351.255274 224.112188 
z
" style="fill:#1f77b4;"/>
   </g>
   <g id="patch_77">
    <path clip-path="url(#p0153eda8d4)" d="M 352.051424 245.562095 
L 352.847575 245.562095 
L 352.847575 234.837142 
L 352.051424 234.837142 
z
" style="fill:#1f77b4;"/>
   </g>
   <g id="patch_78">
    <path clip-path="url(#p0153eda8d4)" d="M 352.847575 245.562095 
L 353.643725 245.562095 
L 353.643725 238.412126 
L 352.847575 238.412126 
z
" style="fill:#1f77b4;"/>
   </g>
   <g id="patch_79">
    <path clip-path="url(#p0153eda8d4)" d="M 353.643725 245.562095 
L 354.439876 245.562095 
L 354.439876 231.262157 
L 353.643725 231.262157 
z
" style="fill:#1f77b4;"/>
   </g>
   <g id="patch_80">
    <path clip-path="url(#p0153eda8d4)" d="M 354.439876 245.562095 
L 355.236026 245.562095 
L 355.236026 233.049649 
L 354.439876 233.049649 
z
" style="fill:#1f77b4;"/>
   </g>
   <g id="patch_81">
    <path clip-path="url(#p0153eda8d4)" d="M 355.236026 245.562095 
L 356.032177 245.562095 
L 356.032177 222.324696 
L 355.236026 222.324696 
z
" style="fill:#1f77b4;"/>
   </g>
   <g id="patch_82">
    <path clip-path="url(#p0153eda8d4)" d="M 356.032177 245.562095 
L 356.828327 245.562095 
L 356.828327 225.89968 
L 356.032177 225.89968 
z
" style="fill:#1f77b4;"/>
   </g>
   <g id="patch_83">
    <path clip-path="url(#p0153eda8d4)" d="M 356.828327 245.562095 
L 357.624478 245.562095 
L 357.624478 233.049649 
L 356.828327 233.049649 
z
" style="fill:#1f77b4;"/>
   </g>
   <g id="patch_84">
    <path clip-path="url(#p0153eda8d4)" d="M 357.624478 245.562095 
L 358.420628 245.562095 
L 358.420628 225.89968 
L 357.624478 225.89968 
z
" style="fill:#1f77b4;"/>
   </g>
   <g id="patch_85">
    <path clip-path="url(#p0153eda8d4)" d="M 358.420628 245.562095 
L 359.216779 245.562095 
L 359.216779 218.749711 
L 358.420628 218.749711 
z
" style="fill:#1f77b4;"/>
   </g>
   <g id="patch_86">
    <path clip-path="url(#p0153eda8d4)" d="M 359.216779 245.562095 
L 360.012929 245.562095 
L 360.012929 227.687172 
L 359.216779 227.687172 
z
" style="fill:#1f77b4;"/>
   </g>
   <g id="patch_87">
    <path clip-path="url(#p0153eda8d4)" d="M 360.012929 245.562095 
L 360.80908 245.562095 
L 360.80908 227.687172 
L 360.012929 227.687172 
z
" style="fill:#1f77b4;"/>
   </g>
   <g id="patch_88">
    <path clip-path="url(#p0153eda8d4)" d="M 360.80908 245.562095 
L 361.60523 245.562095 
L 361.60523 229.474665 
L 360.80908 229.474665 
z
" style="fill:#1f77b4;"/>
   </g>
   <g id="patch_89">
    <path clip-path="url(#p0153eda8d4)" d="M 361.60523 245.562095 
L 362.401381 245.562095 
L 362.401381 216.962219 
L 361.60523 216.962219 
z
" style="fill:#1f77b4;"/>
   </g>
   <g id="patch_90">
    <path clip-path="url(#p0153eda8d4)" d="M 362.401381 245.562095 
L 363.197531 245.562095 
L 363.197531 206.237265 
L 362.401381 206.237265 
z
" style="fill:#1f77b4;"/>
   </g>
   <g id="patch_91">
    <path clip-path="url(#p0153eda8d4)" d="M 363.197531 245.562095 
L 363.993682 245.562095 
L 363.993682 224.112188 
L 363.197531 224.112188 
z
" style="fill:#1f77b4;"/>
   </g>
   <g id="patch_92">
    <path clip-path="url(#p0153eda8d4)" d="M 363.993682 245.562095 
L 364.789832 245.562095 
L 364.789832 213.387234 
L 363.993682 213.387234 
z
" style="fill:#1f77b4;"/>
   </g>
   <g id="patch_93">
    <path clip-path="url(#p0153eda8d4)" d="M 364.789832 245.562095 
L 365.585983 245.562095 
L 365.585983 224.112188 
L 364.789832 224.112188 
z
" style="fill:#1f77b4;"/>
   </g>
   <g id="patch_94">
    <path clip-path="url(#p0153eda8d4)" d="M 365.585983 245.562095 
L 366.382133 245.562095 
L 366.382133 227.687172 
L 365.585983 227.687172 
z
" style="fill:#1f77b4;"/>
   </g>
   <g id="patch_95">
    <path clip-path="url(#p0153eda8d4)" d="M 366.382133 245.562095 
L 367.178284 245.562095 
L 367.178284 211.599742 
L 366.382133 211.599742 
z
" style="fill:#1f77b4;"/>
   </g>
   <g id="patch_96">
    <path clip-path="url(#p0153eda8d4)" d="M 367.178284 245.562095 
L 367.974434 245.562095 
L 367.974434 206.237265 
L 367.178284 206.237265 
z
" style="fill:#1f77b4;"/>
   </g>
   <g id="patch_97">
    <path clip-path="url(#p0153eda8d4)" d="M 367.974434 245.562095 
L 368.770585 245.562095 
L 368.770585 202.662281 
L 367.974434 202.662281 
z
" style="fill:#1f77b4;"/>
   </g>
   <g id="patch_98">
    <path clip-path="url(#p0153eda8d4)" d="M 368.770585 245.562095 
L 369.566735 245.562095 
L 369.566735 209.81225 
L 368.770585 209.81225 
z
" style="fill:#1f77b4;"/>
   </g>
   <g id="patch_99">
    <path clip-path="url(#p0153eda8d4)" d="M 369.566735 245.562095 
L 370.362886 245.562095 
L 370.362886 206.237265 
L 369.566735 206.237265 
z
" style="fill:#1f77b4;"/>
   </g>
   <g id="patch_100">
    <path clip-path="url(#p0153eda8d4)" d="M 370.362886 245.562095 
L 371.159036 245.562095 
L 371.159036 211.599742 
L 370.362886 211.599742 
z
" style="fill:#1f77b4;"/>
   </g>
   <g id="patch_101">
    <path clip-path="url(#p0153eda8d4)" d="M 371.159036 245.562095 
L 371.955187 245.562095 
L 371.955187 213.387234 
L 371.159036 213.387234 
z
" style="fill:#1f77b4;"/>
   </g>
   <g id="patch_102">
    <path clip-path="url(#p0153eda8d4)" d="M 371.955187 245.562095 
L 372.751337 245.562095 
L 372.751337 204.449773 
L 371.955187 204.449773 
z
" style="fill:#1f77b4;"/>
   </g>
   <g id="patch_103">
    <path clip-path="url(#p0153eda8d4)" d="M 372.751337 245.562095 
L 373.547488 245.562095 
L 373.547488 197.299804 
L 372.751337 197.299804 
z
" style="fill:#1f77b4;"/>
   </g>
   <g id="patch_104">
    <path clip-path="url(#p0153eda8d4)" d="M 373.547488 245.562095 
L 374.343638 245.562095 
L 374.343638 170.48742 
L 373.547488 170.48742 
z
" style="fill:#1f77b4;"/>
   </g>
   <g id="patch_105">
    <path clip-path="url(#p0153eda8d4)" d="M 374.343638 245.562095 
L 375.139789 245.562095 
L 375.139789 177.637389 
L 374.343638 177.637389 
z
" style="fill:#1f77b4;"/>
   </g>
   <g id="patch_106">
    <path clip-path="url(#p0153eda8d4)" d="M 375.139789 245.562095 
L 375.935939 245.562095 
L 375.935939 195.512311 
L 375.139789 195.512311 
z
" style="fill:#1f77b4;"/>
   </g>
   <g id="patch_107">
    <path clip-path="url(#p0153eda8d4)" d="M 375.935939 245.562095 
L 376.73209 245.562095 
L 376.73209 156.187481 
L 375.935939 156.187481 
z
" style="fill:#1f77b4;"/>
   </g>
   <g id="patch_108">
    <path clip-path="url(#p0153eda8d4)" d="M 376.73209 245.562095 
L 377.52824 245.562095 
L 377.52824 190.149835 
L 376.73209 190.149835 
z
" style="fill:#1f77b4;"/>
   </g>
   <g id="patch_109">
    <path clip-path="url(#p0153eda8d4)" d="M 377.52824 245.562095 
L 378.324391 245.562095 
L 378.324391 184.787358 
L 377.52824 184.787358 
z
" style="fill:#1f77b4;"/>
   </g>
   <g id="patch_110">
    <path clip-path="url(#p0153eda8d4)" d="M 378.324391 245.562095 
L 379.120541 245.562095 
L 379.120541 179.424881 
L 378.324391 179.424881 
z
" style="fill:#1f77b4;"/>
   </g>
   <g id="patch_111">
    <path clip-path="url(#p0153eda8d4)" d="M 379.120541 245.562095 
L 379.916691 245.562095 
L 379.916691 168.699927 
L 379.120541 168.699927 
z
" style="fill:#1f77b4;"/>
   </g>
   <g id="patch_112">
    <path clip-path="url(#p0153eda8d4)" d="M 379.916691 245.562095 
L 380.712842 245.562095 
L 380.712842 166.912435 
L 379.916691 166.912435 
z
" style="fill:#1f77b4;"/>
   </g>
   <g id="patch_113">
    <path clip-path="url(#p0153eda8d4)" d="M 380.712842 245.562095 
L 381.508992 245.562095 
L 381.508992 177.637389 
L 380.712842 177.637389 
z
" style="fill:#1f77b4;"/>
   </g>
   <g id="patch_114">
    <path clip-path="url(#p0153eda8d4)" d="M 381.508992 245.562095 
L 382.305143 245.562095 
L 382.305143 186.57485 
L 381.508992 186.57485 
z
" style="fill:#1f77b4;"/>
   </g>
   <g id="patch_115">
    <path clip-path="url(#p0153eda8d4)" d="M 382.305143 245.562095 
L 383.101293 245.562095 
L 383.101293 170.48742 
L 382.305143 170.48742 
z
" style="fill:#1f77b4;"/>
   </g>
   <g id="patch_116">
    <path clip-path="url(#p0153eda8d4)" d="M 383.101293 245.562095 
L 383.897444 245.562095 
L 383.897444 181.212373 
L 383.101293 181.212373 
z
" style="fill:#1f77b4;"/>
   </g>
   <g id="patch_117">
    <path clip-path="url(#p0153eda8d4)" d="M 383.897444 245.562095 
L 384.693594 245.562095 
L 384.693594 175.849896 
L 383.897444 175.849896 
z
" style="fill:#1f77b4;"/>
   </g>
   <g id="patch_118">
    <path clip-path="url(#p0153eda8d4)" d="M 384.693594 245.562095 
L 385.489745 245.562095 
L 385.489745 170.48742 
L 384.693594 170.48742 
z
" style="fill:#1f77b4;"/>
   </g>
   <g id="patch_119">
    <path clip-path="url(#p0153eda8d4)" d="M 385.489745 245.562095 
L 386.285895 245.562095 
L 386.285895 163.33745 
L 385.489745 163.33745 
z
" style="fill:#1f77b4;"/>
   </g>
   <g id="patch_120">
    <path clip-path="url(#p0153eda8d4)" d="M 386.285895 245.562095 
L 387.082046 245.562095 
L 387.082046 165.124943 
L 386.285895 165.124943 
z
" style="fill:#1f77b4;"/>
   </g>
   <g id="patch_121">
    <path clip-path="url(#p0153eda8d4)" d="M 387.082046 245.562095 
L 387.878196 245.562095 
L 387.878196 157.974974 
L 387.082046 157.974974 
z
" style="fill:#1f77b4;"/>
   </g>
   <g id="patch_122">
    <path clip-path="url(#p0153eda8d4)" d="M 387.878196 245.562095 
L 388.674347 245.562095 
L 388.674347 140.100051 
L 387.878196 140.100051 
z
" style="fill:#1f77b4;"/>
   </g>
   <g id="patch_123">
    <path clip-path="url(#p0153eda8d4)" d="M 388.674347 245.562095 
L 389.470497 245.562095 
L 389.470497 134.737574 
L 388.674347 134.737574 
z
" style="fill:#1f77b4;"/>
   </g>
   <g id="patch_124">
    <path clip-path="url(#p0153eda8d4)" d="M 389.470497 245.562095 
L 390.266648 245.562095 
L 390.266648 172.274912 
L 389.470497 172.274912 
z
" style="fill:#1f77b4;"/>
   </g>
   <g id="patch_125">
    <path clip-path="url(#p0153eda8d4)" d="M 390.266648 245.562095 
L 391.062798 245.562095 
L 391.062798 156.187481 
L 390.266648 156.187481 
z
" style="fill:#1f77b4;"/>
   </g>
   <g id="patch_126">
    <path clip-path="url(#p0153eda8d4)" d="M 391.062798 245.562095 
L 391.858949 245.562095 
L 391.858949 149.037512 
L 391.062798 149.037512 
z
" style="fill:#1f77b4;"/>
   </g>
   <g id="patch_127">
    <path clip-path="url(#p0153eda8d4)" d="M 391.858949 245.562095 
L 392.655099 245.562095 
L 392.655099 157.974974 
L 391.858949 157.974974 
z
" style="fill:#1f77b4;"/>
   </g>
   <g id="patch_128">
    <path clip-path="url(#p0153eda8d4)" d="M 392.655099 245.562095 
L 393.45125 245.562095 
L 393.45125 116.862651 
L 392.655099 116.862651 
z
" style="fill:#1f77b4;"/>
   </g>
   <g id="patch_129">
    <path clip-path="url(#p0153eda8d4)" d="M 393.45125 245.562095 
L 394.2474 245.562095 
L 394.2474 127.587605 
L 393.45125 127.587605 
z
" style="fill:#1f77b4;"/>
   </g>
   <g id="patch_130">
    <path clip-path="url(#p0153eda8d4)" d="M 394.2474 245.562095 
L 395.043551 245.562095 
L 395.043551 145.462528 
L 394.2474 145.462528 
z
" style="fill:#1f77b4;"/>
   </g>
   <g id="patch_131">
    <path clip-path="url(#p0153eda8d4)" d="M 395.043551 245.562095 
L 395.839701 245.562095 
L 395.839701 145.462528 
L 395.043551 145.462528 
z
" style="fill:#1f77b4;"/>
   </g>
   <g id="patch_132">
    <path clip-path="url(#p0153eda8d4)" d="M 395.839701 245.562095 
L 396.635852 245.562095 
L 396.635852 138.312559 
L 395.839701 138.312559 
z
" style="fill:#1f77b4;"/>
   </g>
   <g id="patch_133">
    <path clip-path="url(#p0153eda8d4)" d="M 396.635852 245.562095 
L 397.432002 245.562095 
L 397.432002 145.462528 
L 396.635852 145.462528 
z
" style="fill:#1f77b4;"/>
   </g>
   <g id="patch_134">
    <path clip-path="url(#p0153eda8d4)" d="M 397.432002 245.562095 
L 398.228153 245.562095 
L 398.228153 109.712682 
L 397.432002 109.712682 
z
" style="fill:#1f77b4;"/>
   </g>
   <g id="patch_135">
    <path clip-path="url(#p0153eda8d4)" d="M 398.228153 245.562095 
L 399.024303 245.562095 
L 399.024303 113.287667 
L 398.228153 113.287667 
z
" style="fill:#1f77b4;"/>
   </g>
   <g id="patch_136">
    <path clip-path="url(#p0153eda8d4)" d="M 399.024303 245.562095 
L 399.820454 245.562095 
L 399.820454 136.525066 
L 399.024303 136.525066 
z
" style="fill:#1f77b4;"/>
   </g>
   <g id="patch_137">
    <path clip-path="url(#p0153eda8d4)" d="M 399.820454 245.562095 
L 400.616604 245.562095 
L 400.616604 113.287667 
L 399.820454 113.287667 
z
" style="fill:#1f77b4;"/>
   </g>
   <g id="patch_138">
    <path clip-path="url(#p0153eda8d4)" d="M 400.616604 245.562095 
L 401.412755 245.562095 
L 401.412755 122.225128 
L 400.616604 122.225128 
z
" style="fill:#1f77b4;"/>
   </g>
   <g id="patch_139">
    <path clip-path="url(#p0153eda8d4)" d="M 401.412755 245.562095 
L 402.208905 245.562095 
L 402.208905 88.262775 
L 401.412755 88.262775 
z
" style="fill:#1f77b4;"/>
   </g>
   <g id="patch_140">
    <path clip-path="url(#p0153eda8d4)" d="M 402.208905 245.562095 
L 403.005056 245.562095 
L 403.005056 86.475282 
L 402.208905 86.475282 
z
" style="fill:#1f77b4;"/>
   </g>
   <g id="patch_141">
    <path clip-path="url(#p0153eda8d4)" d="M 403.005056 245.562095 
L 403.801206 245.562095 
L 403.801206 90.050267 
L 403.005056 90.050267 
z
" style="fill:#1f77b4;"/>
   </g>
   <g id="patch_142">
    <path clip-path="url(#p0153eda8d4)" d="M 403.801206 245.562095 
L 404.597357 245.562095 
L 404.597357 111.500174 
L 403.801206 111.500174 
z
" style="fill:#1f77b4;"/>
   </g>
   <g id="patch_143">
    <path clip-path="url(#p0153eda8d4)" d="M 404.597357 245.562095 
L 405.393507 245.562095 
L 405.393507 84.68779 
L 404.597357 84.68779 
z
" style="fill:#1f77b4;"/>
   </g>
   <g id="patch_144">
    <path clip-path="url(#p0153eda8d4)" d="M 405.393507 245.562095 
L 406.189658 245.562095 
L 406.189658 106.137698 
L 405.393507 106.137698 
z
" style="fill:#1f77b4;"/>
   </g>
   <g id="patch_145">
    <path clip-path="url(#p0153eda8d4)" d="M 406.189658 245.562095 
L 406.985808 245.562095 
L 406.985808 79.325313 
L 406.189658 79.325313 
z
" style="fill:#1f77b4;"/>
   </g>
   <g id="patch_146">
    <path clip-path="url(#p0153eda8d4)" d="M 406.985808 245.562095 
L 407.781959 245.562095 
L 407.781959 91.837759 
L 406.985808 91.837759 
z
" style="fill:#1f77b4;"/>
   </g>
   <g id="patch_147">
    <path clip-path="url(#p0153eda8d4)" d="M 407.781959 245.562095 
L 408.578109 245.562095 
L 408.578109 97.200236 
L 407.781959 97.200236 
z
" style="fill:#1f77b4;"/>
   </g>
   <g id="patch_148">
    <path clip-path="url(#p0153eda8d4)" d="M 408.578109 245.562095 
L 409.37426 245.562095 
L 409.37426 86.475282 
L 408.578109 86.475282 
z
" style="fill:#1f77b4;"/>
   </g>
   <g id="patch_149">
    <path clip-path="url(#p0153eda8d4)" d="M 409.37426 245.562095 
L 410.17041 245.562095 
L 410.17041 113.287667 
L 409.37426 113.287667 
z
" style="fill:#1f77b4;"/>
   </g>
   <g id="patch_150">
    <path clip-path="url(#p0153eda8d4)" d="M 410.17041 245.562095 
L 410.966561 245.562095 
L 410.966561 72.175344 
L 410.17041 72.175344 
z
" style="fill:#1f77b4;"/>
   </g>
   <g id="patch_151">
    <path clip-path="url(#p0153eda8d4)" d="M 410.966561 245.562095 
L 411.762711 245.562095 
L 411.762711 81.112806 
L 410.966561 81.112806 
z
" style="fill:#1f77b4;"/>
   </g>
   <g id="patch_152">
    <path clip-path="url(#p0153eda8d4)" d="M 411.762711 245.562095 
L 412.558861 245.562095 
L 412.558861 93.625252 
L 411.762711 93.625252 
z
" style="fill:#1f77b4;"/>
   </g>
   <g id="patch_153">
    <path clip-path="url(#p0153eda8d4)" d="M 412.558861 245.562095 
L 413.355012 245.562095 
L 413.355012 97.200236 
L 412.558861 97.200236 
z
" style="fill:#1f77b4;"/>
   </g>
   <g id="patch_154">
    <path clip-path="url(#p0153eda8d4)" d="M 413.355012 245.562095 
L 414.151162 245.562095 
L 414.151162 68.60036 
L 413.355012 68.60036 
z
" style="fill:#1f77b4;"/>
   </g>
   <g id="patch_155">
    <path clip-path="url(#p0153eda8d4)" d="M 414.151162 245.562095 
L 414.947313 245.562095 
L 414.947313 59.662898 
L 414.151162 59.662898 
z
" style="fill:#1f77b4;"/>
   </g>
   <g id="patch_156">
    <path clip-path="url(#p0153eda8d4)" d="M 414.947313 245.562095 
L 415.743463 245.562095 
L 415.743463 86.475282 
L 414.947313 86.475282 
z
" style="fill:#1f77b4;"/>
   </g>
   <g id="patch_157">
    <path clip-path="url(#p0153eda8d4)" d="M 415.743463 245.562095 
L 416.539614 245.562095 
L 416.539614 73.962837 
L 415.743463 73.962837 
z
" style="fill:#1f77b4;"/>
   </g>
   <g id="patch_158">
    <path clip-path="url(#p0153eda8d4)" d="M 416.539614 245.562095 
L 417.335764 245.562095 
L 417.335764 23.913053 
L 416.539614 23.913053 
z
" style="fill:#1f77b4;"/>
   </g>
   <g id="patch_159">
    <path clip-path="url(#p0153eda8d4)" d="M 417.335764 245.562095 
L 418.131915 245.562095 
L 418.131915 81.112806 
L 417.335764 81.112806 
z
" style="fill:#1f77b4;"/>
   </g>
   <g id="patch_160">
    <path clip-path="url(#p0153eda8d4)" d="M 418.131915 245.562095 
L 418.928065 245.562095 
L 418.928065 100.775221 
L 418.131915 100.775221 
z
" style="fill:#1f77b4;"/>
   </g>
   <g id="patch_161">
    <path clip-path="url(#p0153eda8d4)" d="M 418.928065 245.562095 
L 419.724216 245.562095 
L 419.724216 81.112806 
L 418.928065 81.112806 
z
" style="fill:#1f77b4;"/>
   </g>
   <g id="patch_162">
    <path clip-path="url(#p0153eda8d4)" d="M 419.724216 245.562095 
L 420.520366 245.562095 
L 420.520366 81.112806 
L 419.724216 81.112806 
z
" style="fill:#1f77b4;"/>
   </g>
   <g id="patch_163">
    <path clip-path="url(#p0153eda8d4)" d="M 420.520366 245.562095 
L 421.316517 245.562095 
L 421.316517 84.68779 
L 420.520366 84.68779 
z
" style="fill:#1f77b4;"/>
   </g>
   <g id="patch_164">
    <path clip-path="url(#p0153eda8d4)" d="M 421.316517 245.562095 
L 422.112667 245.562095 
L 422.112667 47.150452 
L 421.316517 47.150452 
z
" style="fill:#1f77b4;"/>
   </g>
   <g id="patch_165">
    <path clip-path="url(#p0153eda8d4)" d="M 422.112667 245.562095 
L 422.908818 245.562095 
L 422.908818 75.750329 
L 422.112667 75.750329 
z
" style="fill:#1f77b4;"/>
   </g>
   <g id="patch_166">
    <path clip-path="url(#p0153eda8d4)" d="M 422.908818 245.562095 
L 423.704968 245.562095 
L 423.704968 73.962837 
L 422.908818 73.962837 
z
" style="fill:#1f77b4;"/>
   </g>
   <g id="patch_167">
    <path clip-path="url(#p0153eda8d4)" d="M 423.704968 245.562095 
L 424.501119 245.562095 
L 424.501119 18.550576 
L 423.704968 18.550576 
z
" style="fill:#1f77b4;"/>
   </g>
   <g id="patch_168">
    <path clip-path="url(#p0153eda8d4)" d="M 424.501119 245.562095 
L 425.297269 245.562095 
L 425.297269 65.025375 
L 424.501119 65.025375 
z
" style="fill:#1f77b4;"/>
   </g>
   <g id="patch_169">
    <path clip-path="url(#p0153eda8d4)" d="M 425.297269 245.562095 
L 426.09342 245.562095 
L 426.09342 98.987728 
L 425.297269 98.987728 
z
" style="fill:#1f77b4;"/>
   </g>
   <g id="patch_170">
    <path clip-path="url(#p0153eda8d4)" d="M 426.09342 245.562095 
L 426.88957 245.562095 
L 426.88957 65.025375 
L 426.09342 65.025375 
z
" style="fill:#1f77b4;"/>
   </g>
   <g id="patch_171">
    <path clip-path="url(#p0153eda8d4)" d="M 426.88957 245.562095 
L 427.685721 245.562095 
L 427.685721 77.537821 
L 426.88957 77.537821 
z
" style="fill:#1f77b4;"/>
   </g>
   <g id="patch_172">
    <path clip-path="url(#p0153eda8d4)" d="M 427.685721 245.562095 
L 428.481871 245.562095 
L 428.481871 73.962837 
L 427.685721 73.962837 
z
" style="fill:#1f77b4;"/>
   </g>
   <g id="patch_173">
    <path clip-path="url(#p0153eda8d4)" d="M 428.481871 245.562095 
L 429.278022 245.562095 
L 429.278022 18.550576 
L 428.481871 18.550576 
z
" style="fill:#1f77b4;"/>
   </g>
   <g id="patch_174">
    <path clip-path="url(#p0153eda8d4)" d="M 429.278022 245.562095 
L 430.074172 245.562095 
L 430.074172 70.387852 
L 429.278022 70.387852 
z
" style="fill:#1f77b4;"/>
   </g>
   <g id="patch_175">
    <path clip-path="url(#p0153eda8d4)" d="M 430.074172 245.562095 
L 430.870323 245.562095 
L 430.870323 70.387852 
L 430.074172 70.387852 
z
" style="fill:#1f77b4;"/>
   </g>
   <g id="patch_176">
    <path clip-path="url(#p0153eda8d4)" d="M 430.870323 245.562095 
L 431.666473 245.562095 
L 431.666473 104.350205 
L 430.870323 104.350205 
z
" style="fill:#1f77b4;"/>
   </g>
   <g id="patch_177">
    <path clip-path="url(#p0153eda8d4)" d="M 431.666473 245.562095 
L 432.462624 245.562095 
L 432.462624 48.937945 
L 431.666473 48.937945 
z
" style="fill:#1f77b4;"/>
   </g>
   <g id="patch_178">
    <path clip-path="url(#p0153eda8d4)" d="M 432.462624 245.562095 
L 433.258774 245.562095 
L 433.258774 82.900298 
L 432.462624 82.900298 
z
" style="fill:#1f77b4;"/>
   </g>
   <g id="patch_179">
    <path clip-path="url(#p0153eda8d4)" d="M 433.258774 245.562095 
L 434.054925 245.562095 
L 434.054925 111.500174 
L 433.258774 111.500174 
z
" style="fill:#1f77b4;"/>
   </g>
   <g id="patch_180">
    <path clip-path="url(#p0153eda8d4)" d="M 434.054925 245.562095 
L 434.851075 245.562095 
L 434.851075 54.300422 
L 434.054925 54.300422 
z
" style="fill:#1f77b4;"/>
   </g>
   <g id="patch_181">
    <path clip-path="url(#p0153eda8d4)" d="M 434.851075 245.562095 
L 435.647226 245.562095 
L 435.647226 90.050267 
L 434.851075 90.050267 
z
" style="fill:#1f77b4;"/>
   </g>
   <g id="patch_182">
    <path clip-path="url(#p0153eda8d4)" d="M 435.647226 245.562095 
L 436.443376 245.562095 
L 436.443376 48.937945 
L 435.647226 48.937945 
z
" style="fill:#1f77b4;"/>
   </g>
   <g id="patch_183">
    <path clip-path="url(#p0153eda8d4)" d="M 436.443376 245.562095 
L 437.239527 245.562095 
L 437.239527 95.412744 
L 436.443376 95.412744 
z
" style="fill:#1f77b4;"/>
   </g>
   <g id="patch_184">
    <path clip-path="url(#p0153eda8d4)" d="M 437.239527 245.562095 
L 438.035677 245.562095 
L 438.035677 97.200236 
L 437.239527 97.200236 
z
" style="fill:#1f77b4;"/>
   </g>
   <g id="patch_185">
    <path clip-path="url(#p0153eda8d4)" d="M 438.035677 245.562095 
L 438.831828 245.562095 
L 438.831828 84.68779 
L 438.035677 84.68779 
z
" style="fill:#1f77b4;"/>
   </g>
   <g id="patch_186">
    <path clip-path="url(#p0153eda8d4)" d="M 438.831828 245.562095 
L 439.627978 245.562095 
L 439.627978 98.987728 
L 438.831828 98.987728 
z
" style="fill:#1f77b4;"/>
   </g>
   <g id="patch_187">
    <path clip-path="url(#p0153eda8d4)" d="M 439.627978 245.562095 
L 440.424129 245.562095 
L 440.424129 95.412744 
L 439.627978 95.412744 
z
" style="fill:#1f77b4;"/>
   </g>
   <g id="patch_188">
    <path clip-path="url(#p0153eda8d4)" d="M 440.424129 245.562095 
L 441.220279 245.562095 
L 441.220279 102.562713 
L 440.424129 102.562713 
z
" style="fill:#1f77b4;"/>
   </g>
   <g id="patch_189">
    <path clip-path="url(#p0153eda8d4)" d="M 441.220279 245.562095 
L 442.01643 245.562095 
L 442.01643 113.287667 
L 441.220279 113.287667 
z
" style="fill:#1f77b4;"/>
   </g>
   <g id="patch_190">
    <path clip-path="url(#p0153eda8d4)" d="M 442.01643 245.562095 
L 442.81258 245.562095 
L 442.81258 102.562713 
L 442.01643 102.562713 
z
" style="fill:#1f77b4;"/>
   </g>
   <g id="patch_191">
    <path clip-path="url(#p0153eda8d4)" d="M 442.81258 245.562095 
L 443.608731 245.562095 
L 443.608731 72.175344 
L 442.81258 72.175344 
z
" style="fill:#1f77b4;"/>
   </g>
   <g id="patch_192">
    <path clip-path="url(#p0153eda8d4)" d="M 443.608731 245.562095 
L 444.404881 245.562095 
L 444.404881 97.200236 
L 443.608731 97.200236 
z
" style="fill:#1f77b4;"/>
   </g>
   <g id="patch_193">
    <path clip-path="url(#p0153eda8d4)" d="M 444.404881 245.562095 
L 445.201031 245.562095 
L 445.201031 115.075159 
L 444.404881 115.075159 
z
" style="fill:#1f77b4;"/>
   </g>
   <g id="patch_194">
    <path clip-path="url(#p0153eda8d4)" d="M 445.201031 245.562095 
L 445.997182 245.562095 
L 445.997182 81.112806 
L 445.201031 81.112806 
z
" style="fill:#1f77b4;"/>
   </g>
   <g id="patch_195">
    <path clip-path="url(#p0153eda8d4)" d="M 445.997182 245.562095 
L 446.793332 245.562095 
L 446.793332 91.837759 
L 445.997182 91.837759 
z
" style="fill:#1f77b4;"/>
   </g>
   <g id="patch_196">
    <path clip-path="url(#p0153eda8d4)" d="M 446.793332 245.562095 
L 447.589483 245.562095 
L 447.589483 77.537821 
L 446.793332 77.537821 
z
" style="fill:#1f77b4;"/>
   </g>
   <g id="patch_197">
    <path clip-path="url(#p0153eda8d4)" d="M 447.589483 245.562095 
L 448.385633 245.562095 
L 448.385633 115.075159 
L 447.589483 115.075159 
z
" style="fill:#1f77b4;"/>
   </g>
   <g id="patch_198">
    <path clip-path="url(#p0153eda8d4)" d="M 448.385633 245.562095 
L 449.181784 245.562095 
L 449.181784 109.712682 
L 448.385633 109.712682 
z
" style="fill:#1f77b4;"/>
   </g>
   <g id="patch_199">
    <path clip-path="url(#p0153eda8d4)" d="M 449.181784 245.562095 
L 449.977934 245.562095 
L 449.977934 104.350205 
L 449.181784 104.350205 
z
" style="fill:#1f77b4;"/>
   </g>
   <g id="patch_200">
    <path clip-path="url(#p0153eda8d4)" d="M 449.977934 245.562095 
L 450.774085 245.562095 
L 450.774085 120.437636 
L 449.977934 120.437636 
z
" style="fill:#1f77b4;"/>
   </g>
   <g id="patch_201">
    <path clip-path="url(#p0153eda8d4)" d="M 450.774085 245.562095 
L 451.570235 245.562095 
L 451.570235 140.100051 
L 450.774085 140.100051 
z
" style="fill:#1f77b4;"/>
   </g>
   <g id="patch_202">
    <path clip-path="url(#p0153eda8d4)" d="M 451.570235 245.562095 
L 452.366386 245.562095 
L 452.366386 150.825004 
L 451.570235 150.825004 
z
" style="fill:#1f77b4;"/>
   </g>
   <g id="patch_203">
    <path clip-path="url(#p0153eda8d4)" d="M 452.366386 245.562095 
L 453.162536 245.562095 
L 453.162536 136.525066 
L 452.366386 136.525066 
z
" style="fill:#1f77b4;"/>
   </g>
   <g id="patch_204">
    <path clip-path="url(#p0153eda8d4)" d="M 453.162536 245.562095 
L 453.958687 245.562095 
L 453.958687 140.100051 
L 453.162536 140.100051 
z
" style="fill:#1f77b4;"/>
   </g>
   <g id="patch_205">
    <path clip-path="url(#p0153eda8d4)" d="M 453.958687 245.562095 
L 454.754837 245.562095 
L 454.754837 113.287667 
L 453.958687 113.287667 
z
" style="fill:#1f77b4;"/>
   </g>
   <g id="patch_206">
    <path clip-path="url(#p0153eda8d4)" d="M 454.754837 245.562095 
L 455.550988 245.562095 
L 455.550988 140.100051 
L 454.754837 140.100051 
z
" style="fill:#1f77b4;"/>
   </g>
   <g id="patch_207">
    <path clip-path="url(#p0153eda8d4)" d="M 455.550988 245.562095 
L 456.347138 245.562095 
L 456.347138 125.800113 
L 455.550988 125.800113 
z
" style="fill:#1f77b4;"/>
   </g>
   <g id="patch_208">
    <path clip-path="url(#p0153eda8d4)" d="M 456.347138 245.562095 
L 457.143289 245.562095 
L 457.143289 132.950082 
L 456.347138 132.950082 
z
" style="fill:#1f77b4;"/>
   </g>
   <g id="patch_209">
    <path clip-path="url(#p0153eda8d4)" d="M 457.143289 245.562095 
L 457.939439 245.562095 
L 457.939439 143.675035 
L 457.143289 143.675035 
z
" style="fill:#1f77b4;"/>
   </g>
   <g id="patch_210">
    <path clip-path="url(#p0153eda8d4)" d="M 457.939439 245.562095 
L 458.73559 245.562095 
L 458.73559 149.037512 
L 457.939439 149.037512 
z
" style="fill:#1f77b4;"/>
   </g>
   <g id="patch_211">
    <path clip-path="url(#p0153eda8d4)" d="M 458.73559 245.562095 
L 459.53174 245.562095 
L 459.53174 157.974974 
L 458.73559 157.974974 
z
" style="fill:#1f77b4;"/>
   </g>
   <g id="patch_212">
    <path clip-path="url(#p0153eda8d4)" d="M 459.53174 245.562095 
L 460.327891 245.562095 
L 460.327891 138.312559 
L 459.53174 138.312559 
z
" style="fill:#1f77b4;"/>
   </g>
   <g id="patch_213">
    <path clip-path="url(#p0153eda8d4)" d="M 460.327891 245.562095 
L 461.124041 245.562095 
L 461.124041 122.225128 
L 460.327891 122.225128 
z
" style="fill:#1f77b4;"/>
   </g>
   <g id="patch_214">
    <path clip-path="url(#p0153eda8d4)" d="M 461.124041 245.562095 
L 461.920192 245.562095 
L 461.920192 132.950082 
L 461.124041 132.950082 
z
" style="fill:#1f77b4;"/>
   </g>
   <g id="patch_215">
    <path clip-path="url(#p0153eda8d4)" d="M 461.920192 245.562095 
L 462.716342 245.562095 
L 462.716342 159.762466 
L 461.920192 159.762466 
z
" style="fill:#1f77b4;"/>
   </g>
   <g id="patch_216">
    <path clip-path="url(#p0153eda8d4)" d="M 462.716342 245.562095 
L 463.512493 245.562095 
L 463.512493 157.974974 
L 462.716342 157.974974 
z
" style="fill:#1f77b4;"/>
   </g>
   <g id="patch_217">
    <path clip-path="url(#p0153eda8d4)" d="M 463.512493 245.562095 
L 464.308643 245.562095 
L 464.308643 156.187481 
L 463.512493 156.187481 
z
" style="fill:#1f77b4;"/>
   </g>
   <g id="patch_218">
    <path clip-path="url(#p0153eda8d4)" d="M 464.308643 245.562095 
L 465.104794 245.562095 
L 465.104794 143.675035 
L 464.308643 143.675035 
z
" style="fill:#1f77b4;"/>
   </g>
   <g id="patch_219">
    <path clip-path="url(#p0153eda8d4)" d="M 465.104794 245.562095 
L 465.900944 245.562095 
L 465.900944 174.062404 
L 465.104794 174.062404 
z
" style="fill:#1f77b4;"/>
   </g>
   <g id="patch_220">
    <path clip-path="url(#p0153eda8d4)" d="M 465.900944 245.562095 
L 466.697095 245.562095 
L 466.697095 172.274912 
L 465.900944 172.274912 
z
" style="fill:#1f77b4;"/>
   </g>
   <g id="patch_221">
    <path clip-path="url(#p0153eda8d4)" d="M 466.697095 245.562095 
L 467.493245 245.562095 
L 467.493245 166.912435 
L 466.697095 166.912435 
z
" style="fill:#1f77b4;"/>
   </g>
   <g id="patch_222">
    <path clip-path="url(#p0153eda8d4)" d="M 467.493245 245.562095 
L 468.289396 245.562095 
L 468.289396 172.274912 
L 467.493245 172.274912 
z
" style="fill:#1f77b4;"/>
   </g>
   <g id="patch_223">
    <path clip-path="url(#p0153eda8d4)" d="M 468.289396 245.562095 
L 469.085546 245.562095 
L 469.085546 177.637389 
L 468.289396 177.637389 
z
" style="fill:#1f77b4;"/>
   </g>
   <g id="patch_224">
    <path clip-path="url(#p0153eda8d4)" d="M 469.085546 245.562095 
L 469.881697 245.562095 
L 469.881697 186.57485 
L 469.085546 186.57485 
z
" style="fill:#1f77b4;"/>
   </g>
   <g id="patch_225">
    <path clip-path="url(#p0153eda8d4)" d="M 469.881697 245.562095 
L 470.677847 245.562095 
L 470.677847 199.087296 
L 469.881697 199.087296 
z
" style="fill:#1f77b4;"/>
   </g>
   <g id="patch_226">
    <path clip-path="url(#p0153eda8d4)" d="M 470.677847 245.562095 
L 471.473998 245.562095 
L 471.473998 175.849896 
L 470.677847 175.849896 
z
" style="fill:#1f77b4;"/>
   </g>
   <g id="patch_227">
    <path clip-path="url(#p0153eda8d4)" d="M 471.473998 245.562095 
L 472.270148 245.562095 
L 472.270148 184.787358 
L 471.473998 184.787358 
z
" style="fill:#1f77b4;"/>
   </g>
   <g id="patch_228">
    <path clip-path="url(#p0153eda8d4)" d="M 472.270148 245.562095 
L 473.066299 245.562095 
L 473.066299 186.57485 
L 472.270148 186.57485 
z
" style="fill:#1f77b4;"/>
   </g>
   <g id="patch_229">
    <path clip-path="url(#p0153eda8d4)" d="M 473.066299 245.562095 
L 473.862449 245.562095 
L 473.862449 177.637389 
L 473.066299 177.637389 
z
" style="fill:#1f77b4;"/>
   </g>
   <g id="patch_230">
    <path clip-path="url(#p0153eda8d4)" d="M 473.862449 245.562095 
L 474.6586 245.562095 
L 474.6586 190.149835 
L 473.862449 190.149835 
z
" style="fill:#1f77b4;"/>
   </g>
   <g id="patch_231">
    <path clip-path="url(#p0153eda8d4)" d="M 474.6586 245.562095 
L 475.45475 245.562095 
L 475.45475 193.724819 
L 474.6586 193.724819 
z
" style="fill:#1f77b4;"/>
   </g>
   <g id="patch_232">
    <path clip-path="url(#p0153eda8d4)" d="M 475.45475 245.562095 
L 476.250901 245.562095 
L 476.250901 188.362342 
L 475.45475 188.362342 
z
" style="fill:#1f77b4;"/>
   </g>
   <g id="patch_233">
    <path clip-path="url(#p0153eda8d4)" d="M 476.250901 245.562095 
L 477.047051 245.562095 
L 477.047051 190.149835 
L 476.250901 190.149835 
z
" style="fill:#1f77b4;"/>
   </g>
   <g id="patch_234">
    <path clip-path="url(#p0153eda8d4)" d="M 477.047051 245.562095 
L 477.843201 245.562095 
L 477.843201 188.362342 
L 477.047051 188.362342 
z
" style="fill:#1f77b4;"/>
   </g>
   <g id="patch_235">
    <path clip-path="url(#p0153eda8d4)" d="M 477.843201 245.562095 
L 478.639352 245.562095 
L 478.639352 182.999865 
L 477.843201 182.999865 
z
" style="fill:#1f77b4;"/>
   </g>
   <g id="patch_236">
    <path clip-path="url(#p0153eda8d4)" d="M 478.639352 245.562095 
L 479.435502 245.562095 
L 479.435502 202.662281 
L 478.639352 202.662281 
z
" style="fill:#1f77b4;"/>
   </g>
   <g id="patch_237">
    <path clip-path="url(#p0153eda8d4)" d="M 479.435502 245.562095 
L 480.231653 245.562095 
L 480.231653 200.874788 
L 479.435502 200.874788 
z
" style="fill:#1f77b4;"/>
   </g>
   <g id="patch_238">
    <path clip-path="url(#p0153eda8d4)" d="M 480.231653 245.562095 
L 481.027803 245.562095 
L 481.027803 191.937327 
L 480.231653 191.937327 
z
" style="fill:#1f77b4;"/>
   </g>
   <g id="patch_239">
    <path clip-path="url(#p0153eda8d4)" d="M 481.027803 245.562095 
L 481.823954 245.562095 
L 481.823954 211.599742 
L 481.027803 211.599742 
z
" style="fill:#1f77b4;"/>
   </g>
   <g id="patch_240">
    <path clip-path="url(#p0153eda8d4)" d="M 481.823954 245.562095 
L 482.620104 245.562095 
L 482.620104 193.724819 
L 481.823954 193.724819 
z
" style="fill:#1f77b4;"/>
   </g>
   <g id="patch_241">
    <path clip-path="url(#p0153eda8d4)" d="M 482.620104 245.562095 
L 483.416255 245.562095 
L 483.416255 216.962219 
L 482.620104 216.962219 
z
" style="fill:#1f77b4;"/>
   </g>
   <g id="patch_242">
    <path clip-path="url(#p0153eda8d4)" d="M 483.416255 245.562095 
L 484.212405 245.562095 
L 484.212405 213.387234 
L 483.416255 213.387234 
z
" style="fill:#1f77b4;"/>
   </g>
   <g id="patch_243">
    <path clip-path="url(#p0153eda8d4)" d="M 484.212405 245.562095 
L 485.008556 245.562095 
L 485.008556 213.387234 
L 484.212405 213.387234 
z
" style="fill:#1f77b4;"/>
   </g>
   <g id="patch_244">
    <path clip-path="url(#p0153eda8d4)" d="M 485.008556 245.562095 
L 485.804706 245.562095 
L 485.804706 199.087296 
L 485.008556 199.087296 
z
" style="fill:#1f77b4;"/>
   </g>
   <g id="patch_245">
    <path clip-path="url(#p0153eda8d4)" d="M 485.804706 245.562095 
L 486.600857 245.562095 
L 486.600857 215.174726 
L 485.804706 215.174726 
z
" style="fill:#1f77b4;"/>
   </g>
   <g id="patch_246">
    <path clip-path="url(#p0153eda8d4)" d="M 486.600857 245.562095 
L 487.397007 245.562095 
L 487.397007 227.687172 
L 486.600857 227.687172 
z
" style="fill:#1f77b4;"/>
   </g>
   <g id="patch_247">
    <path clip-path="url(#p0153eda8d4)" d="M 487.397007 245.562095 
L 488.193158 245.562095 
L 488.193158 215.174726 
L 487.397007 215.174726 
z
" style="fill:#1f77b4;"/>
   </g>
   <g id="patch_248">
    <path clip-path="url(#p0153eda8d4)" d="M 488.193158 245.562095 
L 488.989308 245.562095 
L 488.989308 225.89968 
L 488.193158 225.89968 
z
" style="fill:#1f77b4;"/>
   </g>
   <g id="patch_249">
    <path clip-path="url(#p0153eda8d4)" d="M 488.989308 245.562095 
L 489.785459 245.562095 
L 489.785459 234.837142 
L 488.989308 234.837142 
z
" style="fill:#1f77b4;"/>
   </g>
   <g id="patch_250">
    <path clip-path="url(#p0153eda8d4)" d="M 489.785459 245.562095 
L 490.581609 245.562095 
L 490.581609 229.474665 
L 489.785459 229.474665 
z
" style="fill:#1f77b4;"/>
   </g>
   <g id="patch_251">
    <path clip-path="url(#p0153eda8d4)" d="M 490.581609 245.562095 
L 491.37776 245.562095 
L 491.37776 216.962219 
L 490.581609 216.962219 
z
" style="fill:#1f77b4;"/>
   </g>
   <g id="patch_252">
    <path clip-path="url(#p0153eda8d4)" d="M 491.37776 245.562095 
L 492.17391 245.562095 
L 492.17391 222.324696 
L 491.37776 222.324696 
z
" style="fill:#1f77b4;"/>
   </g>
   <g id="patch_253">
    <path clip-path="url(#p0153eda8d4)" d="M 492.17391 245.562095 
L 492.970061 245.562095 
L 492.970061 206.237265 
L 492.17391 206.237265 
z
" style="fill:#1f77b4;"/>
   </g>
   <g id="patch_254">
    <path clip-path="url(#p0153eda8d4)" d="M 492.970061 245.562095 
L 493.766211 245.562095 
L 493.766211 224.112188 
L 492.970061 224.112188 
z
" style="fill:#1f77b4;"/>
   </g>
   <g id="patch_255">
    <path clip-path="url(#p0153eda8d4)" d="M 493.766211 245.562095 
L 494.562362 245.562095 
L 494.562362 225.89968 
L 493.766211 225.89968 
z
" style="fill:#1f77b4;"/>
   </g>
   <g id="patch_256">
    <path clip-path="url(#p0153eda8d4)" d="M 494.562362 245.562095 
L 495.358512 245.562095 
L 495.358512 224.112188 
L 494.562362 224.112188 
z
" style="fill:#1f77b4;"/>
   </g>
   <g id="patch_257">
    <path clip-path="url(#p0153eda8d4)" d="M 495.358512 245.562095 
L 496.154663 245.562095 
L 496.154663 233.049649 
L 495.358512 233.049649 
z
" style="fill:#1f77b4;"/>
   </g>
   <g id="patch_258">
    <path clip-path="url(#p0153eda8d4)" d="M 496.154663 245.562095 
L 496.950813 245.562095 
L 496.950813 236.624634 
L 496.154663 236.624634 
z
" style="fill:#1f77b4;"/>
   </g>
   <g id="patch_259">
    <path clip-path="url(#p0153eda8d4)" d="M 496.950813 245.562095 
L 497.746964 245.562095 
L 497.746964 236.624634 
L 496.950813 236.624634 
z
" style="fill:#1f77b4;"/>
   </g>
   <g id="patch_260">
    <path clip-path="url(#p0153eda8d4)" d="M 497.746964 245.562095 
L 498.543114 245.562095 
L 498.543114 233.049649 
L 497.746964 233.049649 
z
" style="fill:#1f77b4;"/>
   </g>
   <g id="patch_261">
    <path clip-path="url(#p0153eda8d4)" d="M 498.543114 245.562095 
L 499.339265 245.562095 
L 499.339265 233.049649 
L 498.543114 233.049649 
z
" style="fill:#1f77b4;"/>
   </g>
   <g id="patch_262">
    <path clip-path="url(#p0153eda8d4)" d="M 499.339265 245.562095 
L 500.135415 245.562095 
L 500.135415 240.199618 
L 499.339265 240.199618 
z
" style="fill:#1f77b4;"/>
   </g>
   <g id="patch_263">
    <path clip-path="url(#p0153eda8d4)" d="M 500.135415 245.562095 
L 500.931566 245.562095 
L 500.931566 234.837142 
L 500.135415 234.837142 
z
" style="fill:#1f77b4;"/>
   </g>
   <g id="patch_264">
    <path clip-path="url(#p0153eda8d4)" d="M 500.931566 245.562095 
L 501.727716 245.562095 
L 501.727716 234.837142 
L 500.931566 234.837142 
z
" style="fill:#1f77b4;"/>
   </g>
   <g id="patch_265">
    <path clip-path="url(#p0153eda8d4)" d="M 501.727716 245.562095 
L 502.523867 245.562095 
L 502.523867 241.987111 
L 501.727716 241.987111 
z
" style="fill:#1f77b4;"/>
   </g>
   <g id="patch_266">
    <path clip-path="url(#p0153eda8d4)" d="M 502.523867 245.562095 
L 503.320017 245.562095 
L 503.320017 240.199618 
L 502.523867 240.199618 
z
" style="fill:#1f77b4;"/>
   </g>
   <g id="patch_267">
    <path clip-path="url(#p0153eda8d4)" d="M 503.320017 245.562095 
L 504.116168 245.562095 
L 504.116168 240.199618 
L 503.320017 240.199618 
z
" style="fill:#1f77b4;"/>
   </g>
   <g id="patch_268">
    <path clip-path="url(#p0153eda8d4)" d="M 504.116168 245.562095 
L 504.912318 245.562095 
L 504.912318 240.199618 
L 504.116168 240.199618 
z
" style="fill:#1f77b4;"/>
   </g>
   <g id="patch_269">
    <path clip-path="url(#p0153eda8d4)" d="M 504.912318 245.562095 
L 505.708469 245.562095 
L 505.708469 236.624634 
L 504.912318 236.624634 
z
" style="fill:#1f77b4;"/>
   </g>
   <g id="patch_270">
    <path clip-path="url(#p0153eda8d4)" d="M 505.708469 245.562095 
L 506.504619 245.562095 
L 506.504619 238.412126 
L 505.708469 238.412126 
z
" style="fill:#1f77b4;"/>
   </g>
   <g id="patch_271">
    <path clip-path="url(#p0153eda8d4)" d="M 506.504619 245.562095 
L 507.30077 245.562095 
L 507.30077 229.474665 
L 506.504619 229.474665 
z
" style="fill:#1f77b4;"/>
   </g>
   <g id="patch_272">
    <path clip-path="url(#p0153eda8d4)" d="M 507.30077 245.562095 
L 508.09692 245.562095 
L 508.09692 240.199618 
L 507.30077 240.199618 
z
" style="fill:#1f77b4;"/>
   </g>
   <g id="patch_273">
    <path clip-path="url(#p0153eda8d4)" d="M 508.09692 245.562095 
L 508.893071 245.562095 
L 508.893071 236.624634 
L 508.09692 236.624634 
z
" style="fill:#1f77b4;"/>
   </g>
   <g id="patch_274">
    <path clip-path="url(#p0153eda8d4)" d="M 508.893071 245.562095 
L 509.689221 245.562095 
L 509.689221 240.199618 
L 508.893071 240.199618 
z
" style="fill:#1f77b4;"/>
   </g>
   <g id="patch_275">
    <path clip-path="url(#p0153eda8d4)" d="M 509.689221 245.562095 
L 510.485371 245.562095 
L 510.485371 241.987111 
L 509.689221 241.987111 
z
" style="fill:#1f77b4;"/>
   </g>
   <g id="patch_276">
    <path clip-path="url(#p0153eda8d4)" d="M 510.485371 245.562095 
L 511.281522 245.562095 
L 511.281522 243.774603 
L 510.485371 243.774603 
z
" style="fill:#1f77b4;"/>
   </g>
   <g id="patch_277">
    <path clip-path="url(#p0153eda8d4)" d="M 511.281522 245.562095 
L 512.077672 245.562095 
L 512.077672 243.774603 
L 511.281522 243.774603 
z
" style="fill:#1f77b4;"/>
   </g>
   <g id="patch_278">
    <path clip-path="url(#p0153eda8d4)" d="M 512.077672 245.562095 
L 512.873823 245.562095 
L 512.873823 243.774603 
L 512.077672 243.774603 
z
" style="fill:#1f77b4;"/>
   </g>
   <g id="patch_279">
    <path clip-path="url(#p0153eda8d4)" d="M 512.873823 245.562095 
L 513.669973 245.562095 
L 513.669973 241.987111 
L 512.873823 241.987111 
z
" style="fill:#1f77b4;"/>
   </g>
   <g id="patch_280">
    <path clip-path="url(#p0153eda8d4)" d="M 513.669973 245.562095 
L 514.466124 245.562095 
L 514.466124 245.562095 
L 513.669973 245.562095 
z
" style="fill:#1f77b4;"/>
   </g>
   <g id="patch_281">
    <path clip-path="url(#p0153eda8d4)" d="M 514.466124 245.562095 
L 515.262274 245.562095 
L 515.262274 241.987111 
L 514.466124 241.987111 
z
" style="fill:#1f77b4;"/>
   </g>
   <g id="patch_282">
    <path clip-path="url(#p0153eda8d4)" d="M 515.262274 245.562095 
L 516.058425 245.562095 
L 516.058425 241.987111 
L 515.262274 241.987111 
z
" style="fill:#1f77b4;"/>
   </g>
   <g id="patch_283">
    <path clip-path="url(#p0153eda8d4)" d="M 516.058425 245.562095 
L 516.854575 245.562095 
L 516.854575 238.412126 
L 516.058425 238.412126 
z
" style="fill:#1f77b4;"/>
   </g>
   <g id="patch_284">
    <path clip-path="url(#p0153eda8d4)" d="M 516.854575 245.562095 
L 517.650726 245.562095 
L 517.650726 243.774603 
L 516.854575 243.774603 
z
" style="fill:#1f77b4;"/>
   </g>
   <g id="patch_285">
    <path clip-path="url(#p0153eda8d4)" d="M 517.650726 245.562095 
L 518.446876 245.562095 
L 518.446876 241.987111 
L 517.650726 241.987111 
z
" style="fill:#1f77b4;"/>
   </g>
   <g id="patch_286">
    <path clip-path="url(#p0153eda8d4)" d="M 518.446876 245.562095 
L 519.243027 245.562095 
L 519.243027 243.774603 
L 518.446876 243.774603 
z
" style="fill:#1f77b4;"/>
   </g>
   <g id="patch_287">
    <path clip-path="url(#p0153eda8d4)" d="M 519.243027 245.562095 
L 520.039177 245.562095 
L 520.039177 238.412126 
L 519.243027 238.412126 
z
" style="fill:#1f77b4;"/>
   </g>
   <g id="patch_288">
    <path clip-path="url(#p0153eda8d4)" d="M 520.039177 245.562095 
L 520.835328 245.562095 
L 520.835328 241.987111 
L 520.039177 241.987111 
z
" style="fill:#1f77b4;"/>
   </g>
   <g id="patch_289">
    <path clip-path="url(#p0153eda8d4)" d="M 520.835328 245.562095 
L 521.631478 245.562095 
L 521.631478 241.987111 
L 520.835328 241.987111 
z
" style="fill:#1f77b4;"/>
   </g>
   <g id="patch_290">
    <path clip-path="url(#p0153eda8d4)" d="M 521.631478 245.562095 
L 522.427629 245.562095 
L 522.427629 245.562095 
L 521.631478 245.562095 
z
" style="fill:#1f77b4;"/>
   </g>
   <g id="patch_291">
    <path clip-path="url(#p0153eda8d4)" d="M 522.427629 245.562095 
L 523.223779 245.562095 
L 523.223779 245.562095 
L 522.427629 245.562095 
z
" style="fill:#1f77b4;"/>
   </g>
   <g id="patch_292">
    <path clip-path="url(#p0153eda8d4)" d="M 523.223779 245.562095 
L 524.01993 245.562095 
L 524.01993 245.562095 
L 523.223779 245.562095 
z
" style="fill:#1f77b4;"/>
   </g>
   <g id="patch_293">
    <path clip-path="url(#p0153eda8d4)" d="M 524.01993 245.562095 
L 524.81608 245.562095 
L 524.81608 245.562095 
L 524.01993 245.562095 
z
" style="fill:#1f77b4;"/>
   </g>
   <g id="patch_294">
    <path clip-path="url(#p0153eda8d4)" d="M 524.81608 245.562095 
L 525.612231 245.562095 
L 525.612231 245.562095 
L 524.81608 245.562095 
z
" style="fill:#1f77b4;"/>
   </g>
   <g id="patch_295">
    <path clip-path="url(#p0153eda8d4)" d="M 525.612231 245.562095 
L 526.408381 245.562095 
L 526.408381 243.774603 
L 525.612231 243.774603 
z
" style="fill:#1f77b4;"/>
   </g>
   <g id="patch_296">
    <path clip-path="url(#p0153eda8d4)" d="M 526.408381 245.562095 
L 527.204532 245.562095 
L 527.204532 241.987111 
L 526.408381 241.987111 
z
" style="fill:#1f77b4;"/>
   </g>
   <g id="patch_297">
    <path clip-path="url(#p0153eda8d4)" d="M 527.204532 245.562095 
L 528.000682 245.562095 
L 528.000682 245.562095 
L 527.204532 245.562095 
z
" style="fill:#1f77b4;"/>
   </g>
   <g id="patch_298">
    <path clip-path="url(#p0153eda8d4)" d="M 528.000682 245.562095 
L 528.796833 245.562095 
L 528.796833 243.774603 
L 528.000682 243.774603 
z
" style="fill:#1f77b4;"/>
   </g>
   <g id="patch_299">
    <path clip-path="url(#p0153eda8d4)" d="M 528.796833 245.562095 
L 529.592983 245.562095 
L 529.592983 245.562095 
L 528.796833 245.562095 
z
" style="fill:#1f77b4;"/>
   </g>
   <g id="patch_300">
    <path clip-path="url(#p0153eda8d4)" d="M 529.592983 245.562095 
L 530.389134 245.562095 
L 530.389134 245.562095 
L 529.592983 245.562095 
z
" style="fill:#1f77b4;"/>
   </g>
   <g id="patch_301">
    <path clip-path="url(#p0153eda8d4)" d="M 530.389134 245.562095 
L 531.185284 245.562095 
L 531.185284 243.774603 
L 530.389134 243.774603 
z
" style="fill:#1f77b4;"/>
   </g>
   <g id="patch_302">
    <path clip-path="url(#p0153eda8d4)" d="M 531.185284 245.562095 
L 531.981435 245.562095 
L 531.981435 243.774603 
L 531.185284 243.774603 
z
" style="fill:#1f77b4;"/>
   </g>
   <g id="patch_303">
    <path clip-path="url(#p0153eda8d4)" d="M 531.981435 245.562095 
L 532.777585 245.562095 
L 532.777585 243.774603 
L 531.981435 243.774603 
z
" style="fill:#1f77b4;"/>
   </g>
   <g id="patch_304">
    <path clip-path="url(#p0153eda8d4)" d="M 532.777585 245.562095 
L 533.573736 245.562095 
L 533.573736 243.774603 
L 532.777585 243.774603 
z
" style="fill:#1f77b4;"/>
   </g>
   <g id="patch_305">
    <path clip-path="url(#p0153eda8d4)" d="M 533.573736 245.562095 
L 534.369886 245.562095 
L 534.369886 245.562095 
L 533.573736 245.562095 
z
" style="fill:#1f77b4;"/>
   </g>
   <g id="patch_306">
    <path clip-path="url(#p0153eda8d4)" d="M 534.369886 245.562095 
L 535.166037 245.562095 
L 535.166037 243.774603 
L 534.369886 243.774603 
z
" style="fill:#1f77b4;"/>
   </g>
   <g id="patch_307">
    <path clip-path="url(#p0153eda8d4)" d="M 535.166037 245.562095 
L 535.962187 245.562095 
L 535.962187 245.562095 
L 535.166037 245.562095 
z
" style="fill:#1f77b4;"/>
   </g>
   <g id="patch_308">
    <path clip-path="url(#p0153eda8d4)" d="M 535.962187 245.562095 
L 536.758338 245.562095 
L 536.758338 245.562095 
L 535.962187 245.562095 
z
" style="fill:#1f77b4;"/>
   </g>
   <g id="patch_309">
    <path clip-path="url(#p0153eda8d4)" d="M 536.758338 245.562095 
L 537.554488 245.562095 
L 537.554488 245.562095 
L 536.758338 245.562095 
z
" style="fill:#1f77b4;"/>
   </g>
   <g id="patch_310">
    <path clip-path="url(#p0153eda8d4)" d="M 537.554488 245.562095 
L 538.350639 245.562095 
L 538.350639 245.562095 
L 537.554488 245.562095 
z
" style="fill:#1f77b4;"/>
   </g>
   <g id="patch_311">
    <path clip-path="url(#p0153eda8d4)" d="M 538.350639 245.562095 
L 539.146789 245.562095 
L 539.146789 245.562095 
L 538.350639 245.562095 
z
" style="fill:#1f77b4;"/>
   </g>
   <g id="patch_312">
    <path clip-path="url(#p0153eda8d4)" d="M 539.146789 245.562095 
L 539.94294 245.562095 
L 539.94294 245.562095 
L 539.146789 245.562095 
z
" style="fill:#1f77b4;"/>
   </g>
   <g id="patch_313">
    <path clip-path="url(#p0153eda8d4)" d="M 539.94294 245.562095 
L 540.73909 245.562095 
L 540.73909 245.562095 
L 539.94294 245.562095 
z
" style="fill:#1f77b4;"/>
   </g>
   <g id="patch_314">
    <path clip-path="url(#p0153eda8d4)" d="M 540.73909 245.562095 
L 541.535241 245.562095 
L 541.535241 243.774603 
L 540.73909 243.774603 
z
" style="fill:#1f77b4;"/>
   </g>
   <g id="matplotlib.axis_3">
    <g id="xtick_6">
     <g id="line2d_11">
      <g>
       <use style="stroke:#000000;stroke-width:0.8;" x="336.610704" xlink:href="#m7fcd87020f" y="245.562095"/>
      </g>
     </g>
     <g id="text_11">
      <!-- $\mathdefault{2}$ -->
      <g transform="translate(333.19646 262.247972)scale(0.14 -0.14)">
       <use transform="scale(0.996264)" xlink:href="#CMR17-50"/>
      </g>
     </g>
    </g>
    <g id="xtick_7">
     <g id="line2d_12">
      <g>
       <use style="stroke:#000000;stroke-width:0.8;" x="395.914852" xlink:href="#m7fcd87020f" y="245.562095"/>
      </g>
     </g>
     <g id="text_12">
      <!-- $\mathdefault{4}$ -->
      <g transform="translate(392.500607 262.247972)scale(0.14 -0.14)">
       <use transform="scale(0.996264)" xlink:href="#CMR17-52"/>
      </g>
     </g>
    </g>
    <g id="xtick_8">
     <g id="line2d_13">
      <g>
       <use style="stroke:#000000;stroke-width:0.8;" x="455.218999" xlink:href="#m7fcd87020f" y="245.562095"/>
      </g>
     </g>
     <g id="text_13">
      <!-- $\mathdefault{6}$ -->
      <g transform="translate(451.804755 262.247972)scale(0.14 -0.14)">
       <defs>
        <path d="M 10.59375 34.34375 
C 10.59375 58 21.796875 63.6875 28.296875 63.6875 
C 30.40625 63.6875 35.5 63.265625 37.5 59.09375 
C 35.90625 59.09375 32.90625 59.09375 32.90625 55.59375 
C 32.90625 52.890625 35.09375 52 36.5 52 
C 37.40625 52 40.09375 52.390625 40.09375 55.796875 
C 40.09375 62.296875 35.09375 66 28.203125 66 
C 16.296875 66 3.796875 53.296875 3.796875 31.421875 
C 3.796875 4.015625 15.09375 -2 23.09375 -2 
C 32.796875 -2 42 6.734375 42 20.234375 
C 42 32.828125 33.90625 42 23.703125 42 
C 17.59375 42 13.09375 37.96875 10.59375 30.921875 
z
M 23.09375 0.390625 
C 10.796875 0.390625 10.796875 18.9375 10.796875 22.65625 
C 10.796875 29.90625 14.203125 40.390625 23.5 40.390625 
C 25.203125 40.390625 30.09375 40.390625 33.40625 33.4375 
C 35.203125 29.515625 35.203125 25.375 35.203125 20.34375 
C 35.203125 14.90625 35.203125 10.875 33.09375 6.84375 
C 30.90625 2.703125 27.703125 0.390625 23.09375 0.390625 
z
" id="CMR17-54"/>
       </defs>
       <use transform="scale(0.996264)" xlink:href="#CMR17-54"/>
      </g>
     </g>
    </g>
    <g id="xtick_9">
     <g id="line2d_14">
      <g>
       <use style="stroke:#000000;stroke-width:0.8;" x="514.523146" xlink:href="#m7fcd87020f" y="245.562095"/>
      </g>
     </g>
     <g id="text_14">
      <!-- $\mathdefault{8}$ -->
      <g transform="translate(511.108902 262.247972)scale(0.14 -0.14)">
       <defs>
        <path d="M 27.203125 35.765625 
C 33.5 38.96875 39.90625 43.796875 39.90625 51.53125 
C 39.90625 60.6875 31.09375 66 23 66 
C 13.90625 66 5.90625 59.375 5.90625 50.234375 
C 5.90625 47.71875 6.5 43.390625 10.40625 39.578125 
C 11.40625 38.578125 15.59375 35.5625 18.296875 33.65625 
C 13.796875 31.34375 3.296875 25.8125 3.296875 14.765625 
C 3.296875 4.40625 13.09375 -2 22.796875 -2 
C 33.5 -2 42.5 5.71875 42.5 15.96875 
C 42.5 25.109375 36.40625 29.328125 32.40625 32.046875 
z
M 14.09375 44.609375 
C 13.296875 45.109375 9.296875 48.21875 9.296875 52.9375 
C 9.296875 59.078125 15.59375 63.6875 22.796875 63.6875 
C 30.703125 63.6875 36.5 58.0625 36.5 51.53125 
C 36.5 42.1875 26.09375 36.859375 25.59375 36.859375 
C 25.5 36.859375 25.40625 36.859375 24.59375 37.46875 
z
M 32.5 24 
C 34 22.90625 38.796875 19.578125 38.796875 13.453125 
C 38.796875 6.015625 31.40625 0.390625 23 0.390625 
C 13.90625 0.390625 7 6.921875 7 14.859375 
C 7 22.796875 13.09375 29.4375 20 32.546875 
z
" id="CMR17-56"/>
       </defs>
       <use transform="scale(0.996264)" xlink:href="#CMR17-56"/>
      </g>
     </g>
    </g>
   </g>
   <g id="matplotlib.axis_4">
    <g id="ytick_6">
     <g id="line2d_15">
      <g>
       <use style="stroke:#000000;stroke-width:0.8;" x="301.615291" xlink:href="#m4687a42c3a" y="245.562095"/>
      </g>
     </g>
    </g>
    <g id="ytick_7">
     <g id="line2d_16">
      <g>
       <use style="stroke:#000000;stroke-width:0.8;" x="301.615291" xlink:href="#m4687a42c3a" y="197.568391"/>
      </g>
     </g>
    </g>
    <g id="ytick_8">
     <g id="line2d_17">
      <g>
       <use style="stroke:#000000;stroke-width:0.8;" x="301.615291" xlink:href="#m4687a42c3a" y="149.574687"/>
      </g>
     </g>
    </g>
    <g id="ytick_9">
     <g id="line2d_18">
      <g>
       <use style="stroke:#000000;stroke-width:0.8;" x="301.615291" xlink:href="#m4687a42c3a" y="101.580983"/>
      </g>
     </g>
    </g>
    <g id="ytick_10">
     <g id="line2d_19">
      <g>
       <use style="stroke:#000000;stroke-width:0.8;" x="301.615291" xlink:href="#m4687a42c3a" y="53.587279"/>
      </g>
     </g>
    </g>
   </g>
   <g id="patch_315">
    <path d="M 301.615291 245.562095 
L 301.615291 7.2 
" style="fill:none;stroke:#000000;stroke-linecap:square;stroke-linejoin:miter;stroke-width:0.8;"/>
   </g>
   <g id="patch_316">
    <path d="M 552.96 245.562095 
L 552.96 7.2 
" style="fill:none;stroke:#000000;stroke-linecap:square;stroke-linejoin:miter;stroke-width:0.8;"/>
   </g>
   <g id="patch_317">
    <path d="M 301.615291 245.562095 
L 552.96 245.562095 
" style="fill:none;stroke:#000000;stroke-linecap:square;stroke-linejoin:miter;stroke-width:0.8;"/>
   </g>
   <g id="patch_318">
    <path d="M 301.615291 7.2 
L 552.96 7.2 
" style="fill:none;stroke:#000000;stroke-linecap:square;stroke-linejoin:miter;stroke-width:0.8;"/>
   </g>
  </g>
 </g>
 <defs>
  <clipPath id="p2b3b963741">
   <rect height="238.362095" width="251.344709" x="31.650582" y="7.2"/>
  </clipPath>
  <clipPath id="p0153eda8d4">
   <rect height="238.362095" width="251.344709" x="301.615291" y="7.2"/>
  </clipPath>
 </defs>
</svg>
