<?xml version="1.0" encoding="utf-8" standalone="no"?>
<!DOCTYPE svg PUBLIC "-//W3C//DTD SVG 1.1//EN"
  "http://www.w3.org/Graphics/SVG/1.1/DTD/svg11.dtd">
<!-- Created with matplotlib (https://matplotlib.org/) -->
<svg height="251.237905pt" version="1.1" viewBox="0 0 384.498817 251.237905" width="384.498817pt" xmlns="http://www.w3.org/2000/svg" xmlns:xlink="http://www.w3.org/1999/xlink">
 <metadata>
  <rdf:RDF xmlns:cc="http://creativecommons.org/ns#" xmlns:dc="http://purl.org/dc/elements/1.1/" xmlns:rdf="http://www.w3.org/1999/02/22-rdf-syntax-ns#">
   <cc:Work>
    <dc:type rdf:resource="http://purl.org/dc/dcmitype/StillImage"/>
    <dc:date>2020-12-28T21:29:51.840657</dc:date>
    <dc:format>image/svg+xml</dc:format>
    <dc:creator>
     <cc:Agent>
      <dc:title>Matplotlib v3.3.2, https://matplotlib.org/</dc:title>
     </cc:Agent>
    </dc:creator>
   </cc:Work>
  </rdf:RDF>
 </metadata>
 <defs>
  <style type="text/css">*{stroke-linecap:butt;stroke-linejoin:round;}</style>
 </defs>
 <g id="figure_1">
  <g id="patch_1">
   <path d="M 0 251.237905 
L 384.498817 251.237905 
L 384.498817 0 
L 0 0 
z
" style="fill:none;"/>
  </g>
  <g id="axes_1">
   <g id="patch_2">
    <path d="M 42.498817 224.64 
L 377.298817 224.64 
L 377.298817 7.2 
L 42.498817 7.2 
z
" style="fill:#ffffff;"/>
   </g>
   <g id="matplotlib.axis_1">
    <g id="xtick_1">
     <g id="line2d_1">
      <defs>
       <path d="M 0 0 
L 0 3.5 
" id="mc0b7cb523a" style="stroke:#000000;stroke-width:0.8;"/>
      </defs>
      <g>
       <use style="stroke:#000000;stroke-width:0.8;" x="52.794558" xlink:href="#mc0b7cb523a" y="224.64"/>
      </g>
     </g>
     <g id="text_1">
      <!-- $\mathdefault{0}$ -->
      <g transform="translate(49.380314 241.325876)scale(0.14 -0.14)">
       <defs>
        <path d="M 42 31.84375 
C 42 37.96875 41.90625 48.421875 37.703125 56.453125 
C 34 63.484375 28.09375 66 22.90625 66 
C 18.09375 66 12 63.78125 8.203125 56.5625 
C 4.203125 49.015625 3.796875 39.671875 3.796875 31.84375 
C 3.796875 26.109375 3.90625 17.375 7 9.734375 
C 11.296875 -0.609375 19 -2 22.90625 -2 
C 27.5 -2 34.5 -0.109375 38.59375 9.4375 
C 41.59375 16.375 42 24.5 42 31.84375 
z
M 22.90625 -0.40625 
C 16.5 -0.40625 12.703125 5.125 11.296875 12.75 
C 10.203125 18.6875 10.203125 27.328125 10.203125 32.953125 
C 10.203125 40.6875 10.203125 47.109375 11.5 53.234375 
C 13.40625 61.78125 19 64.390625 22.90625 64.390625 
C 27 64.390625 32.296875 61.671875 34.203125 53.4375 
C 35.5 47.71875 35.59375 40.984375 35.59375 32.953125 
C 35.59375 26.421875 35.59375 18.375 34.40625 12.453125 
C 32.296875 1.5 26.40625 -0.40625 22.90625 -0.40625 
z
" id="CMR17-48"/>
       </defs>
       <use transform="scale(0.996264)" xlink:href="#CMR17-48"/>
      </g>
     </g>
    </g>
    <g id="xtick_2">
     <g id="line2d_2">
      <g>
       <use style="stroke:#000000;stroke-width:0.8;" x="102.018966" xlink:href="#mc0b7cb523a" y="224.64"/>
      </g>
     </g>
     <g id="text_2">
      <!-- $\mathdefault{1}$ -->
      <g transform="translate(98.604722 241.325876)scale(0.14 -0.14)">
       <defs>
        <path d="M 26.59375 63.796875 
C 26.59375 65.890625 26.5 66 25.09375 66 
C 21.203125 61.359375 15.296875 59.890625 9.703125 59.6875 
C 9.40625 59.6875 8.90625 59.6875 8.796875 59.5 
C 8.703125 59.296875 8.703125 59.09375 8.703125 57 
C 11.796875 57 17 57.59375 21 59.984375 
L 21 7.296875 
C 21 3.796875 20.796875 2.59375 12.203125 2.59375 
L 9.203125 2.59375 
L 9.203125 0 
C 14 0.09375 19 0.1875 23.796875 0.1875 
C 28.59375 0.1875 33.59375 0.09375 38.40625 0 
L 38.40625 2.59375 
L 35.40625 2.59375 
C 26.796875 2.59375 26.59375 3.6875 26.59375 7.296875 
z
" id="CMR17-49"/>
       </defs>
       <use transform="scale(0.996264)" xlink:href="#CMR17-49"/>
      </g>
     </g>
    </g>
    <g id="xtick_3">
     <g id="line2d_3">
      <g>
       <use style="stroke:#000000;stroke-width:0.8;" x="151.243374" xlink:href="#mc0b7cb523a" y="224.64"/>
      </g>
     </g>
     <g id="text_3">
      <!-- $\mathdefault{2}$ -->
      <g transform="translate(147.82913 241.325876)scale(0.14 -0.14)">
       <defs>
        <path d="M 41.703125 15.46875 
L 39.90625 15.46875 
C 38.90625 8.390625 38.09375 7.1875 37.703125 6.59375 
C 37.203125 5.796875 30 5.796875 28.59375 5.796875 
L 9.40625 5.796875 
C 13 9.6875 20 16.765625 28.5 24.9375 
C 34.59375 30.71875 41.703125 37.5 41.703125 47.390625 
C 41.703125 59.1875 32.296875 66 21.796875 66 
C 10.796875 66 4.09375 56.296875 4.09375 47.296875 
C 4.09375 43.390625 7 42.890625 8.203125 42.890625 
C 9.203125 42.890625 12.203125 43.484375 12.203125 46.984375 
C 12.203125 50.09375 9.59375 51 8.203125 51 
C 7.59375 51 7 50.890625 6.59375 50.6875 
C 8.5 59.1875 14.296875 63.390625 20.40625 63.390625 
C 29.09375 63.390625 34.796875 56.5 34.796875 47.390625 
C 34.796875 38.703125 29.703125 31.21875 24 24.734375 
L 4.09375 2.296875 
L 4.09375 0 
L 39.296875 0 
z
" id="CMR17-50"/>
       </defs>
       <use transform="scale(0.996264)" xlink:href="#CMR17-50"/>
      </g>
     </g>
    </g>
    <g id="xtick_4">
     <g id="line2d_4">
      <g>
       <use style="stroke:#000000;stroke-width:0.8;" x="200.467782" xlink:href="#mc0b7cb523a" y="224.64"/>
      </g>
     </g>
     <g id="text_4">
      <!-- $\mathdefault{3}$ -->
      <g transform="translate(197.053538 241.325876)scale(0.14 -0.14)">
       <defs>
        <path d="M 22.09375 34 
C 31 34 34.90625 26.140625 34.90625 17.09375 
C 34.90625 5.03125 28.5 0.390625 22.703125 0.390625 
C 17.40625 0.390625 8.796875 3.015625 6.09375 10.796875 
C 6.59375 10.59375 7.09375 10.59375 7.59375 10.59375 
C 10 10.59375 11.796875 12.1875 11.796875 14.796875 
C 11.796875 17.6875 9.59375 19 7.59375 19 
C 5.90625 19 3.296875 18.1875 3.296875 14.484375 
C 3.296875 5.234375 12.296875 -2 22.90625 -2 
C 34 -2 42.5 6.75 42.5 16.984375 
C 42.5 26.84375 34.5 34 25 35.09375 
C 32.59375 36.671875 39.90625 43.375 39.90625 52.390625 
C 39.90625 60.25 32 66 23 66 
C 13.90625 66 5.90625 60.34375 5.90625 52.296875 
C 5.90625 48.796875 8.5 48.1875 9.796875 48.1875 
C 11.90625 48.1875 13.703125 49.484375 13.703125 52.09375 
C 13.703125 54.6875 11.90625 56 9.796875 56 
C 9.40625 56 8.90625 56 8.5 55.796875 
C 11.40625 62.484375 19.296875 63.6875 22.796875 63.6875 
C 26.296875 63.6875 32.90625 61.96875 32.90625 52.296875 
C 32.90625 49.484375 32.5 44.546875 29.09375 40.21875 
C 26.09375 36.390625 22.703125 36.1875 19.40625 35.890625 
C 18.90625 35.890625 16.59375 35.6875 16.203125 35.6875 
C 15.5 35.59375 15.09375 35.5 15.09375 34.796875 
C 15.09375 34.09375 15.203125 34 17.203125 34 
z
" id="CMR17-51"/>
       </defs>
       <use transform="scale(0.996264)" xlink:href="#CMR17-51"/>
      </g>
     </g>
    </g>
    <g id="xtick_5">
     <g id="line2d_5">
      <g>
       <use style="stroke:#000000;stroke-width:0.8;" x="249.69219" xlink:href="#mc0b7cb523a" y="224.64"/>
      </g>
     </g>
     <g id="text_5">
      <!-- $\mathdefault{4}$ -->
      <g transform="translate(246.277946 241.325876)scale(0.14 -0.14)">
       <defs>
        <path d="M 33.59375 64.796875 
C 33.59375 66.890625 33.5 67 31.703125 67 
L 2 19.59375 
L 2 17 
L 27.796875 17 
L 27.796875 7.1875 
C 27.796875 3.59375 27.59375 2.59375 20.59375 2.59375 
L 18.703125 2.59375 
L 18.703125 0 
C 21.90625 0.1875 27.296875 0.1875 30.703125 0.1875 
C 34.09375 0.1875 39.5 0.1875 42.703125 0 
L 42.703125 2.59375 
L 40.796875 2.59375 
C 33.796875 2.59375 33.59375 3.59375 33.59375 7.1875 
L 33.59375 17 
L 43.796875 17 
L 43.796875 19.59375 
L 33.59375 19.59375 
z
M 28.09375 58.171875 
L 28.09375 19.59375 
L 4 19.59375 
z
" id="CMR17-52"/>
       </defs>
       <use transform="scale(0.996264)" xlink:href="#CMR17-52"/>
      </g>
     </g>
    </g>
    <g id="xtick_6">
     <g id="line2d_6">
      <g>
       <use style="stroke:#000000;stroke-width:0.8;" x="298.916598" xlink:href="#mc0b7cb523a" y="224.64"/>
      </g>
     </g>
     <g id="text_6">
      <!-- $\mathdefault{5}$ -->
      <g transform="translate(295.502354 241.325876)scale(0.14 -0.14)">
       <defs>
        <path d="M 11.40625 58.59375 
C 12.40625 58.1875 16.5 56.890625 20.703125 56.890625 
C 30 56.890625 35.09375 61.890625 38 64.6875 
C 38 65.484375 38 66 37.40625 66 
C 37.296875 66 37.09375 66 36.296875 65.59375 
C 32.796875 64.09375 28.703125 63 23.703125 63 
C 20.703125 63 16.203125 63.359375 11.296875 65.484375 
C 10.203125 66 10 66 9.90625 66 
C 9.40625 66 9.296875 65.890625 9.296875 63.90625 
L 9.296875 34.859375 
C 9.296875 33.015625 9.296875 32.5 10.296875 32.5 
C 10.796875 32.5 11 32.703125 11.5 33.421875 
C 14.703125 38.046875 19.09375 40 24.09375 40 
C 27.59375 40 35.09375 37.734375 35.09375 20.203125 
C 35.09375 16.984375 35.09375 11.1875 32.09375 6.59375 
C 29.59375 2.484375 25.703125 0.390625 21.40625 0.390625 
C 14.796875 0.390625 8.09375 4.984375 6.296875 12.6875 
C 6.703125 12.59375 7.5 12.390625 7.90625 12.390625 
C 9.203125 12.390625 11.703125 13.09375 11.703125 16.1875 
C 11.703125 18.890625 9.796875 20 7.90625 20 
C 5.59375 20 4.09375 18.59375 4.09375 15.796875 
C 4.09375 7.09375 11 -2 21.59375 -2 
C 31.90625 -2 41.703125 6.890625 41.703125 19.796875 
C 41.703125 32.09375 33.90625 41.59375 24.203125 41.59375 
C 19.09375 41.59375 14.796875 39.6875 11.40625 36 
z
" id="CMR17-53"/>
       </defs>
       <use transform="scale(0.996264)" xlink:href="#CMR17-53"/>
      </g>
     </g>
    </g>
    <g id="xtick_7">
     <g id="line2d_7">
      <g>
       <use style="stroke:#000000;stroke-width:0.8;" x="348.141006" xlink:href="#mc0b7cb523a" y="224.64"/>
      </g>
     </g>
     <g id="text_7">
      <!-- $\mathdefault{6}$ -->
      <g transform="translate(344.726762 241.325876)scale(0.14 -0.14)">
       <defs>
        <path d="M 10.59375 34.34375 
C 10.59375 58 21.796875 63.6875 28.296875 63.6875 
C 30.40625 63.6875 35.5 63.265625 37.5 59.09375 
C 35.90625 59.09375 32.90625 59.09375 32.90625 55.59375 
C 32.90625 52.890625 35.09375 52 36.5 52 
C 37.40625 52 40.09375 52.390625 40.09375 55.796875 
C 40.09375 62.296875 35.09375 66 28.203125 66 
C 16.296875 66 3.796875 53.296875 3.796875 31.421875 
C 3.796875 4.015625 15.09375 -2 23.09375 -2 
C 32.796875 -2 42 6.734375 42 20.234375 
C 42 32.828125 33.90625 42 23.703125 42 
C 17.59375 42 13.09375 37.96875 10.59375 30.921875 
z
M 23.09375 0.390625 
C 10.796875 0.390625 10.796875 18.9375 10.796875 22.65625 
C 10.796875 29.90625 14.203125 40.390625 23.5 40.390625 
C 25.203125 40.390625 30.09375 40.390625 33.40625 33.4375 
C 35.203125 29.515625 35.203125 25.375 35.203125 20.34375 
C 35.203125 14.90625 35.203125 10.875 33.09375 6.84375 
C 30.90625 2.703125 27.703125 0.390625 23.09375 0.390625 
z
" id="CMR17-54"/>
       </defs>
       <use transform="scale(0.996264)" xlink:href="#CMR17-54"/>
      </g>
     </g>
    </g>
   </g>
   <g id="matplotlib.axis_2">
    <g id="ytick_1">
     <g id="line2d_8">
      <defs>
       <path d="M 0 0 
L -3.5 0 
" id="m03d92bc85f" style="stroke:#000000;stroke-width:0.8;"/>
      </defs>
      <g>
       <use style="stroke:#000000;stroke-width:0.8;" x="42.498817" xlink:href="#m03d92bc85f" y="214.787297"/>
      </g>
     </g>
     <g id="text_8">
      <!-- $\mathdefault{−1.0}$ -->
      <g transform="translate(7.2 219.630235)scale(0.14 -0.14)">
       <defs>
        <path d="M 65.90625 23 
C 67.59375 23 69.40625 23 69.40625 25 
C 69.40625 27 67.59375 27 65.90625 27 
L 11.796875 27 
C 10.09375 27 8.296875 27 8.296875 25 
C 8.296875 23 10.09375 23 11.796875 23 
z
" id="CMSY10-0"/>
        <path d="M 18.40625 4.796875 
C 18.40625 7.6875 16 9.6875 13.59375 9.6875 
C 10.703125 9.6875 8.703125 7.296875 8.703125 4.890625 
C 8.703125 2 11.09375 0 13.5 0 
C 16.40625 0 18.40625 2.390625 18.40625 4.796875 
z
" id="CMMI12-58"/>
       </defs>
       <use transform="scale(0.996264)" xlink:href="#CMSY10-0"/>
       <use transform="translate(77.487468 0)scale(0.996264)" xlink:href="#CMR17-49"/>
       <use transform="translate(123.177945 0)scale(0.996264)" xlink:href="#CMMI12-58"/>
       <use transform="translate(150.275122 0)scale(0.996264)" xlink:href="#CMR17-48"/>
      </g>
     </g>
    </g>
    <g id="ytick_2">
     <g id="line2d_9">
      <g>
       <use style="stroke:#000000;stroke-width:0.8;" x="42.498817" xlink:href="#m03d92bc85f" y="165.291811"/>
      </g>
     </g>
     <g id="text_9">
      <!-- $\mathdefault{−0.5}$ -->
      <g transform="translate(7.2 170.134749)scale(0.14 -0.14)">
       <use transform="scale(0.996264)" xlink:href="#CMSY10-0"/>
       <use transform="translate(77.487468 0)scale(0.996264)" xlink:href="#CMR17-48"/>
       <use transform="translate(123.177945 0)scale(0.996264)" xlink:href="#CMMI12-58"/>
       <use transform="translate(150.275122 0)scale(0.996264)" xlink:href="#CMR17-53"/>
      </g>
     </g>
    </g>
    <g id="ytick_3">
     <g id="line2d_10">
      <g>
       <use style="stroke:#000000;stroke-width:0.8;" x="42.498817" xlink:href="#m03d92bc85f" y="115.796326"/>
      </g>
     </g>
     <g id="text_10">
      <!-- $\mathdefault{0.0}$ -->
      <g transform="translate(18.048235 120.639264)scale(0.14 -0.14)">
       <use transform="scale(0.996264)" xlink:href="#CMR17-48"/>
       <use transform="translate(45.690477 0)scale(0.996264)" xlink:href="#CMMI12-58"/>
       <use transform="translate(72.787654 0)scale(0.996264)" xlink:href="#CMR17-48"/>
      </g>
     </g>
    </g>
    <g id="ytick_4">
     <g id="line2d_11">
      <g>
       <use style="stroke:#000000;stroke-width:0.8;" x="42.498817" xlink:href="#m03d92bc85f" y="66.30084"/>
      </g>
     </g>
     <g id="text_11">
      <!-- $\mathdefault{0.5}$ -->
      <g transform="translate(18.048235 71.143778)scale(0.14 -0.14)">
       <use transform="scale(0.996264)" xlink:href="#CMR17-48"/>
       <use transform="translate(45.690477 0)scale(0.996264)" xlink:href="#CMMI12-58"/>
       <use transform="translate(72.787654 0)scale(0.996264)" xlink:href="#CMR17-53"/>
      </g>
     </g>
    </g>
    <g id="ytick_5">
     <g id="line2d_12">
      <g>
       <use style="stroke:#000000;stroke-width:0.8;" x="42.498817" xlink:href="#m03d92bc85f" y="16.805355"/>
      </g>
     </g>
     <g id="text_12">
      <!-- $\mathdefault{1.0}$ -->
      <g transform="translate(18.048235 21.648293)scale(0.14 -0.14)">
       <use transform="scale(0.996264)" xlink:href="#CMR17-49"/>
       <use transform="translate(45.690477 0)scale(0.996264)" xlink:href="#CMMI12-58"/>
       <use transform="translate(72.787654 0)scale(0.996264)" xlink:href="#CMR17-48"/>
      </g>
     </g>
    </g>
   </g>
   <g id="LineCollection_1">
    <path clip-path="url(#p28f3c0d0c3)" d="M 57.716999 115.796326 
L 57.716999 105.913719 
" style="fill:none;stroke:#ff0000;stroke-dasharray:5.55,2.4;stroke-dashoffset:0;stroke-width:1.5;"/>
    <path clip-path="url(#p28f3c0d0c3)" d="M 65.32609 115.796326 
L 65.32609 90.866577 
" style="fill:none;stroke:#ff0000;stroke-dasharray:5.55,2.4;stroke-dashoffset:0;stroke-width:1.5;"/>
    <path clip-path="url(#p28f3c0d0c3)" d="M 72.935181 115.796326 
L 72.935181 76.413943 
" style="fill:none;stroke:#ff0000;stroke-dasharray:5.55,2.4;stroke-dashoffset:0;stroke-width:1.5;"/>
    <path clip-path="url(#p28f3c0d0c3)" d="M 80.544272 115.796326 
L 80.544272 62.900473 
" style="fill:none;stroke:#ff0000;stroke-dasharray:5.55,2.4;stroke-dashoffset:0;stroke-width:1.5;"/>
    <path clip-path="url(#p28f3c0d0c3)" d="M 88.153363 115.796326 
L 88.153363 50.648427 
" style="fill:none;stroke:#ff0000;stroke-dasharray:5.55,2.4;stroke-dashoffset:0;stroke-width:1.5;"/>
    <path clip-path="url(#p28f3c0d0c3)" d="M 95.762454 115.796326 
L 95.762454 39.949985 
" style="fill:none;stroke:#ff0000;stroke-dasharray:5.55,2.4;stroke-dashoffset:0;stroke-width:1.5;"/>
    <path clip-path="url(#p28f3c0d0c3)" d="M 103.371544 115.796326 
L 103.371544 31.060274 
" style="fill:none;stroke:#ff0000;stroke-dasharray:5.55,2.4;stroke-dashoffset:0;stroke-width:1.5;"/>
    <path clip-path="url(#p28f3c0d0c3)" d="M 110.980635 115.796326 
L 110.980635 24.191291 
" style="fill:none;stroke:#ff0000;stroke-dasharray:5.55,2.4;stroke-dashoffset:0;stroke-width:1.5;"/>
    <path clip-path="url(#p28f3c0d0c3)" d="M 118.589726 115.796326 
L 118.589726 19.506842 
" style="fill:none;stroke:#ff0000;stroke-dasharray:5.55,2.4;stroke-dashoffset:0;stroke-width:1.5;"/>
    <path clip-path="url(#p28f3c0d0c3)" d="M 126.198817 115.796326 
L 126.198817 17.11864 
" style="fill:none;stroke:#ff0000;stroke-dasharray:5.55,2.4;stroke-dashoffset:0;stroke-width:1.5;"/>
    <path clip-path="url(#p28f3c0d0c3)" d="M 133.807908 115.796326 
L 133.807908 17.083636 
" style="fill:none;stroke:#ff0000;stroke-dasharray:5.55,2.4;stroke-dashoffset:0;stroke-width:1.5;"/>
    <path clip-path="url(#p28f3c0d0c3)" d="M 141.416999 115.796326 
L 141.416999 19.402666 
" style="fill:none;stroke:#ff0000;stroke-dasharray:5.55,2.4;stroke-dashoffset:0;stroke-width:1.5;"/>
    <path clip-path="url(#p28f3c0d0c3)" d="M 149.02609 115.796326 
L 149.02609 24.020425 
" style="fill:none;stroke:#ff0000;stroke-dasharray:5.55,2.4;stroke-dashoffset:0;stroke-width:1.5;"/>
    <path clip-path="url(#p28f3c0d0c3)" d="M 156.635181 115.796326 
L 156.635181 30.826795 
" style="fill:none;stroke:#ff0000;stroke-dasharray:5.55,2.4;stroke-dashoffset:0;stroke-width:1.5;"/>
    <path clip-path="url(#p28f3c0d0c3)" d="M 164.244272 115.796326 
L 164.244272 39.659459 
" style="fill:none;stroke:#ff0000;stroke-dasharray:5.55,2.4;stroke-dashoffset:0;stroke-width:1.5;"/>
    <path clip-path="url(#p28f3c0d0c3)" d="M 171.853363 115.796326 
L 171.853363 50.307784 
" style="fill:none;stroke:#ff0000;stroke-dasharray:5.55,2.4;stroke-dashoffset:0;stroke-width:1.5;"/>
    <path clip-path="url(#p28f3c0d0c3)" d="M 179.462454 115.796326 
L 179.462454 62.517835 
" style="fill:none;stroke:#ff0000;stroke-dasharray:5.55,2.4;stroke-dashoffset:0;stroke-width:1.5;"/>
    <path clip-path="url(#p28f3c0d0c3)" d="M 187.071544 115.796326 
L 187.071544 75.998436 
" style="fill:none;stroke:#ff0000;stroke-dasharray:5.55,2.4;stroke-dashoffset:0;stroke-width:1.5;"/>
    <path clip-path="url(#p28f3c0d0c3)" d="M 194.680635 115.796326 
L 194.680635 90.428109 
" style="fill:none;stroke:#ff0000;stroke-dasharray:5.55,2.4;stroke-dashoffset:0;stroke-width:1.5;"/>
    <path clip-path="url(#p28f3c0d0c3)" d="M 202.289726 115.796326 
L 202.289726 105.462747 
" style="fill:none;stroke:#ff0000;stroke-dasharray:5.55,2.4;stroke-dashoffset:0;stroke-width:1.5;"/>
    <path clip-path="url(#p28f3c0d0c3)" d="M 209.898817 115.796326 
L 209.898817 120.743812 
" style="fill:none;stroke:#ff0000;stroke-dasharray:5.55,2.4;stroke-dashoffset:0;stroke-width:1.5;"/>
    <path clip-path="url(#p28f3c0d0c3)" d="M 217.507908 115.796326 
L 217.507908 135.906894 
" style="fill:none;stroke:#ff0000;stroke-dasharray:5.55,2.4;stroke-dashoffset:0;stroke-width:1.5;"/>
    <path clip-path="url(#p28f3c0d0c3)" d="M 225.116999 115.796326 
L 225.116999 150.590392 
" style="fill:none;stroke:#ff0000;stroke-dasharray:5.55,2.4;stroke-dashoffset:0;stroke-width:1.5;"/>
    <path clip-path="url(#p28f3c0d0c3)" d="M 232.72609 115.796326 
L 232.72609 164.444145 
" style="fill:none;stroke:#ff0000;stroke-dasharray:5.55,2.4;stroke-dashoffset:0;stroke-width:1.5;"/>
    <path clip-path="url(#p28f3c0d0c3)" d="M 240.335181 115.796326 
L 240.335181 177.137777 
" style="fill:none;stroke:#ff0000;stroke-dasharray:5.55,2.4;stroke-dashoffset:0;stroke-width:1.5;"/>
    <path clip-path="url(#p28f3c0d0c3)" d="M 247.944272 115.796326 
L 247.944272 188.368581 
" style="fill:none;stroke:#ff0000;stroke-dasharray:5.55,2.4;stroke-dashoffset:0;stroke-width:1.5;"/>
    <path clip-path="url(#p28f3c0d0c3)" d="M 255.553363 115.796326 
L 255.553363 197.868731 
" style="fill:none;stroke:#ff0000;stroke-dasharray:5.55,2.4;stroke-dashoffset:0;stroke-width:1.5;"/>
    <path clip-path="url(#p28f3c0d0c3)" d="M 263.162454 115.796326 
L 263.162454 205.411673 
" style="fill:none;stroke:#ff0000;stroke-dasharray:5.55,2.4;stroke-dashoffset:0;stroke-width:1.5;"/>
    <path clip-path="url(#p28f3c0d0c3)" d="M 270.771544 115.796326 
L 270.771544 210.81753 
" style="fill:none;stroke:#ff0000;stroke-dasharray:5.55,2.4;stroke-dashoffset:0;stroke-width:1.5;"/>
    <path clip-path="url(#p28f3c0d0c3)" d="M 278.380635 115.796326 
L 278.380635 213.957386 
" style="fill:none;stroke:#ff0000;stroke-dasharray:5.55,2.4;stroke-dashoffset:0;stroke-width:1.5;"/>
    <path clip-path="url(#p28f3c0d0c3)" d="M 285.989726 115.796326 
L 285.989726 214.756364 
" style="fill:none;stroke:#ff0000;stroke-dasharray:5.55,2.4;stroke-dashoffset:0;stroke-width:1.5;"/>
    <path clip-path="url(#p28f3c0d0c3)" d="M 293.598817 115.796326 
L 293.598817 213.195409 
" style="fill:none;stroke:#ff0000;stroke-dasharray:5.55,2.4;stroke-dashoffset:0;stroke-width:1.5;"/>
    <path clip-path="url(#p28f3c0d0c3)" d="M 301.207908 115.796326 
L 301.207908 209.311748 
" style="fill:none;stroke:#ff0000;stroke-dasharray:5.55,2.4;stroke-dashoffset:0;stroke-width:1.5;"/>
    <path clip-path="url(#p28f3c0d0c3)" d="M 308.816999 115.796326 
L 308.816999 203.197995 
" style="fill:none;stroke:#ff0000;stroke-dasharray:5.55,2.4;stroke-dashoffset:0;stroke-width:1.5;"/>
    <path clip-path="url(#p28f3c0d0c3)" d="M 316.42609 115.796326 
L 316.42609 194.999945 
" style="fill:none;stroke:#ff0000;stroke-dasharray:5.55,2.4;stroke-dashoffset:0;stroke-width:1.5;"/>
    <path clip-path="url(#p28f3c0d0c3)" d="M 324.035181 115.796326 
L 324.035181 184.913102 
" style="fill:none;stroke:#ff0000;stroke-dasharray:5.55,2.4;stroke-dashoffset:0;stroke-width:1.5;"/>
    <path clip-path="url(#p28f3c0d0c3)" d="M 331.644272 115.796326 
L 331.644272 173.178009 
" style="fill:none;stroke:#ff0000;stroke-dasharray:5.55,2.4;stroke-dashoffset:0;stroke-width:1.5;"/>
    <path clip-path="url(#p28f3c0d0c3)" d="M 339.253363 115.796326 
L 339.253363 160.074516 
" style="fill:none;stroke:#ff0000;stroke-dasharray:5.55,2.4;stroke-dashoffset:0;stroke-width:1.5;"/>
    <path clip-path="url(#p28f3c0d0c3)" d="M 346.862454 115.796326 
L 346.862454 145.915108 
" style="fill:none;stroke:#ff0000;stroke-dasharray:5.55,2.4;stroke-dashoffset:0;stroke-width:1.5;"/>
    <path clip-path="url(#p28f3c0d0c3)" d="M 354.471544 115.796326 
L 354.471544 131.037447 
" style="fill:none;stroke:#ff0000;stroke-dasharray:5.55,2.4;stroke-dashoffset:0;stroke-width:1.5;"/>
    <path clip-path="url(#p28f3c0d0c3)" d="M 362.080635 115.796326 
L 362.080635 115.796326 
" style="fill:none;stroke:#ff0000;stroke-dasharray:5.55,2.4;stroke-dashoffset:0;stroke-width:1.5;"/>
   </g>
   <g id="line2d_13">
    <defs>
     <path d="M 0 3 
C 0.795609 3 1.55874 2.683901 2.12132 2.12132 
C 2.683901 1.55874 3 0.795609 3 0 
C 3 -0.795609 2.683901 -1.55874 2.12132 -2.12132 
C 1.55874 -2.683901 0.795609 -3 0 -3 
C -0.795609 -3 -1.55874 -2.683901 -2.12132 -2.12132 
C -2.683901 -1.55874 -3 -0.795609 -3 0 
C -3 0.795609 -2.683901 1.55874 -2.12132 2.12132 
C -1.55874 2.683901 -0.795609 3 0 3 
z
" id="m542e28ed43" style="stroke:#008000;"/>
    </defs>
    <g clip-path="url(#p28f3c0d0c3)">
     <use style="fill:#008000;stroke:#008000;" x="57.716999" xlink:href="#m542e28ed43" y="105.913719"/>
     <use style="fill:#008000;stroke:#008000;" x="65.32609" xlink:href="#m542e28ed43" y="90.866577"/>
     <use style="fill:#008000;stroke:#008000;" x="72.935181" xlink:href="#m542e28ed43" y="76.413943"/>
     <use style="fill:#008000;stroke:#008000;" x="80.544272" xlink:href="#m542e28ed43" y="62.900473"/>
     <use style="fill:#008000;stroke:#008000;" x="88.153363" xlink:href="#m542e28ed43" y="50.648427"/>
     <use style="fill:#008000;stroke:#008000;" x="95.762454" xlink:href="#m542e28ed43" y="39.949985"/>
     <use style="fill:#008000;stroke:#008000;" x="103.371544" xlink:href="#m542e28ed43" y="31.060274"/>
     <use style="fill:#008000;stroke:#008000;" x="110.980635" xlink:href="#m542e28ed43" y="24.191291"/>
     <use style="fill:#008000;stroke:#008000;" x="118.589726" xlink:href="#m542e28ed43" y="19.506842"/>
     <use style="fill:#008000;stroke:#008000;" x="126.198817" xlink:href="#m542e28ed43" y="17.11864"/>
     <use style="fill:#008000;stroke:#008000;" x="133.807908" xlink:href="#m542e28ed43" y="17.083636"/>
     <use style="fill:#008000;stroke:#008000;" x="141.416999" xlink:href="#m542e28ed43" y="19.402666"/>
     <use style="fill:#008000;stroke:#008000;" x="149.02609" xlink:href="#m542e28ed43" y="24.020425"/>
     <use style="fill:#008000;stroke:#008000;" x="156.635181" xlink:href="#m542e28ed43" y="30.826795"/>
     <use style="fill:#008000;stroke:#008000;" x="164.244272" xlink:href="#m542e28ed43" y="39.659459"/>
     <use style="fill:#008000;stroke:#008000;" x="171.853363" xlink:href="#m542e28ed43" y="50.307784"/>
     <use style="fill:#008000;stroke:#008000;" x="179.462454" xlink:href="#m542e28ed43" y="62.517835"/>
     <use style="fill:#008000;stroke:#008000;" x="187.071544" xlink:href="#m542e28ed43" y="75.998436"/>
     <use style="fill:#008000;stroke:#008000;" x="194.680635" xlink:href="#m542e28ed43" y="90.428109"/>
     <use style="fill:#008000;stroke:#008000;" x="202.289726" xlink:href="#m542e28ed43" y="105.462747"/>
     <use style="fill:#008000;stroke:#008000;" x="209.898817" xlink:href="#m542e28ed43" y="120.743812"/>
     <use style="fill:#008000;stroke:#008000;" x="217.507908" xlink:href="#m542e28ed43" y="135.906894"/>
     <use style="fill:#008000;stroke:#008000;" x="225.116999" xlink:href="#m542e28ed43" y="150.590392"/>
     <use style="fill:#008000;stroke:#008000;" x="232.72609" xlink:href="#m542e28ed43" y="164.444145"/>
     <use style="fill:#008000;stroke:#008000;" x="240.335181" xlink:href="#m542e28ed43" y="177.137777"/>
     <use style="fill:#008000;stroke:#008000;" x="247.944272" xlink:href="#m542e28ed43" y="188.368581"/>
     <use style="fill:#008000;stroke:#008000;" x="255.553363" xlink:href="#m542e28ed43" y="197.868731"/>
     <use style="fill:#008000;stroke:#008000;" x="263.162454" xlink:href="#m542e28ed43" y="205.411673"/>
     <use style="fill:#008000;stroke:#008000;" x="270.771544" xlink:href="#m542e28ed43" y="210.81753"/>
     <use style="fill:#008000;stroke:#008000;" x="278.380635" xlink:href="#m542e28ed43" y="213.957386"/>
     <use style="fill:#008000;stroke:#008000;" x="285.989726" xlink:href="#m542e28ed43" y="214.756364"/>
     <use style="fill:#008000;stroke:#008000;" x="293.598817" xlink:href="#m542e28ed43" y="213.195409"/>
     <use style="fill:#008000;stroke:#008000;" x="301.207908" xlink:href="#m542e28ed43" y="209.311748"/>
     <use style="fill:#008000;stroke:#008000;" x="308.816999" xlink:href="#m542e28ed43" y="203.197995"/>
     <use style="fill:#008000;stroke:#008000;" x="316.42609" xlink:href="#m542e28ed43" y="194.999945"/>
     <use style="fill:#008000;stroke:#008000;" x="324.035181" xlink:href="#m542e28ed43" y="184.913102"/>
     <use style="fill:#008000;stroke:#008000;" x="331.644272" xlink:href="#m542e28ed43" y="173.178009"/>
     <use style="fill:#008000;stroke:#008000;" x="339.253363" xlink:href="#m542e28ed43" y="160.074516"/>
     <use style="fill:#008000;stroke:#008000;" x="346.862454" xlink:href="#m542e28ed43" y="145.915108"/>
     <use style="fill:#008000;stroke:#008000;" x="354.471544" xlink:href="#m542e28ed43" y="131.037447"/>
     <use style="fill:#008000;stroke:#008000;" x="362.080635" xlink:href="#m542e28ed43" y="115.796326"/>
    </g>
   </g>
   <g id="line2d_14">
    <path clip-path="url(#p28f3c0d0c3)" d="M 57.716999 115.796326 
L 362.080635 115.796326 
" style="fill:none;stroke:#0000ff;stroke-linecap:square;stroke-width:1.5;"/>
   </g>
   <g id="patch_3">
    <path d="M 42.498817 224.64 
L 42.498817 7.2 
" style="fill:none;stroke:#000000;stroke-linecap:square;stroke-linejoin:miter;stroke-width:0.8;"/>
   </g>
   <g id="patch_4">
    <path d="M 377.298817 224.64 
L 377.298817 7.2 
" style="fill:none;stroke:#000000;stroke-linecap:square;stroke-linejoin:miter;stroke-width:0.8;"/>
   </g>
   <g id="patch_5">
    <path d="M 42.498817 224.64 
L 377.298817 224.64 
" style="fill:none;stroke:#000000;stroke-linecap:square;stroke-linejoin:miter;stroke-width:0.8;"/>
   </g>
   <g id="patch_6">
    <path d="M 42.498817 7.2 
L 377.298817 7.2 
" style="fill:none;stroke:#000000;stroke-linecap:square;stroke-linejoin:miter;stroke-width:0.8;"/>
   </g>
  </g>
 </g>
 <defs>
  <clipPath id="p28f3c0d0c3">
   <rect height="217.44" width="334.8" x="42.498817" y="7.2"/>
  </clipPath>
 </defs>
</svg>
