<?xml version="1.0" encoding="utf-8" standalone="no"?>
<!DOCTYPE svg PUBLIC "-//W3C//DTD SVG 1.1//EN"
  "http://www.w3.org/Graphics/SVG/1.1/DTD/svg11.dtd">
<svg xmlns:xlink="http://www.w3.org/1999/xlink" width="401.529048pt" height="278.915801pt" viewBox="0 0 401.529048 278.915801" xmlns="http://www.w3.org/2000/svg" version="1.1">
 <metadata>
  <rdf:RDF xmlns:dc="http://purl.org/dc/elements/1.1/" xmlns:cc="http://creativecommons.org/ns#" xmlns:rdf="http://www.w3.org/1999/02/22-rdf-syntax-ns#">
   <cc:Work>
    <dc:type rdf:resource="http://purl.org/dc/dcmitype/StillImage"/>
    <dc:date>2023-04-09T23:51:34.446241</dc:date>
    <dc:format>image/svg+xml</dc:format>
    <dc:creator>
     <cc:Agent>
      <dc:title>Matplotlib v3.7.1, https://matplotlib.org/</dc:title>
     </cc:Agent>
    </dc:creator>
   </cc:Work>
  </rdf:RDF>
 </metadata>
 <defs>
  <style type="text/css">*{stroke-linejoin: round; stroke-linecap: butt}</style>
 </defs>
 <g id="figure_1">
  <g id="patch_1">
   <path d="M 0 278.915801 
L 401.529048 278.915801 
L 401.529048 0 
L 0 0 
z
" style="fill: #ffffff"/>
  </g>
  <g id="axes_1">
   <g id="patch_2">
    <path d="M 50.180522 234.148862 
L 384.980522 234.148862 
L 384.980522 12.388862 
L 50.180522 12.388862 
z
" style="fill: #ffffff"/>
   </g>
   <g id="matplotlib.axis_1">
    <g id="xtick_1">
     <g id="line2d_1">
      <path d="M 50.180522 234.148862 
L 50.180522 12.388862 
" clip-path="url(#p784fa410cb)" style="fill: none; stroke-dasharray: 1.85,0.8; stroke-dashoffset: 0; stroke: #808080; stroke-opacity: 0.5; stroke-width: 0.5"/>
     </g>
     <g id="line2d_2">
      <defs>
       <path id="m62f2473562" d="M 0 0 
L 0 3.5 
" style="stroke: #000000; stroke-width: 0.8"/>
      </defs>
      <g>
       <use xlink:href="#m62f2473562" x="50.180522" y="234.148862" style="stroke: #000000; stroke-width: 0.8"/>
      </g>
     </g>
     <g id="text_1">
      <!-- $\mathdefault{0.0}$ -->
      <g transform="translate(40.831996 251.526587) scale(0.15 -0.15)">
       <defs>
        <path id="CMR17-30" d="M 2688 2038 
C 2688 2430 2682 3099 2413 3613 
C 2176 4063 1798 4224 1466 4224 
C 1158 4224 768 4082 525 3620 
C 269 3137 243 2539 243 2038 
C 243 1671 250 1112 448 623 
C 723 -39 1216 -128 1466 -128 
C 1760 -128 2208 -7 2470 604 
C 2662 1048 2688 1568 2688 2038 
z
M 1466 -26 
C 1056 -26 813 328 723 816 
C 653 1196 653 1749 653 2109 
C 653 2604 653 3015 736 3407 
C 858 3954 1216 4121 1466 4121 
C 1728 4121 2067 3947 2189 3420 
C 2272 3054 2278 2623 2278 2109 
C 2278 1691 2278 1176 2202 797 
C 2067 96 1690 -26 1466 -26 
z
" transform="scale(0.015625)"/>
        <path id="CMMI12-3a" d="M 1178 307 
C 1178 492 1024 620 870 620 
C 685 620 557 467 557 313 
C 557 128 710 0 864 0 
C 1050 0 1178 153 1178 307 
z
" transform="scale(0.015625)"/>
       </defs>
       <use xlink:href="#CMR17-30" transform="scale(0.996264)"/>
       <use xlink:href="#CMMI12-3a" transform="translate(45.690477 0) scale(0.996264)"/>
       <use xlink:href="#CMR17-30" transform="translate(72.787654 0) scale(0.996264)"/>
      </g>
     </g>
    </g>
    <g id="xtick_2">
     <g id="line2d_3">
      <path d="M 105.980522 234.148862 
L 105.980522 12.388862 
" clip-path="url(#p784fa410cb)" style="fill: none; stroke-dasharray: 1.85,0.8; stroke-dashoffset: 0; stroke: #808080; stroke-opacity: 0.5; stroke-width: 0.5"/>
     </g>
     <g id="line2d_4">
      <g>
       <use xlink:href="#m62f2473562" x="105.980522" y="234.148862" style="stroke: #000000; stroke-width: 0.8"/>
      </g>
     </g>
     <g id="text_2">
      <!-- $\mathdefault{0.5}$ -->
      <g transform="translate(96.631996 251.526587) scale(0.15 -0.15)">
       <defs>
        <path id="CMR17-35" d="M 730 3750 
C 794 3724 1056 3641 1325 3641 
C 1920 3641 2246 3961 2432 4140 
C 2432 4191 2432 4224 2394 4224 
C 2387 4224 2374 4224 2323 4198 
C 2099 4102 1837 4032 1517 4032 
C 1325 4032 1037 4055 723 4191 
C 653 4224 640 4224 634 4224 
C 602 4224 595 4217 595 4090 
L 595 2231 
C 595 2113 595 2080 659 2080 
C 691 2080 704 2093 736 2139 
C 941 2435 1222 2560 1542 2560 
C 1766 2560 2246 2415 2246 1293 
C 2246 1087 2246 716 2054 422 
C 1894 159 1645 25 1370 25 
C 947 25 518 319 403 812 
C 429 806 480 793 506 793 
C 589 793 749 838 749 1036 
C 749 1209 627 1280 506 1280 
C 358 1280 262 1190 262 1011 
C 262 454 704 -128 1382 -128 
C 2042 -128 2669 441 2669 1267 
C 2669 2054 2170 2662 1549 2662 
C 1222 2662 947 2540 730 2304 
L 730 3750 
z
" transform="scale(0.015625)"/>
       </defs>
       <use xlink:href="#CMR17-30" transform="scale(0.996264)"/>
       <use xlink:href="#CMMI12-3a" transform="translate(45.690477 0) scale(0.996264)"/>
       <use xlink:href="#CMR17-35" transform="translate(72.787654 0) scale(0.996264)"/>
      </g>
     </g>
    </g>
    <g id="xtick_3">
     <g id="line2d_5">
      <path d="M 161.780522 234.148862 
L 161.780522 12.388862 
" clip-path="url(#p784fa410cb)" style="fill: none; stroke-dasharray: 1.85,0.8; stroke-dashoffset: 0; stroke: #808080; stroke-opacity: 0.5; stroke-width: 0.5"/>
     </g>
     <g id="line2d_6">
      <g>
       <use xlink:href="#m62f2473562" x="161.780522" y="234.148862" style="stroke: #000000; stroke-width: 0.8"/>
      </g>
     </g>
     <g id="text_3">
      <!-- $\mathdefault{1.0}$ -->
      <g transform="translate(152.431996 251.526587) scale(0.15 -0.15)">
       <defs>
        <path id="CMR17-31" d="M 1702 4083 
C 1702 4217 1696 4224 1606 4224 
C 1357 3927 979 3833 621 3820 
C 602 3820 570 3820 563 3808 
C 557 3795 557 3782 557 3648 
C 755 3648 1088 3686 1344 3839 
L 1344 467 
C 1344 243 1331 166 781 166 
L 589 166 
L 589 0 
C 896 6 1216 12 1523 12 
C 1830 12 2150 6 2458 0 
L 2458 166 
L 2266 166 
C 1715 166 1702 236 1702 467 
L 1702 4083 
z
" transform="scale(0.015625)"/>
       </defs>
       <use xlink:href="#CMR17-31" transform="scale(0.996264)"/>
       <use xlink:href="#CMMI12-3a" transform="translate(45.690477 0) scale(0.996264)"/>
       <use xlink:href="#CMR17-30" transform="translate(72.787654 0) scale(0.996264)"/>
      </g>
     </g>
    </g>
    <g id="xtick_4">
     <g id="line2d_7">
      <path d="M 217.580522 234.148862 
L 217.580522 12.388862 
" clip-path="url(#p784fa410cb)" style="fill: none; stroke-dasharray: 1.85,0.8; stroke-dashoffset: 0; stroke: #808080; stroke-opacity: 0.5; stroke-width: 0.5"/>
     </g>
     <g id="line2d_8">
      <g>
       <use xlink:href="#m62f2473562" x="217.580522" y="234.148862" style="stroke: #000000; stroke-width: 0.8"/>
      </g>
     </g>
     <g id="text_4">
      <!-- $\mathdefault{1.5}$ -->
      <g transform="translate(208.231996 251.526587) scale(0.15 -0.15)">
       <use xlink:href="#CMR17-31" transform="scale(0.996264)"/>
       <use xlink:href="#CMMI12-3a" transform="translate(45.690477 0) scale(0.996264)"/>
       <use xlink:href="#CMR17-35" transform="translate(72.787654 0) scale(0.996264)"/>
      </g>
     </g>
    </g>
    <g id="xtick_5">
     <g id="line2d_9">
      <path d="M 273.380522 234.148862 
L 273.380522 12.388862 
" clip-path="url(#p784fa410cb)" style="fill: none; stroke-dasharray: 1.85,0.8; stroke-dashoffset: 0; stroke: #808080; stroke-opacity: 0.5; stroke-width: 0.5"/>
     </g>
     <g id="line2d_10">
      <g>
       <use xlink:href="#m62f2473562" x="273.380522" y="234.148862" style="stroke: #000000; stroke-width: 0.8"/>
      </g>
     </g>
     <g id="text_5">
      <!-- $\mathdefault{2.0}$ -->
      <g transform="translate(264.031996 251.526587) scale(0.15 -0.15)">
       <defs>
        <path id="CMR17-32" d="M 2669 990 
L 2554 990 
C 2490 537 2438 460 2413 422 
C 2381 371 1920 371 1830 371 
L 602 371 
C 832 620 1280 1073 1824 1596 
C 2214 1966 2669 2400 2669 3033 
C 2669 3788 2067 4224 1395 4224 
C 691 4224 262 3603 262 3027 
C 262 2777 448 2745 525 2745 
C 589 2745 781 2783 781 3007 
C 781 3206 614 3264 525 3264 
C 486 3264 448 3257 422 3244 
C 544 3788 915 4057 1306 4057 
C 1862 4057 2227 3616 2227 3033 
C 2227 2477 1901 1998 1536 1583 
L 262 147 
L 262 0 
L 2515 0 
L 2669 990 
z
" transform="scale(0.015625)"/>
       </defs>
       <use xlink:href="#CMR17-32" transform="scale(0.996264)"/>
       <use xlink:href="#CMMI12-3a" transform="translate(45.690477 0) scale(0.996264)"/>
       <use xlink:href="#CMR17-30" transform="translate(72.787654 0) scale(0.996264)"/>
      </g>
     </g>
    </g>
    <g id="xtick_6">
     <g id="line2d_11">
      <path d="M 329.180522 234.148862 
L 329.180522 12.388862 
" clip-path="url(#p784fa410cb)" style="fill: none; stroke-dasharray: 1.85,0.8; stroke-dashoffset: 0; stroke: #808080; stroke-opacity: 0.5; stroke-width: 0.5"/>
     </g>
     <g id="line2d_12">
      <g>
       <use xlink:href="#m62f2473562" x="329.180522" y="234.148862" style="stroke: #000000; stroke-width: 0.8"/>
      </g>
     </g>
     <g id="text_6">
      <!-- $\mathdefault{2.5}$ -->
      <g transform="translate(319.831996 251.526587) scale(0.15 -0.15)">
       <use xlink:href="#CMR17-32" transform="scale(0.996264)"/>
       <use xlink:href="#CMMI12-3a" transform="translate(45.690477 0) scale(0.996264)"/>
       <use xlink:href="#CMR17-35" transform="translate(72.787654 0) scale(0.996264)"/>
      </g>
     </g>
    </g>
    <g id="xtick_7">
     <g id="line2d_13">
      <path d="M 384.980522 234.148862 
L 384.980522 12.388862 
" clip-path="url(#p784fa410cb)" style="fill: none; stroke-dasharray: 1.85,0.8; stroke-dashoffset: 0; stroke: #808080; stroke-opacity: 0.5; stroke-width: 0.5"/>
     </g>
     <g id="line2d_14">
      <g>
       <use xlink:href="#m62f2473562" x="384.980522" y="234.148862" style="stroke: #000000; stroke-width: 0.8"/>
      </g>
     </g>
     <g id="text_7">
      <!-- $\mathdefault{3.0}$ -->
      <g transform="translate(375.631996 251.526587) scale(0.15 -0.15)">
       <defs>
        <path id="CMR17-33" d="M 1414 2176 
C 1984 2176 2234 1673 2234 1094 
C 2234 322 1824 25 1453 25 
C 1114 25 563 193 390 691 
C 422 678 454 678 486 678 
C 640 678 755 780 755 947 
C 755 1132 614 1216 486 1216 
C 378 1216 211 1164 211 927 
C 211 335 787 -128 1466 -128 
C 2176 -128 2720 432 2720 1087 
C 2720 1718 2208 2176 1600 2246 
C 2086 2347 2554 2776 2554 3353 
C 2554 3856 2048 4224 1472 4224 
C 890 4224 378 3862 378 3347 
C 378 3123 544 3084 627 3084 
C 762 3084 877 3167 877 3334 
C 877 3500 762 3584 627 3584 
C 602 3584 570 3584 544 3571 
C 730 3999 1235 4076 1459 4076 
C 1683 4076 2106 3966 2106 3347 
C 2106 3167 2080 2851 1862 2574 
C 1670 2329 1453 2316 1242 2297 
C 1210 2297 1062 2284 1037 2284 
C 992 2278 966 2272 966 2227 
C 966 2182 973 2176 1101 2176 
L 1414 2176 
z
" transform="scale(0.015625)"/>
       </defs>
       <use xlink:href="#CMR17-33" transform="scale(0.996264)"/>
       <use xlink:href="#CMMI12-3a" transform="translate(45.690477 0) scale(0.996264)"/>
       <use xlink:href="#CMR17-30" transform="translate(72.787654 0) scale(0.996264)"/>
      </g>
     </g>
    </g>
    <g id="text_8">
     <!-- $x$ -->
     <g transform="translate(213.422971 268.810057) scale(0.15 -0.15)">
      <defs>
       <path id="CMMI12-78" d="M 3034 2624 
C 2829 2585 2752 2431 2752 2310 
C 2752 2156 2874 2105 2963 2105 
C 3155 2105 3290 2271 3290 2444 
C 3290 2694 2982 2816 2714 2816 
C 2323 2816 2106 2451 2048 2329 
C 1901 2790 1504 2816 1389 2816 
C 736 2816 390 1993 390 1849 
C 390 1823 416 1790 461 1790 
C 512 1790 525 1829 538 1855 
C 755 2572 1184 2687 1370 2687 
C 1658 2687 1715 2438 1715 2284 
C 1715 2143 1677 1993 1600 1678 
L 1382 778 
C 1286 390 1101 64 762 64 
C 730 64 570 64 435 126 
C 666 166 717 358 717 435 
C 717 563 621 640 499 640 
C 346 640 179 505 179 300 
C 179 57 480 -64 755 -64 
C 1062 -64 1280 153 1414 415 
C 1517 64 1837 -64 2074 -64 
C 2726 -64 3072 751 3072 896 
C 3072 929 3046 955 3008 955 
C 2950 955 2944 922 2925 870 
C 2752 300 2381 64 2093 64 
C 1869 64 1747 204 1747 467 
C 1747 607 1773 712 1875 1146 
L 2099 2039 
C 2195 2425 2413 2687 2707 2687 
C 2720 2687 2899 2687 3034 2624 
z
" transform="scale(0.015625)"/>
      </defs>
      <use xlink:href="#CMMI12-78" transform="scale(0.996264)"/>
     </g>
    </g>
   </g>
   <g id="matplotlib.axis_2">
    <g id="ytick_1">
     <g id="line2d_15">
      <path d="M 50.180522 234.148862 
L 384.980522 234.148862 
" clip-path="url(#p784fa410cb)" style="fill: none; stroke-dasharray: 1.85,0.8; stroke-dashoffset: 0; stroke: #808080; stroke-opacity: 0.5; stroke-width: 0.5"/>
     </g>
     <g id="line2d_16">
      <defs>
       <path id="me6accb6b2f" d="M 0 0 
L -3.5 0 
" style="stroke: #000000; stroke-width: 0.8"/>
      </defs>
      <g>
       <use xlink:href="#me6accb6b2f" x="50.180522" y="234.148862" style="stroke: #000000; stroke-width: 0.8"/>
      </g>
     </g>
     <g id="text_9">
      <!-- $\mathdefault{0.0}$ -->
      <g transform="translate(24.483469 239.337725) scale(0.15 -0.15)">
       <use xlink:href="#CMR17-30" transform="scale(0.996264)"/>
       <use xlink:href="#CMMI12-3a" transform="translate(45.690477 0) scale(0.996264)"/>
       <use xlink:href="#CMR17-30" transform="translate(72.787654 0) scale(0.996264)"/>
      </g>
     </g>
    </g>
    <g id="ytick_2">
     <g id="line2d_17">
      <path d="M 50.180522 197.188862 
L 384.980522 197.188862 
" clip-path="url(#p784fa410cb)" style="fill: none; stroke-dasharray: 1.85,0.8; stroke-dashoffset: 0; stroke: #808080; stroke-opacity: 0.5; stroke-width: 0.5"/>
     </g>
     <g id="line2d_18">
      <g>
       <use xlink:href="#me6accb6b2f" x="50.180522" y="197.188862" style="stroke: #000000; stroke-width: 0.8"/>
      </g>
     </g>
     <g id="text_10">
      <!-- $\mathdefault{0.5}$ -->
      <g transform="translate(24.483469 202.377725) scale(0.15 -0.15)">
       <use xlink:href="#CMR17-30" transform="scale(0.996264)"/>
       <use xlink:href="#CMMI12-3a" transform="translate(45.690477 0) scale(0.996264)"/>
       <use xlink:href="#CMR17-35" transform="translate(72.787654 0) scale(0.996264)"/>
      </g>
     </g>
    </g>
    <g id="ytick_3">
     <g id="line2d_19">
      <path d="M 50.180522 160.228862 
L 384.980522 160.228862 
" clip-path="url(#p784fa410cb)" style="fill: none; stroke-dasharray: 1.85,0.8; stroke-dashoffset: 0; stroke: #808080; stroke-opacity: 0.5; stroke-width: 0.5"/>
     </g>
     <g id="line2d_20">
      <g>
       <use xlink:href="#me6accb6b2f" x="50.180522" y="160.228862" style="stroke: #000000; stroke-width: 0.8"/>
      </g>
     </g>
     <g id="text_11">
      <!-- $\mathdefault{1.0}$ -->
      <g transform="translate(24.483469 165.417725) scale(0.15 -0.15)">
       <use xlink:href="#CMR17-31" transform="scale(0.996264)"/>
       <use xlink:href="#CMMI12-3a" transform="translate(45.690477 0) scale(0.996264)"/>
       <use xlink:href="#CMR17-30" transform="translate(72.787654 0) scale(0.996264)"/>
      </g>
     </g>
    </g>
    <g id="ytick_4">
     <g id="line2d_21">
      <path d="M 50.180522 123.268862 
L 384.980522 123.268862 
" clip-path="url(#p784fa410cb)" style="fill: none; stroke-dasharray: 1.85,0.8; stroke-dashoffset: 0; stroke: #808080; stroke-opacity: 0.5; stroke-width: 0.5"/>
     </g>
     <g id="line2d_22">
      <g>
       <use xlink:href="#me6accb6b2f" x="50.180522" y="123.268862" style="stroke: #000000; stroke-width: 0.8"/>
      </g>
     </g>
     <g id="text_12">
      <!-- $\mathdefault{1.5}$ -->
      <g transform="translate(24.483469 128.457725) scale(0.15 -0.15)">
       <use xlink:href="#CMR17-31" transform="scale(0.996264)"/>
       <use xlink:href="#CMMI12-3a" transform="translate(45.690477 0) scale(0.996264)"/>
       <use xlink:href="#CMR17-35" transform="translate(72.787654 0) scale(0.996264)"/>
      </g>
     </g>
    </g>
    <g id="ytick_5">
     <g id="line2d_23">
      <path d="M 50.180522 86.308862 
L 384.980522 86.308862 
" clip-path="url(#p784fa410cb)" style="fill: none; stroke-dasharray: 1.85,0.8; stroke-dashoffset: 0; stroke: #808080; stroke-opacity: 0.5; stroke-width: 0.5"/>
     </g>
     <g id="line2d_24">
      <g>
       <use xlink:href="#me6accb6b2f" x="50.180522" y="86.308862" style="stroke: #000000; stroke-width: 0.8"/>
      </g>
     </g>
     <g id="text_13">
      <!-- $\mathdefault{2.0}$ -->
      <g transform="translate(24.483469 91.497725) scale(0.15 -0.15)">
       <use xlink:href="#CMR17-32" transform="scale(0.996264)"/>
       <use xlink:href="#CMMI12-3a" transform="translate(45.690477 0) scale(0.996264)"/>
       <use xlink:href="#CMR17-30" transform="translate(72.787654 0) scale(0.996264)"/>
      </g>
     </g>
    </g>
    <g id="ytick_6">
     <g id="line2d_25">
      <path d="M 50.180522 49.348862 
L 384.980522 49.348862 
" clip-path="url(#p784fa410cb)" style="fill: none; stroke-dasharray: 1.85,0.8; stroke-dashoffset: 0; stroke: #808080; stroke-opacity: 0.5; stroke-width: 0.5"/>
     </g>
     <g id="line2d_26">
      <g>
       <use xlink:href="#me6accb6b2f" x="50.180522" y="49.348862" style="stroke: #000000; stroke-width: 0.8"/>
      </g>
     </g>
     <g id="text_14">
      <!-- $\mathdefault{2.5}$ -->
      <g transform="translate(24.483469 54.537725) scale(0.15 -0.15)">
       <use xlink:href="#CMR17-32" transform="scale(0.996264)"/>
       <use xlink:href="#CMMI12-3a" transform="translate(45.690477 0) scale(0.996264)"/>
       <use xlink:href="#CMR17-35" transform="translate(72.787654 0) scale(0.996264)"/>
      </g>
     </g>
    </g>
    <g id="ytick_7">
     <g id="line2d_27">
      <path d="M 50.180522 12.388862 
L 384.980522 12.388862 
" clip-path="url(#p784fa410cb)" style="fill: none; stroke-dasharray: 1.85,0.8; stroke-dashoffset: 0; stroke: #808080; stroke-opacity: 0.5; stroke-width: 0.5"/>
     </g>
     <g id="line2d_28">
      <g>
       <use xlink:href="#me6accb6b2f" x="50.180522" y="12.388862" style="stroke: #000000; stroke-width: 0.8"/>
      </g>
     </g>
     <g id="text_15">
      <!-- $\mathdefault{3.0}$ -->
      <g transform="translate(24.483469 17.577725) scale(0.15 -0.15)">
       <use xlink:href="#CMR17-33" transform="scale(0.996264)"/>
       <use xlink:href="#CMMI12-3a" transform="translate(45.690477 0) scale(0.996264)"/>
       <use xlink:href="#CMR17-30" transform="translate(72.787654 0) scale(0.996264)"/>
      </g>
     </g>
    </g>
    <g id="text_16">
     <!-- $y$ -->
     <g transform="translate(17.577725 126.836173) rotate(-90) scale(0.15 -0.15)">
      <defs>
       <path id="CMMI12-79" d="M 1683 -673 
C 1510 -921 1261 -1152 947 -1152 
C 870 -1152 563 -1139 467 -826 
C 486 -833 518 -833 531 -833 
C 723 -833 851 -666 851 -519 
C 851 -372 730 -320 634 -320 
C 531 -320 307 -397 307 -711 
C 307 -1050 582 -1280 947 -1280 
C 1587 -1280 2234 -673 2413 -7 
L 3040 2483 
C 3046 2515 3059 2553 3059 2591 
C 3059 2687 2982 2752 2886 2752 
C 2829 2752 2694 2726 2643 2534 
L 2170 657 
C 2138 542 2138 530 2086 459 
C 1958 281 1747 64 1440 64 
C 1082 64 1050 415 1050 587 
C 1050 951 1222 1443 1395 1902 
C 1466 2087 1504 2177 1504 2305 
C 1504 2573 1312 2816 998 2816 
C 410 2816 173 1890 173 1838 
C 173 1813 198 1781 243 1781 
C 301 1781 307 1807 333 1896 
C 486 2432 730 2687 979 2687 
C 1037 2687 1146 2687 1146 2477 
C 1146 2311 1075 2126 979 1883 
C 666 1047 666 836 666 683 
C 666 76 1101 -64 1421 -64 
C 1606 -64 1837 -7 2061 230 
L 2067 223 
C 1971 -141 1907 -359 1683 -673 
z
" transform="scale(0.015625)"/>
      </defs>
      <use xlink:href="#CMMI12-79" transform="scale(0.996264)"/>
     </g>
    </g>
   </g>
   <g id="PathCollection_1"/>
   <g id="PathCollection_2">
    <path d="M 178.73207 117.644608 
L 178.764623 117.668862 
L 181.68636 119.908862 
L 182.071431 120.211985 
L 184.507943 122.148862 
L 185.453249 122.922344 
L 187.242483 124.388862 
L 188.835067 125.74043 
L 189.887997 126.628862 
L 192.216885 128.67725 
L 192.43755 128.868862 
L 194.797863 131.108862 
L 195.598703 131.935441 
L 196.999864 133.348862 
L 198.980522 135.524908 
L 199.040528 135.588862 
L 200.690792 137.828862 
L 202.006133 140.068862 
L 202.36234 141.361293 
L 202.63754 142.308862 
L 202.36234 143.637507 
L 202.059213 144.548862 
L 198.980522 146.448762 
L 197.661359 146.788862 
L 195.598703 147.09532 
L 192.216885 147.222726 
L 188.835067 147.082787 
L 185.866301 146.788862 
L 185.453249 146.745049 
L 182.071431 146.194821 
L 178.689613 145.525728 
L 175.307794 144.753078 
L 174.547892 144.548862 
L 171.925976 143.806928 
L 168.544158 142.757071 
L 167.244974 142.308862 
L 165.16234 141.552583 
L 161.780522 140.227644 
L 161.412041 140.068862 
L 158.398703 138.70024 
L 156.609662 137.828862 
L 155.016885 137.007679 
L 152.455616 135.588862 
L 151.635067 135.105412 
L 148.863271 133.348862 
L 148.253249 132.935453 
L 145.747911 131.108862 
L 144.871431 130.421226 
L 143.030993 128.868862 
L 141.489613 127.45972 
L 140.64303 126.628862 
L 138.572272 124.388862 
L 138.107794 123.824772 
L 136.826576 122.148862 
L 135.318637 119.908862 
L 134.725976 118.869561 
L 134.091913 117.668862 
L 133.148019 115.428862 
L 132.443886 113.188862 
L 132.011578 110.948862 
L 131.900856 108.708862 
L 132.187724 106.468862 
L 132.989003 104.228862 
L 134.488434 101.988862 
L 134.725976 101.74859 
L 138.107794 99.815176 
L 138.440943 99.748862 
L 141.489613 99.305405 
L 144.871431 99.523345 
L 145.877933 99.748862 
L 148.253249 100.277482 
L 151.635067 101.400217 
L 153.029006 101.988862 
L 155.016885 102.823331 
L 157.914905 104.228862 
L 158.398703 104.462803 
L 159.280832 104.944655 
" clip-path="url(#p784fa410cb)" style="fill: none; stroke: #482475; stroke-width: 1.5"/>
   </g>
   <g id="PathCollection_3">
    <path d="M 208.173107 131.961213 
L 209.125976 132.721025 
L 209.938132 133.348862 
L 212.507794 135.422971 
L 212.72078 135.588862 
L 215.410785 137.828862 
L 215.889613 138.259435 
L 217.996417 140.068862 
L 219.271431 141.256743 
L 220.460662 142.308862 
L 222.653249 144.446573 
L 222.764416 144.548862 
L 224.765916 146.788862 
L 226.035067 148.511266 
L 226.445934 149.028862 
L 227.534521 151.268862 
L 227.740639 153.508862 
L 226.246108 155.748862 
L 226.035067 155.873883 
L 222.653249 157.190448 
L 219.271431 157.854515 
L 217.842034 157.988862 
L 215.889613 158.118311 
L 212.507794 158.171423 
L 209.125976 158.086827 
L 207.478201 157.988862 
L 205.744158 157.87944 
L 202.36234 157.562311 
L 198.980522 157.166391 
L 195.598703 156.700981 
L 192.216885 156.17133 
L 189.827944 155.748862 
L 188.835067 155.566578 
L 185.453249 154.871833 
L 182.071431 154.123588 
L 179.506654 153.508862 
L 178.689613 153.306406 
L 175.307794 152.395313 
L 171.925976 151.427942 
L 171.411495 151.268862 
L 168.544158 150.353315 
L 165.16234 149.209202 
L 164.665202 149.028862 
L 161.780522 147.945791 
L 158.872574 146.788862 
L 158.398703 146.593022 
L 155.016885 145.103876 
L 153.829883 144.548862 
L 151.635067 143.478587 
L 149.373448 142.308862 
L 148.253249 141.701878 
L 145.411481 140.068862 
L 144.871431 139.742111 
L 141.888027 137.828862 
L 141.489613 137.558362 
L 138.749906 135.588862 
L 138.107794 135.097161 
L 135.948123 133.348862 
L 134.725976 132.287698 
L 133.438998 131.108862 
L 131.344158 129.034671 
L 131.184997 128.868862 
L 129.21377 126.628862 
L 127.96234 125.067267 
L 127.444871 124.388862 
L 125.910833 122.148862 
L 124.580522 119.968362 
L 124.5459 119.908862 
L 123.414396 117.668862 
L 122.448994 115.428862 
L 121.648938 113.188862 
L 121.198703 111.583641 
L 121.029346 110.948862 
L 120.608368 108.708862 
L 120.365502 106.468862 
L 120.311599 104.228862 
L 120.462176 101.988862 
L 120.838366 99.748862 
L 121.198703 98.444276 
L 121.507869 97.508862 
L 122.585121 95.268862 
L 124.102706 93.028862 
L 124.580522 92.478447 
L 126.645068 90.788862 
L 127.96234 89.949919 
L 131.344158 88.73529 
L 132.867506 88.548862 
L 134.725976 88.359304 
L 137.897908 88.548862 
L 138.107794 88.561113 
L 141.489613 89.225571 
L 144.871431 90.223287 
L 146.34261 90.788862 
L 148.253249 91.50844 
L 151.635067 93.010889 
L 151.669896 93.028862 
L 155.016885 94.726794 
L 155.988028 95.268862 
L 158.398703 96.594953 
L 159.936194 97.508862 
L 161.780522 98.591933 
L 163.630836 99.748862 
L 165.16234 100.697176 
L 167.145883 101.988862 
L 168.544158 102.892744 
L 170.53028 104.228862 
L 171.925976 105.163099 
L 173.817533 106.468862 
L 175.307794 107.494889 
L 177.031184 108.708862 
L 178.689613 109.876766 
L 180.188087 110.948862 
L 182.071431 112.299227 
L 183.300434 113.188862 
L 185.453249 114.75448 
L 186.377028 115.428862 
L 188.835067 117.236344 
L 189.424087 117.668862 
L 189.685621 117.862833 
" clip-path="url(#p784fa410cb)" style="fill: none; stroke: #414487; stroke-width: 1.5"/>
   </g>
   <g id="PathCollection_4">
    <path d="M 184.215234 160.950055 
L 178.689613 159.610504 
L 171.925976 157.761043 
L 165.16234 155.650865 
L 158.398703 153.232521 
L 151.635067 150.442242 
L 148.253249 148.885612 
L 144.110672 146.788862 
L 140.121772 144.548862 
L 136.529983 142.308862 
L 133.292431 140.068862 
L 130.370709 137.828862 
L 127.731302 135.588862 
L 124.580522 132.550337 
L 123.226491 131.108862 
L 121.198703 128.742089 
L 119.588051 126.628862 
L 117.816885 124.014042 
L 116.697518 122.148862 
L 115.505583 119.908862 
L 114.435067 117.607296 
L 113.578885 115.428862 
L 112.837448 113.188862 
L 112.231309 110.948862 
L 111.758575 108.708862 
L 111.419287 106.468862 
L 111.215501 104.228862 
L 111.151429 101.988862 
L 111.233636 99.748862 
L 111.471326 97.508862 
L 111.876706 95.268862 
L 112.465477 93.028862 
L 113.257461 90.788862 
L 114.435067 88.261668 
L 115.714514 86.308862 
L 117.816885 83.797589 
L 121.198703 81.279976 
L 124.580522 79.863148 
L 127.96234 79.223938 
L 131.344158 79.166753 
L 134.828578 79.588862 
L 138.107794 80.348551 
L 142.473905 81.828862 
L 144.871431 82.773756 
L 148.253249 84.324646 
L 152.07827 86.308862 
L 156.026529 88.548862 
L 161.780522 92.057992 
L 169.997881 97.508862 
L 178.689613 103.561041 
L 226.035067 137.220704 
L 230.129584 140.068862 
L 239.56234 146.796795 
L 245.427353 151.268862 
L 250.559104 155.748862 
L 252.598126 157.988862 
L 254.006206 160.228862 
L 254.388738 162.468862 
L 252.826193 164.708862 
L 249.707794 165.953256 
L 246.325976 166.737438 
L 242.944158 167.130529 
L 239.56234 167.317779 
L 232.798703 167.362829 
L 226.035067 167.097144 
L 219.271431 166.573013 
L 212.507794 165.853382 
L 207.075012 165.154305 
L 207.075012 165.154305 
" clip-path="url(#p784fa410cb)" style="fill: none; stroke: #355f8d; stroke-width: 1.5"/>
   </g>
   <g id="PathCollection_5">
    <path d="M 249.499369 145.158834 
L 253.089613 147.303985 
L 267.32347 155.748862 
L 277.945707 162.468862 
L 281.03621 164.708862 
L 283.674183 166.948862 
L 285.531674 169.188862 
L 286.101923 171.428862 
L 283.997871 173.668862 
L 283.525976 173.846523 
L 280.144158 174.786817 
L 276.76234 175.382486 
L 271.128683 175.908862 
L 266.616885 176.060025 
L 259.853249 176.062357 
L 253.089613 175.869142 
L 242.944158 175.273063 
L 232.798703 174.421386 
L 222.653249 173.323672 
L 212.507794 171.976339 
L 202.36234 170.372569 
L 192.216885 168.489196 
L 184.973017 166.948862 
L 178.689613 165.465807 
L 171.925976 163.691907 
L 165.16234 161.708388 
L 158.398703 159.478419 
L 151.635067 156.952738 
L 144.871431 154.063606 
L 141.489613 152.453287 
L 138.107794 150.713092 
L 134.725976 148.823359 
L 131.344158 146.758046 
L 127.96234 144.482705 
L 124.580522 141.951566 
L 121.198703 139.103308 
L 117.816885 135.854811 
L 115.52292 133.348862 
L 113.68384 131.108862 
L 111.053249 127.411816 
L 110.541471 126.628862 
L 109.213091 124.388862 
L 107.671431 121.380631 
L 106.990632 119.908862 
L 106.08122 117.668862 
L 105.297407 115.428862 
L 104.08217 110.948862 
L 103.316379 106.468862 
L 102.981314 101.988862 
L 103.074799 97.508862 
L 103.286868 95.268862 
L 103.614176 93.028862 
L 104.289613 89.893573 
L 104.65393 88.548862 
L 105.404887 86.308862 
L 106.32034 84.068862 
L 107.671431 81.377442 
L 108.823365 79.588862 
L 111.053249 76.749174 
L 112.821158 75.108862 
L 114.435067 73.816673 
L 117.816885 71.965856 
L 121.198703 70.905294 
L 124.580522 70.467363 
L 128.622718 70.628862 
L 131.344158 71.012678 
L 134.725976 71.839425 
L 138.107794 72.956462 
L 143.150919 75.108862 
L 144.871431 75.898849 
L 148.253249 77.650544 
L 155.016885 81.574353 
L 165.16234 88.187502 
L 178.689613 97.706311 
L 202.36234 114.620001 
L 215.889613 123.901198 
L 229.715797 132.945925 
L 229.715797 132.945925 
" clip-path="url(#p784fa410cb)" style="fill: none; stroke: #2a788e; stroke-width: 1.5"/>
   </g>
   <g id="PathCollection_6">
    <path d="M 194.871574 103.636596 
L 205.243843 110.948862 
L 212.507794 115.911042 
L 222.653249 122.584447 
L 232.798703 128.940078 
L 242.944158 134.979925 
L 253.089613 140.711448 
L 264.48101 146.788862 
L 269.998703 149.63522 
L 283.525976 156.299047 
L 315.640049 171.428862 
L 317.344158 172.384583 
L 319.940673 173.668862 
L 320.725976 174.188186 
L 324.107794 176.240457 
L 326.636764 178.148862 
L 327.899873 180.388862 
L 327.489613 180.919138 
L 325.514052 182.628862 
L 324.107794 182.997837 
L 320.725976 183.654885 
L 317.344158 184.102503 
L 310.580522 184.605831 
L 303.816885 184.79051 
L 293.671431 184.725283 
L 283.525976 184.403636 
L 269.998703 183.700693 
L 256.471431 182.734871 
L 242.944158 181.488708 
L 229.416885 179.983666 
L 219.271431 178.664606 
L 209.125976 177.163713 
L 198.980522 175.456644 
L 188.835067 173.51187 
L 178.689613 171.287981 
L 170.286376 169.188862 
L 165.16234 167.785308 
L 158.398703 165.742515 
L 151.635067 163.458783 
L 144.871431 160.883655 
L 141.489613 159.46692 
L 134.725976 156.319247 
L 131.344158 154.559698 
L 127.96234 152.649941 
L 124.580522 150.565729 
L 121.198703 148.274494 
L 117.816885 145.732504 
L 114.435067 142.880721 
L 113.799022 142.308862 
L 111.053249 139.630609 
L 109.362819 137.828862 
L 107.454462 135.588862 
L 105.717286 133.348862 
L 104.158571 131.108862 
L 102.742217 128.868862 
L 100.907794 125.497809 
L 99.343017 122.148862 
L 97.694132 117.668862 
L 96.459038 113.188862 
L 95.620958 108.708862 
L 95.149062 104.228862 
L 95.023795 99.748862 
L 95.239364 95.268862 
L 95.803351 90.788862 
L 96.737163 86.308862 
L 97.525976 83.526802 
L 98.089479 81.828862 
L 98.952323 79.588862 
L 100.907794 75.464552 
L 101.105697 75.108862 
L 102.499172 72.868862 
L 104.289613 70.391759 
L 106.135115 68.388862 
L 107.671431 66.92049 
L 108.684257 66.148862 
L 111.053249 64.533545 
L 114.435067 62.976358 
L 117.816885 62.08228 
L 121.198703 61.737547 
L 124.580522 61.855356 
L 127.96234 62.364606 
L 131.344158 63.209353 
L 134.725976 64.342928 
L 138.996362 66.148862 
L 141.489613 67.309446 
L 148.253249 70.999844 
L 155.016885 75.201844 
L 161.780522 79.750427 
L 171.925976 86.955199 
L 176.064487 89.965629 
L 176.064487 89.965629 
" clip-path="url(#p784fa410cb)" style="fill: none; stroke: #21918c; stroke-width: 1.5"/>
   </g>
   <g id="PathCollection_7">
    <path d="M 384.980522 192.572479 
L 381.598703 193.077703 
L 374.835067 193.672814 
L 368.071431 193.919726 
L 357.925976 194.01035 
L 344.398703 193.868853 
L 330.871431 193.48189 
L 313.96234 192.778665 
L 297.053249 191.864031 
L 280.144158 190.713925 
L 263.235067 189.337654 
L 246.325976 187.705068 
L 232.798703 186.186893 
L 219.271431 184.445243 
L 206.948192 182.628862 
L 198.980522 181.335876 
L 188.835067 179.497704 
L 178.689613 177.424988 
L 168.544158 175.071065 
L 161.780522 173.308166 
L 155.016885 171.364987 
L 148.184016 169.188862 
L 141.489613 166.806487 
L 134.725976 164.089983 
L 127.96234 160.977079 
L 124.580522 159.239537 
L 121.198703 157.355536 
L 117.816885 155.30284 
L 114.435067 153.051027 
L 111.053249 150.55868 
L 107.671431 147.769292 
L 106.564954 146.788862 
L 104.232515 144.548862 
L 100.907794 140.941704 
L 100.164769 140.068862 
L 97.525976 136.585699 
L 96.824624 135.588862 
L 95.386248 133.348862 
L 92.931197 128.868862 
L 91.893157 126.628862 
L 90.157396 122.148862 
L 88.81689 117.668862 
L 87.85501 113.188862 
L 87.219167 108.708862 
L 86.877281 104.228862 
L 86.827231 99.748862 
L 87.056662 95.268862 
L 87.557164 90.788862 
L 88.325078 86.308862 
L 89.3902 81.828862 
L 90.782013 77.348862 
L 92.543081 72.868862 
L 94.144158 69.540397 
L 96.11226 66.148862 
L 97.624457 63.908862 
L 99.430263 61.668862 
L 101.543015 59.428862 
L 104.289613 57.086027 
L 107.778057 54.948862 
L 111.053249 53.604329 
L 114.435067 52.806471 
L 117.816885 52.513521 
L 121.496807 52.708862 
L 124.580522 53.183202 
L 127.96234 54.036833 
L 131.344158 55.1836 
L 136.000164 57.188862 
L 138.107794 58.17494 
L 144.871431 61.915076 
L 151.635067 66.185696 
L 158.398703 70.818552 
L 168.544158 78.175104 
L 195.598703 98.248515 
L 205.744158 105.464688 
L 215.889613 112.37938 
L 226.035067 118.95394 
L 236.180522 125.175927 
L 246.438714 131.108862 
L 256.471431 136.565407 
L 266.616885 141.758672 
L 277.082701 146.788862 
L 286.985038 151.268862 
L 297.502455 155.748862 
L 307.198703 159.662357 
L 313.208851 161.9759 
L 313.208851 161.9759 
" clip-path="url(#p784fa410cb)" style="fill: none; stroke: #22a884; stroke-width: 1.5"/>
    <path d="M 335.076582 169.870994 
L 337.635067 170.752665 
L 339.713766 171.428862 
L 341.016885 171.893698 
L 344.398703 173.029886 
L 346.422611 173.668862 
L 347.780522 174.148077 
L 351.16234 175.264823 
L 353.253364 175.908862 
L 354.544158 176.364451 
L 357.925976 177.474051 
L 360.155235 178.148862 
L 361.307794 178.562095 
L 364.689613 179.680742 
L 367.043954 180.388862 
L 368.071431 180.771982 
L 371.453249 181.922105 
L 373.778504 182.628862 
L 374.835067 183.054548 
L 378.216885 184.268763 
L 380.11689 184.868862 
L 381.598703 185.560295 
L 384.980522 186.885664 
" clip-path="url(#p784fa410cb)" style="fill: none; stroke: #22a884; stroke-width: 1.5"/>
   </g>
   <g id="PathCollection_8">
    <path d="M 384.980522 202.680476 
L 381.598703 202.553017 
L 378.216885 202.423002 
L 374.835067 202.290273 
L 371.453249 202.154667 
L 368.071431 202.016016 
L 364.689613 201.874145 
L 361.307794 201.728875 
L 359.393688 201.644623 
" clip-path="url(#p784fa410cb)" style="fill: none; stroke: #44bf70; stroke-width: 1.5"/>
    <path d="M 336.169932 200.522035 
L 313.96234 199.252376 
L 293.671431 197.897856 
L 273.380522 196.330652 
L 253.089613 194.512031 
L 236.180522 192.75408 
L 222.653249 191.149038 
L 209.227239 189.348862 
L 198.980522 187.835477 
L 185.453249 185.558675 
L 171.925976 182.910855 
L 160.813399 180.388862 
L 155.016885 178.937468 
L 144.871431 176.054697 
L 137.512957 173.668862 
L 131.344158 171.427544 
L 124.580522 168.666002 
L 117.816885 165.486174 
L 114.435067 163.704028 
L 111.053249 161.765331 
L 107.671431 159.645202 
L 104.289613 157.309002 
L 100.907794 154.708796 
L 97.525976 151.778098 
L 96.973069 151.268862 
L 94.144158 148.423946 
L 92.646699 146.788862 
L 89.091718 142.308862 
L 86.181704 137.828862 
L 83.998703 133.682072 
L 82.81513 131.108862 
L 81.140878 126.628862 
L 79.834835 122.148862 
L 78.863759 117.668862 
L 78.206279 113.188862 
L 77.823599 108.708862 
L 77.687888 104.228862 
L 77.780503 99.748862 
L 78.090772 95.268862 
L 78.615236 90.788862 
L 79.357268 86.308862 
L 80.327051 81.828862 
L 81.498007 77.348862 
L 82.917381 72.868862 
L 84.616662 68.388862 
L 86.629261 63.908862 
L 87.783322 61.668862 
L 89.050405 59.428862 
L 90.76234 56.71503 
L 92.023774 54.948862 
L 94.144158 52.28068 
L 97.525976 48.854541 
L 98.295586 48.228862 
L 101.375981 45.988862 
L 104.289613 44.382266 
L 107.671431 43.119412 
L 111.053249 42.397142 
L 114.435067 42.153675 
L 117.816885 42.329121 
L 121.198703 42.876753 
L 124.580522 43.762098 
L 127.96234 44.914715 
L 131.344158 46.335189 
L 135.193391 48.228862 
L 139.246399 50.468862 
L 142.96038 52.708862 
L 146.442407 54.948862 
L 151.635067 58.475718 
L 162.092615 66.148862 
L 178.689613 78.882363 
L 192.216885 89.182814 
L 203.581563 97.508862 
L 213.167654 104.228862 
L 222.653249 110.558694 
L 230.319125 115.428862 
L 239.56234 121.015862 
L 246.325976 124.913405 
L 253.499794 128.868862 
L 263.235067 133.94405 
L 271.118277 137.828862 
L 280.734536 142.308862 
L 291.001122 146.788862 
L 302.000295 151.268862 
L 310.580522 154.553926 
L 320.725976 158.21854 
L 333.373088 162.468862 
L 341.016885 164.889958 
L 351.16234 167.938405 
L 364.689613 171.730133 
L 378.216885 175.25443 
L 384.980522 176.928453 
L 384.980522 176.928453 
" clip-path="url(#p784fa410cb)" style="fill: none; stroke: #44bf70; stroke-width: 1.5"/>
   </g>
   <g id="PathCollection_9">
    <path d="M 384.980522 209.486082 
L 354.544158 208.144845 
L 324.107794 206.56077 
L 300.435067 205.119071 
L 269.998703 202.96261 
L 242.944158 200.640329 
L 219.271431 198.195971 
L 205.744158 196.584286 
L 188.835067 194.25444 
L 175.307794 192.095659 
L 161.780522 189.5876 
L 150.261492 187.108862 
L 144.871431 185.83571 
L 134.725976 183.114955 
L 125.953237 180.388862 
L 121.198703 178.746333 
L 114.435067 176.122106 
L 108.842672 173.668862 
L 104.289613 171.425382 
L 100.188828 169.188862 
L 96.494904 166.948862 
L 93.166274 164.708862 
L 90.164992 162.468862 
L 87.380522 160.159747 
L 83.998703 157.001763 
L 82.768249 155.748862 
L 80.616885 153.314136 
L 78.946414 151.268862 
L 75.833324 146.788862 
L 73.853249 143.302427 
L 72.239874 140.068862 
L 70.4658 135.588862 
L 69.028933 131.108862 
L 67.969307 126.628862 
L 67.223345 122.148862 
L 66.712874 117.668862 
L 66.438307 113.188862 
L 66.38322 108.708862 
L 66.528218 104.228862 
L 66.860895 99.748862 
L 67.645919 93.028862 
L 68.361495 88.548862 
L 69.247937 84.068862 
L 70.887248 77.348862 
L 72.149422 72.868862 
L 73.853249 67.767777 
L 75.248571 63.908862 
L 77.235067 59.18497 
L 79.209105 54.948862 
L 81.624432 50.468862 
L 84.437445 45.988862 
L 87.380522 42.023443 
L 89.817723 39.268862 
L 90.76234 38.283744 
L 94.144158 35.317901 
L 97.525976 33.036416 
L 100.907794 31.366842 
L 104.289613 30.264912 
L 107.671431 29.644597 
L 111.053249 29.482151 
L 114.435067 29.728275 
L 117.816885 30.345625 
L 121.198703 31.263248 
L 124.697637 32.548862 
L 127.96234 33.955533 
L 133.780854 37.028862 
L 134.725976 37.545907 
L 141.489613 41.811554 
L 148.253249 46.556722 
L 156.38877 52.708862 
L 165.16234 59.64716 
L 176.3593 68.638398 
L 176.3593 68.638398 
" clip-path="url(#p784fa410cb)" style="fill: none; stroke: #7ad151; stroke-width: 1.5"/>
    <path d="M 194.628255 83.019865 
L 195.598703 83.767587 
L 195.995564 84.068862 
L 198.942174 86.308862 
L 198.980522 86.337765 
L 201.955289 88.548862 
L 202.36234 88.85148 
L 205.005801 90.788862 
L 205.744158 91.329629 
L 208.097947 93.028862 
L 209.125976 93.769729 
L 211.236133 95.268862 
L 212.507794 96.16969 
L 214.424858 97.508862 
L 215.889613 98.527829 
L 217.668658 99.748862 
L 219.271431 100.842877 
L 220.972033 101.988862 
L 222.653249 103.113984 
L 224.339393 104.228862 
L 226.035067 105.340716 
L 227.775001 106.468862 
L 229.416885 107.523038 
L 231.282936 108.708862 
L 232.798703 109.661297 
L 234.867063 110.948862 
L 236.180522 111.756184 
L 238.53102 113.188862 
L 239.56234 113.808695 
L 242.27822 115.428862 
L 242.944158 115.820077 
L 246.111884 117.668862 
L 246.325976 117.791764 
L 249.707794 119.709163 
L 250.062758 119.908862 
L 253.089613 121.577154 
L 254.129392 122.148862 
L 256.471431 123.409095 
L 258.29523 124.388862 
L 259.853249 125.207258 
L 262.562424 126.628862 
L 263.235067 126.973761 
L 266.616885 128.696793 
L 266.957885 128.868862 
L 269.998703 130.362042 
L 271.515062 131.108862 
L 273.380522 132.002719 
L 276.181407 133.348862 
L 276.76234 133.620527 
L 280.144158 135.185756 
L 281.017529 135.588862 
L 283.525976 136.71107 
L 286.009237 137.828862 
L 286.907794 138.221202 
L 290.289613 139.687676 
L 291.172033 140.068862 
L 293.671431 141.112567 
L 296.512485 142.308862 
L 297.053249 142.529334 
L 300.435067 143.889559 
L 302.067633 144.548862 
L 303.816885 145.230935 
L 307.198703 146.551897 
L 307.810627 146.788862 
L 310.580522 147.821932 
L 313.780294 149.028862 
L 313.96234 149.095216 
L 317.344158 150.304303 
L 320.01237 151.268862 
L 320.725976 151.517786 
L 324.107794 152.681086 
L 326.497427 153.508862 
L 327.489613 153.840225 
L 330.871431 154.956362 
L 333.259333 155.748862 
L 334.253249 156.066832 
L 337.635067 157.135108 
L 340.320516 157.988862 
L 341.016885 158.2024 
L 344.398703 159.222959 
L 347.702173 160.228862 
L 347.780522 160.251908 
L 351.16234 161.225851 
L 354.544158 162.205244 
L 355.46229 162.468862 
L 357.925976 163.149593 
L 361.307794 164.079888 
L 363.595603 164.708862 
L 364.689613 164.999345 
L 368.071431 165.883697 
L 371.453249 166.770029 
L 372.143017 166.948862 
L 374.835067 167.621778 
L 378.216885 168.461325 
L 381.148384 169.188862 
L 381.598703 169.297304 
L 384.980522 170.095703 
" clip-path="url(#p784fa410cb)" style="fill: none; stroke: #7ad151; stroke-width: 1.5"/>
   </g>
   <g id="PathCollection_10">
    <path d="M 384.980522 217.52062 
L 381.598703 217.409571 
L 378.216885 217.296024 
L 374.835067 217.179884 
L 371.453249 217.061052 
L 368.071431 216.939427 
L 364.689613 216.814902 
L 361.307794 216.687366 
L 357.925976 216.556707 
L 354.544158 216.422804 
L 351.16234 216.285535 
L 349.788922 216.228862 
L 347.780522 216.156072 
L 344.398703 216.031256 
L 341.016885 215.903386 
L 337.635067 215.772329 
L 334.253249 215.637943 
L 330.871431 215.500084 
L 327.489613 215.358601 
L 324.107794 215.213334 
L 320.725976 215.06412 
L 317.344158 214.910786 
L 313.96234 214.753155 
L 310.580522 214.591038 
L 307.198703 214.42424 
L 303.816885 214.252557 
L 300.435067 214.075777 
L 298.806063 213.988862 
L 297.053249 213.90601 
L 293.671431 213.742807 
L 291.753669 213.647489 
" clip-path="url(#p784fa410cb)" style="fill: none; stroke: #bddf26; stroke-width: 1.5"/>
    <path d="M 268.5386 212.358837 
L 266.616885 212.239681 
L 263.235067 212.022819 
L 259.853249 211.798429 
L 259.119585 211.748862 
L 256.471431 211.588747 
L 253.089613 211.378023 
L 249.707794 211.159744 
L 246.325976 210.933495 
L 242.944158 210.698838 
L 239.56234 210.455308 
L 236.180522 210.202415 
L 232.798703 209.939639 
L 229.416885 209.66643 
L 227.521655 209.508862 
L 226.035067 209.397047 
L 222.653249 209.135866 
L 219.271431 208.863806 
L 215.889613 208.580201 
L 212.507794 208.284344 
L 209.125976 207.975478 
L 205.744158 207.652799 
L 202.36234 207.315446 
L 201.90486 207.268862 
L 198.980522 206.996335 
L 195.598703 206.667481 
L 192.216885 206.322723 
L 188.835067 205.96098 
L 185.453249 205.58109 
L 182.071431 205.181802 
L 180.814727 205.028862 
L 178.689613 204.789475 
L 175.307794 204.392839 
L 171.925976 203.97447 
L 168.544158 203.532735 
L 165.16234 203.065864 
L 163.235729 202.788862 
L 161.780522 202.593008 
L 158.398703 202.120325 
L 155.016885 201.618564 
L 151.635067 201.085319 
L 148.430574 200.548862 
L 148.253249 200.520771 
L 144.871431 199.970875 
L 141.489613 199.383451 
L 138.107794 198.755105 
L 135.83197 198.308862 
L 134.725976 198.101206 
L 131.344158 197.439347 
L 127.96234 196.727033 
L 125.043388 196.068862 
L 124.580522 195.967831 
L 121.198703 195.202822 
L 117.816885 194.373676 
L 115.726829 193.828862 
L 114.435067 193.499001 
L 111.053249 192.588538 
L 107.671431 191.593699 
L 107.655491 191.588862 
L 104.289613 190.574976 
L 100.907794 189.454201 
L 100.602058 189.348862 
L 97.525976 188.284879 
L 94.42519 187.108862 
L 94.144158 187.000966 
L 90.76234 185.64175 
L 88.981536 184.868862 
L 87.380522 184.156245 
L 84.19839 182.628862 
L 83.998703 182.529624 
L 80.616885 180.76056 
L 79.948234 180.388862 
L 77.235067 178.802713 
L 76.179876 178.148862 
L 73.853249 176.615263 
L 72.834459 175.908862 
L 70.471431 174.144232 
L 69.861595 173.668862 
L 67.217805 171.428862 
L 67.089613 171.311763 
L 64.835021 169.188862 
L 63.707794 168.004215 
L 62.725726 166.948862 
L 60.850453 164.708862 
L 60.325976 164.017306 
L 59.16257 162.468862 
L 57.67402 160.228862 
L 56.944158 158.99339 
L 56.348427 157.988862 
L 55.157202 155.748862 
L 54.127847 153.508862 
L 53.56234 152.108712 
L 53.215553 151.268862 
L 52.39197 149.028862 
L 51.686034 146.788862 
L 51.084958 144.548862 
L 50.577649 142.308862 
L 50.180522 140.211966 
" clip-path="url(#p784fa410cb)" style="fill: none; stroke: #bddf26; stroke-width: 1.5"/>
    <path d="M 50.180522 106.325759 
L 50.456261 104.228862 
L 50.781533 101.988862 
L 51.137668 99.748862 
L 51.525128 97.508862 
L 51.916963 95.416523 
" clip-path="url(#p784fa410cb)" style="fill: none; stroke: #bddf26; stroke-width: 1.5"/>
    <path d="M 57.534638 72.864907 
L 58.203492 70.628862 
L 58.916694 68.388862 
L 59.676551 66.148862 
L 60.325976 64.34315 
L 60.467904 63.908862 
L 61.229764 61.668862 
L 62.0424 59.428862 
L 62.910373 57.188862 
L 63.707794 55.254908 
L 63.824397 54.948862 
L 64.709088 52.708862 
L 65.656863 50.468862 
L 66.673854 48.228862 
L 67.089613 47.353211 
L 67.700916 45.988862 
L 68.76264 43.748862 
L 69.907137 41.508862 
L 70.471431 40.458009 
L 71.088534 39.268862 
L 72.317612 37.028862 
L 73.650439 34.788862 
L 73.853249 34.459422 
L 75.023064 32.548862 
L 76.506274 30.308862 
L 77.235067 29.266796 
L 78.094669 28.068862 
L 79.809111 25.828862 
L 80.616885 24.832028 
L 81.689869 23.588862 
L 83.767116 21.348862 
L 83.998703 21.108173 
L 86.14477 19.108862 
L 87.380522 18.027679 
L 88.936442 16.868862 
L 90.76234 15.571717 
L 92.432714 14.628862 
L 94.144158 13.691585 
L 97.460841 12.388862 
" clip-path="url(#p784fa410cb)" style="fill: none; stroke: #bddf26; stroke-width: 1.5"/>
    <path d="M 114.500202 12.388862 
L 117.816885 13.436002 
L 120.701261 14.628862 
L 121.198703 14.823675 
L 124.580522 16.443038 
L 125.340906 16.868862 
L 127.96234 18.284954 
L 129.302786 19.108862 
L 131.344158 20.328612 
L 132.883764 21.348862 
L 134.725976 22.54415 
L 136.209023 23.588862 
L 138.107794 24.907194 
L 139.352699 25.828862 
L 141.489613 27.397687 
L 142.360325 28.068862 
L 144.871431 29.998976 
L 145.260586 30.308862 
L 148.081709 32.548862 
L 148.253249 32.683593 
L 150.861708 34.788862 
L 151.635067 35.415549 
L 153.592415 37.028862 
L 155.016885 38.212312 
L 156.278374 39.268862 
L 158.398703 41.065044 
L 158.922448 41.508862 
L 160.585011 42.926415 
" clip-path="url(#p784fa410cb)" style="fill: none; stroke: #bddf26; stroke-width: 1.5"/>
    <path d="M 178.277755 58.011531 
L 178.689613 58.363868 
L 179.961616 59.428862 
L 182.071431 61.226233 
L 182.603545 61.668862 
L 185.269224 63.908862 
L 185.453249 64.062865 
L 188.003427 66.148862 
L 188.835067 66.83913 
L 190.747816 68.388862 
L 192.216885 69.596029 
L 193.505619 70.628862 
L 195.598703 72.328841 
L 196.280733 72.868862 
L 198.980522 75.032943 
L 199.07768 75.108862 
L 201.958821 77.348862 
L 202.36234 77.664254 
L 204.881869 79.588862 
L 205.744158 80.252366 
L 207.83942 81.828862 
L 209.125976 82.802363 
L 210.836312 84.068862 
L 212.507794 85.311327 
L 213.877626 86.308862 
L 215.889613 87.776699 
L 216.968593 88.548862 
L 219.271431 90.19634 
L 220.114483 90.788862 
L 222.653249 92.568568 
L 223.3205 93.028862 
L 226.035067 94.892197 
L 226.591679 95.268862 
L 229.416885 97.166564 
L 229.932788 97.508862 
L 232.798703 99.391547 
L 233.348233 99.748862 
L 236.180522 101.567556 
L 236.841992 101.988862 
L 239.56234 103.695528 
L 240.417548 104.228862 
L 242.944158 105.776887 
L 244.077859 106.468862 
L 246.325976 107.813506 
L 247.825344 108.708862 
L 249.707794 109.807647 
L 251.661891 110.948862 
L 253.089613 111.761884 
L 255.588901 113.188862 
L 256.471431 113.679028 
L 259.607354 115.428862 
L 259.853249 115.562037 
L 263.235067 117.378137 
L 263.775296 117.668862 
L 266.616885 119.144699 
L 268.071023 119.908862 
L 269.998703 120.884482 
L 272.463354 122.148862 
L 273.380522 122.601154 
L 276.76234 124.284996 
L 276.972543 124.388862 
L 280.144158 125.886557 
L 281.684172 126.628862 
L 283.525976 127.475982 
L 286.489171 128.868862 
L 286.907794 129.0564 
L 290.289613 130.561516 
L 291.499881 131.108862 
L 293.671431 132.039588 
L 296.64215 133.348862 
L 297.053249 133.520459 
L 300.435067 134.921183 
L 302.010705 135.588862 
L 303.816885 136.309911 
L 307.198703 137.695296 
L 307.526601 137.828862 
L 310.580522 138.994765 
L 313.289408 140.068862 
L 313.96234 140.319068 
L 317.344158 141.572525 
L 319.277338 142.308862 
L 320.725976 142.823953 
L 324.107794 144.042385 
L 325.492368 144.548862 
L 327.489613 145.228044 
L 330.871431 146.40544 
L 331.963162 146.788862 
L 334.253249 147.533758 
L 337.635067 148.66475 
L 338.715227 149.028862 
L 341.016885 149.745096 
L 344.398703 150.825246 
L 345.770281 151.268862 
L 347.780522 151.867463 
L 351.16234 152.893478 
L 353.146035 153.508862 
L 354.544158 153.907374 
L 357.925976 154.877256 
L 360.856428 155.748862 
L 361.307794 155.872056 
L 364.689613 156.785169 
L 368.071431 157.735304 
L 368.971368 157.988862 
L 371.453249 158.62606 
L 374.835067 159.513057 
L 377.487024 160.228862 
L 378.216885 160.408457 
L 381.598703 161.234637 
L 384.980522 162.089936 
" clip-path="url(#p784fa410cb)" style="fill: none; stroke: #bddf26; stroke-width: 1.5"/>
   </g>
   <g id="PathCollection_11"/>
   <g id="patch_3">
    <path d="M 50.180522 234.148862 
L 50.180522 12.388862 
" style="fill: none; stroke: #000000; stroke-width: 0.8; stroke-linejoin: miter; stroke-linecap: square"/>
   </g>
   <g id="patch_4">
    <path d="M 384.980522 234.148862 
L 384.980522 12.388862 
" style="fill: none; stroke: #000000; stroke-width: 0.8; stroke-linejoin: miter; stroke-linecap: square"/>
   </g>
   <g id="patch_5">
    <path d="M 50.180522 234.148862 
L 384.980522 234.148862 
" style="fill: none; stroke: #000000; stroke-width: 0.8; stroke-linejoin: miter; stroke-linecap: square"/>
   </g>
   <g id="patch_6">
    <path d="M 50.180522 12.388862 
L 384.980522 12.388862 
" style="fill: none; stroke: #000000; stroke-width: 0.8; stroke-linejoin: miter; stroke-linecap: square"/>
   </g>
   <g id="text_17">
    <!-- -0.9 -->
    <g style="fill: #482475" transform="translate(161.157248 108.616597) rotate(-326.644593) scale(0.1 -0.1)">
     <defs>
      <path id="CMSS17-2d" d="M 1664 1216 
L 1664 1587 
L 64 1587 
L 64 1216 
L 1664 1216 
z
" transform="scale(0.015625)"/>
      <path id="CMSS17-30" d="M 2758 2073 
C 2758 2439 2752 3120 2490 3647 
C 2227 4153 1805 4288 1504 4288 
C 1069 4288 698 4031 506 3621 
C 301 3191 243 2748 243 2073 
C 243 1611 262 1046 493 551 
C 755 6 1197 -128 1498 -128 
C 1894 -128 2278 83 2496 525 
C 2720 988 2758 1495 2758 2073 
z
M 1498 262 
C 1011 262 864 821 819 1007 
C 742 1328 730 1636 730 2144 
C 730 2542 730 2992 851 3345 
C 998 3756 1254 3897 1498 3897 
C 1971 3897 2125 3422 2176 3255 
C 2272 2915 2272 2516 2272 2144 
C 2272 1546 2272 262 1498 262 
z
" transform="scale(0.015625)"/>
      <path id="CMSS17-2e" d="M 1088 512 
L 576 512 
L 576 0 
L 1088 0 
L 1088 512 
z
" transform="scale(0.015625)"/>
      <path id="CMSS17-39" d="M 435 172 
C 614 19 845 -128 1235 -128 
C 2010 -128 2752 738 2752 2136 
C 2752 3987 1952 4288 1523 4288 
C 1094 4288 819 4095 582 3789 
C 301 3438 250 3125 250 2761 
C 250 2327 326 2059 506 1753 
C 749 1356 973 1273 1222 1273 
C 1600 1273 1978 1459 2234 1778 
C 2189 908 1798 268 1235 268 
C 1005 268 819 340 634 516 
L 435 172 
z
M 2214 2774 
C 2221 2729 2221 2646 2221 2621 
C 2221 2085 1914 1664 1466 1664 
C 1171 1664 1018 1817 902 2015 
C 762 2263 755 2506 755 2761 
C 755 3010 755 3284 934 3559 
C 1069 3757 1235 3897 1523 3897 
C 2112 3897 2208 3036 2214 2774 
z
" transform="scale(0.015625)"/>
     </defs>
     <use xlink:href="#CMSS17-2d" transform="scale(0.996264)"/>
     <use xlink:href="#CMSS17-30" transform="translate(31.229113 0) scale(0.996264)"/>
     <use xlink:href="#CMSS17-2e" transform="translate(78.072736 0) scale(0.996264)"/>
     <use xlink:href="#CMSS17-39" transform="translate(104.096941 0) scale(0.996264)"/>
    </g>
   </g>
   <g id="text_18">
    <!-- -0.8 -->
    <g style="fill: #414487" transform="translate(191.089253 121.957274) rotate(-322.658368) scale(0.1 -0.1)">
     <defs>
      <path id="CMSS17-38" d="M 1933 2246 
C 2419 2406 2669 2793 2669 3174 
C 2669 3774 2157 4288 1504 4288 
C 826 4288 333 3755 333 3174 
C 333 2799 576 2412 1069 2246 
C 442 2003 250 1516 250 1152 
C 250 448 819 -128 1498 -128 
C 2202 -128 2752 460 2752 1152 
C 2752 1574 2502 2022 1933 2246 
z
M 1504 2438 
C 1075 2438 787 2728 787 3167 
C 787 3613 1075 3897 1504 3897 
C 1901 3897 2214 3639 2214 3167 
C 2214 2703 1907 2438 1504 2438 
z
M 1504 268 
C 1139 268 749 518 749 1158 
C 749 1817 1184 2048 1498 2048 
C 1843 2048 2253 1804 2253 1158 
C 2253 492 1830 268 1504 268 
z
" transform="scale(0.015625)"/>
     </defs>
     <use xlink:href="#CMSS17-2d" transform="scale(0.996264)"/>
     <use xlink:href="#CMSS17-30" transform="translate(31.229113 0) scale(0.996264)"/>
     <use xlink:href="#CMSS17-2e" transform="translate(78.072736 0) scale(0.996264)"/>
     <use xlink:href="#CMSS17-38" transform="translate(104.096941 0) scale(0.996264)"/>
    </g>
   </g>
   <g id="text_19">
    <!-- -0.7 -->
    <g style="fill: #355f8d" transform="translate(187.254966 164.301057) rotate(-349.571603) scale(0.1 -0.1)">
     <defs>
      <path id="CMSS17-37" d="M 1389 3788 
C 1466 3788 1542 3795 1619 3795 
L 2355 3795 
C 1440 2715 915 1350 915 -64 
L 1427 -64 
C 1427 1305 1875 2695 2752 3807 
L 2752 4224 
L 250 4224 
L 250 3788 
L 1389 3788 
z
" transform="scale(0.015625)"/>
     </defs>
     <use xlink:href="#CMSS17-2d" transform="scale(0.996264)"/>
     <use xlink:href="#CMSS17-30" transform="translate(31.229113 0) scale(0.996264)"/>
     <use xlink:href="#CMSS17-2e" transform="translate(78.072736 0) scale(0.996264)"/>
     <use xlink:href="#CMSS17-37" transform="translate(104.096941 0) scale(0.996264)"/>
    </g>
   </g>
   <g id="text_20">
    <!-- -0.6 -->
    <g style="fill: #2a788e" transform="translate(231.42451 137.031255) rotate(-328.324426) scale(0.1 -0.1)">
     <defs>
      <path id="CMSS17-36" d="M 2496 4159 
C 2227 4268 2035 4288 1856 4288 
C 1024 4288 250 3408 250 2023 
C 250 268 986 -128 1510 -128 
C 1798 -128 2086 -39 2362 281 
C 2643 619 2752 900 2752 1392 
C 2752 2183 2362 2886 1779 2886 
C 1357 2886 992 2662 768 2381 
C 832 3290 1254 3897 1862 3897 
C 2029 3897 2246 3871 2496 3760 
L 2496 4159 
z
M 774 1372 
C 774 1423 774 1455 781 1551 
C 781 2049 1069 2496 1536 2496 
C 1837 2496 1990 2336 2106 2138 
C 2240 1889 2246 1653 2246 1392 
C 2246 1143 2246 894 2099 638 
C 1978 441 1818 268 1510 268 
C 902 268 800 1117 774 1372 
z
" transform="scale(0.015625)"/>
     </defs>
     <use xlink:href="#CMSS17-2d" transform="scale(0.996264)"/>
     <use xlink:href="#CMSS17-30" transform="translate(31.229113 0) scale(0.996264)"/>
     <use xlink:href="#CMSS17-2e" transform="translate(78.072736 0) scale(0.996264)"/>
     <use xlink:href="#CMSS17-36" transform="translate(104.096941 0) scale(0.996264)"/>
    </g>
   </g>
   <g id="text_21">
    <!-- -0.5 -->
    <g style="fill: #21918c" transform="translate(177.499364 94.110861) rotate(-323.939961) scale(0.1 -0.1)">
     <defs>
      <path id="CMSS17-35" d="M 934 3814 
L 2502 3814 
L 2502 4224 
L 467 4224 
L 467 1830 
L 896 1830 
C 1011 2103 1248 2304 1555 2304 
C 1843 2304 2163 2044 2163 1299 
C 2163 502 1709 268 1376 268 
C 966 268 589 521 422 871 
L 218 508 
C 512 51 992 -128 1376 -128 
C 2118 -128 2701 508 2701 1286 
C 2701 2083 2182 2694 1562 2694 
C 1338 2694 1120 2617 934 2464 
L 934 3814 
z
" transform="scale(0.015625)"/>
     </defs>
     <use xlink:href="#CMSS17-2d" transform="scale(0.996264)"/>
     <use xlink:href="#CMSS17-30" transform="translate(31.229113 0) scale(0.996264)"/>
     <use xlink:href="#CMSS17-2e" transform="translate(78.072736 0) scale(0.996264)"/>
     <use xlink:href="#CMSS17-35" transform="translate(104.096941 0) scale(0.996264)"/>
    </g>
   </g>
   <g id="text_22">
    <!-- -0.4 -->
    <g style="fill: #22a884" transform="translate(315.713179 165.643503) rotate(-340.187481) scale(0.1 -0.1)">
     <defs>
      <path id="CMSS17-34" d="M 2253 1088 
L 2835 1088 
L 2835 1478 
L 2253 1478 
L 2253 4224 
L 1690 4224 
L 166 1478 
L 166 1088 
L 1747 1088 
L 1747 0 
L 2253 0 
L 2253 1088 
z
M 659 1478 
C 1030 2139 1766 3474 1766 3927 
L 1766 1478 
L 659 1478 
z
" transform="scale(0.015625)"/>
     </defs>
     <use xlink:href="#CMSS17-2d" transform="scale(0.996264)"/>
     <use xlink:href="#CMSS17-30" transform="translate(31.229113 0) scale(0.996264)"/>
     <use xlink:href="#CMSS17-2e" transform="translate(78.072736 0) scale(0.996264)"/>
     <use xlink:href="#CMSS17-34" transform="translate(104.096941 0) scale(0.996264)"/>
    </g>
   </g>
   <g id="text_23">
    <!-- -0.3 -->
    <g style="fill: #44bf70" transform="translate(339.644304 203.210807) rotate(-357.236755) scale(0.1 -0.1)">
     <defs>
      <path id="CMSS17-33" d="M 1005 2060 
L 1440 2060 
C 2042 2060 2214 1532 2214 1164 
C 2214 662 1933 268 1472 268 
C 1114 268 608 449 320 926 
C 275 700 275 687 250 533 
C 550 89 1037 -128 1485 -128 
C 2214 -128 2752 481 2752 1158 
C 2752 1667 2400 2092 1920 2252 
C 2304 2463 2586 2860 2586 3321 
C 2586 3859 2093 4288 1491 4288 
C 941 4288 512 3948 333 3583 
C 378 3519 493 3334 550 3238 
C 691 3615 1056 3897 1485 3897 
C 1843 3897 2080 3660 2080 3321 
C 2080 2969 1856 2585 1478 2496 
C 1453 2496 1056 2457 1005 2451 
L 1005 2060 
z
" transform="scale(0.015625)"/>
     </defs>
     <use xlink:href="#CMSS17-2d" transform="scale(0.996264)"/>
     <use xlink:href="#CMSS17-30" transform="translate(31.229113 0) scale(0.996264)"/>
     <use xlink:href="#CMSS17-2e" transform="translate(78.072736 0) scale(0.996264)"/>
     <use xlink:href="#CMSS17-33" transform="translate(104.096941 0) scale(0.996264)"/>
    </g>
   </g>
   <g id="text_24">
    <!-- -0.2 -->
    <g style="fill: #7ad151" transform="translate(177.605983 72.875255) rotate(-321.802746) scale(0.1 -0.1)">
     <defs>
      <path id="CMSS17-32" d="M 1651 1353 
C 1830 1538 2099 1761 2285 1984 
C 2464 2201 2701 2507 2701 2953 
C 2701 3655 2227 4288 1421 4288 
C 787 4288 422 3891 250 3272 
L 499 2928 
C 640 3508 838 3878 1338 3878 
C 1888 3878 2195 3431 2195 2940 
C 2195 2354 1747 1901 1408 1563 
C 1030 1187 659 805 301 409 
L 301 0 
L 2701 0 
L 2701 435 
L 1613 435 
C 1536 435 1459 428 1382 428 
L 742 428 
L 742 435 
L 1651 1353 
z
" transform="scale(0.015625)"/>
     </defs>
     <use xlink:href="#CMSS17-2d" transform="scale(0.996264)"/>
     <use xlink:href="#CMSS17-30" transform="translate(31.229113 0) scale(0.996264)"/>
     <use xlink:href="#CMSS17-2e" transform="translate(78.072736 0) scale(0.996264)"/>
     <use xlink:href="#CMSS17-32" transform="translate(104.096941 0) scale(0.996264)"/>
    </g>
   </g>
   <g id="text_25">
    <!-- -0.1 -->
    <g style="fill: #bddf26" transform="translate(271.99315 215.081437) rotate(-356.827741) scale(0.1 -0.1)">
     <defs>
      <path id="CMSS17-31" d="M 1818 4288 
L 1696 4288 
C 1350 3949 947 3902 538 3891 
L 538 3520 
C 723 3526 1024 3539 1325 3673 
L 1325 371 
L 570 371 
L 570 0 
L 2573 0 
L 2573 371 
L 1818 371 
L 1818 4288 
z
" transform="scale(0.015625)"/>
     </defs>
     <use xlink:href="#CMSS17-2d" transform="scale(0.996264)"/>
     <use xlink:href="#CMSS17-30" transform="translate(31.229113 0) scale(0.996264)"/>
     <use xlink:href="#CMSS17-2e" transform="translate(78.072736 0) scale(0.996264)"/>
     <use xlink:href="#CMSS17-31" transform="translate(104.096941 0) scale(0.996264)"/>
    </g>
   </g>
   <g id="text_26">
    <!-- -0.1 -->
    <g style="fill: #bddf26" transform="translate(54.910637 92.458676) rotate(-75.977869) scale(0.1 -0.1)">
     <use xlink:href="#CMSS17-2d" transform="scale(0.996264)"/>
     <use xlink:href="#CMSS17-30" transform="translate(31.229113 0) scale(0.996264)"/>
     <use xlink:href="#CMSS17-2e" transform="translate(78.072736 0) scale(0.996264)"/>
     <use xlink:href="#CMSS17-31" transform="translate(104.096941 0) scale(0.996264)"/>
    </g>
   </g>
   <g id="text_27">
    <!-- -0.1 -->
    <g style="fill: #bddf26" transform="translate(161.713242 47.146315) rotate(-319.467863) scale(0.1 -0.1)">
     <use xlink:href="#CMSS17-2d" transform="scale(0.996264)"/>
     <use xlink:href="#CMSS17-30" transform="translate(31.229113 0) scale(0.996264)"/>
     <use xlink:href="#CMSS17-2e" transform="translate(78.072736 0) scale(0.996264)"/>
     <use xlink:href="#CMSS17-31" transform="translate(104.096941 0) scale(0.996264)"/>
    </g>
   </g>
  </g>
 </g>
 <defs>
  <clipPath id="p784fa410cb">
   <rect x="50.180522" y="12.388862" width="334.8" height="221.76"/>
  </clipPath>
 </defs>
</svg>
