<?xml version="1.0" encoding="utf-8" standalone="no"?>
<!DOCTYPE svg PUBLIC "-//W3C//DTD SVG 1.1//EN"
  "http://www.w3.org/Graphics/SVG/1.1/DTD/svg11.dtd">
<svg xmlns:xlink="http://www.w3.org/1999/xlink" width="513.483637pt" height="273.726939pt" viewBox="0 0 513.483637 273.726939" xmlns="http://www.w3.org/2000/svg" version="1.1">
 <metadata>
  <rdf:RDF xmlns:dc="http://purl.org/dc/elements/1.1/" xmlns:cc="http://creativecommons.org/ns#" xmlns:rdf="http://www.w3.org/1999/02/22-rdf-syntax-ns#">
   <cc:Work>
    <dc:type rdf:resource="http://purl.org/dc/dcmitype/StillImage"/>
    <dc:date>2023-04-09T23:45:18.970417</dc:date>
    <dc:format>image/svg+xml</dc:format>
    <dc:creator>
     <cc:Agent>
      <dc:title>Matplotlib v3.7.1, https://matplotlib.org/</dc:title>
     </cc:Agent>
    </dc:creator>
   </cc:Work>
  </rdf:RDF>
 </metadata>
 <defs>
  <style type="text/css">*{stroke-linejoin: round; stroke-linecap: butt}</style>
 </defs>
 <g id="figure_1">
  <g id="patch_1">
   <path d="M 0 273.726939 
L 513.483637 273.726939 
L 513.483637 0 
L 0 0 
z
" style="fill: #ffffff"/>
  </g>
  <g id="axes_1">
   <g id="patch_2">
    <path d="M 61.803637 228.96 
L 396.603637 228.96 
L 396.603637 7.2 
L 61.803637 7.2 
z
" style="fill: #ffffff"/>
   </g>
   <g id="matplotlib.axis_1">
    <g id="xtick_1">
     <g id="line2d_1">
      <path d="M 77.021819 228.96 
L 77.021819 7.2 
" clip-path="url(#p0a1861f6cd)" style="fill: none; stroke-dasharray: 1.85,0.8; stroke-dashoffset: 0; stroke: #808080; stroke-opacity: 0.5; stroke-width: 0.5"/>
     </g>
     <g id="line2d_2">
      <defs>
       <path id="m9233e20183" d="M 0 0 
L 0 3.5 
" style="stroke: #000000; stroke-width: 0.8"/>
      </defs>
      <g>
       <use xlink:href="#m9233e20183" x="77.021819" y="228.96" style="stroke: #000000; stroke-width: 0.8"/>
      </g>
     </g>
     <g id="text_1">
      <!-- $\mathdefault{0}$ -->
      <g transform="translate(73.3637 246.337725) scale(0.15 -0.15)">
       <defs>
        <path id="CMR17-30" d="M 2688 2038 
C 2688 2430 2682 3099 2413 3613 
C 2176 4063 1798 4224 1466 4224 
C 1158 4224 768 4082 525 3620 
C 269 3137 243 2539 243 2038 
C 243 1671 250 1112 448 623 
C 723 -39 1216 -128 1466 -128 
C 1760 -128 2208 -7 2470 604 
C 2662 1048 2688 1568 2688 2038 
z
M 1466 -26 
C 1056 -26 813 328 723 816 
C 653 1196 653 1749 653 2109 
C 653 2604 653 3015 736 3407 
C 858 3954 1216 4121 1466 4121 
C 1728 4121 2067 3947 2189 3420 
C 2272 3054 2278 2623 2278 2109 
C 2278 1691 2278 1176 2202 797 
C 2067 96 1690 -26 1466 -26 
z
" transform="scale(0.015625)"/>
       </defs>
       <use xlink:href="#CMR17-30" transform="scale(0.996264)"/>
      </g>
     </g>
    </g>
    <g id="xtick_2">
     <g id="line2d_3">
      <path d="M 125.462796 228.96 
L 125.462796 7.2 
" clip-path="url(#p0a1861f6cd)" style="fill: none; stroke-dasharray: 1.85,0.8; stroke-dashoffset: 0; stroke: #808080; stroke-opacity: 0.5; stroke-width: 0.5"/>
     </g>
     <g id="line2d_4">
      <g>
       <use xlink:href="#m9233e20183" x="125.462796" y="228.96" style="stroke: #000000; stroke-width: 0.8"/>
      </g>
     </g>
     <g id="text_2">
      <!-- $\mathdefault{2}$ -->
      <g transform="translate(121.804677 246.337725) scale(0.15 -0.15)">
       <defs>
        <path id="CMR17-32" d="M 2669 990 
L 2554 990 
C 2490 537 2438 460 2413 422 
C 2381 371 1920 371 1830 371 
L 602 371 
C 832 620 1280 1073 1824 1596 
C 2214 1966 2669 2400 2669 3033 
C 2669 3788 2067 4224 1395 4224 
C 691 4224 262 3603 262 3027 
C 262 2777 448 2745 525 2745 
C 589 2745 781 2783 781 3007 
C 781 3206 614 3264 525 3264 
C 486 3264 448 3257 422 3244 
C 544 3788 915 4057 1306 4057 
C 1862 4057 2227 3616 2227 3033 
C 2227 2477 1901 1998 1536 1583 
L 262 147 
L 262 0 
L 2515 0 
L 2669 990 
z
" transform="scale(0.015625)"/>
       </defs>
       <use xlink:href="#CMR17-32" transform="scale(0.996264)"/>
      </g>
     </g>
    </g>
    <g id="xtick_3">
     <g id="line2d_5">
      <path d="M 173.903774 228.96 
L 173.903774 7.2 
" clip-path="url(#p0a1861f6cd)" style="fill: none; stroke-dasharray: 1.85,0.8; stroke-dashoffset: 0; stroke: #808080; stroke-opacity: 0.5; stroke-width: 0.5"/>
     </g>
     <g id="line2d_6">
      <g>
       <use xlink:href="#m9233e20183" x="173.903774" y="228.96" style="stroke: #000000; stroke-width: 0.8"/>
      </g>
     </g>
     <g id="text_3">
      <!-- $\mathdefault{4}$ -->
      <g transform="translate(170.245655 246.337725) scale(0.15 -0.15)">
       <defs>
        <path id="CMR17-34" d="M 2150 4147 
C 2150 4281 2144 4288 2029 4288 
L 128 1254 
L 128 1088 
L 1779 1088 
L 1779 460 
C 1779 230 1766 166 1318 166 
L 1197 166 
L 1197 0 
C 1402 12 1747 12 1965 12 
C 2182 12 2528 12 2733 0 
L 2733 166 
L 2611 166 
C 2163 166 2150 230 2150 460 
L 2150 1088 
L 2803 1088 
L 2803 1254 
L 2150 1254 
L 2150 4147 
z
M 1798 3723 
L 1798 1254 
L 256 1254 
L 1798 3723 
z
" transform="scale(0.015625)"/>
       </defs>
       <use xlink:href="#CMR17-34" transform="scale(0.996264)"/>
      </g>
     </g>
    </g>
    <g id="xtick_4">
     <g id="line2d_7">
      <path d="M 222.344751 228.96 
L 222.344751 7.2 
" clip-path="url(#p0a1861f6cd)" style="fill: none; stroke-dasharray: 1.85,0.8; stroke-dashoffset: 0; stroke: #808080; stroke-opacity: 0.5; stroke-width: 0.5"/>
     </g>
     <g id="line2d_8">
      <g>
       <use xlink:href="#m9233e20183" x="222.344751" y="228.96" style="stroke: #000000; stroke-width: 0.8"/>
      </g>
     </g>
     <g id="text_4">
      <!-- $\mathdefault{6}$ -->
      <g transform="translate(218.686632 246.337725) scale(0.15 -0.15)">
       <defs>
        <path id="CMR17-36" d="M 678 2198 
C 678 3712 1395 4076 1811 4076 
C 1946 4076 2272 4049 2400 3782 
C 2298 3782 2106 3782 2106 3558 
C 2106 3385 2246 3328 2336 3328 
C 2394 3328 2566 3353 2566 3571 
C 2566 3987 2246 4224 1805 4224 
C 1043 4224 243 3411 243 2011 
C 243 257 966 -128 1478 -128 
C 2099 -128 2688 431 2688 1295 
C 2688 2101 2170 2688 1517 2688 
C 1126 2688 838 2430 678 1979 
L 678 2198 
z
M 1478 25 
C 691 25 691 1212 691 1450 
C 691 1914 909 2585 1504 2585 
C 1613 2585 1926 2585 2138 2140 
C 2253 1889 2253 1624 2253 1302 
C 2253 954 2253 696 2118 438 
C 1978 173 1773 25 1478 25 
z
" transform="scale(0.015625)"/>
       </defs>
       <use xlink:href="#CMR17-36" transform="scale(0.996264)"/>
      </g>
     </g>
    </g>
    <g id="xtick_5">
     <g id="line2d_9">
      <path d="M 270.785728 228.96 
L 270.785728 7.2 
" clip-path="url(#p0a1861f6cd)" style="fill: none; stroke-dasharray: 1.85,0.8; stroke-dashoffset: 0; stroke: #808080; stroke-opacity: 0.5; stroke-width: 0.5"/>
     </g>
     <g id="line2d_10">
      <g>
       <use xlink:href="#m9233e20183" x="270.785728" y="228.96" style="stroke: #000000; stroke-width: 0.8"/>
      </g>
     </g>
     <g id="text_5">
      <!-- $\mathdefault{8}$ -->
      <g transform="translate(267.127609 246.337725) scale(0.15 -0.15)">
       <defs>
        <path id="CMR17-38" d="M 1741 2289 
C 2144 2494 2554 2803 2554 3298 
C 2554 3884 1990 4224 1472 4224 
C 890 4224 378 3800 378 3215 
C 378 3054 416 2777 666 2533 
C 730 2469 998 2276 1171 2154 
C 883 2006 211 1652 211 945 
C 211 282 838 -128 1459 -128 
C 2144 -128 2720 366 2720 1022 
C 2720 1607 2330 1877 2074 2051 
L 1741 2289 
z
M 902 2855 
C 851 2887 595 3086 595 3388 
C 595 3781 998 4076 1459 4076 
C 1965 4076 2336 3716 2336 3298 
C 2336 2700 1670 2359 1638 2359 
C 1632 2359 1626 2359 1574 2398 
L 902 2855 
z
M 2080 1536 
C 2176 1466 2483 1253 2483 861 
C 2483 385 2010 25 1472 25 
C 890 25 448 443 448 951 
C 448 1459 838 1884 1280 2083 
L 2080 1536 
z
" transform="scale(0.015625)"/>
       </defs>
       <use xlink:href="#CMR17-38" transform="scale(0.996264)"/>
      </g>
     </g>
    </g>
    <g id="xtick_6">
     <g id="line2d_11">
      <path d="M 319.226705 228.96 
L 319.226705 7.2 
" clip-path="url(#p0a1861f6cd)" style="fill: none; stroke-dasharray: 1.85,0.8; stroke-dashoffset: 0; stroke: #808080; stroke-opacity: 0.5; stroke-width: 0.5"/>
     </g>
     <g id="line2d_12">
      <g>
       <use xlink:href="#m9233e20183" x="319.226705" y="228.96" style="stroke: #000000; stroke-width: 0.8"/>
      </g>
     </g>
     <g id="text_6">
      <!-- $\mathdefault{10}$ -->
      <g transform="translate(311.910467 246.337725) scale(0.15 -0.15)">
       <defs>
        <path id="CMR17-31" d="M 1702 4083 
C 1702 4217 1696 4224 1606 4224 
C 1357 3927 979 3833 621 3820 
C 602 3820 570 3820 563 3808 
C 557 3795 557 3782 557 3648 
C 755 3648 1088 3686 1344 3839 
L 1344 467 
C 1344 243 1331 166 781 166 
L 589 166 
L 589 0 
C 896 6 1216 12 1523 12 
C 1830 12 2150 6 2458 0 
L 2458 166 
L 2266 166 
C 1715 166 1702 236 1702 467 
L 1702 4083 
z
" transform="scale(0.015625)"/>
       </defs>
       <use xlink:href="#CMR17-31" transform="scale(0.996264)"/>
       <use xlink:href="#CMR17-30" transform="translate(45.690477 0) scale(0.996264)"/>
      </g>
     </g>
    </g>
    <g id="xtick_7">
     <g id="line2d_13">
      <path d="M 367.667682 228.96 
L 367.667682 7.2 
" clip-path="url(#p0a1861f6cd)" style="fill: none; stroke-dasharray: 1.85,0.8; stroke-dashoffset: 0; stroke: #808080; stroke-opacity: 0.5; stroke-width: 0.5"/>
     </g>
     <g id="line2d_14">
      <g>
       <use xlink:href="#m9233e20183" x="367.667682" y="228.96" style="stroke: #000000; stroke-width: 0.8"/>
      </g>
     </g>
     <g id="text_7">
      <!-- $\mathdefault{12}$ -->
      <g transform="translate(360.351445 246.337725) scale(0.15 -0.15)">
       <use xlink:href="#CMR17-31" transform="scale(0.996264)"/>
       <use xlink:href="#CMR17-32" transform="translate(45.690477 0) scale(0.996264)"/>
      </g>
     </g>
    </g>
    <g id="text_8">
     <!-- $x$ -->
     <g transform="translate(225.046087 263.621194) scale(0.15 -0.15)">
      <defs>
       <path id="CMMI12-78" d="M 3034 2624 
C 2829 2585 2752 2431 2752 2310 
C 2752 2156 2874 2105 2963 2105 
C 3155 2105 3290 2271 3290 2444 
C 3290 2694 2982 2816 2714 2816 
C 2323 2816 2106 2451 2048 2329 
C 1901 2790 1504 2816 1389 2816 
C 736 2816 390 1993 390 1849 
C 390 1823 416 1790 461 1790 
C 512 1790 525 1829 538 1855 
C 755 2572 1184 2687 1370 2687 
C 1658 2687 1715 2438 1715 2284 
C 1715 2143 1677 1993 1600 1678 
L 1382 778 
C 1286 390 1101 64 762 64 
C 730 64 570 64 435 126 
C 666 166 717 358 717 435 
C 717 563 621 640 499 640 
C 346 640 179 505 179 300 
C 179 57 480 -64 755 -64 
C 1062 -64 1280 153 1414 415 
C 1517 64 1837 -64 2074 -64 
C 2726 -64 3072 751 3072 896 
C 3072 929 3046 955 3008 955 
C 2950 955 2944 922 2925 870 
C 2752 300 2381 64 2093 64 
C 1869 64 1747 204 1747 467 
C 1747 607 1773 712 1875 1146 
L 2099 2039 
C 2195 2425 2413 2687 2707 2687 
C 2720 2687 2899 2687 3034 2624 
z
" transform="scale(0.015625)"/>
      </defs>
      <use xlink:href="#CMMI12-78" transform="scale(0.996264)"/>
     </g>
    </g>
   </g>
   <g id="matplotlib.axis_2">
    <g id="ytick_1">
     <g id="line2d_15">
      <path d="M 61.803637 218.880125 
L 396.603637 218.880125 
" clip-path="url(#p0a1861f6cd)" style="fill: none; stroke-dasharray: 1.85,0.8; stroke-dashoffset: 0; stroke: #808080; stroke-opacity: 0.5; stroke-width: 0.5"/>
     </g>
     <g id="line2d_16">
      <defs>
       <path id="med90ca15d9" d="M 0 0 
L -3.5 0 
" style="stroke: #000000; stroke-width: 0.8"/>
      </defs>
      <g>
       <use xlink:href="#med90ca15d9" x="61.803637" y="218.880125" style="stroke: #000000; stroke-width: 0.8"/>
      </g>
     </g>
     <g id="text_9">
      <!-- $\mathdefault{−1.0}$ -->
      <g transform="translate(24.483469 224.068987) scale(0.15 -0.15)">
       <defs>
        <path id="CMSY10-0" d="M 4218 1472 
C 4326 1472 4442 1472 4442 1600 
C 4442 1728 4326 1728 4218 1728 
L 755 1728 
C 646 1728 531 1728 531 1600 
C 531 1472 646 1472 755 1472 
L 4218 1472 
z
" transform="scale(0.015625)"/>
        <path id="CMMI12-3a" d="M 1178 307 
C 1178 492 1024 620 870 620 
C 685 620 557 467 557 313 
C 557 128 710 0 864 0 
C 1050 0 1178 153 1178 307 
z
" transform="scale(0.015625)"/>
       </defs>
       <use xlink:href="#CMSY10-0" transform="scale(0.996264)"/>
       <use xlink:href="#CMR17-31" transform="translate(77.487468 0) scale(0.996264)"/>
       <use xlink:href="#CMMI12-3a" transform="translate(123.177945 0) scale(0.996264)"/>
       <use xlink:href="#CMR17-30" transform="translate(150.275122 0) scale(0.996264)"/>
      </g>
     </g>
    </g>
    <g id="ytick_2">
     <g id="line2d_17">
      <path d="M 61.803637 168.480093 
L 396.603637 168.480093 
" clip-path="url(#p0a1861f6cd)" style="fill: none; stroke-dasharray: 1.85,0.8; stroke-dashoffset: 0; stroke: #808080; stroke-opacity: 0.5; stroke-width: 0.5"/>
     </g>
     <g id="line2d_18">
      <g>
       <use xlink:href="#med90ca15d9" x="61.803637" y="168.480093" style="stroke: #000000; stroke-width: 0.8"/>
      </g>
     </g>
     <g id="text_10">
      <!-- $\mathdefault{−0.5}$ -->
      <g transform="translate(24.483469 173.668956) scale(0.15 -0.15)">
       <defs>
        <path id="CMR17-35" d="M 730 3750 
C 794 3724 1056 3641 1325 3641 
C 1920 3641 2246 3961 2432 4140 
C 2432 4191 2432 4224 2394 4224 
C 2387 4224 2374 4224 2323 4198 
C 2099 4102 1837 4032 1517 4032 
C 1325 4032 1037 4055 723 4191 
C 653 4224 640 4224 634 4224 
C 602 4224 595 4217 595 4090 
L 595 2231 
C 595 2113 595 2080 659 2080 
C 691 2080 704 2093 736 2139 
C 941 2435 1222 2560 1542 2560 
C 1766 2560 2246 2415 2246 1293 
C 2246 1087 2246 716 2054 422 
C 1894 159 1645 25 1370 25 
C 947 25 518 319 403 812 
C 429 806 480 793 506 793 
C 589 793 749 838 749 1036 
C 749 1209 627 1280 506 1280 
C 358 1280 262 1190 262 1011 
C 262 454 704 -128 1382 -128 
C 2042 -128 2669 441 2669 1267 
C 2669 2054 2170 2662 1549 2662 
C 1222 2662 947 2540 730 2304 
L 730 3750 
z
" transform="scale(0.015625)"/>
       </defs>
       <use xlink:href="#CMSY10-0" transform="scale(0.996264)"/>
       <use xlink:href="#CMR17-30" transform="translate(77.487468 0) scale(0.996264)"/>
       <use xlink:href="#CMMI12-3a" transform="translate(123.177945 0) scale(0.996264)"/>
       <use xlink:href="#CMR17-35" transform="translate(150.275122 0) scale(0.996264)"/>
      </g>
     </g>
    </g>
    <g id="ytick_3">
     <g id="line2d_19">
      <path d="M 61.803637 118.080062 
L 396.603637 118.080062 
" clip-path="url(#p0a1861f6cd)" style="fill: none; stroke-dasharray: 1.85,0.8; stroke-dashoffset: 0; stroke: #808080; stroke-opacity: 0.5; stroke-width: 0.5"/>
     </g>
     <g id="line2d_20">
      <g>
       <use xlink:href="#med90ca15d9" x="61.803637" y="118.080062" style="stroke: #000000; stroke-width: 0.8"/>
      </g>
     </g>
     <g id="text_11">
      <!-- $\mathdefault{0.0}$ -->
      <g transform="translate(36.106585 123.268925) scale(0.15 -0.15)">
       <use xlink:href="#CMR17-30" transform="scale(0.996264)"/>
       <use xlink:href="#CMMI12-3a" transform="translate(45.690477 0) scale(0.996264)"/>
       <use xlink:href="#CMR17-30" transform="translate(72.787654 0) scale(0.996264)"/>
      </g>
     </g>
    </g>
    <g id="ytick_4">
     <g id="line2d_21">
      <path d="M 61.803637 67.680031 
L 396.603637 67.680031 
" clip-path="url(#p0a1861f6cd)" style="fill: none; stroke-dasharray: 1.85,0.8; stroke-dashoffset: 0; stroke: #808080; stroke-opacity: 0.5; stroke-width: 0.5"/>
     </g>
     <g id="line2d_22">
      <g>
       <use xlink:href="#med90ca15d9" x="61.803637" y="67.680031" style="stroke: #000000; stroke-width: 0.8"/>
      </g>
     </g>
     <g id="text_12">
      <!-- $\mathdefault{0.5}$ -->
      <g transform="translate(36.106585 72.868894) scale(0.15 -0.15)">
       <use xlink:href="#CMR17-30" transform="scale(0.996264)"/>
       <use xlink:href="#CMMI12-3a" transform="translate(45.690477 0) scale(0.996264)"/>
       <use xlink:href="#CMR17-35" transform="translate(72.787654 0) scale(0.996264)"/>
      </g>
     </g>
    </g>
    <g id="ytick_5">
     <g id="line2d_23">
      <path d="M 61.803637 17.28 
L 396.603637 17.28 
" clip-path="url(#p0a1861f6cd)" style="fill: none; stroke-dasharray: 1.85,0.8; stroke-dashoffset: 0; stroke: #808080; stroke-opacity: 0.5; stroke-width: 0.5"/>
     </g>
     <g id="line2d_24">
      <g>
       <use xlink:href="#med90ca15d9" x="61.803637" y="17.28" style="stroke: #000000; stroke-width: 0.8"/>
      </g>
     </g>
     <g id="text_13">
      <!-- $\mathdefault{1.0}$ -->
      <g transform="translate(36.106585 22.468862) scale(0.15 -0.15)">
       <use xlink:href="#CMR17-31" transform="scale(0.996264)"/>
       <use xlink:href="#CMMI12-3a" transform="translate(45.690477 0) scale(0.996264)"/>
       <use xlink:href="#CMR17-30" transform="translate(72.787654 0) scale(0.996264)"/>
      </g>
     </g>
    </g>
    <g id="text_14">
     <!-- $y$ -->
     <g transform="translate(17.577725 121.647311) rotate(-90) scale(0.15 -0.15)">
      <defs>
       <path id="CMMI12-79" d="M 1683 -673 
C 1510 -921 1261 -1152 947 -1152 
C 870 -1152 563 -1139 467 -826 
C 486 -833 518 -833 531 -833 
C 723 -833 851 -666 851 -519 
C 851 -372 730 -320 634 -320 
C 531 -320 307 -397 307 -711 
C 307 -1050 582 -1280 947 -1280 
C 1587 -1280 2234 -673 2413 -7 
L 3040 2483 
C 3046 2515 3059 2553 3059 2591 
C 3059 2687 2982 2752 2886 2752 
C 2829 2752 2694 2726 2643 2534 
L 2170 657 
C 2138 542 2138 530 2086 459 
C 1958 281 1747 64 1440 64 
C 1082 64 1050 415 1050 587 
C 1050 951 1222 1443 1395 1902 
C 1466 2087 1504 2177 1504 2305 
C 1504 2573 1312 2816 998 2816 
C 410 2816 173 1890 173 1838 
C 173 1813 198 1781 243 1781 
C 301 1781 307 1807 333 1896 
C 486 2432 730 2687 979 2687 
C 1037 2687 1146 2687 1146 2477 
C 1146 2311 1075 2126 979 1883 
C 666 1047 666 836 666 683 
C 666 76 1101 -64 1421 -64 
C 1606 -64 1837 -7 2061 230 
L 2067 223 
C 1971 -141 1907 -359 1683 -673 
z
" transform="scale(0.015625)"/>
      </defs>
      <use xlink:href="#CMMI12-79" transform="scale(0.996264)"/>
     </g>
    </g>
   </g>
   <g id="line2d_25">
    <path d="M 77.021819 118.080062 
L 84.333858 88.109196 
L 88.294546 72.841077 
L 91.341229 61.897477 
L 94.083244 52.802659 
L 96.520591 45.416602 
L 98.957937 38.765766 
L 101.090615 33.602494 
L 102.918625 29.696423 
L 104.746635 26.293571 
L 106.269976 23.856331 
L 107.793318 21.791694 
L 109.316659 20.107824 
L 110.535333 19.039406 
L 111.754006 18.221674 
L 112.972679 17.656699 
L 114.191352 17.345909 
L 115.410025 17.290093 
L 116.628699 17.48939 
L 117.847372 17.943298 
L 119.066045 18.650665 
L 120.284718 19.609704 
L 121.503392 20.817985 
L 123.026733 22.674115 
L 124.550075 24.907523 
L 126.073416 27.509376 
L 127.901426 31.103362 
L 129.729436 35.192556 
L 131.862114 40.557959 
L 133.994792 46.524024 
L 136.432138 54.018388 
L 139.174153 63.220297 
L 142.220836 74.262973 
L 145.876856 88.411998 
L 150.751549 108.268938 
L 161.110271 150.762446 
L 164.766291 164.729759 
L 167.812974 175.571578 
L 170.554989 184.557056 
L 172.992335 191.832981 
L 175.125013 197.589596 
L 177.257691 202.73015 
L 179.085701 206.615678 
L 180.913711 209.997122 
L 182.437052 212.415948 
L 183.960394 214.461729 
L 185.483736 216.126373 
L 186.702409 217.179196 
L 187.921082 217.981184 
L 189.139755 218.530308 
L 190.358428 218.825178 
L 191.577102 218.865048 
L 192.795775 218.649816 
L 194.014448 218.180027 
L 195.233121 217.45687 
L 196.451794 216.482177 
L 197.670468 215.258413 
L 199.193809 213.383232 
L 200.717151 211.13118 
L 202.240492 208.511162 
L 204.068502 204.896115 
L 205.896512 200.786773 
L 208.02919 195.399173 
L 210.161868 189.412484 
L 212.599215 181.89668 
L 215.341229 172.673625 
L 218.387912 161.611462 
L 222.043932 147.445032 
L 226.918625 127.575654 
L 237.277347 85.097975 
L 240.933367 71.149596 
L 243.98005 60.328455 
L 246.722065 51.365114 
L 249.159411 44.111432 
L 251.292089 38.376078 
L 253.424767 33.258292 
L 255.252777 29.393346 
L 257.080787 26.033344 
L 258.604129 23.632954 
L 260.12747 21.606051 
L 261.650812 19.960649 
L 262.869485 18.923431 
L 264.088158 18.137194 
L 265.306831 17.603927 
L 266.525505 17.324979 
L 267.744178 17.301058 
L 268.962851 17.532222 
L 270.181524 18.017888 
L 271.400197 18.756826 
L 272.618871 19.747165 
L 273.837544 20.986399 
L 275.360885 22.880612 
L 276.884227 25.151286 
L 278.407568 27.789442 
L 280.235578 31.425517 
L 282.063588 35.554965 
L 284.196266 40.964709 
L 286.328944 46.971962 
L 288.766291 54.509132 
L 291.508306 63.753242 
L 294.554989 74.834784 
L 298.211008 89.018478 
L 303.085701 108.900098 
L 313.139755 150.162073 
L 316.795775 164.166839 
L 319.842458 175.049694 
L 322.584473 184.079175 
L 325.021819 191.399371 
L 327.154497 197.198338 
L 329.287175 202.384276 
L 331.115185 206.310851 
L 332.943195 209.735077 
L 334.466537 212.190706 
L 335.989878 214.27418 
L 337.51322 215.977259 
L 338.731893 217.061262 
L 339.950566 217.894729 
L 341.169239 218.47555 
L 342.387912 218.802256 
L 343.606586 218.874019 
L 344.825259 218.690658 
L 346.043932 218.252637 
L 347.262605 217.561065 
L 348.481279 216.617691 
L 349.699952 215.424905 
L 351.223293 213.587844 
L 352.746635 211.373102 
L 354.269976 208.789439 
L 356.097986 205.216551 
L 357.925996 201.147545 
L 360.058674 195.804391 
L 362.191352 189.859009 
L 364.628699 182.386159 
L 367.370713 173.205487 
L 370.417396 162.182409 
L 374.073416 148.050928 
L 378.948109 128.206622 
L 381.385455 118.080062 
L 381.385455 118.080062 
" clip-path="url(#p0a1861f6cd)" style="fill: none; stroke: #1f77b4; stroke-width: 2; stroke-linecap: square"/>
   </g>
   <g id="line2d_26">
    <path d="M 77.021819 17.28 
L 78.240492 17.40757 
L 79.459165 17.789956 
L 80.677839 18.426192 
L 81.896512 19.314666 
L 83.115185 20.453129 
L 84.638527 22.223306 
L 86.161868 24.372544 
L 87.68521 26.892343 
L 89.51322 30.391112 
L 91.341229 34.389145 
L 93.473908 39.65401 
L 95.606586 45.52654 
L 98.043932 52.923511 
L 100.785947 62.029139 
L 103.83263 72.982769 
L 107.48865 87.051745 
L 112.058674 105.591143 
L 123.63607 153.002138 
L 127.292089 166.824093 
L 130.338772 177.508224 
L 133.080787 186.325534 
L 135.518134 193.432896 
L 137.650812 199.028677 
L 139.78349 203.997246 
L 141.6115 207.727492 
L 143.439509 210.947323 
L 144.962851 213.227299 
L 146.486193 215.131022 
L 148.009534 216.650961 
L 149.228207 217.586498 
L 150.44688 218.27017 
L 151.665554 218.700247 
L 152.884227 218.875639 
L 154.1029 218.795903 
L 155.321573 218.46124 
L 156.540247 217.872498 
L 157.75892 217.031167 
L 158.977593 215.939376 
L 160.500935 214.226698 
L 162.024276 212.133814 
L 163.547618 209.668999 
L 165.375627 206.234098 
L 167.203637 202.297286 
L 169.336315 197.100034 
L 171.468994 191.290514 
L 173.90634 183.959296 
L 176.648355 174.91887 
L 179.695038 164.025823 
L 183.046389 151.211879 
L 187.616414 132.767609 
L 200.412482 80.496106 
L 203.763834 67.954801 
L 206.810517 57.379103 
L 209.552532 48.676635 
L 211.989878 41.68385 
L 214.122556 36.197028 
L 216.255234 31.344656 
L 218.083244 27.719091 
L 219.911254 24.608002 
L 221.434595 22.421301 
L 222.957937 20.612878 
L 224.481279 19.189883 
L 225.699952 18.332829 
L 226.918625 17.72825 
L 228.137298 17.377675 
L 229.355971 17.281994 
L 230.574645 17.441446 
L 231.793318 17.85563 
L 233.011991 18.523497 
L 234.230664 19.443355 
L 235.449337 20.612878 
L 236.972679 22.421301 
L 238.496021 24.608002 
L 240.019362 27.164333 
L 241.847372 30.705508 
L 243.675382 34.744157 
L 245.80806 40.053837 
L 247.940738 45.968084 
L 250.378084 53.408525 
L 253.120099 62.557171 
L 256.166782 73.550649 
L 259.822802 87.655551 
L 264.697495 107.480538 
L 275.360885 151.211879 
L 279.016905 165.150739 
L 282.063588 175.961501 
L 284.805603 184.913741 
L 287.242949 192.156275 
L 289.375627 197.880976 
L 291.508306 202.987359 
L 293.336315 206.842001 
L 295.164325 210.191269 
L 296.687667 212.582431 
L 298.211008 214.599889 
L 299.73435 216.235664 
L 300.953023 217.265074 
L 302.171696 218.043433 
L 303.390369 218.56877 
L 304.609043 218.839755 
L 305.827716 218.855703 
L 307.046389 218.616573 
L 308.265062 218.12297 
L 309.483736 217.376145 
L 310.702409 216.377986 
L 311.921082 215.131022 
L 313.444423 213.227299 
L 314.967765 210.947323 
L 316.491107 208.300107 
L 318.319116 204.653533 
L 320.147126 200.514046 
L 322.279804 195.093251 
L 324.412482 189.075738 
L 326.849829 181.527914 
L 329.591844 172.27331 
L 332.638527 161.18212 
L 336.294546 146.989846 
L 341.169239 127.10218 
L 351.223293 85.847839 
L 354.879313 71.852384 
L 357.925996 60.979748 
L 360.668011 51.961234 
L 363.105357 44.652079 
L 365.238035 38.863678 
L 367.370713 33.689067 
L 369.198723 29.772739 
L 371.026733 26.359196 
L 372.550075 23.912759 
L 374.073416 21.8387 
L 375.596758 20.145223 
L 376.815431 19.069012 
L 378.034104 18.243412 
L 379.252777 17.670513 
L 380.471451 17.351765 
L 381.385455 17.28 
L 381.385455 17.28 
" clip-path="url(#p0a1861f6cd)" style="fill: none; stroke: #ff7f0e; stroke-width: 2; stroke-linecap: square"/>
   </g>
   <g id="patch_3">
    <path d="M 61.803637 228.96 
L 61.803637 7.2 
" style="fill: none; stroke: #000000; stroke-width: 0.8; stroke-linejoin: miter; stroke-linecap: square"/>
   </g>
   <g id="patch_4">
    <path d="M 396.603637 228.96 
L 396.603637 7.2 
" style="fill: none; stroke: #000000; stroke-width: 0.8; stroke-linejoin: miter; stroke-linecap: square"/>
   </g>
   <g id="patch_5">
    <path d="M 61.803637 228.96 
L 396.603637 228.96 
" style="fill: none; stroke: #000000; stroke-width: 0.8; stroke-linejoin: miter; stroke-linecap: square"/>
   </g>
   <g id="patch_6">
    <path d="M 61.803637 7.2 
L 396.603637 7.2 
" style="fill: none; stroke: #000000; stroke-width: 0.8; stroke-linejoin: miter; stroke-linecap: square"/>
   </g>
   <g id="legend_1">
    <g id="patch_7">
     <path d="M 415.99647 58.54392 
L 503.283637 58.54392 
Q 506.283637 58.54392 506.283637 55.54392 
L 506.283637 12.156 
Q 506.283637 9.156 503.283637 9.156 
L 415.99647 9.156 
Q 412.99647 9.156 412.99647 12.156 
L 412.99647 55.54392 
Q 412.99647 58.54392 415.99647 58.54392 
z
" style="fill: #ffffff; opacity: 0.8; stroke: #cccccc; stroke-linejoin: miter"/>
    </g>
    <g id="line2d_27">
     <path d="M 418.99647 21.11397 
L 433.99647 21.11397 
L 448.99647 21.11397 
" style="fill: none; stroke: #1f77b4; stroke-width: 2; stroke-linecap: square"/>
    </g>
    <g id="text_15">
     <!-- $\sin(x)$ -->
     <g transform="translate(460.99647 26.36397) scale(0.15 -0.15)">
      <defs>
       <path id="CMR17-73" d="M 1978 2688 
C 1978 2803 1971 2809 1933 2809 
C 1907 2809 1901 2803 1824 2707 
C 1805 2681 1747 2617 1728 2592 
C 1523 2809 1235 2816 1126 2816 
C 416 2816 160 2444 160 2073 
C 160 1497 813 1363 998 1324 
C 1402 1241 1542 1216 1677 1100 
C 1760 1024 1901 883 1901 652 
C 1901 384 1747 38 1158 38 
C 602 38 403 460 288 1024 
C 269 1113 269 1120 218 1120 
C 166 1120 160 1113 160 985 
L 160 64 
C 160 -52 166 -58 205 -58 
C 237 -58 243 -52 275 0 
C 314 57 410 211 448 275 
C 576 102 800 -64 1158 -64 
C 1792 -64 2131 281 2131 780 
C 2131 1107 1958 1280 1875 1356 
C 1683 1555 1459 1600 1190 1651 
C 838 1728 390 1817 390 2208 
C 390 2374 480 2726 1126 2726 
C 1811 2726 1850 2086 1862 1881 
C 1869 1849 1901 1843 1920 1843 
C 1978 1843 1978 1862 1978 1971 
L 1978 2688 
z
" transform="scale(0.015625)"/>
       <path id="CMR17-69" d="M 992 3961 
C 992 4102 877 4224 730 4224 
C 589 4224 467 4108 467 3961 
C 467 3820 582 3699 730 3699 
C 870 3699 992 3814 992 3961 
z
M 243 2745 
L 243 2579 
C 602 2579 653 2540 653 2231 
L 653 443 
C 653 198 627 166 218 166 
L 218 0 
C 371 12 646 12 806 12 
C 960 12 1222 12 1370 0 
L 1370 166 
C 992 166 979 205 979 436 
L 979 2816 
L 243 2745 
z
" transform="scale(0.015625)"/>
       <path id="CMR17-6e" d="M 2656 1954 
C 2656 2282 2592 2816 1837 2816 
C 1331 2816 1069 2424 973 2166 
L 966 2166 
L 966 2816 
L 211 2745 
L 211 2578 
C 589 2578 646 2540 646 2231 
L 646 443 
C 646 198 621 166 211 166 
L 211 0 
C 365 12 646 12 813 12 
C 979 12 1267 12 1421 0 
L 1421 166 
C 1011 166 986 192 986 443 
L 986 1678 
C 986 2269 1344 2713 1792 2713 
C 2266 2713 2317 2289 2317 1980 
L 2317 443 
C 2317 198 2291 166 1882 166 
L 1882 0 
C 2035 12 2317 12 2483 12 
C 2650 12 2938 12 3091 0 
L 3091 166 
C 2682 166 2656 192 2656 443 
L 2656 1954 
z
" transform="scale(0.015625)"/>
       <path id="CMR17-28" d="M 1958 -1562 
C 1958 -1556 1958 -1543 1939 -1524 
C 1645 -1223 858 -403 858 1596 
C 858 3595 1632 4408 1946 4729 
C 1946 4735 1958 4748 1958 4767 
C 1958 4787 1939 4800 1914 4800 
C 1843 4800 1299 4325 986 3620 
C 666 2909 576 2218 576 1603 
C 576 1141 621 360 1005 -467 
C 1312 -1133 1837 -1600 1914 -1600 
C 1946 -1600 1958 -1588 1958 -1562 
z
" transform="scale(0.015625)"/>
       <path id="CMR17-29" d="M 1683 1596 
C 1683 2057 1638 2839 1254 3665 
C 947 4332 422 4800 346 4800 
C 326 4800 301 4793 301 4761 
C 301 4748 307 4742 314 4729 
C 621 4408 1402 3595 1402 1603 
C 1402 -396 627 -1210 314 -1530 
C 307 -1543 301 -1549 301 -1562 
C 301 -1594 326 -1600 346 -1600 
C 416 -1600 960 -1127 1274 -422 
C 1594 289 1683 981 1683 1596 
z
" transform="scale(0.015625)"/>
      </defs>
      <use xlink:href="#CMR17-73" transform="scale(0.996264)"/>
      <use xlink:href="#CMR17-69" transform="translate(35.801338 0) scale(0.996264)"/>
      <use xlink:href="#CMR17-6e" transform="translate(60.672396 0) scale(0.996264)"/>
      <use xlink:href="#CMR17-28" transform="translate(111.567766 0) scale(0.996264)"/>
      <use xlink:href="#CMMI12-78" transform="translate(146.848534 0) scale(0.996264)"/>
      <use xlink:href="#CMR17-29" transform="translate(202.282593 0) scale(0.996264)"/>
     </g>
    </g>
    <g id="line2d_28">
     <path d="M 418.99647 43.55793 
L 433.99647 43.55793 
L 448.99647 43.55793 
" style="fill: none; stroke: #ff7f0e; stroke-width: 2; stroke-linecap: square"/>
    </g>
    <g id="text_16">
     <!-- $\cos(x)$ -->
     <g transform="translate(460.99647 48.80793) scale(0.15 -0.15)">
      <defs>
       <path id="CMR17-63" d="M 2234 2240 
C 2112 2240 1933 2240 1933 2015 
C 1933 1836 2080 1785 2163 1785 
C 2208 1785 2394 1804 2394 2028 
C 2394 2476 1958 2816 1466 2816 
C 787 2816 211 2201 211 1379 
C 211 521 813 -64 1466 -64 
C 2259 -64 2458 676 2458 747 
C 2458 773 2451 792 2406 792 
C 2362 792 2355 786 2330 702 
C 2163 180 1798 51 1523 51 
C 1114 51 621 431 621 1385 
C 621 2358 1094 2700 1472 2700 
C 1722 2700 2093 2582 2234 2240 
z
" transform="scale(0.015625)"/>
       <path id="CMR17-6f" d="M 2758 1356 
C 2758 2176 2163 2816 1466 2816 
C 768 2816 173 2176 173 1356 
C 173 550 768 -64 1466 -64 
C 2163 -64 2758 550 2758 1356 
z
M 1466 51 
C 1165 51 909 230 762 480 
C 602 768 582 1126 582 1408 
C 582 1676 595 2009 762 2297 
C 890 2508 1139 2713 1466 2713 
C 1754 2713 1997 2553 2150 2329 
C 2349 2028 2349 1606 2349 1408 
C 2349 1158 2336 774 2163 467 
C 1984 172 1709 51 1466 51 
z
" transform="scale(0.015625)"/>
      </defs>
      <use xlink:href="#CMR17-63" transform="scale(0.996264)"/>
      <use xlink:href="#CMR17-6f" transform="translate(40.48566 0) scale(0.996264)"/>
      <use xlink:href="#CMR17-73" transform="translate(86.176138 0) scale(0.996264)"/>
      <use xlink:href="#CMR17-28" transform="translate(121.977475 0) scale(0.996264)"/>
      <use xlink:href="#CMMI12-78" transform="translate(157.258243 0) scale(0.996264)"/>
      <use xlink:href="#CMR17-29" transform="translate(212.692303 0) scale(0.996264)"/>
     </g>
    </g>
   </g>
  </g>
 </g>
 <defs>
  <clipPath id="p0a1861f6cd">
   <rect x="61.803637" y="7.2" width="334.8" height="221.76"/>
  </clipPath>
 </defs>
</svg>
