<?xml version="1.0" encoding="utf-8" standalone="no"?>
<!DOCTYPE svg PUBLIC "-//W3C//DTD SVG 1.1//EN"
  "http://www.w3.org/Graphics/SVG/1.1/DTD/svg11.dtd">
<!-- Created with matplotlib (https://matplotlib.org/) -->
<svg height="288pt" version="1.1" viewBox="0 0 432 288" width="432pt" xmlns="http://www.w3.org/2000/svg" xmlns:xlink="http://www.w3.org/1999/xlink">
 <metadata>
  <rdf:RDF xmlns:cc="http://creativecommons.org/ns#" xmlns:dc="http://purl.org/dc/elements/1.1/" xmlns:rdf="http://www.w3.org/1999/02/22-rdf-syntax-ns#">
   <cc:Work>
    <dc:type rdf:resource="http://purl.org/dc/dcmitype/StillImage"/>
    <dc:date>2020-12-28T00:02:36.126931</dc:date>
    <dc:format>image/svg+xml</dc:format>
    <dc:creator>
     <cc:Agent>
      <dc:title>Matplotlib v3.3.2, https://matplotlib.org/</dc:title>
     </cc:Agent>
    </dc:creator>
   </cc:Work>
  </rdf:RDF>
 </metadata>
 <defs>
  <style type="text/css">*{stroke-linecap:butt;stroke-linejoin:round;}</style>
 </defs>
 <g id="figure_1">
  <g id="patch_1">
   <path d="M 0 288 
L 432 288 
L 432 0 
L 0 0 
z
" style="fill:none;"/>
  </g>
  <g id="axes_1">
   <g id="patch_2">
    <path d="M 54 252 
L 388.8 252 
L 388.8 34.56 
L 54 34.56 
z
" style="fill:#ffffff;"/>
   </g>
   <g id="matplotlib.axis_1">
    <g id="xtick_1">
     <g id="line2d_1">
      <defs>
       <path d="M 0 0 
L 0 3.5 
" id="m7f818ebbe8" style="stroke:#000000;stroke-width:0.8;"/>
      </defs>
      <g>
       <use style="stroke:#000000;stroke-width:0.8;" x="69.218182" xlink:href="#m7f818ebbe8" y="252"/>
      </g>
     </g>
     <g id="text_1">
      <!-- $\mathdefault{0}$ -->
      <g transform="translate(65.803938 268.685876)scale(0.14 -0.14)">
       <defs>
        <path d="M 42 31.84375 
C 42 37.96875 41.90625 48.421875 37.703125 56.453125 
C 34 63.484375 28.09375 66 22.90625 66 
C 18.09375 66 12 63.78125 8.203125 56.5625 
C 4.203125 49.015625 3.796875 39.671875 3.796875 31.84375 
C 3.796875 26.109375 3.90625 17.375 7 9.734375 
C 11.296875 -0.609375 19 -2 22.90625 -2 
C 27.5 -2 34.5 -0.109375 38.59375 9.4375 
C 41.59375 16.375 42 24.5 42 31.84375 
z
M 22.90625 -0.40625 
C 16.5 -0.40625 12.703125 5.125 11.296875 12.75 
C 10.203125 18.6875 10.203125 27.328125 10.203125 32.953125 
C 10.203125 40.6875 10.203125 47.109375 11.5 53.234375 
C 13.40625 61.78125 19 64.390625 22.90625 64.390625 
C 27 64.390625 32.296875 61.671875 34.203125 53.4375 
C 35.5 47.71875 35.59375 40.984375 35.59375 32.953125 
C 35.59375 26.421875 35.59375 18.375 34.40625 12.453125 
C 32.296875 1.5 26.40625 -0.40625 22.90625 -0.40625 
z
" id="CMR17-48"/>
       </defs>
       <use transform="scale(0.996264)" xlink:href="#CMR17-48"/>
      </g>
     </g>
    </g>
    <g id="xtick_2">
     <g id="line2d_2">
      <g>
       <use style="stroke:#000000;stroke-width:0.8;" x="130.090909" xlink:href="#m7f818ebbe8" y="252"/>
      </g>
     </g>
     <g id="text_2">
      <!-- $\mathdefault{1}$ -->
      <g transform="translate(126.676665 268.685876)scale(0.14 -0.14)">
       <defs>
        <path d="M 26.59375 63.796875 
C 26.59375 65.890625 26.5 66 25.09375 66 
C 21.203125 61.359375 15.296875 59.890625 9.703125 59.6875 
C 9.40625 59.6875 8.90625 59.6875 8.796875 59.5 
C 8.703125 59.296875 8.703125 59.09375 8.703125 57 
C 11.796875 57 17 57.59375 21 59.984375 
L 21 7.296875 
C 21 3.796875 20.796875 2.59375 12.203125 2.59375 
L 9.203125 2.59375 
L 9.203125 0 
C 14 0.09375 19 0.1875 23.796875 0.1875 
C 28.59375 0.1875 33.59375 0.09375 38.40625 0 
L 38.40625 2.59375 
L 35.40625 2.59375 
C 26.796875 2.59375 26.59375 3.6875 26.59375 7.296875 
z
" id="CMR17-49"/>
       </defs>
       <use transform="scale(0.996264)" xlink:href="#CMR17-49"/>
      </g>
     </g>
    </g>
    <g id="xtick_3">
     <g id="line2d_3">
      <g>
       <use style="stroke:#000000;stroke-width:0.8;" x="190.963636" xlink:href="#m7f818ebbe8" y="252"/>
      </g>
     </g>
     <g id="text_3">
      <!-- $\mathdefault{2}$ -->
      <g transform="translate(187.549392 268.685876)scale(0.14 -0.14)">
       <defs>
        <path d="M 41.703125 15.46875 
L 39.90625 15.46875 
C 38.90625 8.390625 38.09375 7.1875 37.703125 6.59375 
C 37.203125 5.796875 30 5.796875 28.59375 5.796875 
L 9.40625 5.796875 
C 13 9.6875 20 16.765625 28.5 24.9375 
C 34.59375 30.71875 41.703125 37.5 41.703125 47.390625 
C 41.703125 59.1875 32.296875 66 21.796875 66 
C 10.796875 66 4.09375 56.296875 4.09375 47.296875 
C 4.09375 43.390625 7 42.890625 8.203125 42.890625 
C 9.203125 42.890625 12.203125 43.484375 12.203125 46.984375 
C 12.203125 50.09375 9.59375 51 8.203125 51 
C 7.59375 51 7 50.890625 6.59375 50.6875 
C 8.5 59.1875 14.296875 63.390625 20.40625 63.390625 
C 29.09375 63.390625 34.796875 56.5 34.796875 47.390625 
C 34.796875 38.703125 29.703125 31.21875 24 24.734375 
L 4.09375 2.296875 
L 4.09375 0 
L 39.296875 0 
z
" id="CMR17-50"/>
       </defs>
       <use transform="scale(0.996264)" xlink:href="#CMR17-50"/>
      </g>
     </g>
    </g>
    <g id="xtick_4">
     <g id="line2d_4">
      <g>
       <use style="stroke:#000000;stroke-width:0.8;" x="251.836364" xlink:href="#m7f818ebbe8" y="252"/>
      </g>
     </g>
     <g id="text_4">
      <!-- $\mathdefault{3}$ -->
      <g transform="translate(248.422119 268.685876)scale(0.14 -0.14)">
       <defs>
        <path d="M 22.09375 34 
C 31 34 34.90625 26.140625 34.90625 17.09375 
C 34.90625 5.03125 28.5 0.390625 22.703125 0.390625 
C 17.40625 0.390625 8.796875 3.015625 6.09375 10.796875 
C 6.59375 10.59375 7.09375 10.59375 7.59375 10.59375 
C 10 10.59375 11.796875 12.1875 11.796875 14.796875 
C 11.796875 17.6875 9.59375 19 7.59375 19 
C 5.90625 19 3.296875 18.1875 3.296875 14.484375 
C 3.296875 5.234375 12.296875 -2 22.90625 -2 
C 34 -2 42.5 6.75 42.5 16.984375 
C 42.5 26.84375 34.5 34 25 35.09375 
C 32.59375 36.671875 39.90625 43.375 39.90625 52.390625 
C 39.90625 60.25 32 66 23 66 
C 13.90625 66 5.90625 60.34375 5.90625 52.296875 
C 5.90625 48.796875 8.5 48.1875 9.796875 48.1875 
C 11.90625 48.1875 13.703125 49.484375 13.703125 52.09375 
C 13.703125 54.6875 11.90625 56 9.796875 56 
C 9.40625 56 8.90625 56 8.5 55.796875 
C 11.40625 62.484375 19.296875 63.6875 22.796875 63.6875 
C 26.296875 63.6875 32.90625 61.96875 32.90625 52.296875 
C 32.90625 49.484375 32.5 44.546875 29.09375 40.21875 
C 26.09375 36.390625 22.703125 36.1875 19.40625 35.890625 
C 18.90625 35.890625 16.59375 35.6875 16.203125 35.6875 
C 15.5 35.59375 15.09375 35.5 15.09375 34.796875 
C 15.09375 34.09375 15.203125 34 17.203125 34 
z
" id="CMR17-51"/>
       </defs>
       <use transform="scale(0.996264)" xlink:href="#CMR17-51"/>
      </g>
     </g>
    </g>
    <g id="xtick_5">
     <g id="line2d_5">
      <g>
       <use style="stroke:#000000;stroke-width:0.8;" x="312.709091" xlink:href="#m7f818ebbe8" y="252"/>
      </g>
     </g>
     <g id="text_5">
      <!-- $\mathdefault{4}$ -->
      <g transform="translate(309.294847 268.685876)scale(0.14 -0.14)">
       <defs>
        <path d="M 33.59375 64.796875 
C 33.59375 66.890625 33.5 67 31.703125 67 
L 2 19.59375 
L 2 17 
L 27.796875 17 
L 27.796875 7.1875 
C 27.796875 3.59375 27.59375 2.59375 20.59375 2.59375 
L 18.703125 2.59375 
L 18.703125 0 
C 21.90625 0.1875 27.296875 0.1875 30.703125 0.1875 
C 34.09375 0.1875 39.5 0.1875 42.703125 0 
L 42.703125 2.59375 
L 40.796875 2.59375 
C 33.796875 2.59375 33.59375 3.59375 33.59375 7.1875 
L 33.59375 17 
L 43.796875 17 
L 43.796875 19.59375 
L 33.59375 19.59375 
z
M 28.09375 58.171875 
L 28.09375 19.59375 
L 4 19.59375 
z
" id="CMR17-52"/>
       </defs>
       <use transform="scale(0.996264)" xlink:href="#CMR17-52"/>
      </g>
     </g>
    </g>
    <g id="xtick_6">
     <g id="line2d_6">
      <g>
       <use style="stroke:#000000;stroke-width:0.8;" x="373.581818" xlink:href="#m7f818ebbe8" y="252"/>
      </g>
     </g>
     <g id="text_6">
      <!-- $\mathdefault{5}$ -->
      <g transform="translate(370.167574 268.685876)scale(0.14 -0.14)">
       <defs>
        <path d="M 11.40625 58.59375 
C 12.40625 58.1875 16.5 56.890625 20.703125 56.890625 
C 30 56.890625 35.09375 61.890625 38 64.6875 
C 38 65.484375 38 66 37.40625 66 
C 37.296875 66 37.09375 66 36.296875 65.59375 
C 32.796875 64.09375 28.703125 63 23.703125 63 
C 20.703125 63 16.203125 63.359375 11.296875 65.484375 
C 10.203125 66 10 66 9.90625 66 
C 9.40625 66 9.296875 65.890625 9.296875 63.90625 
L 9.296875 34.859375 
C 9.296875 33.015625 9.296875 32.5 10.296875 32.5 
C 10.796875 32.5 11 32.703125 11.5 33.421875 
C 14.703125 38.046875 19.09375 40 24.09375 40 
C 27.59375 40 35.09375 37.734375 35.09375 20.203125 
C 35.09375 16.984375 35.09375 11.1875 32.09375 6.59375 
C 29.59375 2.484375 25.703125 0.390625 21.40625 0.390625 
C 14.796875 0.390625 8.09375 4.984375 6.296875 12.6875 
C 6.703125 12.59375 7.5 12.390625 7.90625 12.390625 
C 9.203125 12.390625 11.703125 13.09375 11.703125 16.1875 
C 11.703125 18.890625 9.796875 20 7.90625 20 
C 5.59375 20 4.09375 18.59375 4.09375 15.796875 
C 4.09375 7.09375 11 -2 21.59375 -2 
C 31.90625 -2 41.703125 6.890625 41.703125 19.796875 
C 41.703125 32.09375 33.90625 41.59375 24.203125 41.59375 
C 19.09375 41.59375 14.796875 39.6875 11.40625 36 
z
" id="CMR17-53"/>
       </defs>
       <use transform="scale(0.996264)" xlink:href="#CMR17-53"/>
      </g>
     </g>
    </g>
   </g>
   <g id="matplotlib.axis_2">
    <g id="ytick_1">
     <g id="line2d_7">
      <defs>
       <path d="M 0 0 
L -3.5 0 
" id="m770dd973b4" style="stroke:#000000;stroke-width:0.8;"/>
      </defs>
      <g>
       <use style="stroke:#000000;stroke-width:0.8;" x="54" xlink:href="#m770dd973b4" y="213.877403"/>
      </g>
     </g>
     <g id="text_7">
      <!-- $\mathdefault{2}$ -->
      <g transform="translate(40.171511 218.720341)scale(0.14 -0.14)">
       <use transform="scale(0.996264)" xlink:href="#CMR17-50"/>
      </g>
     </g>
    </g>
    <g id="ytick_2">
     <g id="line2d_8">
      <g>
       <use style="stroke:#000000;stroke-width:0.8;" x="54" xlink:href="#m770dd973b4" y="157.399481"/>
      </g>
     </g>
     <g id="text_8">
      <!-- $\mathdefault{4}$ -->
      <g transform="translate(40.171511 162.242419)scale(0.14 -0.14)">
       <use transform="scale(0.996264)" xlink:href="#CMR17-52"/>
      </g>
     </g>
    </g>
    <g id="ytick_3">
     <g id="line2d_9">
      <g>
       <use style="stroke:#000000;stroke-width:0.8;" x="54" xlink:href="#m770dd973b4" y="100.921558"/>
      </g>
     </g>
     <g id="text_9">
      <!-- $\mathdefault{6}$ -->
      <g transform="translate(40.171511 105.764497)scale(0.14 -0.14)">
       <defs>
        <path d="M 10.59375 34.34375 
C 10.59375 58 21.796875 63.6875 28.296875 63.6875 
C 30.40625 63.6875 35.5 63.265625 37.5 59.09375 
C 35.90625 59.09375 32.90625 59.09375 32.90625 55.59375 
C 32.90625 52.890625 35.09375 52 36.5 52 
C 37.40625 52 40.09375 52.390625 40.09375 55.796875 
C 40.09375 62.296875 35.09375 66 28.203125 66 
C 16.296875 66 3.796875 53.296875 3.796875 31.421875 
C 3.796875 4.015625 15.09375 -2 23.09375 -2 
C 32.796875 -2 42 6.734375 42 20.234375 
C 42 32.828125 33.90625 42 23.703125 42 
C 17.59375 42 13.09375 37.96875 10.59375 30.921875 
z
M 23.09375 0.390625 
C 10.796875 0.390625 10.796875 18.9375 10.796875 22.65625 
C 10.796875 29.90625 14.203125 40.390625 23.5 40.390625 
C 25.203125 40.390625 30.09375 40.390625 33.40625 33.4375 
C 35.203125 29.515625 35.203125 25.375 35.203125 20.34375 
C 35.203125 14.90625 35.203125 10.875 33.09375 6.84375 
C 30.90625 2.703125 27.703125 0.390625 23.09375 0.390625 
z
" id="CMR17-54"/>
       </defs>
       <use transform="scale(0.996264)" xlink:href="#CMR17-54"/>
      </g>
     </g>
    </g>
    <g id="ytick_4">
     <g id="line2d_10">
      <g>
       <use style="stroke:#000000;stroke-width:0.8;" x="54" xlink:href="#m770dd973b4" y="44.443636"/>
      </g>
     </g>
     <g id="text_10">
      <!-- $\mathdefault{8}$ -->
      <g transform="translate(40.171511 49.286575)scale(0.14 -0.14)">
       <defs>
        <path d="M 27.203125 35.765625 
C 33.5 38.96875 39.90625 43.796875 39.90625 51.53125 
C 39.90625 60.6875 31.09375 66 23 66 
C 13.90625 66 5.90625 59.375 5.90625 50.234375 
C 5.90625 47.71875 6.5 43.390625 10.40625 39.578125 
C 11.40625 38.578125 15.59375 35.5625 18.296875 33.65625 
C 13.796875 31.34375 3.296875 25.8125 3.296875 14.765625 
C 3.296875 4.40625 13.09375 -2 22.796875 -2 
C 33.5 -2 42.5 5.71875 42.5 15.96875 
C 42.5 25.109375 36.40625 29.328125 32.40625 32.046875 
z
M 14.09375 44.609375 
C 13.296875 45.109375 9.296875 48.21875 9.296875 52.9375 
C 9.296875 59.078125 15.59375 63.6875 22.796875 63.6875 
C 30.703125 63.6875 36.5 58.0625 36.5 51.53125 
C 36.5 42.1875 26.09375 36.859375 25.59375 36.859375 
C 25.5 36.859375 25.40625 36.859375 24.59375 37.46875 
z
M 32.5 24 
C 34 22.90625 38.796875 19.578125 38.796875 13.453125 
C 38.796875 6.015625 31.40625 0.390625 23 0.390625 
C 13.90625 0.390625 7 6.921875 7 14.859375 
C 7 22.796875 13.09375 29.4375 20 32.546875 
z
" id="CMR17-56"/>
       </defs>
       <use transform="scale(0.996264)" xlink:href="#CMR17-56"/>
      </g>
     </g>
    </g>
   </g>
   <g id="line2d_11">
    <path clip-path="url(#p0aacb9f49f)" d="M 69.218182 242.116364 
L 72.292562 240.690153 
L 75.366942 239.263943 
L 78.441322 237.837733 
L 81.515702 236.411523 
L 84.590083 234.985313 
L 87.664463 233.559103 
L 90.738843 232.132893 
L 93.813223 230.706682 
L 96.887603 229.280472 
L 99.961983 227.854262 
L 103.036364 226.428052 
L 106.110744 225.001842 
L 109.185124 223.575632 
L 112.259504 222.149421 
L 115.333884 220.723211 
L 118.408264 219.297001 
L 121.482645 217.870791 
L 124.557025 216.444581 
L 127.631405 215.018371 
L 130.705785 213.592161 
L 133.780165 212.16595 
L 136.854545 210.73974 
L 139.928926 209.31353 
L 143.003306 207.88732 
L 146.077686 206.46111 
L 149.152066 205.0349 
L 152.226446 203.608689 
L 155.300826 202.182479 
L 158.375207 200.756269 
L 161.449587 199.330059 
L 164.523967 197.903849 
L 167.598347 196.477639 
L 170.672727 195.051429 
L 173.747107 193.625218 
L 176.821488 192.199008 
L 179.895868 190.772798 
L 182.970248 189.346588 
L 186.044628 187.920378 
L 189.119008 186.494168 
L 192.193388 185.067957 
L 195.267769 183.641747 
L 198.342149 182.215537 
L 201.416529 180.789327 
L 204.490909 179.363117 
L 207.565289 177.936907 
L 210.639669 176.510697 
L 213.71405 175.084486 
L 216.78843 173.658276 
L 219.86281 172.232066 
L 222.93719 170.805856 
L 226.01157 169.379646 
L 229.08595 167.953436 
L 232.160331 166.527226 
L 235.234711 165.101015 
L 238.309091 163.674805 
L 241.383471 162.248595 
L 244.457851 160.822385 
L 247.532231 159.396175 
L 250.606612 157.969965 
L 253.680992 156.543754 
L 256.755372 155.117544 
L 259.829752 153.691334 
L 262.904132 152.265124 
L 265.978512 150.838914 
L 269.052893 149.412704 
L 272.127273 147.986494 
L 275.201653 146.560283 
L 278.276033 145.134073 
L 281.350413 143.707863 
L 284.424793 142.281653 
L 287.499174 140.855443 
L 290.573554 139.429233 
L 293.647934 138.003022 
L 296.722314 136.576812 
L 299.796694 135.150602 
L 302.871074 133.724392 
L 305.945455 132.298182 
L 309.019835 130.871972 
L 312.094215 129.445762 
L 315.168595 128.019551 
L 318.242975 126.593341 
L 321.317355 125.167131 
L 324.391736 123.740921 
L 327.466116 122.314711 
L 330.540496 120.888501 
L 333.614876 119.46229 
L 336.689256 118.03608 
L 339.763636 116.60987 
L 342.838017 115.18366 
L 345.912397 113.75745 
L 348.986777 112.33124 
L 352.061157 110.90503 
L 355.135537 109.478819 
L 358.209917 108.052609 
L 361.284298 106.626399 
L 364.358678 105.200189 
L 367.433058 103.773979 
L 370.507438 102.347769 
L 373.581818 100.921558 
" style="fill:none;stroke:#ff0000;stroke-linecap:square;stroke-opacity:0.5;stroke-width:1.5;"/>
   </g>
   <g id="line2d_12">
    <path clip-path="url(#p0aacb9f49f)" d="M 69.218182 213.877403 
L 72.292562 212.451192 
L 75.366942 211.024982 
L 78.441322 209.598772 
L 81.515702 208.172562 
L 84.590083 206.746352 
L 87.664463 205.320142 
L 90.738843 203.893932 
L 93.813223 202.467721 
L 96.887603 201.041511 
L 99.961983 199.615301 
L 103.036364 198.189091 
L 106.110744 196.762881 
L 109.185124 195.336671 
L 112.259504 193.91046 
L 115.333884 192.48425 
L 118.408264 191.05804 
L 121.482645 189.63183 
L 124.557025 188.20562 
L 127.631405 186.77941 
L 130.705785 185.3532 
L 133.780165 183.926989 
L 136.854545 182.500779 
L 139.928926 181.074569 
L 143.003306 179.648359 
L 146.077686 178.222149 
L 149.152066 176.795939 
L 152.226446 175.369728 
L 155.300826 173.943518 
L 158.375207 172.517308 
L 161.449587 171.091098 
L 164.523967 169.664888 
L 167.598347 168.238678 
L 170.672727 166.812468 
L 173.747107 165.386257 
L 176.821488 163.960047 
L 179.895868 162.533837 
L 182.970248 161.107627 
L 186.044628 159.681417 
L 189.119008 158.255207 
L 192.193388 156.828996 
L 195.267769 155.402786 
L 198.342149 153.976576 
L 201.416529 152.550366 
L 204.490909 151.124156 
L 207.565289 149.697946 
L 210.639669 148.271736 
L 213.71405 146.845525 
L 216.78843 145.419315 
L 219.86281 143.993105 
L 222.93719 142.566895 
L 226.01157 141.140685 
L 229.08595 139.714475 
L 232.160331 138.288264 
L 235.234711 136.862054 
L 238.309091 135.435844 
L 241.383471 134.009634 
L 244.457851 132.583424 
L 247.532231 131.157214 
L 250.606612 129.731004 
L 253.680992 128.304793 
L 256.755372 126.878583 
L 259.829752 125.452373 
L 262.904132 124.026163 
L 265.978512 122.599953 
L 269.052893 121.173743 
L 272.127273 119.747532 
L 275.201653 118.321322 
L 278.276033 116.895112 
L 281.350413 115.468902 
L 284.424793 114.042692 
L 287.499174 112.616482 
L 290.573554 111.190272 
L 293.647934 109.764061 
L 296.722314 108.337851 
L 299.796694 106.911641 
L 302.871074 105.485431 
L 305.945455 104.059221 
L 309.019835 102.633011 
L 312.094215 101.2068 
L 315.168595 99.78059 
L 318.242975 98.35438 
L 321.317355 96.92817 
L 324.391736 95.50196 
L 327.466116 94.07575 
L 330.540496 92.64954 
L 333.614876 91.223329 
L 336.689256 89.797119 
L 339.763636 88.370909 
L 342.838017 86.944699 
L 345.912397 85.518489 
L 348.986777 84.092279 
L 352.061157 82.666068 
L 355.135537 81.239858 
L 358.209917 79.813648 
L 361.284298 78.387438 
L 364.358678 76.961228 
L 367.433058 75.535018 
L 370.507438 74.108808 
L 373.581818 72.682597 
" style="fill:none;stroke:#1155dd;stroke-linecap:square;stroke-width:1.5;"/>
   </g>
   <g id="line2d_13">
    <path clip-path="url(#p0aacb9f49f)" d="M 69.218182 185.638442 
L 72.292562 184.212231 
L 75.366942 182.786021 
L 78.441322 181.359811 
L 81.515702 179.933601 
L 84.590083 178.507391 
L 87.664463 177.081181 
L 90.738843 175.65497 
L 93.813223 174.22876 
L 96.887603 172.80255 
L 99.961983 171.37634 
L 103.036364 169.95013 
L 106.110744 168.52392 
L 109.185124 167.09771 
L 112.259504 165.671499 
L 115.333884 164.245289 
L 118.408264 162.819079 
L 121.482645 161.392869 
L 124.557025 159.966659 
L 127.631405 158.540449 
L 130.705785 157.114238 
L 133.780165 155.688028 
L 136.854545 154.261818 
L 139.928926 152.835608 
L 143.003306 151.409398 
L 146.077686 149.983188 
L 149.152066 148.556978 
L 152.226446 147.130767 
L 155.300826 145.704557 
L 158.375207 144.278347 
L 161.449587 142.852137 
L 164.523967 141.425927 
L 167.598347 139.999717 
L 170.672727 138.573506 
L 173.747107 137.147296 
L 176.821488 135.721086 
L 179.895868 134.294876 
L 182.970248 132.868666 
L 186.044628 131.442456 
L 189.119008 130.016246 
L 192.193388 128.590035 
L 195.267769 127.163825 
L 198.342149 125.737615 
L 201.416529 124.311405 
L 204.490909 122.885195 
L 207.565289 121.458985 
L 210.639669 120.032774 
L 213.71405 118.606564 
L 216.78843 117.180354 
L 219.86281 115.754144 
L 222.93719 114.327934 
L 226.01157 112.901724 
L 229.08595 111.475514 
L 232.160331 110.049303 
L 235.234711 108.623093 
L 238.309091 107.196883 
L 241.383471 105.770673 
L 244.457851 104.344463 
L 247.532231 102.918253 
L 250.606612 101.492043 
L 253.680992 100.065832 
L 256.755372 98.639622 
L 259.829752 97.213412 
L 262.904132 95.787202 
L 265.978512 94.360992 
L 269.052893 92.934782 
L 272.127273 91.508571 
L 275.201653 90.082361 
L 278.276033 88.656151 
L 281.350413 87.229941 
L 284.424793 85.803731 
L 287.499174 84.377521 
L 290.573554 82.951311 
L 293.647934 81.5251 
L 296.722314 80.09889 
L 299.796694 78.67268 
L 302.871074 77.24647 
L 305.945455 75.82026 
L 309.019835 74.39405 
L 312.094215 72.967839 
L 315.168595 71.541629 
L 318.242975 70.115419 
L 321.317355 68.689209 
L 324.391736 67.262999 
L 327.466116 65.836789 
L 330.540496 64.410579 
L 333.614876 62.984368 
L 336.689256 61.558158 
L 339.763636 60.131948 
L 342.838017 58.705738 
L 345.912397 57.279528 
L 348.986777 55.853318 
L 352.061157 54.427107 
L 355.135537 53.000897 
L 358.209917 51.574687 
L 361.284298 50.148477 
L 364.358678 48.722267 
L 367.433058 47.296057 
L 370.507438 45.869847 
L 373.581818 44.443636 
" style="fill:none;stroke:#15cc55;stroke-linecap:square;stroke-width:1.5;"/>
   </g>
   <g id="patch_3">
    <path d="M 54 252 
L 54 34.56 
" style="fill:none;stroke:#000000;stroke-linecap:square;stroke-linejoin:miter;stroke-width:0.8;"/>
   </g>
   <g id="patch_4">
    <path d="M 388.8 252 
L 388.8 34.56 
" style="fill:none;stroke:#000000;stroke-linecap:square;stroke-linejoin:miter;stroke-width:0.8;"/>
   </g>
   <g id="patch_5">
    <path d="M 54 252 
L 388.8 252 
" style="fill:none;stroke:#000000;stroke-linecap:square;stroke-linejoin:miter;stroke-width:0.8;"/>
   </g>
   <g id="patch_6">
    <path d="M 54 34.56 
L 388.8 34.56 
" style="fill:none;stroke:#000000;stroke-linecap:square;stroke-linejoin:miter;stroke-width:0.8;"/>
   </g>
  </g>
 </g>
 <defs>
  <clipPath id="p0aacb9f49f">
   <rect height="217.44" width="334.8" x="54" y="34.56"/>
  </clipPath>
 </defs>
</svg>
