<?xml version="1.0" encoding="utf-8" standalone="no"?>
<!DOCTYPE svg PUBLIC "-//W3C//DTD SVG 1.1//EN"
  "http://www.w3.org/Graphics/SVG/1.1/DTD/svg11.dtd">
<!-- Created with matplotlib (https://matplotlib.org/) -->
<svg height="272.16pt" version="1.1" viewBox="0 0 416.16 272.16" width="416.16pt" xmlns="http://www.w3.org/2000/svg" xmlns:xlink="http://www.w3.org/1999/xlink">
 <metadata>
  <rdf:RDF xmlns:cc="http://creativecommons.org/ns#" xmlns:dc="http://purl.org/dc/elements/1.1/" xmlns:rdf="http://www.w3.org/1999/02/22-rdf-syntax-ns#">
   <cc:Work>
    <dc:type rdf:resource="http://purl.org/dc/dcmitype/StillImage"/>
    <dc:date>2020-12-29T17:36:24.193226</dc:date>
    <dc:format>image/svg+xml</dc:format>
    <dc:creator>
     <cc:Agent>
      <dc:title>Matplotlib v3.3.2, https://matplotlib.org/</dc:title>
     </cc:Agent>
    </dc:creator>
   </cc:Work>
  </rdf:RDF>
 </metadata>
 <defs>
  <style type="text/css">*{stroke-linecap:butt;stroke-linejoin:round;}</style>
 </defs>
 <g id="figure_1">
  <g id="patch_1">
   <path d="M -0 272.16 
L 416.16 272.16 
L 416.16 0 
L -0 0 
z
" style="fill:none;"/>
  </g>
  <g id="axes_1">
   <g id="patch_2">
    <path d="M 34.685466 108.657164 
L 197.105756 108.657164 
L 197.105756 24.823055 
L 34.685466 24.823055 
z
" style="fill:#ffffff;"/>
   </g>
   <g id="patch_3">
    <path clip-path="url(#pb92dd6ae04)" d="M 42.068206 108.657164 
L 46.086024 108.657164 
L 46.086024 108.378969 
L 42.068206 108.378969 
z
" style="fill:#ff0000;"/>
   </g>
   <g id="patch_4">
    <path clip-path="url(#pb92dd6ae04)" d="M 57.135024 108.657164 
L 61.152841 108.657164 
L 61.152841 104.484237 
L 57.135024 104.484237 
z
" style="fill:#ff0000;"/>
   </g>
   <g id="patch_5">
    <path clip-path="url(#pb92dd6ae04)" d="M 72.201841 108.657164 
L 76.219659 108.657164 
L 76.219659 88.627113 
L 72.201841 88.627113 
z
" style="fill:#ff0000;"/>
   </g>
   <g id="patch_6">
    <path clip-path="url(#pb92dd6ae04)" d="M 87.268658 108.657164 
L 91.286476 108.657164 
L 91.286476 50.514377 
L 87.268658 50.514377 
z
" style="fill:#ff0000;"/>
   </g>
   <g id="patch_7">
    <path clip-path="url(#pb92dd6ae04)" d="M 102.335475 108.657164 
L 106.353293 108.657164 
L 106.353293 32.988082 
L 102.335475 32.988082 
z
" style="fill:#ff0000;"/>
   </g>
   <g id="patch_8">
    <path clip-path="url(#pb92dd6ae04)" d="M 117.402293 108.657164 
L 121.42011 108.657164 
L 121.42011 36.326424 
L 117.402293 36.326424 
z
" style="fill:#ff0000;"/>
   </g>
   <g id="patch_9">
    <path clip-path="url(#pb92dd6ae04)" d="M 132.46911 108.657164 
L 136.486928 108.657164 
L 136.486928 71.657209 
L 132.46911 71.657209 
z
" style="fill:#ff0000;"/>
   </g>
   <g id="patch_10">
    <path clip-path="url(#pb92dd6ae04)" d="M 147.535927 108.657164 
L 151.553745 108.657164 
L 151.553745 99.198529 
L 147.535927 99.198529 
z
" style="fill:#ff0000;"/>
   </g>
   <g id="patch_11">
    <path clip-path="url(#pb92dd6ae04)" d="M 162.602744 108.657164 
L 166.620562 108.657164 
L 166.620562 107.822578 
L 162.602744 107.822578 
z
" style="fill:#ff0000;"/>
   </g>
   <g id="patch_12">
    <path clip-path="url(#pb92dd6ae04)" d="M 177.669561 108.657164 
L 181.687379 108.657164 
L 181.687379 108.378969 
L 177.669561 108.378969 
z
" style="fill:#ff0000;"/>
   </g>
   <g id="patch_13">
    <path clip-path="url(#pb92dd6ae04)" d="M 46.086024 108.657164 
L 50.103842 108.657164 
L 50.103842 108.100774 
L 46.086024 108.100774 
z
" style="fill:#d2b48c;"/>
   </g>
   <g id="patch_14">
    <path clip-path="url(#pb92dd6ae04)" d="M 61.152841 108.657164 
L 65.170659 108.657164 
L 65.170659 102.815066 
L 61.152841 102.815066 
z
" style="fill:#d2b48c;"/>
   </g>
   <g id="patch_15">
    <path clip-path="url(#pb92dd6ae04)" d="M 76.219659 108.657164 
L 80.237477 108.657164 
L 80.237477 90.018089 
L 76.219659 90.018089 
z
" style="fill:#d2b48c;"/>
   </g>
   <g id="patch_16">
    <path clip-path="url(#pb92dd6ae04)" d="M 91.286476 108.657164 
L 95.304294 108.657164 
L 95.304294 52.739938 
L 91.286476 52.739938 
z
" style="fill:#d2b48c;"/>
   </g>
   <g id="patch_17">
    <path clip-path="url(#pb92dd6ae04)" d="M 106.353293 108.657164 
L 110.371111 108.657164 
L 110.371111 28.815155 
L 106.353293 28.815155 
z
" style="fill:#d2b48c;"/>
   </g>
   <g id="patch_18">
    <path clip-path="url(#pb92dd6ae04)" d="M 121.42011 108.657164 
L 125.437928 108.657164 
L 125.437928 43.003108 
L 121.42011 43.003108 
z
" style="fill:#d2b48c;"/>
   </g>
   <g id="patch_19">
    <path clip-path="url(#pb92dd6ae04)" d="M 136.486928 108.657164 
L 140.504746 108.657164 
L 140.504746 67.762477 
L 136.486928 67.762477 
z
" style="fill:#d2b48c;"/>
   </g>
   <g id="patch_20">
    <path clip-path="url(#pb92dd6ae04)" d="M 151.553745 108.657164 
L 155.571563 108.657164 
L 155.571563 99.476724 
L 151.553745 99.476724 
z
" style="fill:#d2b48c;"/>
   </g>
   <g id="patch_21">
    <path clip-path="url(#pb92dd6ae04)" d="M 166.620562 108.657164 
L 170.63838 108.657164 
L 170.63838 107.266188 
L 166.620562 107.266188 
z
" style="fill:#d2b48c;"/>
   </g>
   <g id="patch_22">
    <path clip-path="url(#pb92dd6ae04)" d="M 181.687379 108.657164 
L 185.705197 108.657164 
L 185.705197 108.378969 
L 181.687379 108.378969 
z
" style="fill:#d2b48c;"/>
   </g>
   <g id="patch_23">
    <path clip-path="url(#pb92dd6ae04)" d="M 50.103842 108.657164 
L 54.12166 108.657164 
L 54.12166 107.822578 
L 50.103842 107.822578 
z
" style="fill:#00ff00;"/>
   </g>
   <g id="patch_24">
    <path clip-path="url(#pb92dd6ae04)" d="M 65.170659 108.657164 
L 69.188477 108.657164 
L 69.188477 105.875212 
L 65.170659 105.875212 
z
" style="fill:#00ff00;"/>
   </g>
   <g id="patch_25">
    <path clip-path="url(#pb92dd6ae04)" d="M 80.237477 108.657164 
L 84.255295 108.657164 
L 84.255295 88.905308 
L 80.237477 88.905308 
z
" style="fill:#00ff00;"/>
   </g>
   <g id="patch_26">
    <path clip-path="url(#pb92dd6ae04)" d="M 95.304294 108.657164 
L 99.322112 108.657164 
L 99.322112 49.957987 
L 95.304294 49.957987 
z
" style="fill:#00ff00;"/>
   </g>
   <g id="patch_27">
    <path clip-path="url(#pb92dd6ae04)" d="M 110.371111 108.657164 
L 114.388929 108.657164 
L 114.388929 29.927936 
L 110.371111 29.927936 
z
" style="fill:#00ff00;"/>
   </g>
   <g id="patch_28">
    <path clip-path="url(#pb92dd6ae04)" d="M 125.437928 108.657164 
L 129.455746 108.657164 
L 129.455746 41.055742 
L 125.437928 41.055742 
z
" style="fill:#00ff00;"/>
   </g>
   <g id="patch_29">
    <path clip-path="url(#pb92dd6ae04)" d="M 140.504746 108.657164 
L 144.522564 108.657164 
L 144.522564 69.431647 
L 140.504746 69.431647 
z
" style="fill:#00ff00;"/>
   </g>
   <g id="patch_30">
    <path clip-path="url(#pb92dd6ae04)" d="M 155.571563 108.657164 
L 159.589381 108.657164 
L 159.589381 99.198529 
L 155.571563 99.198529 
z
" style="fill:#00ff00;"/>
   </g>
   <g id="patch_31">
    <path clip-path="url(#pb92dd6ae04)" d="M 170.63838 108.657164 
L 174.656198 108.657164 
L 174.656198 107.544383 
L 170.63838 107.544383 
z
" style="fill:#00ff00;"/>
   </g>
   <g id="patch_32">
    <path clip-path="url(#pb92dd6ae04)" d="M 185.705197 108.657164 
L 189.723015 108.657164 
L 189.723015 108.657164 
L 185.705197 108.657164 
z
" style="fill:#00ff00;"/>
   </g>
   <g id="matplotlib.axis_1">
    <g id="xtick_1">
     <g id="line2d_1">
      <defs>
       <path d="M 0 0 
L 0 3.5 
" id="mbaa8784619" style="stroke:#000000;stroke-width:0.8;"/>
      </defs>
      <g>
       <use style="stroke:#000000;stroke-width:0.8;" x="62.335898" xlink:href="#mbaa8784619" y="108.657164"/>
      </g>
     </g>
     <g id="text_1">
      <!-- $\mathdefault{−2.5}$ -->
      <g transform="translate(48.186489 125.34304)scale(0.14 -0.14)">
       <defs>
        <path d="M 65.90625 23 
C 67.59375 23 69.40625 23 69.40625 25 
C 69.40625 27 67.59375 27 65.90625 27 
L 11.796875 27 
C 10.09375 27 8.296875 27 8.296875 25 
C 8.296875 23 10.09375 23 11.796875 23 
z
" id="CMSY10-0"/>
        <path d="M 41.703125 15.46875 
L 39.90625 15.46875 
C 38.90625 8.390625 38.09375 7.1875 37.703125 6.59375 
C 37.203125 5.796875 30 5.796875 28.59375 5.796875 
L 9.40625 5.796875 
C 13 9.6875 20 16.765625 28.5 24.9375 
C 34.59375 30.71875 41.703125 37.5 41.703125 47.390625 
C 41.703125 59.1875 32.296875 66 21.796875 66 
C 10.796875 66 4.09375 56.296875 4.09375 47.296875 
C 4.09375 43.390625 7 42.890625 8.203125 42.890625 
C 9.203125 42.890625 12.203125 43.484375 12.203125 46.984375 
C 12.203125 50.09375 9.59375 51 8.203125 51 
C 7.59375 51 7 50.890625 6.59375 50.6875 
C 8.5 59.1875 14.296875 63.390625 20.40625 63.390625 
C 29.09375 63.390625 34.796875 56.5 34.796875 47.390625 
C 34.796875 38.703125 29.703125 31.21875 24 24.734375 
L 4.09375 2.296875 
L 4.09375 0 
L 39.296875 0 
z
" id="CMR17-50"/>
        <path d="M 18.40625 4.796875 
C 18.40625 7.6875 16 9.6875 13.59375 9.6875 
C 10.703125 9.6875 8.703125 7.296875 8.703125 4.890625 
C 8.703125 2 11.09375 0 13.5 0 
C 16.40625 0 18.40625 2.390625 18.40625 4.796875 
z
" id="CMMI12-58"/>
        <path d="M 11.40625 58.59375 
C 12.40625 58.1875 16.5 56.890625 20.703125 56.890625 
C 30 56.890625 35.09375 61.890625 38 64.6875 
C 38 65.484375 38 66 37.40625 66 
C 37.296875 66 37.09375 66 36.296875 65.59375 
C 32.796875 64.09375 28.703125 63 23.703125 63 
C 20.703125 63 16.203125 63.359375 11.296875 65.484375 
C 10.203125 66 10 66 9.90625 66 
C 9.40625 66 9.296875 65.890625 9.296875 63.90625 
L 9.296875 34.859375 
C 9.296875 33.015625 9.296875 32.5 10.296875 32.5 
C 10.796875 32.5 11 32.703125 11.5 33.421875 
C 14.703125 38.046875 19.09375 40 24.09375 40 
C 27.59375 40 35.09375 37.734375 35.09375 20.203125 
C 35.09375 16.984375 35.09375 11.1875 32.09375 6.59375 
C 29.59375 2.484375 25.703125 0.390625 21.40625 0.390625 
C 14.796875 0.390625 8.09375 4.984375 6.296875 12.6875 
C 6.703125 12.59375 7.5 12.390625 7.90625 12.390625 
C 9.203125 12.390625 11.703125 13.09375 11.703125 16.1875 
C 11.703125 18.890625 9.796875 20 7.90625 20 
C 5.59375 20 4.09375 18.59375 4.09375 15.796875 
C 4.09375 7.09375 11 -2 21.59375 -2 
C 31.90625 -2 41.703125 6.890625 41.703125 19.796875 
C 41.703125 32.09375 33.90625 41.59375 24.203125 41.59375 
C 19.09375 41.59375 14.796875 39.6875 11.40625 36 
z
" id="CMR17-53"/>
       </defs>
       <use transform="scale(0.996264)" xlink:href="#CMSY10-0"/>
       <use transform="translate(77.487468 0)scale(0.996264)" xlink:href="#CMR17-50"/>
       <use transform="translate(123.177945 0)scale(0.996264)" xlink:href="#CMMI12-58"/>
       <use transform="translate(150.275122 0)scale(0.996264)" xlink:href="#CMR17-53"/>
      </g>
     </g>
    </g>
    <g id="xtick_2">
     <g id="line2d_2">
      <g>
       <use style="stroke:#000000;stroke-width:0.8;" x="111.673907" xlink:href="#mbaa8784619" y="108.657164"/>
      </g>
     </g>
     <g id="text_2">
      <!-- $\mathdefault{0.0}$ -->
      <g transform="translate(102.948616 125.34304)scale(0.14 -0.14)">
       <defs>
        <path d="M 42 31.84375 
C 42 37.96875 41.90625 48.421875 37.703125 56.453125 
C 34 63.484375 28.09375 66 22.90625 66 
C 18.09375 66 12 63.78125 8.203125 56.5625 
C 4.203125 49.015625 3.796875 39.671875 3.796875 31.84375 
C 3.796875 26.109375 3.90625 17.375 7 9.734375 
C 11.296875 -0.609375 19 -2 22.90625 -2 
C 27.5 -2 34.5 -0.109375 38.59375 9.4375 
C 41.59375 16.375 42 24.5 42 31.84375 
z
M 22.90625 -0.40625 
C 16.5 -0.40625 12.703125 5.125 11.296875 12.75 
C 10.203125 18.6875 10.203125 27.328125 10.203125 32.953125 
C 10.203125 40.6875 10.203125 47.109375 11.5 53.234375 
C 13.40625 61.78125 19 64.390625 22.90625 64.390625 
C 27 64.390625 32.296875 61.671875 34.203125 53.4375 
C 35.5 47.71875 35.59375 40.984375 35.59375 32.953125 
C 35.59375 26.421875 35.59375 18.375 34.40625 12.453125 
C 32.296875 1.5 26.40625 -0.40625 22.90625 -0.40625 
z
" id="CMR17-48"/>
       </defs>
       <use transform="scale(0.996264)" xlink:href="#CMR17-48"/>
       <use transform="translate(45.690477 0)scale(0.996264)" xlink:href="#CMMI12-58"/>
       <use transform="translate(72.787654 0)scale(0.996264)" xlink:href="#CMR17-48"/>
      </g>
     </g>
    </g>
    <g id="xtick_3">
     <g id="line2d_3">
      <g>
       <use style="stroke:#000000;stroke-width:0.8;" x="161.011916" xlink:href="#mbaa8784619" y="108.657164"/>
      </g>
     </g>
     <g id="text_3">
      <!-- $\mathdefault{2.5}$ -->
      <g transform="translate(152.286625 125.34304)scale(0.14 -0.14)">
       <use transform="scale(0.996264)" xlink:href="#CMR17-50"/>
       <use transform="translate(45.690477 0)scale(0.996264)" xlink:href="#CMMI12-58"/>
       <use transform="translate(72.787654 0)scale(0.996264)" xlink:href="#CMR17-53"/>
      </g>
     </g>
    </g>
   </g>
   <g id="matplotlib.axis_2">
    <g id="ytick_1">
     <g id="line2d_4">
      <defs>
       <path d="M 0 0 
L -3.5 0 
" id="mbb90f19bf5" style="stroke:#000000;stroke-width:0.8;"/>
      </defs>
      <g>
       <use style="stroke:#000000;stroke-width:0.8;" x="34.685466" xlink:href="#mbb90f19bf5" y="108.657164"/>
      </g>
     </g>
     <g id="text_4">
      <!-- $\mathdefault{0.0}$ -->
      <g transform="translate(10.234884 113.500102)scale(0.14 -0.14)">
       <use transform="scale(0.996264)" xlink:href="#CMR17-48"/>
       <use transform="translate(45.690477 0)scale(0.996264)" xlink:href="#CMMI12-58"/>
       <use transform="translate(72.787654 0)scale(0.996264)" xlink:href="#CMR17-48"/>
      </g>
     </g>
    </g>
    <g id="ytick_2">
     <g id="line2d_5">
      <g>
       <use style="stroke:#000000;stroke-width:0.8;" x="34.685466" xlink:href="#mbb90f19bf5" y="66.179614"/>
      </g>
     </g>
     <g id="text_5">
      <!-- $\mathdefault{0.2}$ -->
      <g transform="translate(10.234884 71.022552)scale(0.14 -0.14)">
       <use transform="scale(0.996264)" xlink:href="#CMR17-48"/>
       <use transform="translate(45.690477 0)scale(0.996264)" xlink:href="#CMMI12-58"/>
       <use transform="translate(72.787654 0)scale(0.996264)" xlink:href="#CMR17-50"/>
      </g>
     </g>
    </g>
   </g>
   <g id="patch_33">
    <path d="M 34.685466 108.657164 
L 34.685466 24.823055 
" style="fill:none;stroke:#000000;stroke-linecap:square;stroke-linejoin:miter;stroke-width:0.8;"/>
   </g>
   <g id="patch_34">
    <path d="M 197.105756 108.657164 
L 197.105756 24.823055 
" style="fill:none;stroke:#000000;stroke-linecap:square;stroke-linejoin:miter;stroke-width:0.8;"/>
   </g>
   <g id="patch_35">
    <path d="M 34.685466 108.657164 
L 197.105756 108.657164 
" style="fill:none;stroke:#000000;stroke-linecap:square;stroke-linejoin:miter;stroke-width:0.8;"/>
   </g>
   <g id="patch_36">
    <path d="M 34.685466 24.823055 
L 197.105756 24.823055 
" style="fill:none;stroke:#000000;stroke-linecap:square;stroke-linejoin:miter;stroke-width:0.8;"/>
   </g>
   <g id="text_6">
    <!-- bars with legend -->
    <g transform="translate(60.23335 18.823055)scale(0.168 -0.168)">
     <defs>
      <path d="M 14.90625 69 
L 7.5 69 
L 7.5 -0.203125 
L 15.09375 -0.203125 
L 15.09375 4.296875 
C 18.90625 0.59375 23.5 -1 27.59375 -1 
C 37.203125 -1 45 8.734375 45 21.59375 
C 45 33.328125 39 44 30.09375 44 
C 23.796875 44 18.203125 41.390625 14.90625 38.6875 
z
M 15.09375 32.734375 
C 17.296875 35.5625 20.40625 37.890625 24.796875 37.890625 
C 30.703125 37.890625 37.40625 33.53125 37.40625 21.59375 
C 37.40625 8.84375 29.40625 5.09375 23.90625 5.09375 
C 21.90625 5.09375 19.796875 5.59375 17.796875 7.3125 
C 15.09375 9.75 15.09375 11.265625 15.09375 12.6875 
z
" id="CMSS17-98"/>
      <path d="M 37.59375 27.953125 
C 37.59375 37.484375 30.90625 44 21.90625 44 
C 17.5 44 12.703125 43.1875 7.203125 39.984375 
L 7.796875 33.328125 
C 10.296875 35.15625 14.59375 38.09375 21.796875 38.09375 
C 26.90625 38.09375 30 34.140625 30 27.84375 
L 30 24 
C 14 23.5 4 18.890625 4 11.109375 
C 4 7.0625 6.5 -1 14.796875 -1 
C 16.296875 -1 24.40625 -0.8125 30.203125 3.5 
L 30.203125 -0.203125 
L 37.59375 -0.203125 
z
M 30 12.875 
C 30 11.109375 30 8.734375 27 6.96875 
C 24.40625 5.296875 21.09375 5.09375 19.703125 5.09375 
C 14.703125 5.09375 11.296875 7.859375 11.296875 11.296875 
C 11.296875 18.203125 26.90625 18.890625 30 19 
z
" id="CMSS17-97"/>
      <path d="M 14.90625 21.390625 
C 14.90625 30.84375 21.796875 37.171875 30.59375 37.375 
L 30.59375 44 
C 24.203125 43.890625 18.203125 40.6875 14.59375 35.46875 
L 14.59375 43.484375 
L 7.5 43.484375 
L 7.5 0 
L 14.90625 0 
z
" id="CMSS17-114"/>
      <path d="M 32.203125 40.984375 
C 26.296875 43.796875 21.703125 44 18.703125 44 
C 11.59375 44 3.09375 41.484375 3.09375 31.390625 
C 3.09375 21.296875 14.09375 19.09375 17.09375 18.484375 
C 21.703125 17.59375 26.796875 16.59375 26.796875 11.59375 
C 26.796875 5.296875 19.59375 5.296875 18.296875 5.296875 
C 14.296875 5.296875 8.796875 6.390625 3.796875 9.984375 
L 2.59375 3.296875 
C 8.296875 0 13.796875 -1 18.40625 -1 
C 30.703125 -1 33.796875 6.5 33.796875 12.1875 
C 33.796875 17.09375 31 20.390625 29.09375 21.890625 
C 25.796875 24.484375 24.59375 24.796875 16.40625 26.484375 
C 15 26.6875 10.09375 27.796875 10.09375 32.296875 
C 10.09375 37.984375 16.40625 37.984375 17.796875 37.984375 
C 24.296875 37.984375 28.296875 35.984375 31 34.484375 
z
" id="CMSS17-115"/>
      <path d="M 62.703125 43 
L 55.09375 43 
L 49.796875 25 
C 48.703125 21.1875 45.59375 10.6875 45.203125 5.796875 
L 45.09375 5.796875 
C 44.90625 8.796875 43.203125 16 40.40625 25.5 
L 35.296875 43 
L 28.40625 43 
L 23.40625 25.890625 
C 20.90625 17.1875 19 9.796875 18.796875 5.796875 
L 18.703125 5.796875 
C 18.296875 11.6875 14.203125 25.5 13.59375 27.6875 
L 9.09375 43 
L 1.296875 43 
L 14.296875 0 
L 21.90625 0 
C 27.09375 17.1875 31.09375 30.5 31.40625 37.1875 
C 31.59375 33.890625 33.296875 26.796875 34.296875 23.296875 
L 40.90625 0 
L 49.703125 0 
z
" id="CMSS17-119"/>
      <path d="M 15.296875 66 
L 6.90625 66 
L 6.90625 57.59375 
L 15.296875 57.59375 
z
M 14.796875 43 
L 7.40625 43 
L 7.40625 0 
L 14.796875 0 
z
" id="CMSS17-105"/>
      <path d="M 16.703125 37.1875 
L 29.703125 37.1875 
L 29.703125 43 
L 16.703125 43 
L 16.703125 55 
L 9.59375 55 
L 9.59375 43 
L 1.703125 43 
L 1.703125 37.1875 
L 9.40625 37.1875 
L 9.40625 11.734375 
C 9.40625 6 10.703125 -1 17.296875 -1 
C 22.296875 -1 26.90625 0.390625 31.296875 2.6875 
L 29.703125 8.609375 
C 27.296875 6.5 24.40625 5.296875 21.296875 5.296875 
C 16.90625 5.296875 16.703125 10.921875 16.703125 13.4375 
z
" id="CMSS17-116"/>
      <path d="M 40.90625 29.34375 
C 40.90625 35.671875 39.40625 44 28.09375 44 
C 21.796875 44 17.703125 40.890625 14.796875 37.484375 
L 14.796875 69 
L 7.40625 69 
L 7.40625 0 
L 15 0 
L 15 24.3125 
C 15 30.65625 17.40625 37.890625 24.203125 37.890625 
C 33 37.890625 33.296875 31.953125 33.296875 28.53125 
L 33.296875 0 
L 40.90625 0 
z
" id="CMSS17-104"/>
      <path d="M 14.796875 69 
L 7.40625 69 
L 7.40625 0 
L 14.796875 0 
z
" id="CMSS17-108"/>
      <path d="M 39.09375 21.484375 
C 39.09375 24.796875 38.90625 31.265625 35.703125 36.671875 
C 32.203125 42.390625 26.5 44 22.203125 44 
C 11.796875 44 3 34.125 3 21.296875 
C 3 9.046875 12.09375 -1 23.59375 -1 
C 28.09375 -1 33.59375 0.296875 38.59375 3.890625 
C 38.59375 4.296875 38.40625 6.46875 38.296875 6.578125 
C 38.296875 6.765625 38 9.828125 38 10.234375 
C 33.203125 6.375 27.703125 5.09375 23.703125 5.09375 
C 17.296875 5.09375 10.40625 10.421875 10.09375 21.484375 
z
M 10.90625 27 
C 12.203125 32.59375 16.59375 37.890625 22.203125 37.890625 
C 23.703125 37.890625 30.703125 37.6875 32.5 27 
z
" id="CMSS17-101"/>
      <path d="M 44.5 44 
C 38.796875 43.890625 33.90625 42.796875 29.90625 40.890625 
C 26.59375 43.484375 23.203125 44 20.90625 44 
C 12.203125 44 5.59375 36.8125 5.59375 28.5 
C 5.59375 23.140625 8.59375 19.09375 8.796875 18.890625 
C 7 16.390625 6 13.6875 6 10.6875 
C 6 7.1875 7.40625 4.6875 8.5 3.296875 
C 3.296875 0.09375 2.59375 -4.8125 2.59375 -6.703125 
C 2.59375 -14 11.703125 -20 23.40625 -20 
C 35.203125 -20 44.296875 -14 44.296875 -6.609375 
C 44.296875 7.1875 29 7.296875 24.796875 7.296875 
L 16.703125 7.296875 
C 15.203125 7.296875 11.203125 7.296875 11.203125 12.390625 
C 11.203125 14.390625 12.09375 15.6875 12.203125 15.796875 
C 13.703125 14.6875 16.796875 13 20.90625 13 
C 29.203125 13 36.09375 19.984375 36.09375 28.5 
C 36.09375 33.25 33.90625 36.703125 33 37.890625 
L 33.296875 37.890625 
C 33.59375 37.890625 37.796875 38.1875 39.296875 38.1875 
C 42.5 38.1875 42.796875 38.09375 45.59375 37.796875 
z
M 20.90625 18.5 
C 17.5 18.5 12.703125 20.578125 12.703125 28.5 
C 12.703125 37.109375 18.203125 38.484375 20.796875 38.484375 
C 24.203125 38.484375 29 36.40625 29 28.5 
C 29 19.875 23.5 18.5 20.90625 18.5 
z
M 24.703125 0 
C 27.09375 0 37.203125 0 37.203125 -6.8125 
C 37.203125 -11.109375 31 -14.5 23.5 -14.5 
C 15.90625 -14.5 9.703125 -11.203125 9.703125 -6.703125 
C 9.703125 -6.203125 9.703125 0 16.59375 0 
z
" id="CMSS17-103"/>
      <path d="M 40.90625 29.34375 
C 40.90625 35.671875 39.40625 44 28.09375 44 
C 21.703125 44 17.5 40.6875 14.703125 37.28125 
L 14.703125 43.484375 
L 7.40625 43.484375 
L 7.40625 0 
L 15 0 
L 15 24.3125 
C 15 30.65625 17.40625 37.890625 24.203125 37.890625 
C 33 37.890625 33.296875 31.953125 33.296875 28.53125 
L 33.296875 0 
L 40.90625 0 
z
" id="CMSS17-110"/>
      <path d="M 40.796875 69 
L 33.40625 69 
L 33.40625 38.984375 
C 30.296875 41.59375 25.203125 44 19.59375 44 
C 10.5 44 3.296875 34.046875 3.296875 21.484375 
C 3.296875 8.9375 10.40625 -1 19.296875 -1 
C 26.203125 -1 30.796875 2.6875 33.203125 4.796875 
L 33.203125 -0.203125 
L 40.796875 -0.203125 
z
M 33.203125 13.296875 
C 33.203125 11.875 33.203125 10.359375 30.09375 7.625 
C 28.09375 5.90625 25.703125 5.09375 23.40625 5.09375 
C 18 5.09375 10.90625 9.140625 10.90625 21.390625 
C 10.90625 34.140625 18.90625 37.890625 24.40625 37.890625 
C 28.09375 37.890625 31.09375 36.0625 33.203125 33.03125 
z
" id="CMSS17-100"/>
     </defs>
     <use transform="scale(0.996264)" xlink:href="#CMSS17-98"/>
     <use transform="translate(48.204943 0)scale(0.996264)" xlink:href="#CMSS17-97"/>
     <use transform="translate(90.52441 0)scale(0.996264)" xlink:href="#CMSS17-114"/>
     <use transform="translate(122.434182 0)scale(0.996264)" xlink:href="#CMSS17-115"/>
     <use transform="translate(189.576837 0)scale(0.996264)" xlink:href="#CMSS17-119"/>
     <use transform="translate(253.396382 0)scale(0.996264)" xlink:href="#CMSS17-105"/>
     <use transform="translate(275.577105 0)scale(0.996264)" xlink:href="#CMSS17-116"/>
     <use transform="translate(309.408672 0)scale(0.996264)" xlink:href="#CMSS17-104"/>
     <use transform="translate(388.842728 0)scale(0.996264)" xlink:href="#CMSS17-108"/>
     <use transform="translate(411.023451 0)scale(0.996264)" xlink:href="#CMSS17-101"/>
     <use transform="translate(452.662273 0)scale(0.996264)" xlink:href="#CMSS17-103"/>
     <use transform="translate(499.505896 0)scale(0.996264)" xlink:href="#CMSS17-101"/>
     <use transform="translate(541.144719 0)scale(0.996264)" xlink:href="#CMSS17-110"/>
     <use transform="translate(589.349662 0)scale(0.996264)" xlink:href="#CMSS17-100"/>
    </g>
   </g>
   <g id="legend_1">
    <g id="patch_37">
     <path d="M 141.003218 76.714921 
L 190.105756 76.714921 
Q 192.105756 76.714921 192.105756 74.714921 
L 192.105756 31.823055 
Q 192.105756 29.823055 190.105756 29.823055 
L 141.003218 29.823055 
Q 139.003218 29.823055 139.003218 31.823055 
L 139.003218 74.714921 
Q 139.003218 76.714921 141.003218 76.714921 
z
" style="fill:#ffffff;opacity:0.8;stroke:#cccccc;stroke-linejoin:miter;"/>
    </g>
    <g id="patch_38">
     <path d="M 143.003218 41.421492 
L 163.003218 41.421492 
L 163.003218 34.421492 
L 143.003218 34.421492 
z
" style="fill:#ff0000;"/>
    </g>
    <g id="text_7">
     <!-- red -->
     <g transform="translate(171.003218 41.421492)scale(0.1 -0.1)">
      <use transform="scale(0.996264)" xlink:href="#CMSS17-114"/>
      <use transform="translate(31.909773 0)scale(0.996264)" xlink:href="#CMSS17-101"/>
      <use transform="translate(73.548595 0)scale(0.996264)" xlink:href="#CMSS17-100"/>
     </g>
    </g>
    <g id="patch_39">
     <path d="M 143.003218 56.099617 
L 163.003218 56.099617 
L 163.003218 49.099617 
L 143.003218 49.099617 
z
" style="fill:#d2b48c;"/>
    </g>
    <g id="text_8">
     <!-- tan -->
     <g transform="translate(171.003218 56.099617)scale(0.1 -0.1)">
      <use transform="scale(0.996264)" xlink:href="#CMSS17-116"/>
      <use transform="translate(33.831567 0)scale(0.996264)" xlink:href="#CMSS17-97"/>
      <use transform="translate(78.753487 0)scale(0.996264)" xlink:href="#CMSS17-110"/>
     </g>
    </g>
    <g id="patch_40">
     <path d="M 143.003218 70.777742 
L 163.003218 70.777742 
L 163.003218 63.777742 
L 143.003218 63.777742 
z
" style="fill:#00ff00;"/>
    </g>
    <g id="text_9">
     <!-- lime -->
     <g transform="translate(171.003218 70.777742)scale(0.1 -0.1)">
      <defs>
       <path d="M 67 29.34375 
C 67 36.078125 65.296875 44 54.09375 44 
C 46.59375 44 42.09375 39.296875 40.09375 36.375 
C 38.296875 41.6875 34.09375 44 28.09375 44 
C 21.296875 44 17 40.09375 14.703125 37.28125 
L 14.703125 43.484375 
L 7.40625 43.484375 
L 7.40625 0 
L 15 0 
L 15 24.3125 
C 15 30.25 17.203125 37.890625 24.296875 37.890625 
C 33.40625 37.890625 33.40625 31.453125 33.40625 28.53125 
L 33.40625 0 
L 41 0 
L 41 24.3125 
C 41 30.25 43.203125 37.890625 50.296875 37.890625 
C 59.40625 37.890625 59.40625 31.453125 59.40625 28.53125 
L 59.40625 0 
L 67 0 
z
" id="CMSS17-109"/>
      </defs>
      <use transform="scale(0.996264)" xlink:href="#CMSS17-108"/>
      <use transform="translate(22.180723 0)scale(0.996264)" xlink:href="#CMSS17-105"/>
      <use transform="translate(44.361446 0)scale(0.996264)" xlink:href="#CMSS17-109"/>
      <use transform="translate(118.590701 0)scale(0.996264)" xlink:href="#CMSS17-101"/>
     </g>
    </g>
   </g>
  </g>
  <g id="axes_2">
   <g id="patch_41">
    <path d="M 246.53971 108.657164 
L 408.96 108.657164 
L 408.96 24.823055 
L 246.53971 24.823055 
z
" style="fill:#ffffff;"/>
   </g>
   <g id="patch_42">
    <path clip-path="url(#p1aa1aeece2)" d="M 253.922451 108.657164 
L 268.687932 108.657164 
L 268.687932 108.56234 
L 253.922451 108.56234 
z
" style="fill:#1f77b4;"/>
   </g>
   <g id="patch_43">
    <path clip-path="url(#p1aa1aeece2)" d="M 268.687932 108.657164 
L 283.453412 108.657164 
L 283.453412 107.2348 
L 268.687932 107.2348 
z
" style="fill:#1f77b4;"/>
   </g>
   <g id="patch_44">
    <path clip-path="url(#p1aa1aeece2)" d="M 283.453412 108.657164 
L 298.218893 108.657164 
L 298.218893 101.829819 
L 283.453412 101.829819 
z
" style="fill:#1f77b4;"/>
   </g>
   <g id="patch_45">
    <path clip-path="url(#p1aa1aeece2)" d="M 298.218893 108.657164 
L 312.984374 108.657164 
L 312.984374 88.838898 
L 298.218893 88.838898 
z
" style="fill:#1f77b4;"/>
   </g>
   <g id="patch_46">
    <path clip-path="url(#p1aa1aeece2)" d="M 312.984374 108.657164 
L 327.749855 108.657164 
L 327.749855 82.864971 
L 312.984374 82.864971 
z
" style="fill:#1f77b4;"/>
   </g>
   <g id="patch_47">
    <path clip-path="url(#p1aa1aeece2)" d="M 327.749855 108.657164 
L 342.515336 108.657164 
L 342.515336 84.002862 
L 327.749855 84.002862 
z
" style="fill:#1f77b4;"/>
   </g>
   <g id="patch_48">
    <path clip-path="url(#p1aa1aeece2)" d="M 342.515336 108.657164 
L 357.280817 108.657164 
L 357.280817 96.04554 
L 342.515336 96.04554 
z
" style="fill:#1f77b4;"/>
   </g>
   <g id="patch_49">
    <path clip-path="url(#p1aa1aeece2)" d="M 357.280817 108.657164 
L 372.046298 108.657164 
L 372.046298 105.43314 
L 357.280817 105.43314 
z
" style="fill:#1f77b4;"/>
   </g>
   <g id="patch_50">
    <path clip-path="url(#p1aa1aeece2)" d="M 372.046298 108.657164 
L 386.811779 108.657164 
L 386.811779 108.372691 
L 372.046298 108.372691 
z
" style="fill:#1f77b4;"/>
   </g>
   <g id="patch_51">
    <path clip-path="url(#p1aa1aeece2)" d="M 386.811779 108.657164 
L 401.57726 108.657164 
L 401.57726 108.56234 
L 386.811779 108.56234 
z
" style="fill:#1f77b4;"/>
   </g>
   <g id="patch_52">
    <path clip-path="url(#p1aa1aeece2)" d="M 253.922451 108.56234 
L 268.687932 108.56234 
L 268.687932 108.372691 
L 253.922451 108.372691 
z
" style="fill:#ff7f0e;"/>
   </g>
   <g id="patch_53">
    <path clip-path="url(#p1aa1aeece2)" d="M 268.687932 107.2348 
L 283.453412 107.2348 
L 283.453412 105.243491 
L 268.687932 105.243491 
z
" style="fill:#ff7f0e;"/>
   </g>
   <g id="patch_54">
    <path clip-path="url(#p1aa1aeece2)" d="M 283.453412 101.829819 
L 298.218893 101.829819 
L 298.218893 95.476595 
L 283.453412 95.476595 
z
" style="fill:#ff7f0e;"/>
   </g>
   <g id="patch_55">
    <path clip-path="url(#p1aa1aeece2)" d="M 298.218893 88.838898 
L 312.984374 88.838898 
L 312.984374 69.779226 
L 298.218893 69.779226 
z
" style="fill:#ff7f0e;"/>
   </g>
   <g id="patch_56">
    <path clip-path="url(#p1aa1aeece2)" d="M 312.984374 82.864971 
L 327.749855 82.864971 
L 327.749855 55.650415 
L 312.984374 55.650415 
z
" style="fill:#ff7f0e;"/>
   </g>
   <g id="patch_57">
    <path clip-path="url(#p1aa1aeece2)" d="M 327.749855 84.002862 
L 342.515336 84.002862 
L 342.515336 61.624342 
L 327.749855 61.624342 
z
" style="fill:#ff7f0e;"/>
   </g>
   <g id="patch_58">
    <path clip-path="url(#p1aa1aeece2)" d="M 342.515336 96.04554 
L 357.280817 96.04554 
L 357.280817 82.106377 
L 342.515336 82.106377 
z
" style="fill:#ff7f0e;"/>
   </g>
   <g id="patch_59">
    <path clip-path="url(#p1aa1aeece2)" d="M 357.280817 105.43314 
L 372.046298 105.43314 
L 372.046298 102.30394 
L 357.280817 102.30394 
z
" style="fill:#ff7f0e;"/>
   </g>
   <g id="patch_60">
    <path clip-path="url(#p1aa1aeece2)" d="M 372.046298 108.372691 
L 386.811779 108.372691 
L 386.811779 107.89857 
L 372.046298 107.89857 
z
" style="fill:#ff7f0e;"/>
   </g>
   <g id="patch_61">
    <path clip-path="url(#p1aa1aeece2)" d="M 386.811779 108.56234 
L 401.57726 108.56234 
L 401.57726 108.467515 
L 386.811779 108.467515 
z
" style="fill:#ff7f0e;"/>
   </g>
   <g id="patch_62">
    <path clip-path="url(#p1aa1aeece2)" d="M 253.922451 108.372691 
L 268.687932 108.372691 
L 268.687932 108.088218 
L 253.922451 108.088218 
z
" style="fill:#2ca02c;"/>
   </g>
   <g id="patch_63">
    <path clip-path="url(#p1aa1aeece2)" d="M 268.687932 105.243491 
L 283.453412 105.243491 
L 283.453412 104.295249 
L 268.687932 104.295249 
z
" style="fill:#2ca02c;"/>
   </g>
   <g id="patch_64">
    <path clip-path="url(#p1aa1aeece2)" d="M 283.453412 95.476595 
L 298.218893 95.476595 
L 298.218893 88.744074 
L 283.453412 88.744074 
z
" style="fill:#2ca02c;"/>
   </g>
   <g id="patch_65">
    <path clip-path="url(#p1aa1aeece2)" d="M 298.218893 69.779226 
L 312.984374 69.779226 
L 312.984374 49.771312 
L 298.218893 49.771312 
z
" style="fill:#2ca02c;"/>
   </g>
   <g id="patch_66">
    <path clip-path="url(#p1aa1aeece2)" d="M 312.984374 55.650415 
L 327.749855 55.650415 
L 327.749855 28.815155 
L 312.984374 28.815155 
z
" style="fill:#2ca02c;"/>
   </g>
   <g id="patch_67">
    <path clip-path="url(#p1aa1aeece2)" d="M 327.749855 61.624342 
L 342.515336 61.624342 
L 342.515336 38.582052 
L 327.749855 38.582052 
z
" style="fill:#2ca02c;"/>
   </g>
   <g id="patch_68">
    <path clip-path="url(#p1aa1aeece2)" d="M 342.515336 82.106377 
L 357.280817 82.106377 
L 357.280817 68.73616 
L 342.515336 68.73616 
z
" style="fill:#2ca02c;"/>
   </g>
   <g id="patch_69">
    <path clip-path="url(#p1aa1aeece2)" d="M 357.280817 102.30394 
L 372.046298 102.30394 
L 372.046298 99.079916 
L 357.280817 99.079916 
z
" style="fill:#2ca02c;"/>
   </g>
   <g id="patch_70">
    <path clip-path="url(#p1aa1aeece2)" d="M 372.046298 107.89857 
L 386.811779 107.89857 
L 386.811779 107.519273 
L 372.046298 107.519273 
z
" style="fill:#2ca02c;"/>
   </g>
   <g id="patch_71">
    <path clip-path="url(#p1aa1aeece2)" d="M 386.811779 108.467515 
L 401.57726 108.467515 
L 401.57726 108.467515 
L 386.811779 108.467515 
z
" style="fill:#2ca02c;"/>
   </g>
   <g id="matplotlib.axis_3">
    <g id="xtick_4">
     <g id="line2d_6">
      <g>
       <use style="stroke:#000000;stroke-width:0.8;" x="275.261336" xlink:href="#mbaa8784619" y="108.657164"/>
      </g>
     </g>
     <g id="text_10">
      <!-- $\mathdefault{−2.5}$ -->
      <g transform="translate(261.111928 125.34304)scale(0.14 -0.14)">
       <use transform="scale(0.996264)" xlink:href="#CMSY10-0"/>
       <use transform="translate(77.487468 0)scale(0.996264)" xlink:href="#CMR17-50"/>
       <use transform="translate(123.177945 0)scale(0.996264)" xlink:href="#CMMI12-58"/>
       <use transform="translate(150.275122 0)scale(0.996264)" xlink:href="#CMR17-53"/>
      </g>
     </g>
    </g>
    <g id="xtick_5">
     <g id="line2d_7">
      <g>
       <use style="stroke:#000000;stroke-width:0.8;" x="323.612585" xlink:href="#mbaa8784619" y="108.657164"/>
      </g>
     </g>
     <g id="text_11">
      <!-- $\mathdefault{0.0}$ -->
      <g transform="translate(314.887294 125.34304)scale(0.14 -0.14)">
       <use transform="scale(0.996264)" xlink:href="#CMR17-48"/>
       <use transform="translate(45.690477 0)scale(0.996264)" xlink:href="#CMMI12-58"/>
       <use transform="translate(72.787654 0)scale(0.996264)" xlink:href="#CMR17-48"/>
      </g>
     </g>
    </g>
    <g id="xtick_6">
     <g id="line2d_8">
      <g>
       <use style="stroke:#000000;stroke-width:0.8;" x="371.963834" xlink:href="#mbaa8784619" y="108.657164"/>
      </g>
     </g>
     <g id="text_12">
      <!-- $\mathdefault{2.5}$ -->
      <g transform="translate(363.238543 125.34304)scale(0.14 -0.14)">
       <use transform="scale(0.996264)" xlink:href="#CMR17-50"/>
       <use transform="translate(45.690477 0)scale(0.996264)" xlink:href="#CMMI12-58"/>
       <use transform="translate(72.787654 0)scale(0.996264)" xlink:href="#CMR17-53"/>
      </g>
     </g>
    </g>
   </g>
   <g id="matplotlib.axis_4">
    <g id="ytick_3">
     <g id="line2d_9">
      <g>
       <use style="stroke:#000000;stroke-width:0.8;" x="246.53971" xlink:href="#mbb90f19bf5" y="108.657164"/>
      </g>
     </g>
     <g id="text_13">
      <!-- $\mathdefault{0.0}$ -->
      <g transform="translate(222.089128 113.500102)scale(0.14 -0.14)">
       <use transform="scale(0.996264)" xlink:href="#CMR17-48"/>
       <use transform="translate(45.690477 0)scale(0.996264)" xlink:href="#CMMI12-58"/>
       <use transform="translate(72.787654 0)scale(0.996264)" xlink:href="#CMR17-48"/>
      </g>
     </g>
    </g>
    <g id="ytick_4">
     <g id="line2d_10">
      <g>
       <use style="stroke:#000000;stroke-width:0.8;" x="246.53971" xlink:href="#mbb90f19bf5" y="65.221094"/>
      </g>
     </g>
     <g id="text_14">
      <!-- $\mathdefault{0.2}$ -->
      <g transform="translate(222.089128 70.064032)scale(0.14 -0.14)">
       <use transform="scale(0.996264)" xlink:href="#CMR17-48"/>
       <use transform="translate(45.690477 0)scale(0.996264)" xlink:href="#CMMI12-58"/>
       <use transform="translate(72.787654 0)scale(0.996264)" xlink:href="#CMR17-50"/>
      </g>
     </g>
    </g>
   </g>
   <g id="patch_72">
    <path d="M 246.53971 108.657164 
L 246.53971 24.823055 
" style="fill:none;stroke:#000000;stroke-linecap:square;stroke-linejoin:miter;stroke-width:0.8;"/>
   </g>
   <g id="patch_73">
    <path d="M 408.96 108.657164 
L 408.96 24.823055 
" style="fill:none;stroke:#000000;stroke-linecap:square;stroke-linejoin:miter;stroke-width:0.8;"/>
   </g>
   <g id="patch_74">
    <path d="M 246.53971 108.657164 
L 408.96 108.657164 
" style="fill:none;stroke:#000000;stroke-linecap:square;stroke-linejoin:miter;stroke-width:0.8;"/>
   </g>
   <g id="patch_75">
    <path d="M 246.53971 24.823055 
L 408.96 24.823055 
" style="fill:none;stroke:#000000;stroke-linecap:square;stroke-linejoin:miter;stroke-width:0.8;"/>
   </g>
   <g id="text_15">
    <!-- stacked bar -->
    <g transform="translate(289.07646 18.823055)scale(0.168 -0.168)">
     <defs>
      <path d="M 38.5 39.6875 
C 38.5 40.390625 33.90625 42.390625 32.703125 42.796875 
C 29.40625 44 25.203125 44 24.09375 44 
C 11.09375 44 3.296875 32.6875 3.296875 21.296875 
C 3.296875 9.296875 12 -1 23.703125 -1 
C 30.40625 -1 35.203125 1.1875 39.09375 3.796875 
L 38.5 10.390625 
C 34.203125 7.09375 29.203125 5.296875 23.796875 5.296875 
C 16 5.296875 10.90625 12.09375 10.90625 21.390625 
C 10.90625 28.59375 14.203125 37.6875 24.203125 37.6875 
C 29.703125 37.6875 32.796875 36.59375 37.40625 33.484375 
z
" id="CMSS17-99"/>
      <path d="M 26.5 26.34375 
L 42 42.734375 
L 32.40625 42.734375 
L 14.90625 24.25 
L 14.90625 69 
L 7.5 69 
L 7.5 0 
L 14.796875 0 
L 14.796875 13.921875 
L 21.5 20.96875 
L 35.59375 0 
L 44.09375 0 
z
" id="CMSS17-107"/>
     </defs>
     <use transform="scale(0.996264)" xlink:href="#CMSS17-115"/>
     <use transform="translate(35.913542 0)scale(0.996264)" xlink:href="#CMSS17-116"/>
     <use transform="translate(69.745109 0)scale(0.996264)" xlink:href="#CMSS17-97"/>
     <use transform="translate(114.667029 0)scale(0.996264)" xlink:href="#CMSS17-99"/>
     <use transform="translate(156.305851 0)scale(0.996264)" xlink:href="#CMSS17-107"/>
     <use transform="translate(199.305887 0)scale(0.996264)" xlink:href="#CMSS17-101"/>
     <use transform="translate(240.944709 0)scale(0.996264)" xlink:href="#CMSS17-100"/>
     <use transform="translate(320.378765 0)scale(0.996264)" xlink:href="#CMSS17-98"/>
     <use transform="translate(368.583708 0)scale(0.996264)" xlink:href="#CMSS17-97"/>
     <use transform="translate(410.903174 0)scale(0.996264)" xlink:href="#CMSS17-114"/>
    </g>
   </g>
  </g>
  <g id="axes_3">
   <g id="patch_76">
    <path d="M 34.685466 245.562095 
L 197.105756 245.562095 
L 197.105756 161.727986 
L 34.685466 161.727986 
z
" style="fill:#ffffff;"/>
   </g>
   <g id="matplotlib.axis_5">
    <g id="xtick_7">
     <g id="line2d_11">
      <g>
       <use style="stroke:#000000;stroke-width:0.8;" x="63.407092" xlink:href="#mbaa8784619" y="245.562095"/>
      </g>
     </g>
     <g id="text_16">
      <!-- $\mathdefault{−2.5}$ -->
      <g transform="translate(49.257683 262.247972)scale(0.14 -0.14)">
       <use transform="scale(0.996264)" xlink:href="#CMSY10-0"/>
       <use transform="translate(77.487468 0)scale(0.996264)" xlink:href="#CMR17-50"/>
       <use transform="translate(123.177945 0)scale(0.996264)" xlink:href="#CMMI12-58"/>
       <use transform="translate(150.275122 0)scale(0.996264)" xlink:href="#CMR17-53"/>
      </g>
     </g>
    </g>
    <g id="xtick_8">
     <g id="line2d_12">
      <g>
       <use style="stroke:#000000;stroke-width:0.8;" x="111.758341" xlink:href="#mbaa8784619" y="245.562095"/>
      </g>
     </g>
     <g id="text_17">
      <!-- $\mathdefault{0.0}$ -->
      <g transform="translate(103.03305 262.247972)scale(0.14 -0.14)">
       <use transform="scale(0.996264)" xlink:href="#CMR17-48"/>
       <use transform="translate(45.690477 0)scale(0.996264)" xlink:href="#CMMI12-58"/>
       <use transform="translate(72.787654 0)scale(0.996264)" xlink:href="#CMR17-48"/>
      </g>
     </g>
    </g>
    <g id="xtick_9">
     <g id="line2d_13">
      <g>
       <use style="stroke:#000000;stroke-width:0.8;" x="160.10959" xlink:href="#mbaa8784619" y="245.562095"/>
      </g>
     </g>
     <g id="text_18">
      <!-- $\mathdefault{2.5}$ -->
      <g transform="translate(151.384299 262.247972)scale(0.14 -0.14)">
       <use transform="scale(0.996264)" xlink:href="#CMR17-50"/>
       <use transform="translate(45.690477 0)scale(0.996264)" xlink:href="#CMMI12-58"/>
       <use transform="translate(72.787654 0)scale(0.996264)" xlink:href="#CMR17-53"/>
      </g>
     </g>
    </g>
   </g>
   <g id="matplotlib.axis_6">
    <g id="ytick_5">
     <g id="line2d_14">
      <g>
       <use style="stroke:#000000;stroke-width:0.8;" x="34.685466" xlink:href="#mbb90f19bf5" y="245.562095"/>
      </g>
     </g>
     <g id="text_19">
      <!-- $\mathdefault{0}$ -->
      <g transform="translate(20.856977 250.405033)scale(0.14 -0.14)">
       <use transform="scale(0.996264)" xlink:href="#CMR17-48"/>
      </g>
     </g>
    </g>
    <g id="ytick_6">
     <g id="line2d_15">
      <g>
       <use style="stroke:#000000;stroke-width:0.8;" x="34.685466" xlink:href="#mbb90f19bf5" y="198.149976"/>
      </g>
     </g>
     <g id="text_20">
      <!-- $\mathdefault{500}$ -->
      <g transform="translate(7.2 202.992914)scale(0.14 -0.14)">
       <use transform="scale(0.996264)" xlink:href="#CMR17-53"/>
       <use transform="translate(45.690477 0)scale(0.996264)" xlink:href="#CMR17-48"/>
       <use transform="translate(91.380954 0)scale(0.996264)" xlink:href="#CMR17-48"/>
      </g>
     </g>
    </g>
   </g>
   <g id="patch_77">
    <path clip-path="url(#p27d4b3789c)" d="M 42.068206 245.277622 
L 42.068206 244.99315 
L 56.833687 244.99315 
L 56.833687 241.20018 
L 71.599168 241.20018 
L 71.599168 225.649005 
L 86.364649 225.649005 
L 86.364649 186.676243 
L 101.13013 186.676243 
L 101.13013 165.720087 
L 115.895611 165.720087 
L 115.895611 175.486983 
L 130.661092 175.486983 
L 130.661092 205.641091 
L 145.426573 205.641091 
L 145.426573 235.984847 
L 160.192053 235.984847 
L 160.192053 244.424204 
L 174.957534 244.424204 
L 174.957534 245.372447 
L 189.723015 245.372447 
L 189.723015 245.372447 
" style="fill:none;stroke:#2ca02c;stroke-linejoin:miter;"/>
   </g>
   <g id="patch_78">
    <path clip-path="url(#p27d4b3789c)" d="M 42.068206 245.467271 
L 42.068206 245.277622 
L 56.833687 245.277622 
L 56.833687 242.148423 
L 71.599168 242.148423 
L 71.599168 232.381526 
L 86.364649 232.381526 
L 86.364649 206.684157 
L 101.13013 206.684157 
L 101.13013 192.555346 
L 115.895611 192.555346 
L 115.895611 198.529273 
L 130.661092 198.529273 
L 130.661092 219.011308 
L 145.426573 219.011308 
L 145.426573 239.208871 
L 160.192053 239.208871 
L 160.192053 244.803501 
L 174.957534 244.803501 
L 174.957534 245.372447 
L 189.723015 245.372447 
L 189.723015 245.467271 
" style="fill:none;stroke:#ff7f0e;stroke-linejoin:miter;"/>
   </g>
   <g id="patch_79">
    <path clip-path="url(#p27d4b3789c)" d="M 42.068206 245.562095 
L 42.068206 245.467271 
L 56.833687 245.467271 
L 56.833687 244.139732 
L 71.599168 244.139732 
L 71.599168 238.73475 
L 86.364649 238.73475 
L 86.364649 225.743829 
L 101.13013 225.743829 
L 101.13013 219.769902 
L 115.895611 219.769902 
L 115.895611 220.907793 
L 130.661092 220.907793 
L 130.661092 232.950471 
L 145.426573 232.950471 
L 145.426573 242.338071 
L 160.192053 242.338071 
L 160.192053 245.277622 
L 174.957534 245.277622 
L 174.957534 245.467271 
L 189.723015 245.467271 
L 189.723015 245.562095 
" style="fill:none;stroke:#1f77b4;stroke-linejoin:miter;"/>
   </g>
   <g id="patch_80">
    <path d="M 34.685466 245.562095 
L 34.685466 161.727986 
" style="fill:none;stroke:#000000;stroke-linecap:square;stroke-linejoin:miter;stroke-width:0.8;"/>
   </g>
   <g id="patch_81">
    <path d="M 197.105756 245.562095 
L 197.105756 161.727986 
" style="fill:none;stroke:#000000;stroke-linecap:square;stroke-linejoin:miter;stroke-width:0.8;"/>
   </g>
   <g id="patch_82">
    <path d="M 34.685466 245.562095 
L 197.105756 245.562095 
" style="fill:none;stroke:#000000;stroke-linecap:square;stroke-linejoin:miter;stroke-width:0.8;"/>
   </g>
   <g id="patch_83">
    <path d="M 34.685466 161.727986 
L 197.105756 161.727986 
" style="fill:none;stroke:#000000;stroke-linecap:square;stroke-linejoin:miter;stroke-width:0.8;"/>
   </g>
   <g id="text_21">
    <!-- stack step (unfilled) -->
    <g transform="translate(47.987592 155.727986)scale(0.168 -0.168)">
     <defs>
      <path d="M 15.09375 4.296875 
C 18.40625 1.09375 22.90625 -1 27.703125 -1 
C 37 -1 45 8.640625 45 21.59375 
C 45 33.546875 39 44 30.40625 44 
C 25.40625 44 19.40625 42.1875 14.90625 38.59375 
L 14.90625 43.1875 
L 7.5 43.1875 
L 7.5 -20 
L 15.09375 -20 
z
M 15.09375 32.625 
C 15.90625 33.84375 19.296875 37.6875 24.796875 37.6875 
C 31.796875 37.6875 37.40625 30.40625 37.40625 21.59375 
C 37.40625 11.578125 30.59375 5.09375 23.90625 5.09375 
C 21.90625 5.09375 19.796875 5.59375 17.796875 7.3125 
C 15.09375 9.75 15.09375 11.265625 15.09375 12.6875 
z
" id="CMSS17-112"/>
      <path d="M 25.203125 75 
C 19.796875 69.484375 7.40625 56.671875 7.40625 25.046875 
C 7.40625 -6.6875 19.796875 -19.40625 25.203125 -25 
L 31.296875 -25 
C 19 -12.203125 15 5.71875 15 24.9375 
C 15 44.0625 18.796875 62.078125 31.296875 75 
z
" id="CMSS17-40"/>
      <path d="M 40.90625 43 
L 33.296875 43 
L 33.296875 15.25 
C 33.296875 7.8125 27.90625 4.796875 22.203125 4.796875 
C 15.59375 4.796875 15 7 15 11.125 
L 15 43 
L 7.40625 43 
L 7.40625 10.625 
C 7.40625 2.796875 10.09375 -1 17 -1 
C 20.40625 -1 28.09375 -0.203125 33.5 4.796875 
L 33.5 -0.203125 
L 40.90625 -0.203125 
z
" id="CMSS17-117"/>
      <path d="M 43 70 
L 35 70 
L 35 61.984375 
L 43 61.984375 
z
M 42.703125 43 
L 35.296875 43 
L 35.296875 0 
L 42.703125 0 
z
M 16.796875 37.1875 
L 27.703125 37.1875 
L 27.703125 43 
L 16.59375 43 
L 16.59375 56.453125 
C 16.59375 61.890625 19 64.59375 22.203125 64.59375 
C 24.09375 64.59375 26 64.09375 27.703125 63.1875 
L 27.703125 69.890625 
C 26.90625 70.09375 24.59375 70.6875 22.203125 70.6875 
C 14.703125 70.6875 9.40625 63.09375 9.40625 53.15625 
L 9.40625 43 
L 2.5 43 
L 2.5 37.1875 
L 9.40625 37.1875 
L 9.40625 0 
L 16.796875 0 
z
" id="CMSS17-12"/>
      <path d="M 11.296875 -25 
C 16.703125 -19.5 29.09375 -6.6875 29.09375 24.9375 
C 29.09375 56.671875 16.703125 69.375 11.296875 75 
L 5.203125 75 
C 17.5 62.171875 21.5 44.265625 21.5 25.046875 
C 21.5 5.921875 17.703125 -12.09375 5.203125 -25 
z
" id="CMSS17-41"/>
     </defs>
     <use transform="scale(0.996264)" xlink:href="#CMSS17-115"/>
     <use transform="translate(35.913542 0)scale(0.996264)" xlink:href="#CMSS17-116"/>
     <use transform="translate(69.745109 0)scale(0.996264)" xlink:href="#CMSS17-97"/>
     <use transform="translate(114.667029 0)scale(0.996264)" xlink:href="#CMSS17-99"/>
     <use transform="translate(156.305851 0)scale(0.996264)" xlink:href="#CMSS17-107"/>
     <use transform="translate(233.137453 0)scale(0.996264)" xlink:href="#CMSS17-115"/>
     <use transform="translate(269.050995 0)scale(0.996264)" xlink:href="#CMSS17-116"/>
     <use transform="translate(302.882562 0)scale(0.996264)" xlink:href="#CMSS17-101"/>
     <use transform="translate(344.521384 0)scale(0.996264)" xlink:href="#CMSS17-112"/>
     <use transform="translate(423.95544 0)scale(0.996264)" xlink:href="#CMSS17-40"/>
     <use transform="translate(460.389354 0)scale(0.996264)" xlink:href="#CMSS17-117"/>
     <use transform="translate(508.594297 0)scale(0.996264)" xlink:href="#CMSS17-110"/>
     <use transform="translate(556.79924 0)scale(0.996264)" xlink:href="#CMSS17-12"/>
     <use transform="translate(606.925978 0)scale(0.996264)" xlink:href="#CMSS17-108"/>
     <use transform="translate(629.106701 0)scale(0.996264)" xlink:href="#CMSS17-108"/>
     <use transform="translate(651.287424 0)scale(0.996264)" xlink:href="#CMSS17-101"/>
     <use transform="translate(692.926246 0)scale(0.996264)" xlink:href="#CMSS17-100"/>
     <use transform="translate(741.131189 0)scale(0.996264)" xlink:href="#CMSS17-41"/>
    </g>
   </g>
  </g>
  <g id="axes_4">
   <g id="patch_84">
    <path d="M 246.53971 245.562095 
L 408.96 245.562095 
L 408.96 161.727986 
L 246.53971 161.727986 
z
" style="fill:#ffffff;"/>
   </g>
   <g id="patch_85">
    <path clip-path="url(#p7a9319603a)" d="M 253.922451 245.562095 
L 257.940269 245.562095 
L 257.940269 245.227445 
L 253.922451 245.227445 
z
" style="fill:#1f77b4;"/>
   </g>
   <g id="patch_86">
    <path clip-path="url(#p7a9319603a)" d="M 268.989268 245.562095 
L 273.007086 245.562095 
L 273.007086 242.912779 
L 268.989268 242.912779 
z
" style="fill:#1f77b4;"/>
   </g>
   <g id="patch_87">
    <path clip-path="url(#p7a9319603a)" d="M 284.056085 245.562095 
L 288.073903 245.562095 
L 288.073903 229.443101 
L 284.056085 229.443101 
z
" style="fill:#1f77b4;"/>
   </g>
   <g id="patch_88">
    <path clip-path="url(#p7a9319603a)" d="M 299.122902 245.562095 
L 303.14072 245.562095 
L 303.14072 195.950173 
L 299.122902 195.950173 
z
" style="fill:#1f77b4;"/>
   </g>
   <g id="patch_89">
    <path clip-path="url(#p7a9319603a)" d="M 314.18972 245.562095 
L 318.207538 245.562095 
L 318.207538 165.720087 
L 314.18972 165.720087 
z
" style="fill:#1f77b4;"/>
   </g>
   <g id="patch_90">
    <path clip-path="url(#p7a9319603a)" d="M 329.256537 245.562095 
L 333.274355 245.562095 
L 333.274355 169.122366 
L 329.256537 169.122366 
z
" style="fill:#1f77b4;"/>
   </g>
   <g id="patch_91">
    <path clip-path="url(#p7a9319603a)" d="M 344.323354 245.562095 
L 348.341172 245.562095 
L 348.341172 206.26856 
L 344.323354 206.26856 
z
" style="fill:#1f77b4;"/>
   </g>
   <g id="patch_92">
    <path clip-path="url(#p7a9319603a)" d="M 359.390171 245.562095 
L 363.407989 245.562095 
L 363.407989 233.598343 
L 359.390171 233.598343 
z
" style="fill:#1f77b4;"/>
   </g>
   <g id="patch_93">
    <path clip-path="url(#p7a9319603a)" d="M 374.456989 245.562095 
L 378.474806 245.562095 
L 378.474806 243.163767 
L 374.456989 243.163767 
z
" style="fill:#1f77b4;"/>
   </g>
   <g id="patch_94">
    <path clip-path="url(#p7a9319603a)" d="M 389.523806 245.562095 
L 393.541624 245.562095 
L 393.541624 245.338995 
L 389.523806 245.338995 
z
" style="fill:#1f77b4;"/>
   </g>
   <g id="patch_95">
    <path clip-path="url(#p7a9319603a)" d="M 257.940269 245.562095 
L 261.958086 245.562095 
L 261.958086 245.227445 
L 257.940269 245.227445 
z
" style="fill:#ff7f0e;"/>
   </g>
   <g id="patch_96">
    <path clip-path="url(#p7a9319603a)" d="M 273.007086 245.562095 
L 277.024904 245.562095 
L 277.024904 243.749405 
L 273.007086 243.749405 
z
" style="fill:#ff7f0e;"/>
   </g>
   <g id="patch_97">
    <path clip-path="url(#p7a9319603a)" d="M 288.073903 245.562095 
L 292.091721 245.562095 
L 292.091721 237.502598 
L 288.073903 237.502598 
z
" style="fill:#ff7f0e;"/>
   </g>
   <g id="patch_98">
    <path clip-path="url(#p7a9319603a)" d="M 303.14072 245.562095 
L 307.158538 245.562095 
L 307.158538 223.112631 
L 303.14072 223.112631 
z
" style="fill:#ff7f0e;"/>
   </g>
   <g id="patch_99">
    <path clip-path="url(#p7a9319603a)" d="M 318.207538 245.562095 
L 322.225355 245.562095 
L 322.225355 204.372208 
L 318.207538 204.372208 
z
" style="fill:#ff7f0e;"/>
   </g>
   <g id="patch_100">
    <path clip-path="url(#p7a9319603a)" d="M 333.274355 245.562095 
L 337.292173 245.562095 
L 337.292173 207.774487 
L 333.274355 207.774487 
z
" style="fill:#ff7f0e;"/>
   </g>
   <g id="patch_101">
    <path clip-path="url(#p7a9319603a)" d="M 348.341172 245.562095 
L 352.35899 245.562095 
L 352.35899 226.73801 
L 348.341172 226.73801 
z
" style="fill:#ff7f0e;"/>
   </g>
   <g id="patch_102">
    <path clip-path="url(#p7a9319603a)" d="M 363.407989 245.562095 
L 367.425807 245.562095 
L 367.425807 238.060349 
L 363.407989 238.060349 
z
" style="fill:#ff7f0e;"/>
   </g>
   <g id="patch_103">
    <path clip-path="url(#p7a9319603a)" d="M 378.474806 245.562095 
L 382.492624 245.562095 
L 382.492624 244.279269 
L 378.474806 244.279269 
z
" style="fill:#ff7f0e;"/>
   </g>
   <g id="patch_104">
    <path clip-path="url(#p7a9319603a)" d="M 393.541624 245.562095 
L 397.559442 245.562095 
L 397.559442 245.366882 
L 393.541624 245.366882 
z
" style="fill:#ff7f0e;"/>
   </g>
   <g id="patch_105">
    <path clip-path="url(#p7a9319603a)" d="M 261.958086 245.562095 
L 265.975904 245.562095 
L 265.975904 245.50632 
L 261.958086 245.50632 
z
" style="fill:#2ca02c;"/>
   </g>
   <g id="patch_106">
    <path clip-path="url(#p7a9319603a)" d="M 277.024904 245.562095 
L 281.042722 245.562095 
L 281.042722 244.837019 
L 277.024904 244.837019 
z
" style="fill:#2ca02c;"/>
   </g>
   <g id="patch_107">
    <path clip-path="url(#p7a9319603a)" d="M 292.091721 245.562095 
L 296.109539 245.562095 
L 296.109539 242.299254 
L 292.091721 242.299254 
z
" style="fill:#2ca02c;"/>
   </g>
   <g id="patch_108">
    <path clip-path="url(#p7a9319603a)" d="M 307.158538 245.562095 
L 311.176356 245.562095 
L 311.176356 236.91696 
L 307.158538 236.91696 
z
" style="fill:#2ca02c;"/>
   </g>
   <g id="patch_109">
    <path clip-path="url(#p7a9319603a)" d="M 322.225355 245.562095 
L 326.243173 245.562095 
L 326.243173 229.777751 
L 322.225355 229.777751 
z
" style="fill:#2ca02c;"/>
   </g>
   <g id="patch_110">
    <path clip-path="url(#p7a9319603a)" d="M 337.292173 245.562095 
L 341.309991 245.562095 
L 341.309991 230.335502 
L 337.292173 230.335502 
z
" style="fill:#2ca02c;"/>
   </g>
   <g id="patch_111">
    <path clip-path="url(#p7a9319603a)" d="M 352.35899 245.562095 
L 356.376808 245.562095 
L 356.376808 236.972735 
L 352.35899 236.972735 
z
" style="fill:#2ca02c;"/>
   </g>
   <g id="patch_112">
    <path clip-path="url(#p7a9319603a)" d="M 367.425807 245.562095 
L 371.443625 245.562095 
L 371.443625 242.801229 
L 367.425807 242.801229 
z
" style="fill:#2ca02c;"/>
   </g>
   <g id="patch_113">
    <path clip-path="url(#p7a9319603a)" d="M 382.492624 245.562095 
L 386.510442 245.562095 
L 386.510442 244.892794 
L 382.492624 244.892794 
z
" style="fill:#2ca02c;"/>
   </g>
   <g id="patch_114">
    <path clip-path="url(#p7a9319603a)" d="M 397.559442 245.562095 
L 401.57726 245.562095 
L 401.57726 245.50632 
L 397.559442 245.50632 
z
" style="fill:#2ca02c;"/>
   </g>
   <g id="matplotlib.axis_7">
    <g id="xtick_10">
     <g id="line2d_16">
      <g>
       <use style="stroke:#000000;stroke-width:0.8;" x="277.374162" xlink:href="#mbaa8784619" y="245.562095"/>
      </g>
     </g>
     <g id="text_22">
      <!-- $\mathdefault{−2.5}$ -->
      <g transform="translate(263.224754 262.247972)scale(0.14 -0.14)">
       <use transform="scale(0.996264)" xlink:href="#CMSY10-0"/>
       <use transform="translate(77.487468 0)scale(0.996264)" xlink:href="#CMR17-50"/>
       <use transform="translate(123.177945 0)scale(0.996264)" xlink:href="#CMMI12-58"/>
       <use transform="translate(150.275122 0)scale(0.996264)" xlink:href="#CMR17-53"/>
      </g>
     </g>
    </g>
    <g id="xtick_11">
     <g id="line2d_17">
      <g>
       <use style="stroke:#000000;stroke-width:0.8;" x="326.589153" xlink:href="#mbaa8784619" y="245.562095"/>
      </g>
     </g>
     <g id="text_23">
      <!-- $\mathdefault{0.0}$ -->
      <g transform="translate(317.863862 262.247972)scale(0.14 -0.14)">
       <use transform="scale(0.996264)" xlink:href="#CMR17-48"/>
       <use transform="translate(45.690477 0)scale(0.996264)" xlink:href="#CMMI12-58"/>
       <use transform="translate(72.787654 0)scale(0.996264)" xlink:href="#CMR17-48"/>
      </g>
     </g>
    </g>
    <g id="xtick_12">
     <g id="line2d_18">
      <g>
       <use style="stroke:#000000;stroke-width:0.8;" x="375.804144" xlink:href="#mbaa8784619" y="245.562095"/>
      </g>
     </g>
     <g id="text_24">
      <!-- $\mathdefault{2.5}$ -->
      <g transform="translate(367.078853 262.247972)scale(0.14 -0.14)">
       <use transform="scale(0.996264)" xlink:href="#CMR17-50"/>
       <use transform="translate(45.690477 0)scale(0.996264)" xlink:href="#CMMI12-58"/>
       <use transform="translate(72.787654 0)scale(0.996264)" xlink:href="#CMR17-53"/>
      </g>
     </g>
    </g>
   </g>
   <g id="matplotlib.axis_8">
    <g id="ytick_7">
     <g id="line2d_19">
      <g>
       <use style="stroke:#000000;stroke-width:0.8;" x="246.53971" xlink:href="#mbb90f19bf5" y="245.562095"/>
      </g>
     </g>
     <g id="text_25">
      <!-- $\mathdefault{0}$ -->
      <g transform="translate(232.711222 250.405033)scale(0.14 -0.14)">
       <use transform="scale(0.996264)" xlink:href="#CMR17-48"/>
      </g>
     </g>
    </g>
    <g id="ytick_8">
     <g id="line2d_20">
      <g>
       <use style="stroke:#000000;stroke-width:0.8;" x="246.53971" xlink:href="#mbb90f19bf5" y="189.787028"/>
      </g>
     </g>
     <g id="text_26">
      <!-- $\mathdefault{2000}$ -->
      <g transform="translate(212.225756 194.629966)scale(0.14 -0.14)">
       <use transform="scale(0.996264)" xlink:href="#CMR17-50"/>
       <use transform="translate(45.690477 0)scale(0.996264)" xlink:href="#CMR17-48"/>
       <use transform="translate(91.380954 0)scale(0.996264)" xlink:href="#CMR17-48"/>
       <use transform="translate(137.071431 0)scale(0.996264)" xlink:href="#CMR17-48"/>
      </g>
     </g>
    </g>
   </g>
   <g id="patch_115">
    <path d="M 246.53971 245.562095 
L 246.53971 161.727986 
" style="fill:none;stroke:#000000;stroke-linecap:square;stroke-linejoin:miter;stroke-width:0.8;"/>
   </g>
   <g id="patch_116">
    <path d="M 408.96 245.562095 
L 408.96 161.727986 
" style="fill:none;stroke:#000000;stroke-linecap:square;stroke-linejoin:miter;stroke-width:0.8;"/>
   </g>
   <g id="patch_117">
    <path d="M 246.53971 245.562095 
L 408.96 245.562095 
" style="fill:none;stroke:#000000;stroke-linecap:square;stroke-linejoin:miter;stroke-width:0.8;"/>
   </g>
   <g id="patch_118">
    <path d="M 246.53971 161.727986 
L 408.96 161.727986 
" style="fill:none;stroke:#000000;stroke-linecap:square;stroke-linejoin:miter;stroke-width:0.8;"/>
   </g>
   <g id="text_27">
    <!-- different sample sizes -->
    <g transform="translate(255.422222 155.727986)scale(0.168 -0.168)">
     <defs>
      <path d="M 16.796875 37.1875 
L 27.09375 37.1875 
L 27.09375 43 
L 16.59375 43 
L 16.59375 55.671875 
C 16.59375 62.5 21.796875 63.890625 25.203125 63.890625 
C 28.703125 63.890625 31.59375 63 32.703125 62.609375 
L 32.703125 69.1875 
C 31.59375 69.390625 28.59375 70 25.296875 70 
C 16.09375 70 9.40625 62.5 9.40625 52.59375 
L 9.40625 43 
L 2.5 43 
L 2.5 37.1875 
L 9.40625 37.1875 
L 9.40625 0 
L 16.796875 0 
z
M 42.796875 37.1875 
L 53.09375 37.1875 
L 53.09375 43 
L 42.59375 43 
L 42.59375 55.671875 
C 42.59375 62.5 47.796875 63.890625 51.203125 63.890625 
C 54.703125 63.890625 57.59375 63 58.703125 62.609375 
L 58.703125 69.1875 
C 57.59375 69.390625 54.59375 70 51.296875 70 
C 42.09375 70 35.40625 62.5 35.40625 52.59375 
L 35.40625 0 
L 42.796875 0 
z
" id="CMSS17-11"/>
      <path d="M 37.5 39.09375 
L 37.5 43 
L 3.90625 43 
L 3.90625 36.984375 
L 16.703125 36.984375 
C 17.90625 36.984375 19.09375 37.09375 20.296875 37.09375 
L 27.296875 37.09375 
L 2.59375 4.09375 
L 2.59375 0 
L 37.796875 0 
L 37.796875 6.1875 
L 24.203125 6.1875 
C 23 6.1875 21.796875 6.09375 20.59375 6.09375 
L 12.90625 6.09375 
z
" id="CMSS17-122"/>
     </defs>
     <use transform="scale(0.996264)" xlink:href="#CMSS17-100"/>
     <use transform="translate(48.204943 0)scale(0.996264)" xlink:href="#CMSS17-105"/>
     <use transform="translate(70.385666 0)scale(0.996264)" xlink:href="#CMSS17-11"/>
     <use transform="translate(125.036636 0)scale(0.996264)" xlink:href="#CMSS17-101"/>
     <use transform="translate(166.675458 0)scale(0.996264)" xlink:href="#CMSS17-114"/>
     <use transform="translate(198.585231 0)scale(0.996264)" xlink:href="#CMSS17-101"/>
     <use transform="translate(240.224053 0)scale(0.996264)" xlink:href="#CMSS17-110"/>
     <use transform="translate(288.428996 0)scale(0.996264)" xlink:href="#CMSS17-116"/>
     <use transform="translate(353.489676 0)scale(0.996264)" xlink:href="#CMSS17-115"/>
     <use transform="translate(389.403218 0)scale(0.996264)" xlink:href="#CMSS17-97"/>
     <use transform="translate(434.325138 0)scale(0.996264)" xlink:href="#CMSS17-109"/>
     <use transform="translate(508.554393 0)scale(0.996264)" xlink:href="#CMSS17-112"/>
     <use transform="translate(556.759336 0)scale(0.996264)" xlink:href="#CMSS17-108"/>
     <use transform="translate(578.940059 0)scale(0.996264)" xlink:href="#CMSS17-101"/>
     <use transform="translate(651.807994 0)scale(0.996264)" xlink:href="#CMSS17-115"/>
     <use transform="translate(687.721536 0)scale(0.996264)" xlink:href="#CMSS17-105"/>
     <use transform="translate(709.902259 0)scale(0.996264)" xlink:href="#CMSS17-122"/>
     <use transform="translate(750.58013 0)scale(0.996264)" xlink:href="#CMSS17-101"/>
     <use transform="translate(792.218952 0)scale(0.996264)" xlink:href="#CMSS17-115"/>
    </g>
   </g>
  </g>
 </g>
 <defs>
  <clipPath id="pb92dd6ae04">
   <rect height="83.834109" width="162.42029" x="34.685466" y="24.823055"/>
  </clipPath>
  <clipPath id="p1aa1aeece2">
   <rect height="83.834109" width="162.42029" x="246.53971" y="24.823055"/>
  </clipPath>
  <clipPath id="p27d4b3789c">
   <rect height="83.834109" width="162.42029" x="34.685466" y="161.727986"/>
  </clipPath>
  <clipPath id="p7a9319603a">
   <rect height="83.834109" width="162.42029" x="246.53971" y="161.727986"/>
  </clipPath>
 </defs>
</svg>
