<?xml version="1.0" encoding="utf-8" standalone="no"?>
<!DOCTYPE svg PUBLIC "-//W3C//DTD SVG 1.1//EN"
  "http://www.w3.org/Graphics/SVG/1.1/DTD/svg11.dtd">
<!-- Created with matplotlib (https://matplotlib.org/) -->
<svg height="201.909666pt" version="1.1" viewBox="0 0 416.16 201.909666" width="416.16pt" xmlns="http://www.w3.org/2000/svg" xmlns:xlink="http://www.w3.org/1999/xlink">
 <metadata>
  <rdf:RDF xmlns:cc="http://creativecommons.org/ns#" xmlns:dc="http://purl.org/dc/elements/1.1/" xmlns:rdf="http://www.w3.org/1999/02/22-rdf-syntax-ns#">
   <cc:Work>
    <dc:type rdf:resource="http://purl.org/dc/dcmitype/StillImage"/>
    <dc:date>2020-12-28T20:29:18.896410</dc:date>
    <dc:format>image/svg+xml</dc:format>
    <dc:creator>
     <cc:Agent>
      <dc:title>Matplotlib v3.3.2, https://matplotlib.org/</dc:title>
     </cc:Agent>
    </dc:creator>
   </cc:Work>
  </rdf:RDF>
 </metadata>
 <defs>
  <style type="text/css">*{stroke-linecap:butt;stroke-linejoin:round;}</style>
 </defs>
 <g id="figure_1">
  <g id="patch_1">
   <path d="M 0 201.909666 
L 416.16 201.909666 
L 416.16 0 
L 0 0 
z
" style="fill:none;"/>
  </g>
  <g id="axes_1">
   <g id="patch_2">
    <path d="M 180.830125 100.954833 
C 180.830125 91.295563 178.927459 81.730218 175.231017 72.806216 
C 171.534574 63.882215 166.116241 55.773106 159.286106 48.942971 
C 152.455971 42.112836 144.346863 36.694503 135.422861 32.99806 
C 126.49886 29.301618 116.933514 27.398952 107.274244 27.398952 
C 97.614975 27.398952 88.049629 29.301618 79.125627 32.99806 
C 70.201626 36.694503 62.092518 42.112836 55.262382 48.942971 
C 48.432247 55.773106 43.013914 63.882215 39.317472 72.806216 
C 35.621029 81.730218 33.718364 91.295563 33.718364 100.954833 
C 33.718364 110.614103 35.621029 120.179448 39.317472 129.10345 
C 43.013914 138.027451 48.432247 146.13656 55.262382 152.966695 
C 62.092518 159.79683 70.201626 165.215163 79.125627 168.911606 
C 88.049629 172.608048 97.614975 174.510714 107.274244 174.510714 
C 116.933514 174.510714 126.49886 172.608048 135.422861 168.911606 
C 144.346863 165.215163 152.455971 159.79683 159.286106 152.966695 
C 166.116241 146.13656 171.534574 138.027451 175.231017 129.10345 
C 178.927459 120.179448 180.830125 110.614103 180.830125 100.954833 
M 107.274244 100.954833 
C 107.274244 100.954833 107.274244 100.954833 107.274244 100.954833 
C 107.274244 100.954833 107.274244 100.954833 107.274244 100.954833 
C 107.274244 100.954833 107.274244 100.954833 107.274244 100.954833 
C 107.274244 100.954833 107.274244 100.954833 107.274244 100.954833 
C 107.274244 100.954833 107.274244 100.954833 107.274244 100.954833 
C 107.274244 100.954833 107.274244 100.954833 107.274244 100.954833 
C 107.274244 100.954833 107.274244 100.954833 107.274244 100.954833 
C 107.274244 100.954833 107.274244 100.954833 107.274244 100.954833 
C 107.274244 100.954833 107.274244 100.954833 107.274244 100.954833 
C 107.274244 100.954833 107.274244 100.954833 107.274244 100.954833 
C 107.274244 100.954833 107.274244 100.954833 107.274244 100.954833 
C 107.274244 100.954833 107.274244 100.954833 107.274244 100.954833 
C 107.274244 100.954833 107.274244 100.954833 107.274244 100.954833 
C 107.274244 100.954833 107.274244 100.954833 107.274244 100.954833 
C 107.274244 100.954833 107.274244 100.954833 107.274244 100.954833 
C 107.274244 100.954833 107.274244 100.954833 107.274244 100.954833 
M 180.830125 100.954833 
z
" style="fill:#ffffff;"/>
   </g>
   <g id="matplotlib.axis_1">
    <g id="xtick_1">
     <g id="line2d_1">
      <path clip-path="url(#p7b220bf07b)" d="M 107.274244 100.954833 
L 180.830125 100.954833 
" style="fill:none;stroke:#b0b0b0;stroke-linecap:square;stroke-width:0.8;"/>
     </g>
     <g id="text_1">
      <!-- 0° -->
      <g transform="translate(189.14025 104.441757)scale(0.14 -0.14)">
       <defs>
        <path d="M 43.09375 32.390625 
C 43.09375 38.109375 43 48.75 38.90625 56.984375 
C 34.796875 64.890625 28.203125 67 23.5 67 
C 16.703125 67 10.90625 62.984375 7.90625 56.578125 
C 4.703125 49.859375 3.796875 42.9375 3.796875 32.390625 
C 3.796875 25.171875 4.09375 16.34375 7.703125 8.609375 
C 11.796875 0.09375 18.703125 -2 23.40625 -2 
C 29.59375 -2 35.59375 1.296875 39 8.203125 
C 42.5 15.4375 43.09375 23.359375 43.09375 32.390625 
z
M 23.40625 4.09375 
C 15.796875 4.09375 13.5 12.828125 12.796875 15.734375 
C 11.59375 20.75 11.40625 25.5625 11.40625 33.5 
C 11.40625 39.71875 11.40625 46.75 13.296875 52.265625 
C 15.59375 58.6875 19.59375 60.890625 23.40625 60.890625 
C 30.796875 60.890625 33.203125 53.46875 34 50.859375 
C 35.5 45.546875 35.5 39.3125 35.5 33.5 
C 35.5 24.15625 35.5 4.09375 23.40625 4.09375 
z
" id="CMSS17-48"/>
        <path d="M 13.90625 67 
C 8.5 66.296875 5.09375 61.765625 5.09375 56.984375 
C 5.09375 51.921875 9 47 15 47 
L 15.90625 47 
C 21.203125 47.6875 24.796875 52.21875 24.796875 56.984375 
C 24.796875 62.171875 20.5 67 14.796875 67 
z
M 8.203125 56.390625 
L 8.203125 56.984375 
C 8.203125 60.546875 11.296875 63.6875 14.796875 63.796875 
C 18.40625 63.796875 20.90625 60.953125 21.59375 57.59375 
L 21.59375 56.984375 
C 21.59375 53.4375 18.5 50.296875 15 50.1875 
C 11.40625 50.1875 8.90625 53.03125 8.203125 56.390625 
z
" id="Computer_Modern_Sans_Serif-176"/>
       </defs>
       <use transform="scale(0.996264)" xlink:href="#CMSS17-48"/>
       <use transform="translate(46.843624 0)scale(0.996264)" xlink:href="#Computer_Modern_Sans_Serif-176"/>
      </g>
     </g>
    </g>
    <g id="xtick_2">
     <g id="line2d_2">
      <path clip-path="url(#p7b220bf07b)" d="M 107.274244 100.954833 
L 159.286106 48.942971 
" style="fill:none;stroke:#b0b0b0;stroke-linecap:square;stroke-width:0.8;"/>
     </g>
     <g id="text_2">
      <!-- 45° -->
      <g transform="translate(160.081482 42.5304)scale(0.14 -0.14)">
       <defs>
        <path d="M 35.203125 17 
L 44.296875 17 
L 44.296875 23.09375 
L 35.203125 23.09375 
L 35.203125 66 
L 26.40625 66 
L 2.59375 23.09375 
L 2.59375 17 
L 27.296875 17 
L 27.296875 0 
L 35.203125 0 
z
M 10.296875 23.09375 
C 16.09375 33.421875 27.59375 54.28125 27.59375 61.359375 
L 27.59375 23.09375 
z
" id="CMSS17-52"/>
        <path d="M 14.59375 59.59375 
L 39.09375 59.59375 
L 39.09375 66 
L 7.296875 66 
L 7.296875 28.59375 
L 14 28.59375 
C 15.796875 32.859375 19.5 36 24.296875 36 
C 28.796875 36 33.796875 31.9375 33.796875 20.296875 
C 33.796875 7.84375 26.703125 4.1875 21.5 4.1875 
C 15.09375 4.1875 9.203125 8.140625 6.59375 13.609375 
L 3.40625 7.9375 
C 8 0.796875 15.5 -2 21.5 -2 
C 33.09375 -2 42.203125 7.9375 42.203125 20.09375 
C 42.203125 32.546875 34.09375 42.09375 24.40625 42.09375 
C 20.90625 42.09375 17.5 40.890625 14.59375 38.5 
z
" id="CMSS17-53"/>
       </defs>
       <use transform="scale(0.996264)" xlink:href="#CMSS17-52"/>
       <use transform="translate(46.843624 0)scale(0.996264)" xlink:href="#CMSS17-53"/>
       <use transform="translate(93.687247 0)scale(0.996264)" xlink:href="#Computer_Modern_Sans_Serif-176"/>
      </g>
     </g>
    </g>
    <g id="xtick_3">
     <g id="line2d_3">
      <path clip-path="url(#p7b220bf07b)" d="M 107.274244 100.954833 
L 107.274244 27.398952 
" style="fill:none;stroke:#b0b0b0;stroke-linecap:square;stroke-width:0.8;"/>
     </g>
     <g id="text_3">
      <!-- 90° -->
      <g transform="translate(98.170125 16.885876)scale(0.14 -0.14)">
       <defs>
        <path d="M 6.796875 2.6875 
C 9.59375 0.296875 13.203125 -2 19.296875 -2 
C 31.40625 -2 43 11.53125 43 33.375 
C 43 62.296875 30.5 67 23.796875 67 
C 17.09375 67 12.796875 63.984375 9.09375 59.203125 
C 4.703125 53.71875 3.90625 48.828125 3.90625 43.140625 
C 3.90625 36.359375 5.09375 32.171875 7.90625 27.390625 
C 11.703125 21.1875 15.203125 19.890625 19.09375 19.890625 
C 25 19.890625 30.90625 22.796875 34.90625 27.78125 
C 34.203125 14.1875 28.09375 4.1875 19.296875 4.1875 
C 15.703125 4.1875 12.796875 5.3125 9.90625 8.0625 
z
M 34.59375 43.34375 
C 34.703125 42.640625 34.703125 41.34375 34.703125 40.953125 
C 34.703125 32.578125 29.90625 26 22.90625 26 
C 18.296875 26 15.90625 28.390625 14.09375 31.484375 
C 11.90625 35.359375 11.796875 39.15625 11.796875 43.140625 
C 11.796875 47.03125 11.796875 51.3125 14.59375 55.609375 
C 16.703125 58.703125 19.296875 60.890625 23.796875 60.890625 
C 33 60.890625 34.5 47.4375 34.59375 43.34375 
z
" id="CMSS17-57"/>
       </defs>
       <use transform="scale(0.996264)" xlink:href="#CMSS17-57"/>
       <use transform="translate(46.843624 0)scale(0.996264)" xlink:href="#CMSS17-48"/>
       <use transform="translate(93.687247 0)scale(0.996264)" xlink:href="#Computer_Modern_Sans_Serif-176"/>
      </g>
     </g>
    </g>
    <g id="xtick_4">
     <g id="line2d_4">
      <path clip-path="url(#p7b220bf07b)" d="M 107.274244 100.954833 
L 55.262382 48.942971 
" style="fill:none;stroke:#b0b0b0;stroke-linecap:square;stroke-width:0.8;"/>
     </g>
     <g id="text_4">
      <!-- 135° -->
      <g transform="translate(32.844524 42.5304)scale(0.14 -0.14)">
       <defs>
        <path d="M 28.40625 67 
L 26.5 67 
C 21.09375 61.703125 14.796875 60.96875 8.40625 60.796875 
L 8.40625 55 
C 11.296875 55.09375 16 55.296875 20.703125 57.390625 
L 20.703125 5.796875 
L 8.90625 5.796875 
L 8.90625 0 
L 40.203125 0 
L 40.203125 5.796875 
L 28.40625 5.796875 
z
" id="CMSS17-49"/>
        <path d="M 15.703125 32.1875 
L 22.5 32.1875 
C 31.90625 32.1875 34.59375 23.9375 34.59375 18.1875 
C 34.59375 10.34375 30.203125 4.1875 23 4.1875 
C 17.40625 4.1875 9.5 7.015625 5 14.46875 
C 4.296875 10.9375 4.296875 10.734375 3.90625 8.328125 
C 8.59375 1.390625 16.203125 -2 23.203125 -2 
C 34.59375 -2 43 7.515625 43 18.09375 
C 43 26.046875 37.5 32.6875 30 35.1875 
C 36 38.484375 40.40625 44.6875 40.40625 51.890625 
C 40.40625 60.296875 32.703125 67 23.296875 67 
C 14.703125 67 8 61.6875 5.203125 55.984375 
C 5.90625 54.984375 7.703125 52.09375 8.59375 50.59375 
C 10.796875 56.484375 16.5 60.890625 23.203125 60.890625 
C 28.796875 60.890625 32.5 57.1875 32.5 51.890625 
C 32.5 46.390625 29 40.390625 23.09375 39 
C 22.703125 39 16.5 38.390625 15.703125 38.296875 
z
" id="CMSS17-51"/>
       </defs>
       <use transform="scale(0.996264)" xlink:href="#CMSS17-49"/>
       <use transform="translate(46.843624 0)scale(0.996264)" xlink:href="#CMSS17-51"/>
       <use transform="translate(93.687247 0)scale(0.996264)" xlink:href="#CMSS17-53"/>
       <use transform="translate(140.530871 0)scale(0.996264)" xlink:href="#Computer_Modern_Sans_Serif-176"/>
      </g>
     </g>
    </g>
    <g id="xtick_5">
     <g id="line2d_5">
      <path clip-path="url(#p7b220bf07b)" d="M 107.274244 100.954833 
L 33.718364 100.954833 
" style="fill:none;stroke:#b0b0b0;stroke-linecap:square;stroke-width:0.8;"/>
     </g>
     <g id="text_5">
      <!-- 180° -->
      <g transform="translate(7.2 104.441757)scale(0.14 -0.14)">
       <defs>
        <path d="M 30.203125 35.09375 
C 37.796875 37.59375 41.703125 43.640625 41.703125 49.59375 
C 41.703125 58.96875 33.703125 67 23.5 67 
C 12.90625 67 5.203125 58.671875 5.203125 49.59375 
C 5.203125 43.734375 9 37.6875 16.703125 35.09375 
C 6.90625 31.296875 3.90625 23.6875 3.90625 18 
C 3.90625 7 12.796875 -2 23.40625 -2 
C 34.40625 -2 43 7.1875 43 18 
C 43 24.59375 39.09375 31.59375 30.203125 35.09375 
z
M 23.5 38.09375 
C 16.796875 38.09375 12.296875 42.625 12.296875 49.484375 
C 12.296875 56.453125 16.796875 60.890625 23.5 60.890625 
C 29.703125 60.890625 34.59375 56.859375 34.59375 49.484375 
C 34.59375 42.234375 29.796875 38.09375 23.5 38.09375 
z
M 23.5 4.1875 
C 17.796875 4.1875 11.703125 8.09375 11.703125 18.09375 
C 11.703125 28.390625 18.5 32 23.40625 32 
C 28.796875 32 35.203125 28.1875 35.203125 18.09375 
C 35.203125 7.6875 28.59375 4.1875 23.5 4.1875 
z
" id="CMSS17-56"/>
       </defs>
       <use transform="scale(0.996264)" xlink:href="#CMSS17-49"/>
       <use transform="translate(46.843624 0)scale(0.996264)" xlink:href="#CMSS17-56"/>
       <use transform="translate(93.687247 0)scale(0.996264)" xlink:href="#CMSS17-48"/>
       <use transform="translate(140.530871 0)scale(0.996264)" xlink:href="#Computer_Modern_Sans_Serif-176"/>
      </g>
     </g>
    </g>
    <g id="xtick_6">
     <g id="line2d_6">
      <path clip-path="url(#p7b220bf07b)" d="M 107.274244 100.954833 
L 55.262382 152.966695 
" style="fill:none;stroke:#b0b0b0;stroke-linecap:square;stroke-width:0.8;"/>
     </g>
     <g id="text_6">
      <!-- 225° -->
      <g transform="translate(32.844524 166.353114)scale(0.14 -0.14)">
       <defs>
        <path d="M 25.796875 21.140625 
C 28.59375 24.03125 32.796875 27.515625 35.703125 31 
C 38.5 34.390625 42.203125 39.171875 42.203125 46.140625 
C 42.203125 57.109375 34.796875 67 22.203125 67 
C 12.296875 67 6.59375 60.796875 3.90625 51.125 
L 7.796875 45.75 
C 10 54.8125 13.09375 60.59375 20.90625 60.59375 
C 29.5 60.59375 34.296875 53.609375 34.296875 45.9375 
C 34.296875 36.78125 27.296875 29.703125 22 24.421875 
C 16.09375 18.546875 10.296875 12.578125 4.703125 6.390625 
L 4.703125 0 
L 42.203125 0 
L 42.203125 6.796875 
L 25.203125 6.796875 
C 24 6.796875 22.796875 6.6875 21.59375 6.6875 
L 11.59375 6.6875 
L 11.59375 6.796875 
z
" id="CMSS17-50"/>
       </defs>
       <use transform="scale(0.996264)" xlink:href="#CMSS17-50"/>
       <use transform="translate(46.843624 0)scale(0.996264)" xlink:href="#CMSS17-50"/>
       <use transform="translate(93.687247 0)scale(0.996264)" xlink:href="#CMSS17-53"/>
       <use transform="translate(140.530871 0)scale(0.996264)" xlink:href="#Computer_Modern_Sans_Serif-176"/>
      </g>
     </g>
    </g>
    <g id="xtick_7">
     <g id="line2d_7">
      <path clip-path="url(#p7b220bf07b)" d="M 107.274244 100.954833 
L 107.274244 174.510714 
" style="fill:none;stroke:#b0b0b0;stroke-linecap:square;stroke-width:0.8;"/>
     </g>
     <g id="text_7">
      <!-- 270° -->
      <g transform="translate(94.755881 191.997638)scale(0.14 -0.14)">
       <defs>
        <path d="M 21.703125 59.1875 
C 22.90625 59.1875 24.09375 59.296875 25.296875 59.296875 
L 36.796875 59.296875 
C 22.5 42.421875 14.296875 21.09375 14.296875 -1 
L 22.296875 -1 
C 22.296875 20.390625 29.296875 42.109375 43 59.484375 
L 43 66 
L 3.90625 66 
L 3.90625 59.1875 
z
" id="CMSS17-55"/>
       </defs>
       <use transform="scale(0.996264)" xlink:href="#CMSS17-50"/>
       <use transform="translate(46.843624 0)scale(0.996264)" xlink:href="#CMSS17-55"/>
       <use transform="translate(93.687247 0)scale(0.996264)" xlink:href="#CMSS17-48"/>
       <use transform="translate(140.530871 0)scale(0.996264)" xlink:href="#Computer_Modern_Sans_Serif-176"/>
      </g>
     </g>
    </g>
    <g id="xtick_8">
     <g id="line2d_8">
      <path clip-path="url(#p7b220bf07b)" d="M 107.274244 100.954833 
L 159.286106 152.966695 
" style="fill:none;stroke:#b0b0b0;stroke-linecap:square;stroke-width:0.8;"/>
     </g>
     <g id="text_8">
      <!-- 315° -->
      <g transform="translate(156.667237 166.353114)scale(0.14 -0.14)">
       <use transform="scale(0.996264)" xlink:href="#CMSS17-51"/>
       <use transform="translate(46.843624 0)scale(0.996264)" xlink:href="#CMSS17-49"/>
       <use transform="translate(93.687247 0)scale(0.996264)" xlink:href="#CMSS17-53"/>
       <use transform="translate(140.530871 0)scale(0.996264)" xlink:href="#Computer_Modern_Sans_Serif-176"/>
      </g>
     </g>
    </g>
   </g>
   <g id="matplotlib.axis_2"/>
   <g id="line2d_9">
    <path clip-path="url(#p7b220bf07b)" d="M 144.052172 100.954833 
L 148.046534 100.139278 
L 151.963866 99.166294 
L 155.742911 98.043218 
L 159.324523 96.781905 
L 162.652662 95.398458 
L 165.675345 93.912867 
L 168.34552 92.348553 
L 170.621846 90.731831 
L 172.469384 89.091304 
L 173.860156 87.4572 
L 174.773593 85.860668 
L 175.196845 84.333038 
L 175.222791 83.60472 
L 175.124951 82.905083 
L 174.903944 82.237763 
L 174.560877 81.606271 
L 174.097342 81.013966 
L 173.515404 80.464041 
L 172.006886 79.503121 
L 170.060875 78.744886 
L 167.709614 78.206787 
L 164.991427 77.901856 
L 161.949994 77.838297 
L 158.633547 78.019179 
L 155.093982 78.442231 
L 151.385927 79.099754 
L 147.565755 79.978635 
L 143.69059 81.060493 
L 139.8173 82.321922 
L 136.001511 83.734859 
L 130.501704 86.066762 
L 125.417165 88.542593 
L 120.892522 91.025546 
L 117.045491 93.37132 
L 113.115515 96.034798 
L 109.636467 98.570769 
L 109.692972 98.464418 
L 111.604647 95.924828 
L 114.075235 92.384508 
L 116.335903 88.804292 
L 118.78631 84.511488 
L 121.280983 79.613091 
L 123.679721 74.244578 
L 125.161282 70.482214 
L 126.508263 66.633172 
L 127.69027 62.752012 
L 128.681332 58.895052 
L 129.460316 55.119401 
L 130.011243 51.481963 
L 130.32348 48.038431 
L 130.39183 44.842295 
L 130.216498 41.943879 
L 129.802947 39.389426 
L 129.161649 37.220246 
L 128.307724 35.471949 
L 127.260497 34.173768 
L 126.671453 33.700722 
L 126.04296 33.347998 
L 125.378366 33.117223 
L 124.68117 33.009546 
L 123.955001 33.025624 
L 123.203591 33.16562 
L 121.64038 33.815543 
L 120.02266 34.95071 
L 118.38177 36.55469 
L 116.748525 38.603457 
L 115.152492 41.065767 
L 113.621298 43.903657 
L 112.179999 47.073068 
L 110.850498 50.524574 
L 109.651049 54.204213 
L 108.595838 58.054393 
L 107.694669 62.01487 
L 106.952741 66.023768 
L 106.138189 71.991386 
L 105.66373 77.719903 
L 105.488391 83.01204 
L 105.550567 87.688376 
L 105.864412 92.702342 
L 106.416249 97.719179 
L 106.302636 97.565804 
L 102.475859 89.255003 
L 100.282087 85.263903 
L 97.571212 80.82712 
L 94.374858 76.129182 
L 90.751644 71.361075 
L 88.139518 68.237388 
L 85.405094 65.221516 
L 82.582883 62.365273 
L 79.710739 59.716975 
L 76.829174 57.320638 
L 73.980611 55.215271 
L 71.208579 53.434271 
L 68.556877 52.004919 
L 66.06871 50.948009 
L 63.785825 50.277592 
L 61.747654 50.000852 
L 59.9905 50.118116 
L 59.227597 50.322756 
L 58.546749 50.622982 
L 57.951276 51.016987 
L 57.444169 51.502579 
L 57.028071 52.077201 
L 56.705262 52.737943 
L 56.477644 53.481561 
L 56.313614 55.202899 
L 56.543174 57.209342 
L 57.166809 59.465016 
L 58.178158 61.93082 
L 59.563985 64.565239 
L 61.304292 67.325198 
L 63.372554 70.166922 
L 65.736081 73.046805 
L 68.356506 75.92225 
L 71.190373 78.752474 
L 74.189841 81.499271 
L 77.30347 84.127696 
L 82.068937 87.78161 
L 86.779495 91.014452 
L 91.243969 93.765508 
L 95.277042 96.000973 
L 99.688946 98.172284 
L 104.044542 100.090152 
L 103.789618 100.096202 
L 97.003026 99.385754 
L 92.888709 99.196986 
L 88.040407 99.188212 
L 82.619745 99.434374 
L 76.811348 99.992109 
L 72.822325 100.555426 
L 68.811819 101.278208 
L 64.842283 102.160537 
L 60.975717 103.197774 
L 57.272618 104.380657 
L 53.790943 105.695507 
L 50.58514 107.124536 
L 47.705221 108.646253 
L 45.195926 110.23595 
L 43.095981 111.866273 
L 41.437463 113.507852 
L 40.245281 115.129984 
L 39.536788 116.701354 
L 39.367219 117.458232 
L 39.321533 118.190774 
L 39.399687 118.895226 
L 39.60114 119.567931 
L 39.924861 120.205359 
L 40.369336 120.804123 
L 40.932573 121.361004 
L 42.405062 122.337193 
L 44.317331 123.112263 
L 46.63765 123.668431 
L 49.328152 123.992296 
L 52.345557 124.075259 
L 55.641964 123.91383 
L 59.165733 123.509852 
L 62.86242 122.870591 
L 66.675753 122.008732 
L 70.548633 120.942244 
L 74.424134 119.694145 
L 78.246494 118.292143 
L 83.763862 115.971475 
L 88.874298 113.49994 
L 93.43188 111.013778 
L 97.317354 108.657046 
L 101.304165 105.96713 
L 104.91337 103.329959 
L 104.745401 103.602812 
L 101.265061 108.349657 
L 99.116652 111.632577 
L 96.722237 115.661017 
L 94.227622 120.339993 
L 91.775784 125.544536 
L 89.500684 131.123966 
L 88.141818 134.968074 
L 86.945661 138.848723 
L 85.938553 142.709699 
L 85.142025 146.493919 
L 84.572476 150.144427 
L 84.240969 153.605396 
L 84.153135 156.823124 
L 84.309195 159.747002 
L 84.704095 162.33043 
L 85.327752 164.531675 
L 86.165401 166.314647 
L 87.198033 167.649584 
L 87.780496 168.14161 
L 88.402926 168.51362 
L 89.062001 168.763906 
L 89.754244 168.891245 
L 90.476047 168.894901 
L 91.22369 168.774631 
L 91.99337 168.530688 
L 93.583316 167.675281 
L 95.21458 166.340594 
L 96.855954 164.546287 
L 98.477062 162.319473 
L 100.049071 159.694289 
L 101.545358 156.711344 
L 102.94213 153.417046 
L 104.218959 149.862835 
L 105.359257 146.104314 
L 106.350646 142.200311 
L 107.185238 138.211884 
L 107.859809 134.20128 
L 108.576209 128.28003 
L 108.961771 122.654545 
L 109.063517 117.51783 
L 108.948296 113.043047 
L 108.602693 108.355558 
L 108.128742 104.198136 
L 108.231743 104.314837 
L 111.970824 112.458586 
L 114.136785 116.421102 
L 116.820762 120.83877 
L 119.992582 125.52762 
L 123.595032 130.296817 
L 126.196049 133.426778 
L 128.92195 136.453175 
L 131.738518 139.323951 
L 134.608139 141.990482 
L 137.490488 144.408384 
L 140.343266 146.538222 
L 143.122999 148.346136 
L 145.785879 149.80434 
L 148.288623 150.891514 
L 150.589337 151.593063 
L 152.648371 151.901253 
L 154.429147 151.815218 
L 155.204791 151.625943 
L 155.898937 151.340829 
L 156.508217 150.961623 
L 157.029584 150.490456 
L 157.460339 149.929827 
L 157.798143 149.282593 
L 158.041033 148.551943 
L 158.236183 146.854737 
L 158.038073 144.869731 
L 157.445677 142.632509 
L 156.464808 140.181943 
L 155.108157 137.559388 
L 153.39519 134.807826 
L 151.351925 131.971007 
L 149.010575 129.092583 
L 146.409079 126.215262 
L 143.590509 123.379998 
L 140.602385 120.62523 
L 137.495892 117.986186 
L 132.732855 114.312106 
L 128.01456 111.055153 
L 123.532279 108.277428 
L 119.471832 106.014189 
L 115.010136 103.806611 
L 110.503657 101.82495 
L 110.721466 101.810073 
L 118.616198 102.590024 
L 122.950932 102.73682 
L 127.977046 102.680985 
L 133.525814 102.352349 
L 139.407385 101.699983 
L 143.413032 101.069947 
L 143.413032 101.069947 
" style="fill:none;stroke:#ff0000;stroke-linecap:square;stroke-width:3;"/>
   </g>
   <g id="line2d_10">
    <path clip-path="url(#p7b220bf07b)" d="M 177.486676 100.954833 
L 177.423004 100.253322 
L 177.232242 99.555486 
L 176.915147 98.864979 
L 176.472979 98.185406 
L 175.22093 96.873133 
L 173.495931 95.645767 
L 171.325264 94.528295 
L 168.743176 93.54295 
L 165.790282 92.708642 
L 162.512853 92.040456 
L 158.962005 91.549235 
L 155.192815 91.241258 
L 151.263359 91.118013 
L 147.233709 91.176085 
L 143.164896 91.407147 
L 139.117864 91.798062 
L 133.218451 92.64419 
L 127.693973 93.731622 
L 122.718267 94.964665 
L 118.440759 96.233706 
L 114.025462 97.776491 
L 110.182495 99.28968 
L 110.28067 99.152692 
L 117.230658 93.385923 
L 120.505173 90.255492 
L 124.081962 86.508118 
L 127.791071 82.221133 
L 131.463053 77.499712 
L 133.809896 74.173825 
L 136.023106 70.755443 
L 138.061371 67.291175 
L 139.887592 63.829992 
L 141.469483 60.422366 
L 142.780065 57.119366 
L 143.798053 53.971724 
L 144.508127 51.028894 
L 144.901075 48.338128 
L 144.973825 45.943563 
L 144.729343 43.88537 
L 144.176426 42.198957 
L 143.788569 41.50475 
L 143.329375 40.914244 
L 142.801419 40.430218 
L 142.207566 40.055039 
L 141.550943 39.79064 
L 140.834929 39.638517 
L 140.063125 39.59971 
L 138.36757 39.863921 
L 136.496799 40.582343 
L 134.485499 41.74654 
L 132.369746 43.340616 
L 130.186206 45.341399 
L 127.971341 47.718763 
L 125.760636 50.436068 
L 123.587858 53.450734 
L 121.484359 56.71492 
L 119.478454 60.176299 
L 117.594857 63.778927 
L 115.854225 67.464183 
L 113.545534 73.014849 
L 111.62862 78.410323 
L 110.113479 83.449941 
L 108.9856 87.945408 
L 108.016239 92.805219 
L 107.276907 97.611029 
L 107.205785 97.390372 
L 105.902291 89.500074 
L 104.915186 85.261342 
L 103.552719 80.410598 
L 101.791235 75.129354 
L 99.631164 69.614402 
L 97.981121 65.908798 
L 96.178152 62.251002 
L 94.240381 58.700741 
L 92.19022 55.315629 
L 90.05396 52.150198 
L 87.861265 49.25499 
L 85.644582 46.675726 
L 83.438488 44.452565 
L 81.278971 42.61947 
L 79.202676 41.203692 
L 77.246117 40.225375 
L 75.444882 39.697295 
L 73.832843 39.624729 
L 73.107696 39.758863 
L 72.441382 40.005469 
L 71.837316 40.363123 
L 71.298666 40.82996 
L 70.82834 41.403683 
L 70.428961 42.081577 
L 69.852028 43.737022 
L 69.582587 45.766837 
L 69.629887 48.13603 
L 69.99737 50.80478 
L 70.682446 53.729233 
L 71.676396 56.862355 
L 72.96438 60.154832 
L 74.525582 63.555999 
L 76.333462 67.01478 
L 78.356142 70.480623 
L 80.556883 73.904403 
L 82.894685 77.239294 
L 86.560071 81.980354 
L 90.271432 86.293278 
L 93.859543 90.071501 
L 97.1543 93.236144 
L 100.809487 96.421149 
L 104.373307 99.287727 
L 104.087499 99.20731 
L 97.547059 96.708663 
L 93.573177 95.457134 
L 88.851082 94.196583 
L 83.519259 93.040672 
L 77.74282 92.091032 
L 73.735913 91.615295 
L 69.67235 91.289676 
L 65.612545 91.130006 
L 61.61761 91.147422 
L 57.748297 91.348191 
L 54.063967 91.733659 
L 50.621553 92.300305 
L 47.47458 93.039897 
L 44.672232 93.939765 
L 42.258497 94.98316 
L 40.271391 96.149709 
L 38.742301 97.415948 
L 37.695429 98.755922 
L 37.358317 99.444928 
L 37.147371 100.14184 
L 37.063428 100.843011 
L 37.106823 101.544769 
L 37.277381 102.243435 
L 37.574427 102.935353 
L 37.99678 103.616906 
L 39.210213 104.934799 
L 40.898454 106.169874 
L 43.034798 107.296952 
L 45.585532 108.293559 
L 48.510524 109.1405 
L 51.763924 109.822371 
L 55.294971 110.327975 
L 59.048868 110.650664 
L 62.967744 110.78856 
L 66.991646 110.744686 
L 71.059581 110.52698 
L 75.110561 110.148203 
L 81.024643 109.317229 
L 86.573584 108.240346 
L 91.582419 107.01238 
L 95.900284 105.742328 
L 100.37767 104.188197 
L 104.37481 102.647464 
L 104.290597 102.736866 
L 96.440288 109.335506 
L 93.064172 112.644921 
L 89.433051 116.552568 
L 85.717451 120.973031 
L 83.276751 124.150401 
L 80.921152 127.467007 
L 78.695735 130.879694 
L 76.64212 134.342077 
L 74.797763 137.805342 
L 73.195354 141.219102 
L 71.86231 144.532303 
L 70.82038 147.694152 
L 70.085368 150.655058 
L 69.666973 153.367561 
L 69.568755 155.787243 
L 69.788222 157.873586 
L 70.317032 159.590779 
L 70.693308 160.301218 
L 71.141306 160.908437 
L 71.658495 161.40959 
L 72.242056 161.802246 
L 72.888902 162.084399 
L 73.595693 162.254486 
L 74.358861 162.311391 
L 76.039031 162.08349 
L 77.897097 161.401028 
L 79.898515 160.271844 
L 82.007291 158.711245 
L 84.186777 156.741834 
L 86.400466 154.393199 
L 88.612766 151.701478 
L 90.78975 148.708803 
L 92.899846 145.462623 
L 94.91448 142.01494 
L 96.808629 138.42144 
L 98.561301 134.74057 
L 100.890037 129.187398 
L 102.828219 123.778567 
L 104.364538 118.715182 
L 105.512226 114.186387 
L 106.503875 109.269419 
L 107.266249 104.301681 
L 107.336406 104.484189 
L 108.603503 112.204836 
L 109.571777 116.406402 
L 110.913517 121.229049 
L 112.653611 126.492282 
L 114.792937 131.999931 
L 116.430158 135.706735 
L 118.221554 139.370547 
L 120.149358 142.931517 
L 122.191484 146.331826 
L 124.321934 149.516661 
L 126.511291 152.435131 
L 128.727307 155.041104 
L 130.93555 157.293952 
L 133.100114 159.159199 
L 135.184382 160.609043 
L 137.151797 161.622763 
L 138.966669 162.18699 
L 140.594963 162.295846 
L 141.329149 162.179726 
L 142.005068 161.95095 
L 142.619267 161.610868 
L 143.168537 161.161277 
L 143.649927 160.604406 
L 144.060769 159.942905 
L 144.661626 158.318616 
L 144.955966 156.317399 
L 144.934094 153.973831 
L 144.592094 151.327377 
L 143.93207 148.421599 
L 142.962253 145.303311 
L 141.696998 142.021679 
L 140.156654 138.627295 
L 138.367317 135.171236 
L 136.360457 131.704131 
L 134.172445 128.27525 
L 131.843966 124.931633 
L 128.185633 120.171303 
L 124.472499 115.832741 
L 120.873546 112.023893 
L 117.55901 108.825176 
L 113.864481 105.59219 
L 110.170514 102.625399 
L 110.422679 102.687875 
L 116.813578 105.137101 
L 120.744451 106.38482 
L 125.430046 107.647832 
L 130.73344 108.811981 
L 136.490789 109.774871 
L 140.490631 110.261748 
L 144.551881 110.599962 
L 148.614221 110.773318 
L 152.61656 110.770299 
L 156.498076 110.584245 
L 160.199262 110.213419 
L 163.662953 109.66096 
L 166.835318 108.934732 
L 169.666794 108.047065 
L 172.112953 107.014398 
L 174.135274 105.856833 
L 175.701822 104.59761 
L 176.787804 103.262509 
L 177.144899 102.575096 
L 177.376008 101.8792 
L 177.480214 101.178461 
L 177.480214 101.178461 
" style="fill:none;stroke:#008000;stroke-linecap:square;stroke-width:3;"/>
   </g>
   <g id="patch_3">
    <path d="M 180.830125 100.954833 
C 180.830125 91.295563 178.927459 81.730218 175.231017 72.806216 
C 171.534574 63.882215 166.116241 55.773106 159.286106 48.942971 
C 152.455971 42.112836 144.346863 36.694503 135.422861 32.99806 
C 126.49886 29.301618 116.933514 27.398952 107.274244 27.398952 
C 97.614975 27.398952 88.049629 29.301618 79.125627 32.99806 
C 70.201626 36.694503 62.092518 42.112836 55.262382 48.942971 
C 48.432247 55.773106 43.013914 63.882215 39.317472 72.806216 
C 35.621029 81.730218 33.718364 91.295563 33.718364 100.954833 
C 33.718364 110.614103 35.621029 120.179448 39.317472 129.10345 
C 43.013914 138.027451 48.432247 146.13656 55.262382 152.966695 
C 62.092518 159.79683 70.201626 165.215163 79.125627 168.911606 
C 88.049629 172.608048 97.614975 174.510714 107.274244 174.510714 
C 116.933514 174.510714 126.49886 172.608048 135.422861 168.911606 
C 144.346863 165.215163 152.455971 159.79683 159.286106 152.966695 
C 166.116241 146.13656 171.534574 138.027451 175.231017 129.10345 
C 178.927459 120.179448 180.830125 110.614103 180.830125 100.954833 
" style="fill:none;stroke:#000000;stroke-linecap:square;stroke-linejoin:miter;stroke-width:0.8;"/>
   </g>
  </g>
  <g id="axes_2">
   <g id="patch_4">
    <path d="M 389.270125 100.954833 
C 389.270125 91.295563 387.367459 81.730218 383.671017 72.806216 
C 379.974574 63.882215 374.556241 55.773106 367.726106 48.942971 
C 360.895971 42.112836 352.786863 36.694503 343.862861 32.99806 
C 334.93886 29.301618 325.373514 27.398952 315.714244 27.398952 
C 306.054975 27.398952 296.489629 29.301618 287.565627 32.99806 
C 278.641626 36.694503 270.532518 42.112836 263.702382 48.942971 
C 256.872247 55.773106 251.453914 63.882215 247.757472 72.806216 
C 244.061029 81.730218 242.158364 91.295563 242.158364 100.954833 
C 242.158364 110.614103 244.061029 120.179448 247.757472 129.10345 
C 251.453914 138.027451 256.872247 146.13656 263.702382 152.966695 
C 270.532518 159.79683 278.641626 165.215163 287.565627 168.911606 
C 296.489629 172.608048 306.054975 174.510714 315.714244 174.510714 
C 325.373514 174.510714 334.93886 172.608048 343.862861 168.911606 
C 352.786863 165.215163 360.895971 159.79683 367.726106 152.966695 
C 374.556241 146.13656 379.974574 138.027451 383.671017 129.10345 
C 387.367459 120.179448 389.270125 110.614103 389.270125 100.954833 
M 315.714244 100.954833 
C 315.714244 100.954833 315.714244 100.954833 315.714244 100.954833 
C 315.714244 100.954833 315.714244 100.954833 315.714244 100.954833 
C 315.714244 100.954833 315.714244 100.954833 315.714244 100.954833 
C 315.714244 100.954833 315.714244 100.954833 315.714244 100.954833 
C 315.714244 100.954833 315.714244 100.954833 315.714244 100.954833 
C 315.714244 100.954833 315.714244 100.954833 315.714244 100.954833 
C 315.714244 100.954833 315.714244 100.954833 315.714244 100.954833 
C 315.714244 100.954833 315.714244 100.954833 315.714244 100.954833 
C 315.714244 100.954833 315.714244 100.954833 315.714244 100.954833 
C 315.714244 100.954833 315.714244 100.954833 315.714244 100.954833 
C 315.714244 100.954833 315.714244 100.954833 315.714244 100.954833 
C 315.714244 100.954833 315.714244 100.954833 315.714244 100.954833 
C 315.714244 100.954833 315.714244 100.954833 315.714244 100.954833 
C 315.714244 100.954833 315.714244 100.954833 315.714244 100.954833 
C 315.714244 100.954833 315.714244 100.954833 315.714244 100.954833 
C 315.714244 100.954833 315.714244 100.954833 315.714244 100.954833 
M 389.270125 100.954833 
z
" style="fill:#ffffff;"/>
   </g>
   <g id="matplotlib.axis_3">
    <g id="xtick_9">
     <g id="line2d_11">
      <path clip-path="url(#p6e348cb8d2)" d="M 315.714244 100.954833 
L 389.270125 100.954833 
" style="fill:none;stroke:#b0b0b0;stroke-linecap:square;stroke-width:0.8;"/>
     </g>
     <g id="text_9">
      <!-- 0° -->
      <g transform="translate(397.58025 104.441757)scale(0.14 -0.14)">
       <use transform="scale(0.996264)" xlink:href="#CMSS17-48"/>
       <use transform="translate(46.843624 0)scale(0.996264)" xlink:href="#Computer_Modern_Sans_Serif-176"/>
      </g>
     </g>
    </g>
    <g id="xtick_10">
     <g id="line2d_12">
      <path clip-path="url(#p6e348cb8d2)" d="M 315.714244 100.954833 
L 367.726106 48.942971 
" style="fill:none;stroke:#b0b0b0;stroke-linecap:square;stroke-width:0.8;"/>
     </g>
     <g id="text_10">
      <!-- 45° -->
      <g transform="translate(368.521482 42.5304)scale(0.14 -0.14)">
       <use transform="scale(0.996264)" xlink:href="#CMSS17-52"/>
       <use transform="translate(46.843624 0)scale(0.996264)" xlink:href="#CMSS17-53"/>
       <use transform="translate(93.687247 0)scale(0.996264)" xlink:href="#Computer_Modern_Sans_Serif-176"/>
      </g>
     </g>
    </g>
    <g id="xtick_11">
     <g id="line2d_13">
      <path clip-path="url(#p6e348cb8d2)" d="M 315.714244 100.954833 
L 315.714244 27.398952 
" style="fill:none;stroke:#b0b0b0;stroke-linecap:square;stroke-width:0.8;"/>
     </g>
     <g id="text_11">
      <!-- 90° -->
      <g transform="translate(306.610125 16.885876)scale(0.14 -0.14)">
       <use transform="scale(0.996264)" xlink:href="#CMSS17-57"/>
       <use transform="translate(46.843624 0)scale(0.996264)" xlink:href="#CMSS17-48"/>
       <use transform="translate(93.687247 0)scale(0.996264)" xlink:href="#Computer_Modern_Sans_Serif-176"/>
      </g>
     </g>
    </g>
    <g id="xtick_12">
     <g id="line2d_14">
      <path clip-path="url(#p6e348cb8d2)" d="M 315.714244 100.954833 
L 263.702382 48.942971 
" style="fill:none;stroke:#b0b0b0;stroke-linecap:square;stroke-width:0.8;"/>
     </g>
     <g id="text_12">
      <!-- 135° -->
      <g transform="translate(241.284524 42.5304)scale(0.14 -0.14)">
       <use transform="scale(0.996264)" xlink:href="#CMSS17-49"/>
       <use transform="translate(46.843624 0)scale(0.996264)" xlink:href="#CMSS17-51"/>
       <use transform="translate(93.687247 0)scale(0.996264)" xlink:href="#CMSS17-53"/>
       <use transform="translate(140.530871 0)scale(0.996264)" xlink:href="#Computer_Modern_Sans_Serif-176"/>
      </g>
     </g>
    </g>
    <g id="xtick_13">
     <g id="line2d_15">
      <path clip-path="url(#p6e348cb8d2)" d="M 315.714244 100.954833 
L 242.158364 100.954833 
" style="fill:none;stroke:#b0b0b0;stroke-linecap:square;stroke-width:0.8;"/>
     </g>
     <g id="text_13">
      <!-- 180° -->
      <g transform="translate(215.64 104.441757)scale(0.14 -0.14)">
       <use transform="scale(0.996264)" xlink:href="#CMSS17-49"/>
       <use transform="translate(46.843624 0)scale(0.996264)" xlink:href="#CMSS17-56"/>
       <use transform="translate(93.687247 0)scale(0.996264)" xlink:href="#CMSS17-48"/>
       <use transform="translate(140.530871 0)scale(0.996264)" xlink:href="#Computer_Modern_Sans_Serif-176"/>
      </g>
     </g>
    </g>
    <g id="xtick_14">
     <g id="line2d_16">
      <path clip-path="url(#p6e348cb8d2)" d="M 315.714244 100.954833 
L 263.702382 152.966695 
" style="fill:none;stroke:#b0b0b0;stroke-linecap:square;stroke-width:0.8;"/>
     </g>
     <g id="text_14">
      <!-- 225° -->
      <g transform="translate(241.284524 166.353114)scale(0.14 -0.14)">
       <use transform="scale(0.996264)" xlink:href="#CMSS17-50"/>
       <use transform="translate(46.843624 0)scale(0.996264)" xlink:href="#CMSS17-50"/>
       <use transform="translate(93.687247 0)scale(0.996264)" xlink:href="#CMSS17-53"/>
       <use transform="translate(140.530871 0)scale(0.996264)" xlink:href="#Computer_Modern_Sans_Serif-176"/>
      </g>
     </g>
    </g>
    <g id="xtick_15">
     <g id="line2d_17">
      <path clip-path="url(#p6e348cb8d2)" d="M 315.714244 100.954833 
L 315.714244 174.510714 
" style="fill:none;stroke:#b0b0b0;stroke-linecap:square;stroke-width:0.8;"/>
     </g>
     <g id="text_15">
      <!-- 270° -->
      <g transform="translate(303.195881 191.997638)scale(0.14 -0.14)">
       <use transform="scale(0.996264)" xlink:href="#CMSS17-50"/>
       <use transform="translate(46.843624 0)scale(0.996264)" xlink:href="#CMSS17-55"/>
       <use transform="translate(93.687247 0)scale(0.996264)" xlink:href="#CMSS17-48"/>
       <use transform="translate(140.530871 0)scale(0.996264)" xlink:href="#Computer_Modern_Sans_Serif-176"/>
      </g>
     </g>
    </g>
    <g id="xtick_16">
     <g id="line2d_18">
      <path clip-path="url(#p6e348cb8d2)" d="M 315.714244 100.954833 
L 367.726106 152.966695 
" style="fill:none;stroke:#b0b0b0;stroke-linecap:square;stroke-width:0.8;"/>
     </g>
     <g id="text_16">
      <!-- 315° -->
      <g transform="translate(365.107237 166.353114)scale(0.14 -0.14)">
       <use transform="scale(0.996264)" xlink:href="#CMSS17-51"/>
       <use transform="translate(46.843624 0)scale(0.996264)" xlink:href="#CMSS17-49"/>
       <use transform="translate(93.687247 0)scale(0.996264)" xlink:href="#CMSS17-53"/>
       <use transform="translate(140.530871 0)scale(0.996264)" xlink:href="#Computer_Modern_Sans_Serif-176"/>
      </g>
     </g>
    </g>
   </g>
   <g id="matplotlib.axis_4">
    <g id="ytick_1">
     <g id="line2d_19">
      <path clip-path="url(#p6e348cb8d2)" d="M 330.136966 100.954833 
C 330.136966 99.060858 329.763895 97.1853 329.039102 95.435496 
C 328.314309 93.685692 327.251891 92.095671 325.912649 90.756428 
C 324.573407 89.417186 322.983385 88.354768 321.233581 87.629975 
C 319.483777 86.905183 317.608219 86.532111 315.714244 86.532111 
C 313.82027 86.532111 311.944712 86.905183 310.194908 87.629975 
C 308.445103 88.354768 306.855082 89.417186 305.51584 90.756428 
C 304.176597 92.095671 303.114179 93.685692 302.389387 95.435496 
C 301.664594 97.1853 301.291522 99.060858 301.291522 100.954833 
C 301.291522 102.848807 301.664594 104.724365 302.389387 106.47417 
C 303.114179 108.223974 304.176597 109.813995 305.51584 111.153238 
C 306.855082 112.49248 308.445103 113.554898 310.194908 114.279691 
C 311.944712 115.004483 313.82027 115.377555 315.714244 115.377555 
C 317.608219 115.377555 319.483777 115.004483 321.233581 114.279691 
C 322.983385 113.554898 324.573407 112.49248 325.912649 111.153238 
C 327.251891 109.813995 328.314309 108.223974 329.039102 106.47417 
C 329.763895 104.724365 330.136966 102.848807 330.136966 100.954833 
" style="fill:none;stroke:#b0b0b0;stroke-linecap:square;stroke-width:0.8;"/>
     </g>
     <g id="text_17">
      <!-- $\mathdefault{1}$ -->
      <g transform="translate(329.039102 92.723468)scale(0.14 -0.14)">
       <defs>
        <path d="M 26.59375 63.796875 
C 26.59375 65.890625 26.5 66 25.09375 66 
C 21.203125 61.359375 15.296875 59.890625 9.703125 59.6875 
C 9.40625 59.6875 8.90625 59.6875 8.796875 59.5 
C 8.703125 59.296875 8.703125 59.09375 8.703125 57 
C 11.796875 57 17 57.59375 21 59.984375 
L 21 7.296875 
C 21 3.796875 20.796875 2.59375 12.203125 2.59375 
L 9.203125 2.59375 
L 9.203125 0 
C 14 0.09375 19 0.1875 23.796875 0.1875 
C 28.59375 0.1875 33.59375 0.09375 38.40625 0 
L 38.40625 2.59375 
L 35.40625 2.59375 
C 26.796875 2.59375 26.59375 3.6875 26.59375 7.296875 
z
" id="CMR17-49"/>
       </defs>
       <use transform="scale(0.996264)" xlink:href="#CMR17-49"/>
      </g>
     </g>
    </g>
    <g id="ytick_2">
     <g id="line2d_20">
      <path clip-path="url(#p6e348cb8d2)" d="M 344.559689 100.954833 
C 344.559689 97.166884 343.813545 93.415768 342.36396 89.916159 
C 340.914375 86.416551 338.789538 83.236508 336.111054 80.558024 
C 333.432569 77.879539 330.252526 75.754703 326.752918 74.305117 
C 323.253309 72.855532 319.502193 72.109389 315.714244 72.109389 
C 311.926295 72.109389 308.175179 72.855532 304.675571 74.305117 
C 301.175962 75.754703 297.99592 77.879539 295.317435 80.558024 
C 292.638951 83.236508 290.514114 86.416551 289.064529 89.916159 
C 287.614943 93.415768 286.8688 97.166884 286.8688 100.954833 
C 286.8688 104.742782 287.614943 108.493898 289.064529 111.993507 
C 290.514114 115.493115 292.638951 118.673158 295.317435 121.351642 
C 297.99592 124.030127 301.175962 126.154963 304.675571 127.604549 
C 308.175179 129.054134 311.926295 129.800277 315.714244 129.800277 
C 319.502193 129.800277 323.253309 129.054134 326.752918 127.604549 
C 330.252526 126.154963 333.432569 124.030127 336.111054 121.351642 
C 338.789538 118.673158 340.914375 115.493115 342.36396 111.993507 
C 343.813545 108.493898 344.559689 104.742782 344.559689 100.954833 
" style="fill:none;stroke:#b0b0b0;stroke-linecap:square;stroke-width:0.8;"/>
     </g>
     <g id="text_18">
      <!-- $\mathdefault{2}$ -->
      <g transform="translate(342.36396 87.204131)scale(0.14 -0.14)">
       <defs>
        <path d="M 41.703125 15.46875 
L 39.90625 15.46875 
C 38.90625 8.390625 38.09375 7.1875 37.703125 6.59375 
C 37.203125 5.796875 30 5.796875 28.59375 5.796875 
L 9.40625 5.796875 
C 13 9.6875 20 16.765625 28.5 24.9375 
C 34.59375 30.71875 41.703125 37.5 41.703125 47.390625 
C 41.703125 59.1875 32.296875 66 21.796875 66 
C 10.796875 66 4.09375 56.296875 4.09375 47.296875 
C 4.09375 43.390625 7 42.890625 8.203125 42.890625 
C 9.203125 42.890625 12.203125 43.484375 12.203125 46.984375 
C 12.203125 50.09375 9.59375 51 8.203125 51 
C 7.59375 51 7 50.890625 6.59375 50.6875 
C 8.5 59.1875 14.296875 63.390625 20.40625 63.390625 
C 29.09375 63.390625 34.796875 56.5 34.796875 47.390625 
C 34.796875 38.703125 29.703125 31.21875 24 24.734375 
L 4.09375 2.296875 
L 4.09375 0 
L 39.296875 0 
z
" id="CMR17-50"/>
       </defs>
       <use transform="scale(0.996264)" xlink:href="#CMR17-50"/>
      </g>
     </g>
    </g>
    <g id="ytick_3">
     <g id="line2d_21">
      <path clip-path="url(#p6e348cb8d2)" d="M 358.982411 100.954833 
C 358.982411 95.272909 357.863196 89.646235 355.688818 84.396823 
C 353.51444 79.14741 350.327185 74.377346 346.309458 70.359619 
C 342.291731 66.341892 337.521668 63.154638 332.272255 60.98026 
C 327.022842 58.805882 321.396168 57.686667 315.714244 57.686667 
C 310.032321 57.686667 304.405647 58.805882 299.156234 60.98026 
C 293.906821 63.154638 289.136757 66.341892 285.11903 70.359619 
C 281.101304 74.377346 277.914049 79.14741 275.739671 84.396823 
C 273.565293 89.646235 272.446078 95.272909 272.446078 100.954833 
C 272.446078 106.636757 273.565293 112.263431 275.739671 117.512843 
C 277.914049 122.762256 281.101304 127.53232 285.11903 131.550047 
C 289.136757 135.567773 293.906821 138.755028 299.156234 140.929406 
C 304.405647 143.103784 310.032321 144.222999 315.714244 144.222999 
C 321.396168 144.222999 327.022842 143.103784 332.272255 140.929406 
C 337.521668 138.755028 342.291731 135.567773 346.309458 131.550047 
C 350.327185 127.53232 353.51444 122.762256 355.688818 117.512843 
C 357.863196 112.263431 358.982411 106.636757 358.982411 100.954833 
" style="fill:none;stroke:#b0b0b0;stroke-linecap:square;stroke-width:0.8;"/>
     </g>
     <g id="text_19">
      <!-- $\mathdefault{3}$ -->
      <g transform="translate(355.688818 81.684794)scale(0.14 -0.14)">
       <defs>
        <path d="M 22.09375 34 
C 31 34 34.90625 26.140625 34.90625 17.09375 
C 34.90625 5.03125 28.5 0.390625 22.703125 0.390625 
C 17.40625 0.390625 8.796875 3.015625 6.09375 10.796875 
C 6.59375 10.59375 7.09375 10.59375 7.59375 10.59375 
C 10 10.59375 11.796875 12.1875 11.796875 14.796875 
C 11.796875 17.6875 9.59375 19 7.59375 19 
C 5.90625 19 3.296875 18.1875 3.296875 14.484375 
C 3.296875 5.234375 12.296875 -2 22.90625 -2 
C 34 -2 42.5 6.75 42.5 16.984375 
C 42.5 26.84375 34.5 34 25 35.09375 
C 32.59375 36.671875 39.90625 43.375 39.90625 52.390625 
C 39.90625 60.25 32 66 23 66 
C 13.90625 66 5.90625 60.34375 5.90625 52.296875 
C 5.90625 48.796875 8.5 48.1875 9.796875 48.1875 
C 11.90625 48.1875 13.703125 49.484375 13.703125 52.09375 
C 13.703125 54.6875 11.90625 56 9.796875 56 
C 9.40625 56 8.90625 56 8.5 55.796875 
C 11.40625 62.484375 19.296875 63.6875 22.796875 63.6875 
C 26.296875 63.6875 32.90625 61.96875 32.90625 52.296875 
C 32.90625 49.484375 32.5 44.546875 29.09375 40.21875 
C 26.09375 36.390625 22.703125 36.1875 19.40625 35.890625 
C 18.90625 35.890625 16.59375 35.6875 16.203125 35.6875 
C 15.5 35.59375 15.09375 35.5 15.09375 34.796875 
C 15.09375 34.09375 15.203125 34 17.203125 34 
z
" id="CMR17-51"/>
       </defs>
       <use transform="scale(0.996264)" xlink:href="#CMR17-51"/>
      </g>
     </g>
    </g>
    <g id="ytick_4">
     <g id="line2d_22">
      <path clip-path="url(#p6e348cb8d2)" d="M 373.405133 100.954833 
C 373.405133 93.378935 371.912846 85.876703 369.013675 78.877486 
C 366.114505 71.878269 361.864832 65.518183 356.507863 60.161215 
C 351.150894 54.804246 344.790809 50.554573 337.791592 47.655402 
C 330.792374 44.756231 323.290142 43.263945 315.714244 43.263945 
C 308.138346 43.263945 300.636114 44.756231 293.636897 47.655402 
C 286.63768 50.554573 280.277595 54.804246 274.920626 60.161215 
C 269.563657 65.518183 265.313984 71.878269 262.414813 78.877486 
C 259.515643 85.876703 258.023356 93.378935 258.023356 100.954833 
C 258.023356 108.530731 259.515643 116.032963 262.414813 123.03218 
C 265.313984 130.031397 269.563657 136.391483 274.920626 141.748451 
C 280.277595 147.10542 286.63768 151.355093 293.636897 154.254264 
C 300.636114 157.153435 308.138346 158.645721 315.714244 158.645721 
C 323.290142 158.645721 330.792374 157.153435 337.791592 154.254264 
C 344.790809 151.355093 351.150894 147.10542 356.507863 141.748451 
C 361.864832 136.391483 366.114505 130.031397 369.013675 123.03218 
C 371.912846 116.032963 373.405133 108.530731 373.405133 100.954833 
" style="fill:none;stroke:#b0b0b0;stroke-linecap:square;stroke-width:0.8;"/>
     </g>
     <g id="text_20">
      <!-- $\mathdefault{4}$ -->
      <g transform="translate(369.013675 76.165457)scale(0.14 -0.14)">
       <defs>
        <path d="M 33.59375 64.796875 
C 33.59375 66.890625 33.5 67 31.703125 67 
L 2 19.59375 
L 2 17 
L 27.796875 17 
L 27.796875 7.1875 
C 27.796875 3.59375 27.59375 2.59375 20.59375 2.59375 
L 18.703125 2.59375 
L 18.703125 0 
C 21.90625 0.1875 27.296875 0.1875 30.703125 0.1875 
C 34.09375 0.1875 39.5 0.1875 42.703125 0 
L 42.703125 2.59375 
L 40.796875 2.59375 
C 33.796875 2.59375 33.59375 3.59375 33.59375 7.1875 
L 33.59375 17 
L 43.796875 17 
L 43.796875 19.59375 
L 33.59375 19.59375 
z
M 28.09375 58.171875 
L 28.09375 19.59375 
L 4 19.59375 
z
" id="CMR17-52"/>
       </defs>
       <use transform="scale(0.996264)" xlink:href="#CMR17-52"/>
      </g>
     </g>
    </g>
   </g>
   <g id="line2d_23">
    <path clip-path="url(#p6e348cb8d2)" d="M 387.827855 100.954833 
L 387.709734 99.514731 
L 387.357118 98.087589 
L 386.775211 96.686051 
L 385.972586 95.322144 
L 384.961036 94.006979 
L 383.755365 92.75048 
L 382.373129 91.561137 
L 380.013055 89.917503 
L 377.377165 88.45514 
L 374.549035 87.179057 
L 371.616617 86.083598 
L 367.697939 84.874392 
L 361.371805 83.245947 
L 357.685206 82.211754 
L 355.920745 81.532879 
L 354.528111 80.747913 
L 353.812299 80.141771 
L 353.266107 79.45407 
L 352.885576 78.673236 
L 352.663714 77.78938 
L 352.590668 76.794564 
L 352.732152 75.082319 
L 353.127999 73.098653 
L 354.183178 69.205033 
L 355.943746 62.718645 
L 356.787099 58.664638 
L 357.222251 55.568612 
L 357.42668 52.503508 
L 357.356203 49.543693 
L 357.140079 47.665907 
L 356.780861 45.889681 
L 356.274843 44.235598 
L 355.620968 42.722897 
L 354.82079 41.369098 
L 353.878383 40.189661 
L 352.800197 39.197673 
L 351.594875 38.403581 
L 350.273028 37.814961 
L 348.846975 37.436347 
L 347.330449 37.269104 
L 345.738286 37.311366 
L 344.086093 37.558024 
L 342.389905 38.000777 
L 340.665846 38.628243 
L 338.062058 39.883751 
L 335.481902 41.46269 
L 332.970927 43.294218 
L 330.56746 45.29863 
L 327.579658 48.091782 
L 319.340473 56.171431 
L 317.944913 57.078642 
L 317.054094 57.461782 
L 316.181699 57.65894 
L 315.315822 57.666515 
L 314.444386 57.484367 
L 313.555462 57.115825 
L 312.16438 56.229156 
L 310.67307 54.975435 
L 308.479162 52.823884 
L 302.507458 46.800441 
L 299.400885 44.052863 
L 296.927362 42.144689 
L 294.368894 40.459198 
L 291.768457 39.07099 
L 290.035537 38.342827 
L 288.321238 37.79143 
L 286.641577 37.429897 
L 285.012682 37.268331 
L 283.45045 37.313702 
L 281.970205 37.569758 
L 280.586358 38.037003 
L 279.312086 38.712728 
L 278.159023 39.591103 
L 277.136982 40.663319 
L 276.253711 41.91779 
L 275.514681 43.340396 
L 274.92292 44.914771 
L 274.478893 46.622629 
L 274.180431 48.444119 
L 273.994411 51.343175 
L 274.097219 54.37649 
L 274.449161 57.469241 
L 274.999406 60.548703 
L 275.936562 64.517907 
L 278.68121 74.983857 
L 278.837596 76.710386 
L 278.690272 78.174032 
L 278.402751 79.013495 
L 277.953262 79.753871 
L 277.33607 80.40579 
L 276.54853 80.98145 
L 275.049895 81.731671 
L 273.185398 82.389884 
L 269.357212 83.421572 
L 262.914884 85.107206 
L 258.984717 86.373126 
L 256.072534 87.518014 
L 253.289534 88.846193 
L 250.722781 90.360314 
L 248.454033 92.052437 
L 247.143716 93.270944 
L 246.01766 94.553226 
L 245.092301 95.890165 
L 244.381204 97.271303 
L 243.89483 98.685112 
L 243.640352 100.119268 
L 243.621528 101.560956 
L 243.838636 102.997178 
L 244.28847 104.415068 
L 244.964394 105.802206 
L 245.85646 107.146915 
L 246.95158 108.43855 
L 248.233761 109.667763 
L 249.684378 110.826732 
L 252.129793 112.420675 
L 254.828237 113.830884 
L 257.69457 115.055315 
L 260.640217 116.102627 
L 264.538406 117.258039 
L 274.868869 120.104629 
L 276.407368 120.842694 
L 277.222071 121.407423 
L 277.866298 122.046343 
L 278.342191 122.771875 
L 278.655001 123.594918 
L 278.812948 124.524571 
L 278.784241 126.133756 
L 278.479876 128.012238 
L 277.746659 130.936511 
L 275.28879 140.029388 
L 274.499157 144.11159 
L 274.123568 147.206317 
L 273.992216 150.249482 
L 274.146051 153.166341 
L 274.421706 155.004012 
L 274.842335 156.731332 
L 275.410531 158.328236 
L 276.126244 159.776163 
L 276.986847 161.058419 
L 277.987249 162.160506 
L 279.120051 163.070417 
L 280.375754 163.778887 
L 281.742995 164.279599 
L 283.208824 164.56934 
L 284.759005 164.648099 
L 286.378336 164.519107 
L 288.05099 164.188825 
L 289.760851 163.666865 
L 291.491863 162.96586 
L 294.093965 161.613188 
L 296.65905 159.955884 
L 299.143409 158.067557 
L 302.269392 155.332344 
L 305.799057 151.85459 
L 311.022261 146.619671 
L 312.487986 145.445317 
L 313.861039 144.647679 
L 314.742686 144.34206 
L 315.610874 144.224357 
L 316.477618 144.29672 
L 317.354971 144.557825 
L 318.25471 145.002904 
L 319.670544 145.996794 
L 321.195505 147.344738 
L 324.05013 150.221749 
L 328.802643 154.997558 
L 331.899374 157.750825 
L 334.36733 159.668574 
L 336.922306 161.367843 
L 339.521702 162.773547 
L 341.255428 163.515139 
L 342.971793 164.08113 
L 344.654804 164.458194 
L 346.288329 164.635981 
L 347.856441 164.607269 
L 349.343757 164.368051 
L 350.735782 163.917567 
L 352.019228 163.25827 
L 353.182329 162.395749 
L 354.215116 161.338579 
L 355.109669 160.098136 
L 355.860329 158.688347 
L 356.46387 157.12541 
L 356.919617 155.427473 
L 357.229528 153.614274 
L 357.431757 150.724434 
L 357.343391 147.69636 
L 357.003488 144.604906 
L 356.462332 141.52298 
L 355.531966 137.545232 
L 352.675655 126.41471 
L 352.599566 124.763265 
L 352.722044 123.807018 
L 352.997002 122.95926 
L 353.433343 122.211361 
L 354.037043 121.552826 
L 354.810994 120.971572 
L 356.289632 120.215063 
L 358.135358 119.553246 
L 361.937222 118.52159 
L 368.358573 116.847369 
L 372.28726 115.592404 
L 375.203815 114.456967 
L 377.995893 113.13868 
L 380.576243 111.634323 
L 382.862741 109.951283 
L 384.186946 108.738203 
L 385.328313 107.460683 
L 386.270191 106.12773 
L 386.998776 104.749702 
L 387.503352 103.338051 
L 387.77648 101.905051 
L 387.824855 101.184528 
L 387.824855 101.184528 
" style="fill:none;stroke:#0000ff;stroke-linecap:square;stroke-width:3;"/>
   </g>
   <g id="patch_5">
    <path d="M 389.270125 100.954833 
C 389.270125 91.295563 387.367459 81.730218 383.671017 72.806216 
C 379.974574 63.882215 374.556241 55.773106 367.726106 48.942971 
C 360.895971 42.112836 352.786863 36.694503 343.862861 32.99806 
C 334.93886 29.301618 325.373514 27.398952 315.714244 27.398952 
C 306.054975 27.398952 296.489629 29.301618 287.565627 32.99806 
C 278.641626 36.694503 270.532518 42.112836 263.702382 48.942971 
C 256.872247 55.773106 251.453914 63.882215 247.757472 72.806216 
C 244.061029 81.730218 242.158364 91.295563 242.158364 100.954833 
C 242.158364 110.614103 244.061029 120.179448 247.757472 129.10345 
C 251.453914 138.027451 256.872247 146.13656 263.702382 152.966695 
C 270.532518 159.79683 278.641626 165.215163 287.565627 168.911606 
C 296.489629 172.608048 306.054975 174.510714 315.714244 174.510714 
C 325.373514 174.510714 334.93886 172.608048 343.862861 168.911606 
C 352.786863 165.215163 360.895971 159.79683 367.726106 152.966695 
C 374.556241 146.13656 379.974574 138.027451 383.671017 129.10345 
C 387.367459 120.179448 389.270125 110.614103 389.270125 100.954833 
" style="fill:none;stroke:#000000;stroke-linecap:square;stroke-linejoin:miter;stroke-width:0.8;"/>
   </g>
  </g>
 </g>
 <defs>
  <clipPath id="p7b220bf07b">
   <path d="M 180.830125 100.954833 
C 180.830125 91.295563 178.927459 81.730218 175.231017 72.806216 
C 171.534574 63.882215 166.116241 55.773106 159.286106 48.942971 
C 152.455971 42.112836 144.346863 36.694503 135.422861 32.99806 
C 126.49886 29.301618 116.933514 27.398952 107.274244 27.398952 
C 97.614975 27.398952 88.049629 29.301618 79.125627 32.99806 
C 70.201626 36.694503 62.092518 42.112836 55.262382 48.942971 
C 48.432247 55.773106 43.013914 63.882215 39.317472 72.806216 
C 35.621029 81.730218 33.718364 91.295563 33.718364 100.954833 
C 33.718364 110.614103 35.621029 120.179448 39.317472 129.10345 
C 43.013914 138.027451 48.432247 146.13656 55.262382 152.966695 
C 62.092518 159.79683 70.201626 165.215163 79.125627 168.911606 
C 88.049629 172.608048 97.614975 174.510714 107.274244 174.510714 
C 116.933514 174.510714 126.49886 172.608048 135.422861 168.911606 
C 144.346863 165.215163 152.455971 159.79683 159.286106 152.966695 
C 166.116241 146.13656 171.534574 138.027451 175.231017 129.10345 
C 178.927459 120.179448 180.830125 110.614103 180.830125 100.954833 
M 107.274244 100.954833 
C 107.274244 100.954833 107.274244 100.954833 107.274244 100.954833 
C 107.274244 100.954833 107.274244 100.954833 107.274244 100.954833 
C 107.274244 100.954833 107.274244 100.954833 107.274244 100.954833 
C 107.274244 100.954833 107.274244 100.954833 107.274244 100.954833 
C 107.274244 100.954833 107.274244 100.954833 107.274244 100.954833 
C 107.274244 100.954833 107.274244 100.954833 107.274244 100.954833 
C 107.274244 100.954833 107.274244 100.954833 107.274244 100.954833 
C 107.274244 100.954833 107.274244 100.954833 107.274244 100.954833 
C 107.274244 100.954833 107.274244 100.954833 107.274244 100.954833 
C 107.274244 100.954833 107.274244 100.954833 107.274244 100.954833 
C 107.274244 100.954833 107.274244 100.954833 107.274244 100.954833 
C 107.274244 100.954833 107.274244 100.954833 107.274244 100.954833 
C 107.274244 100.954833 107.274244 100.954833 107.274244 100.954833 
C 107.274244 100.954833 107.274244 100.954833 107.274244 100.954833 
C 107.274244 100.954833 107.274244 100.954833 107.274244 100.954833 
C 107.274244 100.954833 107.274244 100.954833 107.274244 100.954833 
M 180.830125 100.954833 
z
"/>
  </clipPath>
  <clipPath id="p6e348cb8d2">
   <path d="M 389.270125 100.954833 
C 389.270125 91.295563 387.367459 81.730218 383.671017 72.806216 
C 379.974574 63.882215 374.556241 55.773106 367.726106 48.942971 
C 360.895971 42.112836 352.786863 36.694503 343.862861 32.99806 
C 334.93886 29.301618 325.373514 27.398952 315.714244 27.398952 
C 306.054975 27.398952 296.489629 29.301618 287.565627 32.99806 
C 278.641626 36.694503 270.532518 42.112836 263.702382 48.942971 
C 256.872247 55.773106 251.453914 63.882215 247.757472 72.806216 
C 244.061029 81.730218 242.158364 91.295563 242.158364 100.954833 
C 242.158364 110.614103 244.061029 120.179448 247.757472 129.10345 
C 251.453914 138.027451 256.872247 146.13656 263.702382 152.966695 
C 270.532518 159.79683 278.641626 165.215163 287.565627 168.911606 
C 296.489629 172.608048 306.054975 174.510714 315.714244 174.510714 
C 325.373514 174.510714 334.93886 172.608048 343.862861 168.911606 
C 352.786863 165.215163 360.895971 159.79683 367.726106 152.966695 
C 374.556241 146.13656 379.974574 138.027451 383.671017 129.10345 
C 387.367459 120.179448 389.270125 110.614103 389.270125 100.954833 
M 315.714244 100.954833 
C 315.714244 100.954833 315.714244 100.954833 315.714244 100.954833 
C 315.714244 100.954833 315.714244 100.954833 315.714244 100.954833 
C 315.714244 100.954833 315.714244 100.954833 315.714244 100.954833 
C 315.714244 100.954833 315.714244 100.954833 315.714244 100.954833 
C 315.714244 100.954833 315.714244 100.954833 315.714244 100.954833 
C 315.714244 100.954833 315.714244 100.954833 315.714244 100.954833 
C 315.714244 100.954833 315.714244 100.954833 315.714244 100.954833 
C 315.714244 100.954833 315.714244 100.954833 315.714244 100.954833 
C 315.714244 100.954833 315.714244 100.954833 315.714244 100.954833 
C 315.714244 100.954833 315.714244 100.954833 315.714244 100.954833 
C 315.714244 100.954833 315.714244 100.954833 315.714244 100.954833 
C 315.714244 100.954833 315.714244 100.954833 315.714244 100.954833 
C 315.714244 100.954833 315.714244 100.954833 315.714244 100.954833 
C 315.714244 100.954833 315.714244 100.954833 315.714244 100.954833 
C 315.714244 100.954833 315.714244 100.954833 315.714244 100.954833 
C 315.714244 100.954833 315.714244 100.954833 315.714244 100.954833 
M 389.270125 100.954833 
z
"/>
  </clipPath>
 </defs>
</svg>
