<?xml version="1.0" encoding="utf-8" standalone="no"?>
<!DOCTYPE svg PUBLIC "-//W3C//DTD SVG 1.1//EN"
  "http://www.w3.org/Graphics/SVG/1.1/DTD/svg11.dtd">
<!-- Created with matplotlib (https://matplotlib.org/) -->
<svg height="216pt" version="1.1" viewBox="0 0 720 216" width="720pt" xmlns="http://www.w3.org/2000/svg" xmlns:xlink="http://www.w3.org/1999/xlink">
 <metadata>
  <rdf:RDF xmlns:cc="http://creativecommons.org/ns#" xmlns:dc="http://purl.org/dc/elements/1.1/" xmlns:rdf="http://www.w3.org/1999/02/22-rdf-syntax-ns#">
   <cc:Work>
    <dc:type rdf:resource="http://purl.org/dc/dcmitype/StillImage"/>
    <dc:date>2020-12-28T00:40:48.156498</dc:date>
    <dc:format>image/svg+xml</dc:format>
    <dc:creator>
     <cc:Agent>
      <dc:title>Matplotlib v3.3.2, https://matplotlib.org/</dc:title>
     </cc:Agent>
    </dc:creator>
   </cc:Work>
  </rdf:RDF>
 </metadata>
 <defs>
  <style type="text/css">*{stroke-linecap:butt;stroke-linejoin:round;}</style>
 </defs>
 <g id="figure_1">
  <g id="patch_1">
   <path d="M 0 216 
L 720 216 
L 720 0 
L 0 0 
z
" style="fill:none;"/>
  </g>
  <g id="axes_1">
   <g id="patch_2">
    <path d="M 90 189 
L 343.636364 189 
L 343.636364 25.92 
L 90 25.92 
z
" style="fill:#ffffff;"/>
   </g>
   <g id="matplotlib.axis_1">
    <g id="xtick_1">
     <g id="line2d_1">
      <path clip-path="url(#p68904b5766)" d="M 101.528926 189 
L 101.528926 25.92 
" style="fill:none;stroke:#b0b0b0;stroke-linecap:square;stroke-width:0.8;"/>
     </g>
     <g id="line2d_2">
      <defs>
       <path d="M 0 0 
L 0 3.5 
" id="m7342fbaa5c" style="stroke:#000000;stroke-width:0.8;"/>
      </defs>
      <g>
       <use style="stroke:#000000;stroke-width:0.8;" x="101.528926" xlink:href="#m7342fbaa5c" y="189"/>
      </g>
     </g>
     <g id="text_1">
      <!-- $\mathdefault{0}$ -->
      <g transform="translate(98.114681 205.685876)scale(0.14 -0.14)">
       <defs>
        <path d="M 42 31.84375 
C 42 37.96875 41.90625 48.421875 37.703125 56.453125 
C 34 63.484375 28.09375 66 22.90625 66 
C 18.09375 66 12 63.78125 8.203125 56.5625 
C 4.203125 49.015625 3.796875 39.671875 3.796875 31.84375 
C 3.796875 26.109375 3.90625 17.375 7 9.734375 
C 11.296875 -0.609375 19 -2 22.90625 -2 
C 27.5 -2 34.5 -0.109375 38.59375 9.4375 
C 41.59375 16.375 42 24.5 42 31.84375 
z
M 22.90625 -0.40625 
C 16.5 -0.40625 12.703125 5.125 11.296875 12.75 
C 10.203125 18.6875 10.203125 27.328125 10.203125 32.953125 
C 10.203125 40.6875 10.203125 47.109375 11.5 53.234375 
C 13.40625 61.78125 19 64.390625 22.90625 64.390625 
C 27 64.390625 32.296875 61.671875 34.203125 53.4375 
C 35.5 47.71875 35.59375 40.984375 35.59375 32.953125 
C 35.59375 26.421875 35.59375 18.375 34.40625 12.453125 
C 32.296875 1.5 26.40625 -0.40625 22.90625 -0.40625 
z
" id="CMR17-48"/>
       </defs>
       <use transform="scale(0.996264)" xlink:href="#CMR17-48"/>
      </g>
     </g>
    </g>
    <g id="xtick_2">
     <g id="line2d_3">
      <path clip-path="url(#p68904b5766)" d="M 147.644628 189 
L 147.644628 25.92 
" style="fill:none;stroke:#b0b0b0;stroke-linecap:square;stroke-width:0.8;"/>
     </g>
     <g id="line2d_4">
      <g>
       <use style="stroke:#000000;stroke-width:0.8;" x="147.644628" xlink:href="#m7342fbaa5c" y="189"/>
      </g>
     </g>
     <g id="text_2">
      <!-- $\mathdefault{1}$ -->
      <g transform="translate(144.230384 205.685876)scale(0.14 -0.14)">
       <defs>
        <path d="M 26.59375 63.796875 
C 26.59375 65.890625 26.5 66 25.09375 66 
C 21.203125 61.359375 15.296875 59.890625 9.703125 59.6875 
C 9.40625 59.6875 8.90625 59.6875 8.796875 59.5 
C 8.703125 59.296875 8.703125 59.09375 8.703125 57 
C 11.796875 57 17 57.59375 21 59.984375 
L 21 7.296875 
C 21 3.796875 20.796875 2.59375 12.203125 2.59375 
L 9.203125 2.59375 
L 9.203125 0 
C 14 0.09375 19 0.1875 23.796875 0.1875 
C 28.59375 0.1875 33.59375 0.09375 38.40625 0 
L 38.40625 2.59375 
L 35.40625 2.59375 
C 26.796875 2.59375 26.59375 3.6875 26.59375 7.296875 
z
" id="CMR17-49"/>
       </defs>
       <use transform="scale(0.996264)" xlink:href="#CMR17-49"/>
      </g>
     </g>
    </g>
    <g id="xtick_3">
     <g id="line2d_5">
      <path clip-path="url(#p68904b5766)" d="M 193.760331 189 
L 193.760331 25.92 
" style="fill:none;stroke:#b0b0b0;stroke-linecap:square;stroke-width:0.8;"/>
     </g>
     <g id="line2d_6">
      <g>
       <use style="stroke:#000000;stroke-width:0.8;" x="193.760331" xlink:href="#m7342fbaa5c" y="189"/>
      </g>
     </g>
     <g id="text_3">
      <!-- $\mathdefault{2}$ -->
      <g transform="translate(190.346086 205.685876)scale(0.14 -0.14)">
       <defs>
        <path d="M 41.703125 15.46875 
L 39.90625 15.46875 
C 38.90625 8.390625 38.09375 7.1875 37.703125 6.59375 
C 37.203125 5.796875 30 5.796875 28.59375 5.796875 
L 9.40625 5.796875 
C 13 9.6875 20 16.765625 28.5 24.9375 
C 34.59375 30.71875 41.703125 37.5 41.703125 47.390625 
C 41.703125 59.1875 32.296875 66 21.796875 66 
C 10.796875 66 4.09375 56.296875 4.09375 47.296875 
C 4.09375 43.390625 7 42.890625 8.203125 42.890625 
C 9.203125 42.890625 12.203125 43.484375 12.203125 46.984375 
C 12.203125 50.09375 9.59375 51 8.203125 51 
C 7.59375 51 7 50.890625 6.59375 50.6875 
C 8.5 59.1875 14.296875 63.390625 20.40625 63.390625 
C 29.09375 63.390625 34.796875 56.5 34.796875 47.390625 
C 34.796875 38.703125 29.703125 31.21875 24 24.734375 
L 4.09375 2.296875 
L 4.09375 0 
L 39.296875 0 
z
" id="CMR17-50"/>
       </defs>
       <use transform="scale(0.996264)" xlink:href="#CMR17-50"/>
      </g>
     </g>
    </g>
    <g id="xtick_4">
     <g id="line2d_7">
      <path clip-path="url(#p68904b5766)" d="M 239.876033 189 
L 239.876033 25.92 
" style="fill:none;stroke:#b0b0b0;stroke-linecap:square;stroke-width:0.8;"/>
     </g>
     <g id="line2d_8">
      <g>
       <use style="stroke:#000000;stroke-width:0.8;" x="239.876033" xlink:href="#m7342fbaa5c" y="189"/>
      </g>
     </g>
     <g id="text_4">
      <!-- $\mathdefault{3}$ -->
      <g transform="translate(236.461789 205.685876)scale(0.14 -0.14)">
       <defs>
        <path d="M 22.09375 34 
C 31 34 34.90625 26.140625 34.90625 17.09375 
C 34.90625 5.03125 28.5 0.390625 22.703125 0.390625 
C 17.40625 0.390625 8.796875 3.015625 6.09375 10.796875 
C 6.59375 10.59375 7.09375 10.59375 7.59375 10.59375 
C 10 10.59375 11.796875 12.1875 11.796875 14.796875 
C 11.796875 17.6875 9.59375 19 7.59375 19 
C 5.90625 19 3.296875 18.1875 3.296875 14.484375 
C 3.296875 5.234375 12.296875 -2 22.90625 -2 
C 34 -2 42.5 6.75 42.5 16.984375 
C 42.5 26.84375 34.5 34 25 35.09375 
C 32.59375 36.671875 39.90625 43.375 39.90625 52.390625 
C 39.90625 60.25 32 66 23 66 
C 13.90625 66 5.90625 60.34375 5.90625 52.296875 
C 5.90625 48.796875 8.5 48.1875 9.796875 48.1875 
C 11.90625 48.1875 13.703125 49.484375 13.703125 52.09375 
C 13.703125 54.6875 11.90625 56 9.796875 56 
C 9.40625 56 8.90625 56 8.5 55.796875 
C 11.40625 62.484375 19.296875 63.6875 22.796875 63.6875 
C 26.296875 63.6875 32.90625 61.96875 32.90625 52.296875 
C 32.90625 49.484375 32.5 44.546875 29.09375 40.21875 
C 26.09375 36.390625 22.703125 36.1875 19.40625 35.890625 
C 18.90625 35.890625 16.59375 35.6875 16.203125 35.6875 
C 15.5 35.59375 15.09375 35.5 15.09375 34.796875 
C 15.09375 34.09375 15.203125 34 17.203125 34 
z
" id="CMR17-51"/>
       </defs>
       <use transform="scale(0.996264)" xlink:href="#CMR17-51"/>
      </g>
     </g>
    </g>
    <g id="xtick_5">
     <g id="line2d_9">
      <path clip-path="url(#p68904b5766)" d="M 285.991736 189 
L 285.991736 25.92 
" style="fill:none;stroke:#b0b0b0;stroke-linecap:square;stroke-width:0.8;"/>
     </g>
     <g id="line2d_10">
      <g>
       <use style="stroke:#000000;stroke-width:0.8;" x="285.991736" xlink:href="#m7342fbaa5c" y="189"/>
      </g>
     </g>
     <g id="text_5">
      <!-- $\mathdefault{4}$ -->
      <g transform="translate(282.577491 205.685876)scale(0.14 -0.14)">
       <defs>
        <path d="M 33.59375 64.796875 
C 33.59375 66.890625 33.5 67 31.703125 67 
L 2 19.59375 
L 2 17 
L 27.796875 17 
L 27.796875 7.1875 
C 27.796875 3.59375 27.59375 2.59375 20.59375 2.59375 
L 18.703125 2.59375 
L 18.703125 0 
C 21.90625 0.1875 27.296875 0.1875 30.703125 0.1875 
C 34.09375 0.1875 39.5 0.1875 42.703125 0 
L 42.703125 2.59375 
L 40.796875 2.59375 
C 33.796875 2.59375 33.59375 3.59375 33.59375 7.1875 
L 33.59375 17 
L 43.796875 17 
L 43.796875 19.59375 
L 33.59375 19.59375 
z
M 28.09375 58.171875 
L 28.09375 19.59375 
L 4 19.59375 
z
" id="CMR17-52"/>
       </defs>
       <use transform="scale(0.996264)" xlink:href="#CMR17-52"/>
      </g>
     </g>
    </g>
    <g id="xtick_6">
     <g id="line2d_11">
      <path clip-path="url(#p68904b5766)" d="M 332.107438 189 
L 332.107438 25.92 
" style="fill:none;stroke:#b0b0b0;stroke-linecap:square;stroke-width:0.8;"/>
     </g>
     <g id="line2d_12">
      <g>
       <use style="stroke:#000000;stroke-width:0.8;" x="332.107438" xlink:href="#m7342fbaa5c" y="189"/>
      </g>
     </g>
     <g id="text_6">
      <!-- $\mathdefault{5}$ -->
      <g transform="translate(328.693194 205.685876)scale(0.14 -0.14)">
       <defs>
        <path d="M 11.40625 58.59375 
C 12.40625 58.1875 16.5 56.890625 20.703125 56.890625 
C 30 56.890625 35.09375 61.890625 38 64.6875 
C 38 65.484375 38 66 37.40625 66 
C 37.296875 66 37.09375 66 36.296875 65.59375 
C 32.796875 64.09375 28.703125 63 23.703125 63 
C 20.703125 63 16.203125 63.359375 11.296875 65.484375 
C 10.203125 66 10 66 9.90625 66 
C 9.40625 66 9.296875 65.890625 9.296875 63.90625 
L 9.296875 34.859375 
C 9.296875 33.015625 9.296875 32.5 10.296875 32.5 
C 10.796875 32.5 11 32.703125 11.5 33.421875 
C 14.703125 38.046875 19.09375 40 24.09375 40 
C 27.59375 40 35.09375 37.734375 35.09375 20.203125 
C 35.09375 16.984375 35.09375 11.1875 32.09375 6.59375 
C 29.59375 2.484375 25.703125 0.390625 21.40625 0.390625 
C 14.796875 0.390625 8.09375 4.984375 6.296875 12.6875 
C 6.703125 12.59375 7.5 12.390625 7.90625 12.390625 
C 9.203125 12.390625 11.703125 13.09375 11.703125 16.1875 
C 11.703125 18.890625 9.796875 20 7.90625 20 
C 5.59375 20 4.09375 18.59375 4.09375 15.796875 
C 4.09375 7.09375 11 -2 21.59375 -2 
C 31.90625 -2 41.703125 6.890625 41.703125 19.796875 
C 41.703125 32.09375 33.90625 41.59375 24.203125 41.59375 
C 19.09375 41.59375 14.796875 39.6875 11.40625 36 
z
" id="CMR17-53"/>
       </defs>
       <use transform="scale(0.996264)" xlink:href="#CMR17-53"/>
      </g>
     </g>
    </g>
   </g>
   <g id="matplotlib.axis_2">
    <g id="ytick_1">
     <g id="line2d_13">
      <path clip-path="url(#p68904b5766)" d="M 90 181.587273 
L 343.636364 181.587273 
" style="fill:none;stroke:#b0b0b0;stroke-linecap:square;stroke-width:0.8;"/>
     </g>
     <g id="line2d_14">
      <defs>
       <path d="M 0 0 
L -3.5 0 
" id="m80cf5b57b2" style="stroke:#000000;stroke-width:0.8;"/>
      </defs>
      <g>
       <use style="stroke:#000000;stroke-width:0.8;" x="90" xlink:href="#m80cf5b57b2" y="181.587273"/>
      </g>
     </g>
     <g id="text_7">
      <!-- $\mathdefault{0}$ -->
      <g transform="translate(76.171511 186.430211)scale(0.14 -0.14)">
       <use transform="scale(0.996264)" xlink:href="#CMR17-48"/>
      </g>
     </g>
    </g>
    <g id="ytick_2">
     <g id="line2d_15">
      <path clip-path="url(#p68904b5766)" d="M 90 122.285455 
L 343.636364 122.285455 
" style="fill:none;stroke:#b0b0b0;stroke-linecap:square;stroke-width:0.8;"/>
     </g>
     <g id="line2d_16">
      <g>
       <use style="stroke:#000000;stroke-width:0.8;" x="90" xlink:href="#m80cf5b57b2" y="122.285455"/>
      </g>
     </g>
     <g id="text_8">
      <!-- $\mathdefault{50}$ -->
      <g transform="translate(69.343023 127.128393)scale(0.14 -0.14)">
       <use transform="scale(0.996264)" xlink:href="#CMR17-53"/>
       <use transform="translate(45.690477 0)scale(0.996264)" xlink:href="#CMR17-48"/>
      </g>
     </g>
    </g>
    <g id="ytick_3">
     <g id="line2d_17">
      <path clip-path="url(#p68904b5766)" d="M 90 62.983636 
L 343.636364 62.983636 
" style="fill:none;stroke:#b0b0b0;stroke-linecap:square;stroke-width:0.8;"/>
     </g>
     <g id="line2d_18">
      <g>
       <use style="stroke:#000000;stroke-width:0.8;" x="90" xlink:href="#m80cf5b57b2" y="62.983636"/>
      </g>
     </g>
     <g id="text_9">
      <!-- $\mathdefault{100}$ -->
      <g transform="translate(62.514534 67.826575)scale(0.14 -0.14)">
       <use transform="scale(0.996264)" xlink:href="#CMR17-49"/>
       <use transform="translate(45.690477 0)scale(0.996264)" xlink:href="#CMR17-48"/>
       <use transform="translate(91.380954 0)scale(0.996264)" xlink:href="#CMR17-48"/>
      </g>
     </g>
    </g>
   </g>
   <g id="line2d_19">
    <path clip-path="url(#p68904b5766)" d="M 101.528926 181.587273 
L 103.858002 181.584247 
L 106.187077 181.575172 
L 108.516153 181.560045 
L 110.845229 181.538868 
L 113.174305 181.51164 
L 115.503381 181.478362 
L 117.832457 181.439033 
L 120.161533 181.393654 
L 122.490609 181.342224 
L 124.819684 181.284743 
L 127.14876 181.221212 
L 129.477836 181.15163 
L 131.806912 181.075998 
L 134.135988 180.994315 
L 136.465064 180.906582 
L 138.79414 180.812797 
L 141.123216 180.712963 
L 143.452292 180.607077 
L 145.781367 180.495141 
L 148.110443 180.377155 
L 150.439519 180.253118 
L 152.768595 180.12303 
L 155.097671 179.986892 
L 157.426747 179.844703 
L 159.755823 179.696464 
L 162.084899 179.542174 
L 164.413974 179.381833 
L 166.74305 179.215442 
L 169.072126 179.043 
L 171.401202 178.864508 
L 173.730278 178.679965 
L 176.059354 178.489371 
L 178.38843 178.292727 
L 180.717506 178.090033 
L 183.046582 177.881287 
L 185.375657 177.666491 
L 187.704733 177.445645 
L 190.033809 177.218748 
L 192.362885 176.9858 
L 194.691961 176.746802 
L 197.021037 176.501753 
L 199.350113 176.250654 
L 201.679189 175.993504 
L 204.008264 175.730303 
L 206.33734 175.461052 
L 208.666416 175.18575 
L 210.995492 174.904398 
L 213.324568 174.616995 
L 215.653644 174.323541 
L 217.98272 174.024037 
L 220.311796 173.718482 
L 222.640872 173.406877 
L 224.969947 173.089221 
L 227.299023 172.765515 
L 229.628099 172.435758 
L 231.957175 172.09995 
L 234.286251 171.758092 
L 236.615327 171.410183 
L 238.944403 171.056223 
L 241.273479 170.696213 
L 243.602554 170.330153 
L 245.93163 169.958042 
L 248.260706 169.57988 
L 250.589782 169.195667 
L 252.918858 168.805404 
L 255.247934 168.409091 
L 257.57701 168.006727 
L 259.906086 167.598312 
L 262.235162 167.183847 
L 264.564237 166.763331 
L 266.893313 166.336764 
L 269.222389 165.904147 
L 271.551465 165.46548 
L 273.880541 165.020761 
L 276.209617 164.569992 
L 278.538693 164.113173 
L 280.867769 163.650303 
L 283.196844 163.181382 
L 285.52592 162.706411 
L 287.854996 162.225389 
L 290.184072 161.738317 
L 292.513148 161.245194 
L 294.842224 160.746021 
L 297.1713 160.240796 
L 299.500376 159.729522 
L 301.829452 159.212196 
L 304.158527 158.68882 
L 306.487603 158.159394 
L 308.816679 157.623917 
L 311.145755 157.082389 
L 313.474831 156.534811 
L 315.803907 155.981182 
L 318.132983 155.421503 
L 320.462059 154.855773 
L 322.791134 154.283992 
L 325.12021 153.706161 
L 327.449286 153.122279 
L 329.778362 152.532347 
L 332.107438 151.936364 
" style="fill:none;stroke:#1f77b4;stroke-linecap:square;stroke-width:2;"/>
   </g>
   <g id="line2d_20">
    <path clip-path="url(#p68904b5766)" d="M 101.528926 181.587273 
L 103.858002 181.58712 
L 106.187077 181.58605 
L 108.516153 181.583147 
L 110.845229 181.577494 
L 113.174305 181.568174 
L 115.503381 181.55427 
L 117.832457 181.534865 
L 120.161533 181.509043 
L 122.490609 181.475887 
L 124.819684 181.43448 
L 127.14876 181.383906 
L 129.477836 181.323247 
L 131.806912 181.251587 
L 134.135988 181.16801 
L 136.465064 181.071598 
L 138.79414 180.961434 
L 141.123216 180.836602 
L 143.452292 180.696186 
L 145.781367 180.539268 
L 148.110443 180.364932 
L 150.439519 180.17226 
L 152.768595 179.960337 
L 155.097671 179.728245 
L 157.426747 179.475067 
L 159.755823 179.199888 
L 162.084899 178.901789 
L 164.413974 178.579855 
L 166.74305 178.233169 
L 169.072126 177.860813 
L 171.401202 177.461871 
L 173.730278 177.035427 
L 176.059354 176.580564 
L 178.38843 176.096364 
L 180.717506 175.581911 
L 183.046582 175.036288 
L 185.375657 174.458579 
L 187.704733 173.847867 
L 190.033809 173.203235 
L 192.362885 172.523766 
L 194.691961 171.808544 
L 197.021037 171.056651 
L 199.350113 170.267172 
L 201.679189 169.439188 
L 204.008264 168.571785 
L 206.33734 167.664043 
L 208.666416 166.715048 
L 210.995492 165.723883 
L 213.324568 164.689629 
L 215.653644 163.611371 
L 217.98272 162.488193 
L 220.311796 161.319176 
L 222.640872 160.103405 
L 224.969947 158.839963 
L 227.299023 157.527933 
L 229.628099 156.166397 
L 231.957175 154.754441 
L 234.286251 153.291145 
L 236.615327 151.775595 
L 238.944403 150.206873 
L 241.273479 148.584063 
L 243.602554 146.906247 
L 245.93163 145.172509 
L 248.260706 143.381932 
L 250.589782 141.533599 
L 252.918858 139.626594 
L 255.247934 137.66 
L 257.57701 135.6329 
L 259.906086 133.544377 
L 262.235162 131.393515 
L 264.564237 129.179397 
L 266.893313 126.901106 
L 269.222389 124.557726 
L 271.551465 122.148338 
L 273.880541 119.672028 
L 276.209617 117.127878 
L 278.538693 114.514971 
L 280.867769 111.832391 
L 283.196844 109.07922 
L 285.52592 106.254542 
L 287.854996 103.357441 
L 290.184072 100.387 
L 292.513148 97.342301 
L 294.842224 94.222428 
L 297.1713 91.026464 
L 299.500376 87.753493 
L 301.829452 84.402598 
L 304.158527 80.972861 
L 306.487603 77.463367 
L 308.816679 73.873198 
L 311.145755 70.201438 
L 313.474831 66.44717 
L 315.803907 62.609478 
L 318.132983 58.687443 
L 320.462059 54.680151 
L 322.791134 50.586683 
L 325.12021 46.406124 
L 327.449286 42.137556 
L 329.778362 37.780063 
L 332.107438 33.332727 
" style="fill:none;stroke:#ff7f0e;stroke-linecap:square;stroke-width:2;"/>
   </g>
   <g id="patch_3">
    <path d="M 90 189 
L 90 25.92 
" style="fill:none;stroke:#000000;stroke-linecap:square;stroke-linejoin:miter;stroke-width:0.8;"/>
   </g>
   <g id="patch_4">
    <path d="M 343.636364 189 
L 343.636364 25.92 
" style="fill:none;stroke:#000000;stroke-linecap:square;stroke-linejoin:miter;stroke-width:0.8;"/>
   </g>
   <g id="patch_5">
    <path d="M 90 189 
L 343.636364 189 
" style="fill:none;stroke:#000000;stroke-linecap:square;stroke-linejoin:miter;stroke-width:0.8;"/>
   </g>
   <g id="patch_6">
    <path d="M 90 25.92 
L 343.636364 25.92 
" style="fill:none;stroke:#000000;stroke-linecap:square;stroke-linejoin:miter;stroke-width:0.8;"/>
   </g>
  </g>
  <g id="axes_2">
   <g id="patch_7">
    <path d="M 394.363636 189 
L 648 189 
L 648 25.92 
L 394.363636 25.92 
z
" style="fill:#ffffff;"/>
   </g>
   <g id="matplotlib.axis_3">
    <g id="xtick_7">
     <g id="line2d_21">
      <path clip-path="url(#pd2cb8c8cac)" d="M 405.892562 189 
L 405.892562 25.92 
" style="fill:none;stroke:#0000ff;stroke-dasharray:1.85,0.8;stroke-dashoffset:0;stroke-opacity:0.5;stroke-width:0.5;"/>
     </g>
     <g id="line2d_22">
      <g>
       <use style="stroke:#000000;stroke-width:0.8;" x="405.892562" xlink:href="#m7342fbaa5c" y="189"/>
      </g>
     </g>
     <g id="text_10">
      <!-- $\mathdefault{0}$ -->
      <g transform="translate(402.478318 205.685876)scale(0.14 -0.14)">
       <use transform="scale(0.996264)" xlink:href="#CMR17-48"/>
      </g>
     </g>
    </g>
    <g id="xtick_8">
     <g id="line2d_23">
      <path clip-path="url(#pd2cb8c8cac)" d="M 452.008264 189 
L 452.008264 25.92 
" style="fill:none;stroke:#0000ff;stroke-dasharray:1.85,0.8;stroke-dashoffset:0;stroke-opacity:0.5;stroke-width:0.5;"/>
     </g>
     <g id="line2d_24">
      <g>
       <use style="stroke:#000000;stroke-width:0.8;" x="452.008264" xlink:href="#m7342fbaa5c" y="189"/>
      </g>
     </g>
     <g id="text_11">
      <!-- $\mathdefault{1}$ -->
      <g transform="translate(448.59402 205.685876)scale(0.14 -0.14)">
       <use transform="scale(0.996264)" xlink:href="#CMR17-49"/>
      </g>
     </g>
    </g>
    <g id="xtick_9">
     <g id="line2d_25">
      <path clip-path="url(#pd2cb8c8cac)" d="M 498.123967 189 
L 498.123967 25.92 
" style="fill:none;stroke:#0000ff;stroke-dasharray:1.85,0.8;stroke-dashoffset:0;stroke-opacity:0.5;stroke-width:0.5;"/>
     </g>
     <g id="line2d_26">
      <g>
       <use style="stroke:#000000;stroke-width:0.8;" x="498.123967" xlink:href="#m7342fbaa5c" y="189"/>
      </g>
     </g>
     <g id="text_12">
      <!-- $\mathdefault{2}$ -->
      <g transform="translate(494.709723 205.685876)scale(0.14 -0.14)">
       <use transform="scale(0.996264)" xlink:href="#CMR17-50"/>
      </g>
     </g>
    </g>
    <g id="xtick_10">
     <g id="line2d_27">
      <path clip-path="url(#pd2cb8c8cac)" d="M 544.239669 189 
L 544.239669 25.92 
" style="fill:none;stroke:#0000ff;stroke-dasharray:1.85,0.8;stroke-dashoffset:0;stroke-opacity:0.5;stroke-width:0.5;"/>
     </g>
     <g id="line2d_28">
      <g>
       <use style="stroke:#000000;stroke-width:0.8;" x="544.239669" xlink:href="#m7342fbaa5c" y="189"/>
      </g>
     </g>
     <g id="text_13">
      <!-- $\mathdefault{3}$ -->
      <g transform="translate(540.825425 205.685876)scale(0.14 -0.14)">
       <use transform="scale(0.996264)" xlink:href="#CMR17-51"/>
      </g>
     </g>
    </g>
    <g id="xtick_11">
     <g id="line2d_29">
      <path clip-path="url(#pd2cb8c8cac)" d="M 590.355372 189 
L 590.355372 25.92 
" style="fill:none;stroke:#0000ff;stroke-dasharray:1.85,0.8;stroke-dashoffset:0;stroke-opacity:0.5;stroke-width:0.5;"/>
     </g>
     <g id="line2d_30">
      <g>
       <use style="stroke:#000000;stroke-width:0.8;" x="590.355372" xlink:href="#m7342fbaa5c" y="189"/>
      </g>
     </g>
     <g id="text_14">
      <!-- $\mathdefault{4}$ -->
      <g transform="translate(586.941128 205.685876)scale(0.14 -0.14)">
       <use transform="scale(0.996264)" xlink:href="#CMR17-52"/>
      </g>
     </g>
    </g>
    <g id="xtick_12">
     <g id="line2d_31">
      <path clip-path="url(#pd2cb8c8cac)" d="M 636.471074 189 
L 636.471074 25.92 
" style="fill:none;stroke:#0000ff;stroke-dasharray:1.85,0.8;stroke-dashoffset:0;stroke-opacity:0.5;stroke-width:0.5;"/>
     </g>
     <g id="line2d_32">
      <g>
       <use style="stroke:#000000;stroke-width:0.8;" x="636.471074" xlink:href="#m7342fbaa5c" y="189"/>
      </g>
     </g>
     <g id="text_15">
      <!-- $\mathdefault{5}$ -->
      <g transform="translate(633.05683 205.685876)scale(0.14 -0.14)">
       <use transform="scale(0.996264)" xlink:href="#CMR17-53"/>
      </g>
     </g>
    </g>
   </g>
   <g id="matplotlib.axis_4">
    <g id="ytick_4">
     <g id="line2d_33">
      <path clip-path="url(#pd2cb8c8cac)" d="M 394.363636 181.587273 
L 648 181.587273 
" style="fill:none;stroke:#0000ff;stroke-dasharray:1.85,0.8;stroke-dashoffset:0;stroke-opacity:0.5;stroke-width:0.5;"/>
     </g>
     <g id="line2d_34">
      <g>
       <use style="stroke:#000000;stroke-width:0.8;" x="394.363636" xlink:href="#m80cf5b57b2" y="181.587273"/>
      </g>
     </g>
     <g id="text_16">
      <!-- $\mathdefault{0}$ -->
      <g transform="translate(380.535148 186.430211)scale(0.14 -0.14)">
       <use transform="scale(0.996264)" xlink:href="#CMR17-48"/>
      </g>
     </g>
    </g>
    <g id="ytick_5">
     <g id="line2d_35">
      <path clip-path="url(#pd2cb8c8cac)" d="M 394.363636 122.285455 
L 648 122.285455 
" style="fill:none;stroke:#0000ff;stroke-dasharray:1.85,0.8;stroke-dashoffset:0;stroke-opacity:0.5;stroke-width:0.5;"/>
     </g>
     <g id="line2d_36">
      <g>
       <use style="stroke:#000000;stroke-width:0.8;" x="394.363636" xlink:href="#m80cf5b57b2" y="122.285455"/>
      </g>
     </g>
     <g id="text_17">
      <!-- $\mathdefault{50}$ -->
      <g transform="translate(373.706659 127.128393)scale(0.14 -0.14)">
       <use transform="scale(0.996264)" xlink:href="#CMR17-53"/>
       <use transform="translate(45.690477 0)scale(0.996264)" xlink:href="#CMR17-48"/>
      </g>
     </g>
    </g>
    <g id="ytick_6">
     <g id="line2d_37">
      <path clip-path="url(#pd2cb8c8cac)" d="M 394.363636 62.983636 
L 648 62.983636 
" style="fill:none;stroke:#0000ff;stroke-dasharray:1.85,0.8;stroke-dashoffset:0;stroke-opacity:0.5;stroke-width:0.5;"/>
     </g>
     <g id="line2d_38">
      <g>
       <use style="stroke:#000000;stroke-width:0.8;" x="394.363636" xlink:href="#m80cf5b57b2" y="62.983636"/>
      </g>
     </g>
     <g id="text_18">
      <!-- $\mathdefault{100}$ -->
      <g transform="translate(366.87817 67.826575)scale(0.14 -0.14)">
       <use transform="scale(0.996264)" xlink:href="#CMR17-49"/>
       <use transform="translate(45.690477 0)scale(0.996264)" xlink:href="#CMR17-48"/>
       <use transform="translate(91.380954 0)scale(0.996264)" xlink:href="#CMR17-48"/>
      </g>
     </g>
    </g>
   </g>
   <g id="line2d_39">
    <path clip-path="url(#pd2cb8c8cac)" d="M 405.892562 181.587273 
L 408.221638 181.584247 
L 410.550714 181.575172 
L 412.87979 181.560045 
L 415.208866 181.538868 
L 417.537941 181.51164 
L 419.867017 181.478362 
L 422.196093 181.439033 
L 424.525169 181.393654 
L 426.854245 181.342224 
L 429.183321 181.284743 
L 431.512397 181.221212 
L 433.841473 181.15163 
L 436.170548 181.075998 
L 438.499624 180.994315 
L 440.8287 180.906582 
L 443.157776 180.812797 
L 445.486852 180.712963 
L 447.815928 180.607077 
L 450.145004 180.495141 
L 452.47408 180.377155 
L 454.803156 180.253118 
L 457.132231 180.12303 
L 459.461307 179.986892 
L 461.790383 179.844703 
L 464.119459 179.696464 
L 466.448535 179.542174 
L 468.777611 179.381833 
L 471.106687 179.215442 
L 473.435763 179.043 
L 475.764838 178.864508 
L 478.093914 178.679965 
L 480.42299 178.489371 
L 482.752066 178.292727 
L 485.081142 178.090033 
L 487.410218 177.881287 
L 489.739294 177.666491 
L 492.06837 177.445645 
L 494.397446 177.218748 
L 496.726521 176.9858 
L 499.055597 176.746802 
L 501.384673 176.501753 
L 503.713749 176.250654 
L 506.042825 175.993504 
L 508.371901 175.730303 
L 510.700977 175.461052 
L 513.030053 175.18575 
L 515.359128 174.904398 
L 517.688204 174.616995 
L 520.01728 174.323541 
L 522.346356 174.024037 
L 524.675432 173.718482 
L 527.004508 173.406877 
L 529.333584 173.089221 
L 531.66266 172.765515 
L 533.991736 172.435758 
L 536.320811 172.09995 
L 538.649887 171.758092 
L 540.978963 171.410183 
L 543.308039 171.056223 
L 545.637115 170.696213 
L 547.966191 170.330153 
L 550.295267 169.958042 
L 552.624343 169.57988 
L 554.953418 169.195667 
L 557.282494 168.805404 
L 559.61157 168.409091 
L 561.940646 168.006727 
L 564.269722 167.598312 
L 566.598798 167.183847 
L 568.927874 166.763331 
L 571.25695 166.336764 
L 573.586026 165.904147 
L 575.915101 165.46548 
L 578.244177 165.020761 
L 580.573253 164.569992 
L 582.902329 164.113173 
L 585.231405 163.650303 
L 587.560481 163.181382 
L 589.889557 162.706411 
L 592.218633 162.225389 
L 594.547708 161.738317 
L 596.876784 161.245194 
L 599.20586 160.746021 
L 601.534936 160.240796 
L 603.864012 159.729522 
L 606.193088 159.212196 
L 608.522164 158.68882 
L 610.85124 158.159394 
L 613.180316 157.623917 
L 615.509391 157.082389 
L 617.838467 156.534811 
L 620.167543 155.981182 
L 622.496619 155.421503 
L 624.825695 154.855773 
L 627.154771 154.283992 
L 629.483847 153.706161 
L 631.812923 153.122279 
L 634.141998 152.532347 
L 636.471074 151.936364 
" style="fill:none;stroke:#1f77b4;stroke-linecap:square;stroke-width:2;"/>
   </g>
   <g id="line2d_40">
    <path clip-path="url(#pd2cb8c8cac)" d="M 405.892562 181.587273 
L 408.221638 181.58712 
L 410.550714 181.58605 
L 412.87979 181.583147 
L 415.208866 181.577494 
L 417.537941 181.568174 
L 419.867017 181.55427 
L 422.196093 181.534865 
L 424.525169 181.509043 
L 426.854245 181.475887 
L 429.183321 181.43448 
L 431.512397 181.383906 
L 433.841473 181.323247 
L 436.170548 181.251587 
L 438.499624 181.16801 
L 440.8287 181.071598 
L 443.157776 180.961434 
L 445.486852 180.836602 
L 447.815928 180.696186 
L 450.145004 180.539268 
L 452.47408 180.364932 
L 454.803156 180.17226 
L 457.132231 179.960337 
L 459.461307 179.728245 
L 461.790383 179.475067 
L 464.119459 179.199888 
L 466.448535 178.901789 
L 468.777611 178.579855 
L 471.106687 178.233169 
L 473.435763 177.860813 
L 475.764838 177.461871 
L 478.093914 177.035427 
L 480.42299 176.580564 
L 482.752066 176.096364 
L 485.081142 175.581911 
L 487.410218 175.036288 
L 489.739294 174.458579 
L 492.06837 173.847867 
L 494.397446 173.203235 
L 496.726521 172.523766 
L 499.055597 171.808544 
L 501.384673 171.056651 
L 503.713749 170.267172 
L 506.042825 169.439188 
L 508.371901 168.571785 
L 510.700977 167.664043 
L 513.030053 166.715048 
L 515.359128 165.723883 
L 517.688204 164.689629 
L 520.01728 163.611371 
L 522.346356 162.488193 
L 524.675432 161.319176 
L 527.004508 160.103405 
L 529.333584 158.839963 
L 531.66266 157.527933 
L 533.991736 156.166397 
L 536.320811 154.754441 
L 538.649887 153.291145 
L 540.978963 151.775595 
L 543.308039 150.206873 
L 545.637115 148.584063 
L 547.966191 146.906247 
L 550.295267 145.172509 
L 552.624343 143.381932 
L 554.953418 141.533599 
L 557.282494 139.626594 
L 559.61157 137.66 
L 561.940646 135.6329 
L 564.269722 133.544377 
L 566.598798 131.393515 
L 568.927874 129.179397 
L 571.25695 126.901106 
L 573.586026 124.557726 
L 575.915101 122.148338 
L 578.244177 119.672028 
L 580.573253 117.127878 
L 582.902329 114.514971 
L 585.231405 111.832391 
L 587.560481 109.07922 
L 589.889557 106.254542 
L 592.218633 103.357441 
L 594.547708 100.387 
L 596.876784 97.342301 
L 599.20586 94.222428 
L 601.534936 91.026464 
L 603.864012 87.753493 
L 606.193088 84.402598 
L 608.522164 80.972861 
L 610.85124 77.463367 
L 613.180316 73.873198 
L 615.509391 70.201438 
L 617.838467 66.44717 
L 620.167543 62.609478 
L 622.496619 58.687443 
L 624.825695 54.680151 
L 627.154771 50.586683 
L 629.483847 46.406124 
L 631.812923 42.137556 
L 634.141998 37.780063 
L 636.471074 33.332727 
" style="fill:none;stroke:#ff7f0e;stroke-linecap:square;stroke-width:2;"/>
   </g>
   <g id="patch_8">
    <path d="M 394.363636 189 
L 394.363636 25.92 
" style="fill:none;stroke:#000000;stroke-linecap:square;stroke-linejoin:miter;stroke-width:0.8;"/>
   </g>
   <g id="patch_9">
    <path d="M 648 189 
L 648 25.92 
" style="fill:none;stroke:#000000;stroke-linecap:square;stroke-linejoin:miter;stroke-width:0.8;"/>
   </g>
   <g id="patch_10">
    <path d="M 394.363636 189 
L 648 189 
" style="fill:none;stroke:#000000;stroke-linecap:square;stroke-linejoin:miter;stroke-width:0.8;"/>
   </g>
   <g id="patch_11">
    <path d="M 394.363636 25.92 
L 648 25.92 
" style="fill:none;stroke:#000000;stroke-linecap:square;stroke-linejoin:miter;stroke-width:0.8;"/>
   </g>
  </g>
 </g>
 <defs>
  <clipPath id="p68904b5766">
   <rect height="163.08" width="253.636364" x="90" y="25.92"/>
  </clipPath>
  <clipPath id="pd2cb8c8cac">
   <rect height="163.08" width="253.636364" x="394.363636" y="25.92"/>
  </clipPath>
 </defs>
</svg>
