<?xml version="1.0" encoding="utf-8" standalone="no"?>
<!DOCTYPE svg PUBLIC "-//W3C//DTD SVG 1.1//EN"
  "http://www.w3.org/Graphics/SVG/1.1/DTD/svg11.dtd">
<!-- Created with matplotlib (https://matplotlib.org/) -->
<svg height="288pt" version="1.1" viewBox="0 0 864 288" width="864pt" xmlns="http://www.w3.org/2000/svg" xmlns:xlink="http://www.w3.org/1999/xlink">
 <metadata>
  <rdf:RDF xmlns:cc="http://creativecommons.org/ns#" xmlns:dc="http://purl.org/dc/elements/1.1/" xmlns:rdf="http://www.w3.org/1999/02/22-rdf-syntax-ns#">
   <cc:Work>
    <dc:type rdf:resource="http://purl.org/dc/dcmitype/StillImage"/>
    <dc:date>2020-12-28T00:15:54.941671</dc:date>
    <dc:format>image/svg+xml</dc:format>
    <dc:creator>
     <cc:Agent>
      <dc:title>Matplotlib v3.3.2, https://matplotlib.org/</dc:title>
     </cc:Agent>
    </dc:creator>
   </cc:Work>
  </rdf:RDF>
 </metadata>
 <defs>
  <style type="text/css">*{stroke-linecap:butt;stroke-linejoin:round;}</style>
 </defs>
 <g id="figure_1">
  <g id="patch_1">
   <path d="M 0 288 
L 864 288 
L 864 0 
L 0 0 
z
" style="fill:none;"/>
  </g>
  <g id="axes_1">
   <g id="patch_2">
    <path d="M 108 252 
L 304.941176 252 
L 304.941176 34.56 
L 108 34.56 
z
" style="fill:#ffffff;"/>
   </g>
   <g id="matplotlib.axis_1">
    <g id="xtick_1">
     <g id="line2d_1">
      <defs>
       <path d="M 0 0 
L 0 3.5 
" id="mbf36b6c67a" style="stroke:#000000;stroke-width:0.8;"/>
      </defs>
      <g>
       <use style="stroke:#000000;stroke-width:0.8;" x="116.951872" xlink:href="#mbf36b6c67a" y="252"/>
      </g>
     </g>
     <g id="text_1">
      <!-- $\mathdefault{0}$ -->
      <g transform="translate(113.537627 268.685876)scale(0.14 -0.14)">
       <defs>
        <path d="M 42 31.84375 
C 42 37.96875 41.90625 48.421875 37.703125 56.453125 
C 34 63.484375 28.09375 66 22.90625 66 
C 18.09375 66 12 63.78125 8.203125 56.5625 
C 4.203125 49.015625 3.796875 39.671875 3.796875 31.84375 
C 3.796875 26.109375 3.90625 17.375 7 9.734375 
C 11.296875 -0.609375 19 -2 22.90625 -2 
C 27.5 -2 34.5 -0.109375 38.59375 9.4375 
C 41.59375 16.375 42 24.5 42 31.84375 
z
M 22.90625 -0.40625 
C 16.5 -0.40625 12.703125 5.125 11.296875 12.75 
C 10.203125 18.6875 10.203125 27.328125 10.203125 32.953125 
C 10.203125 40.6875 10.203125 47.109375 11.5 53.234375 
C 13.40625 61.78125 19 64.390625 22.90625 64.390625 
C 27 64.390625 32.296875 61.671875 34.203125 53.4375 
C 35.5 47.71875 35.59375 40.984375 35.59375 32.953125 
C 35.59375 26.421875 35.59375 18.375 34.40625 12.453125 
C 32.296875 1.5 26.40625 -0.40625 22.90625 -0.40625 
z
" id="CMR17-48"/>
       </defs>
       <use transform="scale(0.996264)" xlink:href="#CMR17-48"/>
      </g>
     </g>
    </g>
    <g id="xtick_2">
     <g id="line2d_2">
      <g>
       <use style="stroke:#000000;stroke-width:0.8;" x="188.566845" xlink:href="#mbf36b6c67a" y="252"/>
      </g>
     </g>
     <g id="text_2">
      <!-- $\mathdefault{2}$ -->
      <g transform="translate(185.152601 268.685876)scale(0.14 -0.14)">
       <defs>
        <path d="M 41.703125 15.46875 
L 39.90625 15.46875 
C 38.90625 8.390625 38.09375 7.1875 37.703125 6.59375 
C 37.203125 5.796875 30 5.796875 28.59375 5.796875 
L 9.40625 5.796875 
C 13 9.6875 20 16.765625 28.5 24.9375 
C 34.59375 30.71875 41.703125 37.5 41.703125 47.390625 
C 41.703125 59.1875 32.296875 66 21.796875 66 
C 10.796875 66 4.09375 56.296875 4.09375 47.296875 
C 4.09375 43.390625 7 42.890625 8.203125 42.890625 
C 9.203125 42.890625 12.203125 43.484375 12.203125 46.984375 
C 12.203125 50.09375 9.59375 51 8.203125 51 
C 7.59375 51 7 50.890625 6.59375 50.6875 
C 8.5 59.1875 14.296875 63.390625 20.40625 63.390625 
C 29.09375 63.390625 34.796875 56.5 34.796875 47.390625 
C 34.796875 38.703125 29.703125 31.21875 24 24.734375 
L 4.09375 2.296875 
L 4.09375 0 
L 39.296875 0 
z
" id="CMR17-50"/>
       </defs>
       <use transform="scale(0.996264)" xlink:href="#CMR17-50"/>
      </g>
     </g>
    </g>
    <g id="xtick_3">
     <g id="line2d_3">
      <g>
       <use style="stroke:#000000;stroke-width:0.8;" x="260.181818" xlink:href="#mbf36b6c67a" y="252"/>
      </g>
     </g>
     <g id="text_3">
      <!-- $\mathdefault{4}$ -->
      <g transform="translate(256.767574 268.685876)scale(0.14 -0.14)">
       <defs>
        <path d="M 33.59375 64.796875 
C 33.59375 66.890625 33.5 67 31.703125 67 
L 2 19.59375 
L 2 17 
L 27.796875 17 
L 27.796875 7.1875 
C 27.796875 3.59375 27.59375 2.59375 20.59375 2.59375 
L 18.703125 2.59375 
L 18.703125 0 
C 21.90625 0.1875 27.296875 0.1875 30.703125 0.1875 
C 34.09375 0.1875 39.5 0.1875 42.703125 0 
L 42.703125 2.59375 
L 40.796875 2.59375 
C 33.796875 2.59375 33.59375 3.59375 33.59375 7.1875 
L 33.59375 17 
L 43.796875 17 
L 43.796875 19.59375 
L 33.59375 19.59375 
z
M 28.09375 58.171875 
L 28.09375 19.59375 
L 4 19.59375 
z
" id="CMR17-52"/>
       </defs>
       <use transform="scale(0.996264)" xlink:href="#CMR17-52"/>
      </g>
     </g>
    </g>
   </g>
   <g id="matplotlib.axis_2">
    <g id="ytick_1">
     <g id="line2d_4">
      <defs>
       <path d="M 0 0 
L -3.5 0 
" id="mcac3ed4d35" style="stroke:#000000;stroke-width:0.8;"/>
      </defs>
      <g>
       <use style="stroke:#000000;stroke-width:0.8;" x="108" xlink:href="#mcac3ed4d35" y="242.116364"/>
      </g>
     </g>
     <g id="text_4">
      <!-- $\mathdefault{0}$ -->
      <g transform="translate(94.171511 246.959302)scale(0.14 -0.14)">
       <use transform="scale(0.996264)" xlink:href="#CMR17-48"/>
      </g>
     </g>
    </g>
    <g id="ytick_2">
     <g id="line2d_5">
      <g>
       <use style="stroke:#000000;stroke-width:0.8;" x="108" xlink:href="#mcac3ed4d35" y="210.488727"/>
      </g>
     </g>
     <g id="text_5">
      <!-- $\mathdefault{20}$ -->
      <g transform="translate(87.343023 215.331665)scale(0.14 -0.14)">
       <use transform="scale(0.996264)" xlink:href="#CMR17-50"/>
       <use transform="translate(45.690477 0)scale(0.996264)" xlink:href="#CMR17-48"/>
      </g>
     </g>
    </g>
    <g id="ytick_3">
     <g id="line2d_6">
      <g>
       <use style="stroke:#000000;stroke-width:0.8;" x="108" xlink:href="#mcac3ed4d35" y="178.861091"/>
      </g>
     </g>
     <g id="text_6">
      <!-- $\mathdefault{40}$ -->
      <g transform="translate(87.343023 183.704029)scale(0.14 -0.14)">
       <use transform="scale(0.996264)" xlink:href="#CMR17-52"/>
       <use transform="translate(45.690477 0)scale(0.996264)" xlink:href="#CMR17-48"/>
      </g>
     </g>
    </g>
    <g id="ytick_4">
     <g id="line2d_7">
      <g>
       <use style="stroke:#000000;stroke-width:0.8;" x="108" xlink:href="#mcac3ed4d35" y="147.233455"/>
      </g>
     </g>
     <g id="text_7">
      <!-- $\mathdefault{60}$ -->
      <g transform="translate(87.343023 152.076393)scale(0.14 -0.14)">
       <defs>
        <path d="M 10.59375 34.34375 
C 10.59375 58 21.796875 63.6875 28.296875 63.6875 
C 30.40625 63.6875 35.5 63.265625 37.5 59.09375 
C 35.90625 59.09375 32.90625 59.09375 32.90625 55.59375 
C 32.90625 52.890625 35.09375 52 36.5 52 
C 37.40625 52 40.09375 52.390625 40.09375 55.796875 
C 40.09375 62.296875 35.09375 66 28.203125 66 
C 16.296875 66 3.796875 53.296875 3.796875 31.421875 
C 3.796875 4.015625 15.09375 -2 23.09375 -2 
C 32.796875 -2 42 6.734375 42 20.234375 
C 42 32.828125 33.90625 42 23.703125 42 
C 17.59375 42 13.09375 37.96875 10.59375 30.921875 
z
M 23.09375 0.390625 
C 10.796875 0.390625 10.796875 18.9375 10.796875 22.65625 
C 10.796875 29.90625 14.203125 40.390625 23.5 40.390625 
C 25.203125 40.390625 30.09375 40.390625 33.40625 33.4375 
C 35.203125 29.515625 35.203125 25.375 35.203125 20.34375 
C 35.203125 14.90625 35.203125 10.875 33.09375 6.84375 
C 30.90625 2.703125 27.703125 0.390625 23.09375 0.390625 
z
" id="CMR17-54"/>
       </defs>
       <use transform="scale(0.996264)" xlink:href="#CMR17-54"/>
       <use transform="translate(45.690477 0)scale(0.996264)" xlink:href="#CMR17-48"/>
      </g>
     </g>
    </g>
    <g id="ytick_5">
     <g id="line2d_8">
      <g>
       <use style="stroke:#000000;stroke-width:0.8;" x="108" xlink:href="#mcac3ed4d35" y="115.605818"/>
      </g>
     </g>
     <g id="text_8">
      <!-- $\mathdefault{80}$ -->
      <g transform="translate(87.343023 120.448756)scale(0.14 -0.14)">
       <defs>
        <path d="M 27.203125 35.765625 
C 33.5 38.96875 39.90625 43.796875 39.90625 51.53125 
C 39.90625 60.6875 31.09375 66 23 66 
C 13.90625 66 5.90625 59.375 5.90625 50.234375 
C 5.90625 47.71875 6.5 43.390625 10.40625 39.578125 
C 11.40625 38.578125 15.59375 35.5625 18.296875 33.65625 
C 13.796875 31.34375 3.296875 25.8125 3.296875 14.765625 
C 3.296875 4.40625 13.09375 -2 22.796875 -2 
C 33.5 -2 42.5 5.71875 42.5 15.96875 
C 42.5 25.109375 36.40625 29.328125 32.40625 32.046875 
z
M 14.09375 44.609375 
C 13.296875 45.109375 9.296875 48.21875 9.296875 52.9375 
C 9.296875 59.078125 15.59375 63.6875 22.796875 63.6875 
C 30.703125 63.6875 36.5 58.0625 36.5 51.53125 
C 36.5 42.1875 26.09375 36.859375 25.59375 36.859375 
C 25.5 36.859375 25.40625 36.859375 24.59375 37.46875 
z
M 32.5 24 
C 34 22.90625 38.796875 19.578125 38.796875 13.453125 
C 38.796875 6.015625 31.40625 0.390625 23 0.390625 
C 13.90625 0.390625 7 6.921875 7 14.859375 
C 7 22.796875 13.09375 29.4375 20 32.546875 
z
" id="CMR17-56"/>
       </defs>
       <use transform="scale(0.996264)" xlink:href="#CMR17-56"/>
       <use transform="translate(45.690477 0)scale(0.996264)" xlink:href="#CMR17-48"/>
      </g>
     </g>
    </g>
    <g id="ytick_6">
     <g id="line2d_9">
      <g>
       <use style="stroke:#000000;stroke-width:0.8;" x="108" xlink:href="#mcac3ed4d35" y="83.978182"/>
      </g>
     </g>
     <g id="text_9">
      <!-- $\mathdefault{100}$ -->
      <g transform="translate(80.514534 88.82112)scale(0.14 -0.14)">
       <defs>
        <path d="M 26.59375 63.796875 
C 26.59375 65.890625 26.5 66 25.09375 66 
C 21.203125 61.359375 15.296875 59.890625 9.703125 59.6875 
C 9.40625 59.6875 8.90625 59.6875 8.796875 59.5 
C 8.703125 59.296875 8.703125 59.09375 8.703125 57 
C 11.796875 57 17 57.59375 21 59.984375 
L 21 7.296875 
C 21 3.796875 20.796875 2.59375 12.203125 2.59375 
L 9.203125 2.59375 
L 9.203125 0 
C 14 0.09375 19 0.1875 23.796875 0.1875 
C 28.59375 0.1875 33.59375 0.09375 38.40625 0 
L 38.40625 2.59375 
L 35.40625 2.59375 
C 26.796875 2.59375 26.59375 3.6875 26.59375 7.296875 
z
" id="CMR17-49"/>
       </defs>
       <use transform="scale(0.996264)" xlink:href="#CMR17-49"/>
       <use transform="translate(45.690477 0)scale(0.996264)" xlink:href="#CMR17-48"/>
       <use transform="translate(91.380954 0)scale(0.996264)" xlink:href="#CMR17-48"/>
      </g>
     </g>
    </g>
    <g id="ytick_7">
     <g id="line2d_10">
      <g>
       <use style="stroke:#000000;stroke-width:0.8;" x="108" xlink:href="#mcac3ed4d35" y="52.350545"/>
      </g>
     </g>
     <g id="text_10">
      <!-- $\mathdefault{120}$ -->
      <g transform="translate(80.514534 57.193484)scale(0.14 -0.14)">
       <use transform="scale(0.996264)" xlink:href="#CMR17-49"/>
       <use transform="translate(45.690477 0)scale(0.996264)" xlink:href="#CMR17-50"/>
       <use transform="translate(91.380954 0)scale(0.996264)" xlink:href="#CMR17-48"/>
      </g>
     </g>
    </g>
   </g>
   <g id="line2d_11">
    <path clip-path="url(#pd32539fca7)" d="M 116.951872 242.116364 
L 118.760331 242.11233 
L 120.568789 242.100229 
L 122.377248 242.08006 
L 124.185707 242.051824 
L 125.994166 242.01552 
L 127.802625 241.97115 
L 129.611084 241.918711 
L 131.419543 241.858205 
L 133.228002 241.789632 
L 135.036461 241.712991 
L 136.84492 241.628283 
L 138.653379 241.535507 
L 140.461838 241.434664 
L 142.270297 241.325753 
L 144.078755 241.208775 
L 145.887214 241.08373 
L 147.695673 240.950617 
L 149.504132 240.809437 
L 151.312591 240.660189 
L 153.12105 240.502873 
L 154.929509 240.337491 
L 156.737968 240.16404 
L 158.546427 239.982523 
L 160.354886 239.792938 
L 162.163345 239.595285 
L 163.971804 239.389565 
L 165.780263 239.175778 
L 167.588721 238.953923 
L 169.39718 238.724 
L 171.205639 238.486011 
L 173.014098 238.239953 
L 174.822557 237.985829 
L 176.631016 237.723636 
L 178.439475 237.453377 
L 180.247934 237.17505 
L 182.056393 236.888655 
L 183.864852 236.594193 
L 185.673311 236.291664 
L 187.48177 235.981067 
L 189.290228 235.662403 
L 191.098687 235.335671 
L 192.907146 235.000872 
L 194.715605 234.658005 
L 196.524064 234.307071 
L 198.332523 233.948069 
L 200.140982 233.581 
L 201.949441 233.205864 
L 203.7579 232.82266 
L 205.566359 232.431388 
L 207.374818 232.032049 
L 209.183277 231.624643 
L 210.991736 231.209169 
L 212.800194 230.785628 
L 214.608653 230.35402 
L 216.417112 229.914343 
L 218.225571 229.4666 
L 220.03403 229.010789 
L 221.842489 228.54691 
L 223.650948 228.074965 
L 225.459407 227.594951 
L 227.267866 227.10687 
L 229.076325 226.610722 
L 230.884784 226.106506 
L 232.693243 225.594223 
L 234.501702 225.073873 
L 236.31016 224.545455 
L 238.118619 224.008969 
L 239.927078 223.464416 
L 241.735537 222.911796 
L 243.543996 222.351108 
L 245.352455 221.782352 
L 247.160914 221.20553 
L 248.969373 220.620639 
L 250.777832 220.027682 
L 252.586291 219.426657 
L 254.39475 218.817564 
L 256.203209 218.200404 
L 258.011667 217.575177 
L 259.820126 216.941882 
L 261.628585 216.300519 
L 263.437044 215.651089 
L 265.245503 214.993592 
L 267.053962 214.328027 
L 268.862421 213.654395 
L 270.67088 212.972696 
L 272.479339 212.282928 
L 274.287798 211.585094 
L 276.096257 210.879192 
L 277.904716 210.165222 
L 279.713175 209.443186 
L 281.521633 208.713081 
L 283.330092 207.974909 
L 285.138551 207.22867 
L 286.94701 206.474363 
L 288.755469 205.711989 
L 290.563928 204.941548 
L 292.372387 204.163039 
L 294.180846 203.376462 
L 295.989305 202.581818 
" style="fill:none;stroke:#1f77b4;stroke-linecap:square;stroke-width:1.5;"/>
   </g>
   <g id="line2d_12">
    <path clip-path="url(#pd32539fca7)" d="M 116.951872 242.116364 
L 118.760331 242.11616 
L 120.568789 242.114734 
L 122.377248 242.110863 
L 124.185707 242.103325 
L 125.994166 242.090898 
L 127.802625 242.072359 
L 129.611084 242.046486 
L 131.419543 242.012057 
L 133.228002 241.967849 
L 135.036461 241.91264 
L 136.84492 241.845208 
L 138.653379 241.764329 
L 140.461838 241.668783 
L 142.270297 241.557346 
L 144.078755 241.428797 
L 145.887214 241.281912 
L 147.695673 241.11547 
L 149.504132 240.928248 
L 151.312591 240.719024 
L 153.12105 240.486575 
L 154.929509 240.22968 
L 156.737968 239.947116 
L 158.546427 239.63766 
L 160.354886 239.30009 
L 162.163345 238.933184 
L 163.971804 238.535719 
L 165.780263 238.106474 
L 167.588721 237.644225 
L 169.39718 237.147751 
L 171.205639 236.615829 
L 173.014098 236.047236 
L 174.822557 235.440751 
L 176.631016 234.795152 
L 178.439475 234.109214 
L 180.247934 233.381718 
L 182.056393 232.611439 
L 183.864852 231.797156 
L 185.673311 230.937647 
L 187.48177 230.031688 
L 189.290228 229.078058 
L 191.098687 228.075535 
L 192.907146 227.022896 
L 194.715605 225.918918 
L 196.524064 224.762379 
L 198.332523 223.552058 
L 200.140982 222.286731 
L 201.949441 220.965177 
L 203.7579 219.586172 
L 205.566359 218.148495 
L 207.374818 216.650924 
L 209.183277 215.092235 
L 210.991736 213.471207 
L 212.800194 211.786617 
L 214.608653 210.037243 
L 216.417112 208.221863 
L 218.225571 206.339254 
L 220.03403 204.388194 
L 221.842489 202.36746 
L 223.650948 200.275831 
L 225.459407 198.112083 
L 227.267866 195.874995 
L 229.076325 193.563345 
L 230.884784 191.175909 
L 232.693243 188.711465 
L 234.501702 186.168792 
L 236.31016 183.546667 
L 238.118619 180.843867 
L 239.927078 178.05917 
L 241.735537 175.191354 
L 243.543996 172.239196 
L 245.352455 169.201475 
L 247.160914 166.076967 
L 248.969373 162.864451 
L 250.777832 159.562704 
L 252.586291 156.170504 
L 254.39475 152.686628 
L 256.203209 149.109854 
L 258.011667 145.43896 
L 259.820126 141.672723 
L 261.628585 137.809922 
L 263.437044 133.849333 
L 265.245503 129.789734 
L 267.053962 125.629904 
L 268.862421 121.368619 
L 270.67088 117.004657 
L 272.479339 112.536797 
L 274.287798 107.963815 
L 276.096257 103.284489 
L 277.904716 98.497598 
L 279.713175 93.601918 
L 281.521633 88.596227 
L 283.330092 83.479304 
L 285.138551 78.249925 
L 286.94701 72.906868 
L 288.755469 67.448911 
L 290.563928 61.874832 
L 292.372387 56.183408 
L 294.180846 50.373417 
L 295.989305 44.443636 
" style="fill:none;stroke:#ff7f0e;stroke-linecap:square;stroke-width:1.5;"/>
   </g>
   <g id="patch_3">
    <path d="M 108 252 
L 108 34.56 
" style="fill:none;stroke:#000000;stroke-linecap:square;stroke-linejoin:miter;stroke-width:0.8;"/>
   </g>
   <g id="patch_4">
    <path d="M 304.941176 252 
L 304.941176 34.56 
" style="fill:none;stroke:#000000;stroke-linecap:square;stroke-linejoin:miter;stroke-width:0.8;"/>
   </g>
   <g id="patch_5">
    <path d="M 108 252 
L 304.941176 252 
" style="fill:none;stroke:#000000;stroke-linecap:square;stroke-linejoin:miter;stroke-width:0.8;"/>
   </g>
   <g id="patch_6">
    <path d="M 108 34.56 
L 304.941176 34.56 
" style="fill:none;stroke:#000000;stroke-linecap:square;stroke-linejoin:miter;stroke-width:0.8;"/>
   </g>
   <g id="text_11">
    <!-- default axes ranges -->
    <g transform="translate(138.094658 28.56)scale(0.168 -0.168)">
     <defs>
      <path d="M 29.203125 67.890625 
L 29.203125 65.296875 
C 35.09375 65.296875 36 64.703125 36 60.046875 
L 36 37.046875 
C 35.59375 37.546875 31.5 44 23.40625 44 
C 13.203125 44 3.296875 34.8125 3.296875 21.5 
C 3.296875 8.265625 12.59375 -1 22.40625 -1 
C 30.90625 -1 35.296875 5.640625 35.796875 6.34375 
L 35.796875 -1 
L 47.90625 -0.203125 
L 47.90625 2.40625 
C 42 2.40625 41.09375 3.015625 41.09375 7.859375 
L 41.09375 69 
z
M 35.796875 11.90625 
C 35.796875 8.875 34 6.140625 31.703125 4.125 
C 28.296875 1.09375 24.90625 0.59375 23 0.59375 
C 20.09375 0.59375 9.703125 2.109375 9.703125 21.390625 
C 9.703125 41.1875 21.296875 42.390625 23.90625 42.390625 
C 28.5 42.390625 32.203125 39.765625 34.5 36.140625 
C 35.796875 34.015625 35.796875 33.703125 35.796875 31.890625 
z
" id="CMR17-100"/>
      <path d="M 38.09375 23.484375 
C 38.5 23.890625 38.5 24.09375 38.5 25.09375 
C 38.5 35.171875 33.09375 44 21.703125 44 
C 11.09375 44 2.703125 33.984375 2.703125 21.78125 
C 2.703125 8.65625 12.203125 -1 22.796875 -1 
C 34 -1 38.40625 9.671875 38.40625 11.796875 
C 38.40625 12.5 37.796875 12.5 37.59375 12.5 
C 36.90625 12.5 36.796875 12.296875 36.40625 11.078125 
C 34.203125 4.21875 28.703125 0.796875 23.5 0.796875 
C 19.203125 0.796875 14.90625 3.21875 12.203125 7.65625 
C 9.09375 12.796875 9.09375 18.75 9.09375 23.484375 
z
M 9.203125 25 
C 9.90625 39.234375 17.59375 42.390625 21.59375 42.390625 
C 28.40625 42.390625 33 36.0625 33.09375 25 
z
" id="CMR17-101"/>
      <path d="M 15.296875 40.390625 
L 26.703125 40.390625 
L 26.703125 43 
L 15.09375 43 
L 15.09375 55.296875 
C 15.09375 63.6875 19.296875 68.390625 23.59375 68.390625 
C 24.90625 68.390625 26.40625 68.171875 27.40625 67.796875 
C 26.59375 67.59375 24.5 66.890625 24.5 64.390625 
C 24.5 61.796875 26.5 61 27.90625 61 
C 29.296875 61 31.296875 61.796875 31.296875 64.390625 
C 31.296875 68.015625 27.703125 70 23.703125 70 
C 18 70 10.203125 65.796875 10.203125 55.09375 
L 10.203125 43 
L 2.203125 43 
L 2.203125 40.390625 
L 10.203125 40.390625 
L 10.203125 6.890625 
C 10.203125 3.09375 9.796875 2.59375 3.40625 2.59375 
L 3.40625 0 
C 5.796875 0.1875 10.40625 0.1875 13 0.1875 
C 15.90625 0.1875 21 0.1875 23.703125 0 
L 23.703125 2.59375 
C 16.5 2.59375 15.296875 2.59375 15.296875 7.09375 
z
" id="CMR17-102"/>
      <path d="M 36 25.875 
C 36 32 36 35.546875 31.796875 39.59375 
C 28.09375 42.984375 23.796875 44 20.40625 44 
C 12.5 44 6.796875 37.625 6.796875 30.890625 
C 6.796875 27.1875 9.796875 27 10.40625 27 
C 11.703125 27 14 27.796875 14 30.59375 
C 14 33.09375 12.09375 34.1875 10.40625 34.1875 
C 10 34.1875 9.5 34.09375 9.203125 34 
C 11.296875 40.53125 16.703125 42.390625 20.203125 42.390625 
C 25.203125 42.390625 30.703125 37.828125 30.703125 29.296875 
L 30.703125 25.5 
C 24.796875 25.296875 17.703125 24.5 12.09375 21.453125 
C 5.796875 17.921875 4 12.84375 4 9 
C 4 1.203125 13 -1 18.296875 -1 
C 23.796875 -1 28.90625 2.109375 31.09375 7.890625 
C 31.296875 3.421875 34.09375 -0.609375 38.5 -0.609375 
C 40.59375 -0.609375 45.90625 0.796875 45.90625 8.796875 
L 45.90625 14.46875 
L 44.09375 14.46875 
L 44.09375 8.703125 
C 44.09375 2.515625 41.40625 1.703125 40.09375 1.703125 
C 36 1.703125 36 6.96875 36 11.4375 
z
M 30.703125 13.859375 
C 30.703125 5.046875 24.5 0.59375 19 0.59375 
C 14 0.59375 10.09375 4.34375 10.09375 9 
C 10.09375 12.046875 11.40625 17.40625 17.203125 20.65625 
C 22 23.390625 27.5 23.796875 30.703125 24 
z
" id="CMR17-97"/>
      <path d="M 29.40625 42.890625 
L 29.40625 40.296875 
C 35.296875 40.296875 36.203125 39.6875 36.203125 34.828125 
L 36.203125 16.453125 
C 36.203125 7.96875 31.703125 0.59375 24.296875 0.59375 
C 16.09375 0.59375 15.40625 5.546875 15.40625 10.796875 
L 15.40625 44 
L 3.296875 42.890625 
L 3.296875 40.296875 
C 7.296875 40.296875 10 40.296875 10.09375 36.25 
L 10.09375 16.859375 
C 10.09375 10.09375 10.09375 5.75 12.703125 2.921875 
C 14 1.609375 16.5 -1 23.703125 -1 
C 32.203125 -1 35.5 6.25 36.296875 8.375 
L 36.40625 8.375 
L 36.40625 -1 
L 48.296875 -0.203125 
L 48.296875 2.40625 
C 42.40625 2.40625 41.5 3.015625 41.5 7.859375 
L 41.5 44 
z
" id="CMR17-117"/>
      <path d="M 15.296875 69 
L 3.40625 67.890625 
L 3.40625 65.296875 
C 9.296875 65.296875 10.203125 64.703125 10.203125 59.921875 
L 10.203125 6.859375 
C 10.203125 3.09375 9.796875 2.59375 3.40625 2.59375 
L 3.40625 0 
C 5.796875 0.1875 10.203125 0.1875 12.703125 0.1875 
C 15.296875 0.1875 19.703125 0.1875 22.09375 0 
L 22.09375 2.59375 
C 15.703125 2.59375 15.296875 2.984375 15.296875 6.859375 
z
" id="CMR17-108"/>
      <path d="M 15.09375 40.390625 
L 29.09375 40.390625 
L 29.09375 43 
L 15.09375 43 
L 15.09375 62 
L 13.296875 62 
C 13.09375 51.4375 9.59375 42.1875 1.09375 41.984375 
L 1.09375 40.390625 
L 9.796875 40.390625 
L 9.796875 12.15625 
C 9.796875 10.234375 9.796875 -1 21.40625 -1 
C 27.296875 -1 30.703125 4.8125 30.703125 12.25 
L 30.703125 17.984375 
L 28.90625 17.984375 
L 28.90625 12.34375 
C 28.90625 5.421875 26.203125 0.796875 22 0.796875 
C 19.09375 0.796875 15.09375 2.796875 15.09375 11.953125 
z
" id="CMR17-116"/>
      <path d="M 26 23.296875 
C 29 27.1875 32.40625 31.59375 35.203125 34.890625 
C 38.5 38.6875 42.296875 40.296875 46.703125 40.390625 
L 46.703125 43 
C 45 42.890625 41.5 42.796875 39.703125 42.796875 
C 37 42.796875 33.90625 42.796875 31.59375 43 
L 31.59375 40.390625 
C 33 40.1875 33.796875 39.1875 33.796875 37.796875 
C 33.796875 36 32.796875 34.890625 32.296875 34.1875 
L 24.90625 24.796875 
L 16.09375 36.296875 
C 15.203125 37.390625 15.203125 37.59375 15.203125 38.09375 
C 15.203125 39.296875 16.203125 40.296875 17.90625 40.390625 
L 17.90625 43 
C 15.5 42.796875 11.203125 42.796875 8.703125 42.796875 
C 6 42.796875 2.796875 42.796875 0.59375 43 
L 0.59375 40.390625 
C 6 40.390625 7.203125 40 9.59375 37 
L 21.09375 22.09375 
C 21.296875 21.890625 21.796875 21.296875 21.796875 21 
C 21.796875 20.59375 13.09375 9.890625 12 8.5 
C 7.5 3.09375 2.796875 2.6875 0.09375 2.59375 
L 0.09375 0 
C 1.796875 0.09375 5.296875 0.1875 7.09375 0.1875 
C 9.09375 0.1875 13.5 0.1875 15.296875 0 
L 15.296875 2.59375 
C 14.703125 2.6875 13.09375 2.890625 13.09375 5.1875 
C 13.09375 7 13.90625 8.09375 14.796875 9.296875 
L 23.09375 19.5 
L 31.796875 8.1875 
C 32.59375 7.09375 33.796875 5.59375 33.796875 4.890625 
C 33.796875 3.5 32.59375 2.6875 31 2.59375 
L 31 0 
C 33.40625 0.1875 37.703125 0.1875 40.203125 0.1875 
C 42.90625 0.1875 46.09375 0.1875 48.296875 0 
L 48.296875 2.59375 
C 43.296875 2.59375 41.796875 2.796875 39.40625 5.890625 
z
" id="CMR17-120"/>
      <path d="M 30.90625 42 
C 30.90625 43.796875 30.796875 43.890625 30.203125 43.890625 
C 29.796875 43.890625 29.703125 43.796875 28.5 42.296875 
C 28.203125 41.890625 27.296875 40.890625 27 40.5 
C 23.796875 43.890625 19.296875 44 17.59375 44 
C 6.5 44 2.5 38.1875 2.5 32.390625 
C 2.5 23.390625 12.703125 21.296875 15.59375 20.6875 
C 21.90625 19.390625 24.09375 19 26.203125 17.1875 
C 27.5 16 29.703125 13.796875 29.703125 10.1875 
C 29.703125 6 27.296875 0.59375 18.09375 0.59375 
C 9.40625 0.59375 6.296875 7.1875 4.5 16 
C 4.203125 17.390625 4.203125 17.5 3.40625 17.5 
C 2.59375 17.5 2.5 17.390625 2.5 15.390625 
L 2.5 1 
C 2.5 -0.8125 2.59375 -0.90625 3.203125 -0.90625 
C 3.703125 -0.90625 3.796875 -0.8125 4.296875 0 
C 4.90625 0.890625 6.40625 3.296875 7 4.296875 
C 9 1.59375 12.5 -1 18.09375 -1 
C 28 -1 33.296875 4.390625 33.296875 12.1875 
C 33.296875 17.296875 30.59375 20 29.296875 21.1875 
C 26.296875 24.296875 22.796875 25 18.59375 25.796875 
C 13.09375 27 6.09375 28.390625 6.09375 34.5 
C 6.09375 37.09375 7.5 42.59375 17.59375 42.59375 
C 28.296875 42.59375 28.90625 32.59375 29.09375 29.390625 
C 29.203125 28.890625 29.703125 28.796875 30 28.796875 
C 30.90625 28.796875 30.90625 29.09375 30.90625 30.796875 
z
" id="CMR17-115"/>
      <path d="M 15 23.703125 
C 15 33.34375 19.09375 42.390625 26.59375 42.390625 
C 27.296875 42.390625 28 42.296875 28.703125 41.984375 
C 28.703125 41.984375 26.5 41.28125 26.5 38.671875 
C 26.5 36.265625 28.40625 35.265625 29.90625 35.265625 
C 31.09375 35.265625 33.296875 35.96875 33.296875 38.78125 
C 33.296875 41.984375 30.09375 44 26.703125 44 
C 19.09375 44 15.796875 36.5625 14.796875 33.046875 
L 14.703125 33.046875 
L 14.703125 44 
L 3.09375 42.890625 
L 3.09375 40.28125 
C 9 40.28125 9.90625 39.6875 9.90625 34.859375 
L 9.90625 6.921875 
C 9.90625 3.09375 9.5 2.59375 3.09375 2.59375 
L 3.09375 0 
C 5.5 0.1875 10.09375 0.1875 12.703125 0.1875 
C 15.59375 0.1875 20.703125 0.1875 23.40625 0 
L 23.40625 2.59375 
C 16.203125 2.59375 15 2.59375 15 7.109375 
z
" id="CMR17-114"/>
      <path d="M 41.5 30.53125 
C 41.5 35.65625 40.5 44 28.703125 44 
C 20.796875 44 16.703125 37.875 15.203125 33.84375 
L 15.09375 33.84375 
L 15.09375 44 
L 3.296875 42.890625 
L 3.296875 40.28125 
C 9.203125 40.28125 10.09375 39.6875 10.09375 34.859375 
L 10.09375 6.921875 
C 10.09375 3.09375 9.703125 2.59375 3.296875 2.59375 
L 3.296875 0 
C 5.703125 0.1875 10.09375 0.1875 12.703125 0.1875 
C 15.296875 0.1875 19.796875 0.1875 22.203125 0 
L 22.203125 2.59375 
C 15.796875 2.59375 15.40625 3 15.40625 6.921875 
L 15.40625 26.21875 
C 15.40625 35.453125 21 42.390625 28 42.390625 
C 35.40625 42.390625 36.203125 35.765625 36.203125 30.9375 
L 36.203125 6.921875 
C 36.203125 3.09375 35.796875 2.59375 29.40625 2.59375 
L 29.40625 0 
C 31.796875 0.1875 36.203125 0.1875 38.796875 0.1875 
C 41.40625 0.1875 45.90625 0.1875 48.296875 0 
L 48.296875 2.59375 
C 41.90625 2.59375 41.5 3 41.5 6.921875 
z
" id="CMR17-110"/>
      <path d="M 11.09375 18.203125 
C 13 16.6875 16.296875 15 20.296875 15 
C 28.203125 15 35 21.234375 35 29.609375 
C 35 32.234375 34.203125 36.265625 31.203125 39.390625 
C 34 42.390625 38.09375 43.390625 40.40625 43.390625 
C 40.796875 43.390625 41.40625 43.390625 41.90625 43.09375 
C 41.5 42.984375 40.59375 42.59375 40.59375 40.984375 
C 40.59375 39.6875 41.5 38.796875 42.796875 38.796875 
C 44.296875 38.796875 45.09375 39.796875 45.09375 41.09375 
C 45.09375 42.984375 43.59375 45 40.40625 45 
C 36.40625 45 32.90625 43.09375 30.09375 40.484375 
C 27.09375 43.1875 23.5 44.1875 20.296875 44.1875 
C 12.40625 44.1875 5.59375 37.984375 5.59375 29.609375 
C 5.59375 23.859375 8.90625 20.21875 9.90625 19.21875 
C 6.90625 15.6875 6.90625 11.59375 6.90625 11.09375 
C 6.90625 8.5 7.90625 4.6875 11.296875 2.59375 
C 6.09375 1.28125 2 -2.875 2 -8.078125 
C 2 -15.5625 11.5 -21 22.90625 -21 
C 33.90625 -21 43.796875 -15.765625 43.796875 -7.96875 
C 43.796875 6 29 6 21.296875 6 
C 19 6 14.90625 6 14.40625 6.09375 
C 11.296875 6.59375 9.203125 9.390625 9.203125 12.890625 
C 9.203125 13.796875 9.203125 16 11.09375 18.203125 
z
M 20.296875 16.6875 
C 11.5 16.6875 11.5 27.59375 11.5 29.609375 
C 11.5 31.625 11.5 42.484375 20.296875 42.484375 
C 29.09375 42.484375 29.09375 31.625 29.09375 29.609375 
C 29.09375 27.59375 29.09375 16.6875 20.296875 16.6875 
z
M 22.90625 -19.3125 
C 12.90625 -19.3125 6 -13.796875 6 -8.078125 
C 6 -4.859375 7.703125 -1.84375 9.90625 -0.171875 
C 12.40625 1.59375 13.40625 1.59375 20.203125 1.59375 
C 28.40625 1.59375 39.796875 1.59375 39.796875 -8.078125 
C 39.796875 -13.796875 32.90625 -19.3125 22.90625 -19.3125 
z
" id="CMR17-103"/>
     </defs>
     <use transform="scale(0.996264)" xlink:href="#CMR17-100"/>
     <use transform="translate(50.89537 0)scale(0.996264)" xlink:href="#CMR17-101"/>
     <use transform="translate(91.38103 0)scale(0.996264)" xlink:href="#CMR17-102"/>
     <use transform="translate(118.854543 0)scale(0.996264)" xlink:href="#CMR17-97"/>
     <use transform="translate(164.54502 0)scale(0.996264)" xlink:href="#CMR17-117"/>
     <use transform="translate(215.44039 0)scale(0.996264)" xlink:href="#CMR17-108"/>
     <use transform="translate(240.311448 0)scale(0.996264)" xlink:href="#CMR17-116"/>
     <use transform="translate(305.668182 0)scale(0.996264)" xlink:href="#CMR17-97"/>
     <use transform="translate(351.358659 0)scale(0.996264)" xlink:href="#CMR17-120"/>
     <use transform="translate(399.651575 0)scale(0.996264)" xlink:href="#CMR17-101"/>
     <use transform="translate(440.137236 0)scale(0.996264)" xlink:href="#CMR17-115"/>
     <use transform="translate(506.01454 0)scale(0.996264)" xlink:href="#CMR17-114"/>
     <use transform="translate(541.295307 0)scale(0.996264)" xlink:href="#CMR17-97"/>
     <use transform="translate(586.985785 0)scale(0.996264)" xlink:href="#CMR17-110"/>
     <use transform="translate(637.881154 0)scale(0.996264)" xlink:href="#CMR17-103"/>
     <use transform="translate(683.571631 0)scale(0.996264)" xlink:href="#CMR17-101"/>
     <use transform="translate(724.057292 0)scale(0.996264)" xlink:href="#CMR17-115"/>
    </g>
   </g>
  </g>
  <g id="axes_2">
   <g id="patch_7">
    <path d="M 344.329412 252 
L 541.270588 252 
L 541.270588 34.56 
L 344.329412 34.56 
z
" style="fill:#ffffff;"/>
   </g>
   <g id="matplotlib.axis_3">
    <g id="xtick_4">
     <g id="line2d_13">
      <g>
       <use style="stroke:#000000;stroke-width:0.8;" x="353.281283" xlink:href="#mbf36b6c67a" y="252"/>
      </g>
     </g>
     <g id="text_12">
      <!-- $\mathdefault{0}$ -->
      <g transform="translate(349.867039 268.685876)scale(0.14 -0.14)">
       <use transform="scale(0.996264)" xlink:href="#CMR17-48"/>
      </g>
     </g>
    </g>
    <g id="xtick_5">
     <g id="line2d_14">
      <g>
       <use style="stroke:#000000;stroke-width:0.8;" x="424.896257" xlink:href="#mbf36b6c67a" y="252"/>
      </g>
     </g>
     <g id="text_13">
      <!-- $\mathdefault{2}$ -->
      <g transform="translate(421.482012 268.685876)scale(0.14 -0.14)">
       <use transform="scale(0.996264)" xlink:href="#CMR17-50"/>
      </g>
     </g>
    </g>
    <g id="xtick_6">
     <g id="line2d_15">
      <g>
       <use style="stroke:#000000;stroke-width:0.8;" x="496.51123" xlink:href="#mbf36b6c67a" y="252"/>
      </g>
     </g>
     <g id="text_14">
      <!-- $\mathdefault{4}$ -->
      <g transform="translate(493.096986 268.685876)scale(0.14 -0.14)">
       <use transform="scale(0.996264)" xlink:href="#CMR17-52"/>
      </g>
     </g>
    </g>
   </g>
   <g id="matplotlib.axis_4">
    <g id="ytick_8">
     <g id="line2d_16">
      <g>
       <use style="stroke:#000000;stroke-width:0.8;" x="344.329412" xlink:href="#mcac3ed4d35" y="242.116364"/>
      </g>
     </g>
     <g id="text_15">
      <!-- $\mathdefault{0}$ -->
      <g transform="translate(330.500923 246.959302)scale(0.14 -0.14)">
       <use transform="scale(0.996264)" xlink:href="#CMR17-48"/>
      </g>
     </g>
    </g>
    <g id="ytick_9">
     <g id="line2d_17">
      <g>
       <use style="stroke:#000000;stroke-width:0.8;" x="344.329412" xlink:href="#mcac3ed4d35" y="210.488727"/>
      </g>
     </g>
     <g id="text_16">
      <!-- $\mathdefault{20}$ -->
      <g transform="translate(323.672435 215.331665)scale(0.14 -0.14)">
       <use transform="scale(0.996264)" xlink:href="#CMR17-50"/>
       <use transform="translate(45.690477 0)scale(0.996264)" xlink:href="#CMR17-48"/>
      </g>
     </g>
    </g>
    <g id="ytick_10">
     <g id="line2d_18">
      <g>
       <use style="stroke:#000000;stroke-width:0.8;" x="344.329412" xlink:href="#mcac3ed4d35" y="178.861091"/>
      </g>
     </g>
     <g id="text_17">
      <!-- $\mathdefault{40}$ -->
      <g transform="translate(323.672435 183.704029)scale(0.14 -0.14)">
       <use transform="scale(0.996264)" xlink:href="#CMR17-52"/>
       <use transform="translate(45.690477 0)scale(0.996264)" xlink:href="#CMR17-48"/>
      </g>
     </g>
    </g>
    <g id="ytick_11">
     <g id="line2d_19">
      <g>
       <use style="stroke:#000000;stroke-width:0.8;" x="344.329412" xlink:href="#mcac3ed4d35" y="147.233455"/>
      </g>
     </g>
     <g id="text_18">
      <!-- $\mathdefault{60}$ -->
      <g transform="translate(323.672435 152.076393)scale(0.14 -0.14)">
       <use transform="scale(0.996264)" xlink:href="#CMR17-54"/>
       <use transform="translate(45.690477 0)scale(0.996264)" xlink:href="#CMR17-48"/>
      </g>
     </g>
    </g>
    <g id="ytick_12">
     <g id="line2d_20">
      <g>
       <use style="stroke:#000000;stroke-width:0.8;" x="344.329412" xlink:href="#mcac3ed4d35" y="115.605818"/>
      </g>
     </g>
     <g id="text_19">
      <!-- $\mathdefault{80}$ -->
      <g transform="translate(323.672435 120.448756)scale(0.14 -0.14)">
       <use transform="scale(0.996264)" xlink:href="#CMR17-56"/>
       <use transform="translate(45.690477 0)scale(0.996264)" xlink:href="#CMR17-48"/>
      </g>
     </g>
    </g>
    <g id="ytick_13">
     <g id="line2d_21">
      <g>
       <use style="stroke:#000000;stroke-width:0.8;" x="344.329412" xlink:href="#mcac3ed4d35" y="83.978182"/>
      </g>
     </g>
     <g id="text_20">
      <!-- $\mathdefault{100}$ -->
      <g transform="translate(316.843946 88.82112)scale(0.14 -0.14)">
       <use transform="scale(0.996264)" xlink:href="#CMR17-49"/>
       <use transform="translate(45.690477 0)scale(0.996264)" xlink:href="#CMR17-48"/>
       <use transform="translate(91.380954 0)scale(0.996264)" xlink:href="#CMR17-48"/>
      </g>
     </g>
    </g>
    <g id="ytick_14">
     <g id="line2d_22">
      <g>
       <use style="stroke:#000000;stroke-width:0.8;" x="344.329412" xlink:href="#mcac3ed4d35" y="52.350545"/>
      </g>
     </g>
     <g id="text_21">
      <!-- $\mathdefault{120}$ -->
      <g transform="translate(316.843946 57.193484)scale(0.14 -0.14)">
       <use transform="scale(0.996264)" xlink:href="#CMR17-49"/>
       <use transform="translate(45.690477 0)scale(0.996264)" xlink:href="#CMR17-50"/>
       <use transform="translate(91.380954 0)scale(0.996264)" xlink:href="#CMR17-48"/>
      </g>
     </g>
    </g>
   </g>
   <g id="line2d_23">
    <path clip-path="url(#p5e7e38e0e0)" d="M 353.281283 242.116364 
L 355.089742 242.11233 
L 356.898201 242.100229 
L 358.70666 242.08006 
L 360.515119 242.051824 
L 362.323578 242.01552 
L 364.132037 241.97115 
L 365.940496 241.918711 
L 367.748955 241.858205 
L 369.557414 241.789632 
L 371.365873 241.712991 
L 373.174332 241.628283 
L 374.98279 241.535507 
L 376.791249 241.434664 
L 378.599708 241.325753 
L 380.408167 241.208775 
L 382.216626 241.08373 
L 384.025085 240.950617 
L 385.833544 240.809437 
L 387.642003 240.660189 
L 389.450462 240.502873 
L 391.258921 240.337491 
L 393.06738 240.16404 
L 394.875839 239.982523 
L 396.684298 239.792938 
L 398.492756 239.595285 
L 400.301215 239.389565 
L 402.109674 239.175778 
L 403.918133 238.953923 
L 405.726592 238.724 
L 407.535051 238.486011 
L 409.34351 238.239953 
L 411.151969 237.985829 
L 412.960428 237.723636 
L 414.768887 237.453377 
L 416.577346 237.17505 
L 418.385805 236.888655 
L 420.194263 236.594193 
L 422.002722 236.291664 
L 423.811181 235.981067 
L 425.61964 235.662403 
L 427.428099 235.335671 
L 429.236558 235.000872 
L 431.045017 234.658005 
L 432.853476 234.307071 
L 434.661935 233.948069 
L 436.470394 233.581 
L 438.278853 233.205864 
L 440.087312 232.82266 
L 441.895771 232.431388 
L 443.704229 232.032049 
L 445.512688 231.624643 
L 447.321147 231.209169 
L 449.129606 230.785628 
L 450.938065 230.35402 
L 452.746524 229.914343 
L 454.554983 229.4666 
L 456.363442 229.010789 
L 458.171901 228.54691 
L 459.98036 228.074965 
L 461.788819 227.594951 
L 463.597278 227.10687 
L 465.405737 226.610722 
L 467.214195 226.106506 
L 469.022654 225.594223 
L 470.831113 225.073873 
L 472.639572 224.545455 
L 474.448031 224.008969 
L 476.25649 223.464416 
L 478.064949 222.911796 
L 479.873408 222.351108 
L 481.681867 221.782352 
L 483.490326 221.20553 
L 485.298785 220.620639 
L 487.107244 220.027682 
L 488.915702 219.426657 
L 490.724161 218.817564 
L 492.53262 218.200404 
L 494.341079 217.575177 
L 496.149538 216.941882 
L 497.957997 216.300519 
L 499.766456 215.651089 
L 501.574915 214.993592 
L 503.383374 214.328027 
L 505.191833 213.654395 
L 507.000292 212.972696 
L 508.808751 212.282928 
L 510.61721 211.585094 
L 512.425668 210.879192 
L 514.234127 210.165222 
L 516.042586 209.443186 
L 517.851045 208.713081 
L 519.659504 207.974909 
L 521.467963 207.22867 
L 523.276422 206.474363 
L 525.084881 205.711989 
L 526.89334 204.941548 
L 528.701799 204.163039 
L 530.510258 203.376462 
L 532.318717 202.581818 
" style="fill:none;stroke:#1f77b4;stroke-linecap:square;stroke-width:1.5;"/>
   </g>
   <g id="line2d_24">
    <path clip-path="url(#p5e7e38e0e0)" d="M 353.281283 242.116364 
L 355.089742 242.11616 
L 356.898201 242.114734 
L 358.70666 242.110863 
L 360.515119 242.103325 
L 362.323578 242.090898 
L 364.132037 242.072359 
L 365.940496 242.046486 
L 367.748955 242.012057 
L 369.557414 241.967849 
L 371.365873 241.91264 
L 373.174332 241.845208 
L 374.98279 241.764329 
L 376.791249 241.668783 
L 378.599708 241.557346 
L 380.408167 241.428797 
L 382.216626 241.281912 
L 384.025085 241.11547 
L 385.833544 240.928248 
L 387.642003 240.719024 
L 389.450462 240.486575 
L 391.258921 240.22968 
L 393.06738 239.947116 
L 394.875839 239.63766 
L 396.684298 239.30009 
L 398.492756 238.933184 
L 400.301215 238.535719 
L 402.109674 238.106474 
L 403.918133 237.644225 
L 405.726592 237.147751 
L 407.535051 236.615829 
L 409.34351 236.047236 
L 411.151969 235.440751 
L 412.960428 234.795152 
L 414.768887 234.109214 
L 416.577346 233.381718 
L 418.385805 232.611439 
L 420.194263 231.797156 
L 422.002722 230.937647 
L 423.811181 230.031688 
L 425.61964 229.078058 
L 427.428099 228.075535 
L 429.236558 227.022896 
L 431.045017 225.918918 
L 432.853476 224.762379 
L 434.661935 223.552058 
L 436.470394 222.286731 
L 438.278853 220.965177 
L 440.087312 219.586172 
L 441.895771 218.148495 
L 443.704229 216.650924 
L 445.512688 215.092235 
L 447.321147 213.471207 
L 449.129606 211.786617 
L 450.938065 210.037243 
L 452.746524 208.221863 
L 454.554983 206.339254 
L 456.363442 204.388194 
L 458.171901 202.36746 
L 459.98036 200.275831 
L 461.788819 198.112083 
L 463.597278 195.874995 
L 465.405737 193.563345 
L 467.214195 191.175909 
L 469.022654 188.711465 
L 470.831113 186.168792 
L 472.639572 183.546667 
L 474.448031 180.843867 
L 476.25649 178.05917 
L 478.064949 175.191354 
L 479.873408 172.239196 
L 481.681867 169.201475 
L 483.490326 166.076967 
L 485.298785 162.864451 
L 487.107244 159.562704 
L 488.915702 156.170504 
L 490.724161 152.686628 
L 492.53262 149.109854 
L 494.341079 145.43896 
L 496.149538 141.672723 
L 497.957997 137.809922 
L 499.766456 133.849333 
L 501.574915 129.789734 
L 503.383374 125.629904 
L 505.191833 121.368619 
L 507.000292 117.004657 
L 508.808751 112.536797 
L 510.61721 107.963815 
L 512.425668 103.284489 
L 514.234127 98.497598 
L 516.042586 93.601918 
L 517.851045 88.596227 
L 519.659504 83.479304 
L 521.467963 78.249925 
L 523.276422 72.906868 
L 525.084881 67.448911 
L 526.89334 61.874832 
L 528.701799 56.183408 
L 530.510258 50.373417 
L 532.318717 44.443636 
" style="fill:none;stroke:#ff7f0e;stroke-linecap:square;stroke-width:1.5;"/>
   </g>
   <g id="patch_8">
    <path d="M 344.329412 252 
L 344.329412 34.56 
" style="fill:none;stroke:#000000;stroke-linecap:square;stroke-linejoin:miter;stroke-width:0.8;"/>
   </g>
   <g id="patch_9">
    <path d="M 541.270588 252 
L 541.270588 34.56 
" style="fill:none;stroke:#000000;stroke-linecap:square;stroke-linejoin:miter;stroke-width:0.8;"/>
   </g>
   <g id="patch_10">
    <path d="M 344.329412 252 
L 541.270588 252 
" style="fill:none;stroke:#000000;stroke-linecap:square;stroke-linejoin:miter;stroke-width:0.8;"/>
   </g>
   <g id="patch_11">
    <path d="M 344.329412 34.56 
L 541.270588 34.56 
" style="fill:none;stroke:#000000;stroke-linecap:square;stroke-linejoin:miter;stroke-width:0.8;"/>
   </g>
   <g id="text_22">
    <!-- tight axes -->
    <g transform="translate(407.701578 28.56)scale(0.168 -0.168)">
     <defs>
      <path d="M 15.5 61.890625 
C 15.5 64.09375 13.703125 66 11.40625 66 
C 9.203125 66 7.296875 64.1875 7.296875 61.890625 
C 7.296875 59.6875 9.09375 57.796875 11.40625 57.796875 
C 13.59375 57.796875 15.5 59.59375 15.5 61.890625 
z
M 3.796875 42.890625 
L 3.796875 40.296875 
C 9.40625 40.296875 10.203125 39.6875 10.203125 34.859375 
L 10.203125 6.921875 
C 10.203125 3.09375 9.796875 2.59375 3.40625 2.59375 
L 3.40625 0 
C 5.796875 0.1875 10.09375 0.1875 12.59375 0.1875 
C 15 0.1875 19.09375 0.1875 21.40625 0 
L 21.40625 2.59375 
C 15.5 2.59375 15.296875 3.203125 15.296875 6.8125 
L 15.296875 44 
z
" id="CMR17-105"/>
      <path d="M 41.5 30.53125 
C 41.5 35.65625 40.5 44 28.703125 44 
C 20.5 44 16.5 37.375 15.296875 34.046875 
L 15.203125 34.046875 
L 15.203125 69 
L 3.296875 67.890625 
L 3.296875 65.296875 
C 9.203125 65.296875 10.09375 64.703125 10.09375 60.046875 
L 10.09375 6.921875 
C 10.09375 3.09375 9.703125 2.59375 3.296875 2.59375 
L 3.296875 0 
C 5.703125 0.1875 10.09375 0.1875 12.703125 0.1875 
C 15.296875 0.1875 19.796875 0.1875 22.203125 0 
L 22.203125 2.59375 
C 15.796875 2.59375 15.40625 3 15.40625 6.921875 
L 15.40625 26.21875 
C 15.40625 35.453125 21 42.390625 28 42.390625 
C 35.40625 42.390625 36.203125 35.765625 36.203125 30.9375 
L 36.203125 6.921875 
C 36.203125 3.09375 35.796875 2.59375 29.40625 2.59375 
L 29.40625 0 
C 31.796875 0.1875 36.203125 0.1875 38.796875 0.1875 
C 41.40625 0.1875 45.90625 0.1875 48.296875 0 
L 48.296875 2.59375 
C 41.90625 2.59375 41.5 3 41.5 6.921875 
z
" id="CMR17-104"/>
     </defs>
     <use transform="scale(0.996264)" xlink:href="#CMR17-116"/>
     <use transform="translate(35.280768 0)scale(0.996264)" xlink:href="#CMR17-105"/>
     <use transform="translate(60.151826 0)scale(0.996264)" xlink:href="#CMR17-103"/>
     <use transform="translate(105.842303 0)scale(0.996264)" xlink:href="#CMR17-104"/>
     <use transform="translate(154.135219 0)scale(0.996264)" xlink:href="#CMR17-116"/>
     <use transform="translate(219.491953 0)scale(0.996264)" xlink:href="#CMR17-97"/>
     <use transform="translate(265.182431 0)scale(0.996264)" xlink:href="#CMR17-120"/>
     <use transform="translate(313.475346 0)scale(0.996264)" xlink:href="#CMR17-101"/>
     <use transform="translate(353.961007 0)scale(0.996264)" xlink:href="#CMR17-115"/>
    </g>
   </g>
  </g>
  <g id="axes_3">
   <g id="patch_12">
    <path d="M 580.658824 252 
L 777.6 252 
L 777.6 34.56 
L 580.658824 34.56 
z
" style="fill:#ffffff;"/>
   </g>
   <g id="matplotlib.axis_5">
    <g id="xtick_7">
     <g id="line2d_25">
      <g>
       <use style="stroke:#000000;stroke-width:0.8;" x="580.658824" xlink:href="#mbf36b6c67a" y="252"/>
      </g>
     </g>
     <g id="text_23">
      <!-- $\mathdefault{2}$ -->
      <g transform="translate(577.244579 268.685876)scale(0.14 -0.14)">
       <use transform="scale(0.996264)" xlink:href="#CMR17-50"/>
      </g>
     </g>
    </g>
    <g id="xtick_8">
     <g id="line2d_26">
      <g>
       <use style="stroke:#000000;stroke-width:0.8;" x="646.305882" xlink:href="#mbf36b6c67a" y="252"/>
      </g>
     </g>
     <g id="text_24">
      <!-- $\mathdefault{3}$ -->
      <g transform="translate(642.891638 268.685876)scale(0.14 -0.14)">
       <defs>
        <path d="M 22.09375 34 
C 31 34 34.90625 26.140625 34.90625 17.09375 
C 34.90625 5.03125 28.5 0.390625 22.703125 0.390625 
C 17.40625 0.390625 8.796875 3.015625 6.09375 10.796875 
C 6.59375 10.59375 7.09375 10.59375 7.59375 10.59375 
C 10 10.59375 11.796875 12.1875 11.796875 14.796875 
C 11.796875 17.6875 9.59375 19 7.59375 19 
C 5.90625 19 3.296875 18.1875 3.296875 14.484375 
C 3.296875 5.234375 12.296875 -2 22.90625 -2 
C 34 -2 42.5 6.75 42.5 16.984375 
C 42.5 26.84375 34.5 34 25 35.09375 
C 32.59375 36.671875 39.90625 43.375 39.90625 52.390625 
C 39.90625 60.25 32 66 23 66 
C 13.90625 66 5.90625 60.34375 5.90625 52.296875 
C 5.90625 48.796875 8.5 48.1875 9.796875 48.1875 
C 11.90625 48.1875 13.703125 49.484375 13.703125 52.09375 
C 13.703125 54.6875 11.90625 56 9.796875 56 
C 9.40625 56 8.90625 56 8.5 55.796875 
C 11.40625 62.484375 19.296875 63.6875 22.796875 63.6875 
C 26.296875 63.6875 32.90625 61.96875 32.90625 52.296875 
C 32.90625 49.484375 32.5 44.546875 29.09375 40.21875 
C 26.09375 36.390625 22.703125 36.1875 19.40625 35.890625 
C 18.90625 35.890625 16.59375 35.6875 16.203125 35.6875 
C 15.5 35.59375 15.09375 35.5 15.09375 34.796875 
C 15.09375 34.09375 15.203125 34 17.203125 34 
z
" id="CMR17-51"/>
       </defs>
       <use transform="scale(0.996264)" xlink:href="#CMR17-51"/>
      </g>
     </g>
    </g>
    <g id="xtick_9">
     <g id="line2d_27">
      <g>
       <use style="stroke:#000000;stroke-width:0.8;" x="711.952941" xlink:href="#mbf36b6c67a" y="252"/>
      </g>
     </g>
     <g id="text_25">
      <!-- $\mathdefault{4}$ -->
      <g transform="translate(708.538697 268.685876)scale(0.14 -0.14)">
       <use transform="scale(0.996264)" xlink:href="#CMR17-52"/>
      </g>
     </g>
    </g>
    <g id="xtick_10">
     <g id="line2d_28">
      <g>
       <use style="stroke:#000000;stroke-width:0.8;" x="777.6" xlink:href="#mbf36b6c67a" y="252"/>
      </g>
     </g>
     <g id="text_26">
      <!-- $\mathdefault{5}$ -->
      <g transform="translate(774.185756 268.685876)scale(0.14 -0.14)">
       <defs>
        <path d="M 11.40625 58.59375 
C 12.40625 58.1875 16.5 56.890625 20.703125 56.890625 
C 30 56.890625 35.09375 61.890625 38 64.6875 
C 38 65.484375 38 66 37.40625 66 
C 37.296875 66 37.09375 66 36.296875 65.59375 
C 32.796875 64.09375 28.703125 63 23.703125 63 
C 20.703125 63 16.203125 63.359375 11.296875 65.484375 
C 10.203125 66 10 66 9.90625 66 
C 9.40625 66 9.296875 65.890625 9.296875 63.90625 
L 9.296875 34.859375 
C 9.296875 33.015625 9.296875 32.5 10.296875 32.5 
C 10.796875 32.5 11 32.703125 11.5 33.421875 
C 14.703125 38.046875 19.09375 40 24.09375 40 
C 27.59375 40 35.09375 37.734375 35.09375 20.203125 
C 35.09375 16.984375 35.09375 11.1875 32.09375 6.59375 
C 29.59375 2.484375 25.703125 0.390625 21.40625 0.390625 
C 14.796875 0.390625 8.09375 4.984375 6.296875 12.6875 
C 6.703125 12.59375 7.5 12.390625 7.90625 12.390625 
C 9.203125 12.390625 11.703125 13.09375 11.703125 16.1875 
C 11.703125 18.890625 9.796875 20 7.90625 20 
C 5.59375 20 4.09375 18.59375 4.09375 15.796875 
C 4.09375 7.09375 11 -2 21.59375 -2 
C 31.90625 -2 41.703125 6.890625 41.703125 19.796875 
C 41.703125 32.09375 33.90625 41.59375 24.203125 41.59375 
C 19.09375 41.59375 14.796875 39.6875 11.40625 36 
z
" id="CMR17-53"/>
       </defs>
       <use transform="scale(0.996264)" xlink:href="#CMR17-53"/>
      </g>
     </g>
    </g>
   </g>
   <g id="matplotlib.axis_6">
    <g id="ytick_15">
     <g id="line2d_29">
      <g>
       <use style="stroke:#000000;stroke-width:0.8;" x="580.658824" xlink:href="#mcac3ed4d35" y="252"/>
      </g>
     </g>
     <g id="text_27">
      <!-- $\mathdefault{0}$ -->
      <g transform="translate(566.830335 256.842938)scale(0.14 -0.14)">
       <use transform="scale(0.996264)" xlink:href="#CMR17-48"/>
      </g>
     </g>
    </g>
    <g id="ytick_16">
     <g id="line2d_30">
      <g>
       <use style="stroke:#000000;stroke-width:0.8;" x="580.658824" xlink:href="#mcac3ed4d35" y="215.76"/>
      </g>
     </g>
     <g id="text_28">
      <!-- $\mathdefault{10}$ -->
      <g transform="translate(560.001846 220.602938)scale(0.14 -0.14)">
       <use transform="scale(0.996264)" xlink:href="#CMR17-49"/>
       <use transform="translate(45.690477 0)scale(0.996264)" xlink:href="#CMR17-48"/>
      </g>
     </g>
    </g>
    <g id="ytick_17">
     <g id="line2d_31">
      <g>
       <use style="stroke:#000000;stroke-width:0.8;" x="580.658824" xlink:href="#mcac3ed4d35" y="179.52"/>
      </g>
     </g>
     <g id="text_29">
      <!-- $\mathdefault{20}$ -->
      <g transform="translate(560.001846 184.362938)scale(0.14 -0.14)">
       <use transform="scale(0.996264)" xlink:href="#CMR17-50"/>
       <use transform="translate(45.690477 0)scale(0.996264)" xlink:href="#CMR17-48"/>
      </g>
     </g>
    </g>
    <g id="ytick_18">
     <g id="line2d_32">
      <g>
       <use style="stroke:#000000;stroke-width:0.8;" x="580.658824" xlink:href="#mcac3ed4d35" y="143.28"/>
      </g>
     </g>
     <g id="text_30">
      <!-- $\mathdefault{30}$ -->
      <g transform="translate(560.001846 148.122938)scale(0.14 -0.14)">
       <use transform="scale(0.996264)" xlink:href="#CMR17-51"/>
       <use transform="translate(45.690477 0)scale(0.996264)" xlink:href="#CMR17-48"/>
      </g>
     </g>
    </g>
    <g id="ytick_19">
     <g id="line2d_33">
      <g>
       <use style="stroke:#000000;stroke-width:0.8;" x="580.658824" xlink:href="#mcac3ed4d35" y="107.04"/>
      </g>
     </g>
     <g id="text_31">
      <!-- $\mathdefault{40}$ -->
      <g transform="translate(560.001846 111.882938)scale(0.14 -0.14)">
       <use transform="scale(0.996264)" xlink:href="#CMR17-52"/>
       <use transform="translate(45.690477 0)scale(0.996264)" xlink:href="#CMR17-48"/>
      </g>
     </g>
    </g>
    <g id="ytick_20">
     <g id="line2d_34">
      <g>
       <use style="stroke:#000000;stroke-width:0.8;" x="580.658824" xlink:href="#mcac3ed4d35" y="70.8"/>
      </g>
     </g>
     <g id="text_32">
      <!-- $\mathdefault{50}$ -->
      <g transform="translate(560.001846 75.642938)scale(0.14 -0.14)">
       <use transform="scale(0.996264)" xlink:href="#CMR17-53"/>
       <use transform="translate(45.690477 0)scale(0.996264)" xlink:href="#CMR17-48"/>
      </g>
     </g>
    </g>
    <g id="ytick_21">
     <g id="line2d_35">
      <g>
       <use style="stroke:#000000;stroke-width:0.8;" x="580.658824" xlink:href="#mcac3ed4d35" y="34.56"/>
      </g>
     </g>
     <g id="text_33">
      <!-- $\mathdefault{60}$ -->
      <g transform="translate(560.001846 39.402938)scale(0.14 -0.14)">
       <use transform="scale(0.996264)" xlink:href="#CMR17-54"/>
       <use transform="translate(45.690477 0)scale(0.996264)" xlink:href="#CMR17-48"/>
      </g>
     </g>
    </g>
   </g>
   <g id="line2d_36">
    <path clip-path="url(#pf9e04f2002)" d="M 449.364706 252 
L 452.680214 251.990756 
L 455.995722 251.963024 
L 459.31123 251.916804 
L 462.626738 251.852097 
L 465.942246 251.768901 
L 469.257754 251.667218 
L 472.573262 251.547046 
L 475.88877 251.408387 
L 479.204278 251.25124 
L 482.519786 251.075605 
L 485.835294 250.881481 
L 489.150802 250.668871 
L 492.46631 250.437772 
L 495.781818 250.188185 
L 499.097326 249.92011 
L 502.412834 249.633548 
L 505.728342 249.328497 
L 509.04385 249.004959 
L 512.359358 248.662932 
L 515.674866 248.302418 
L 518.990374 247.923416 
L 522.305882 247.525926 
L 525.62139 247.109948 
L 528.936898 246.675482 
L 532.252406 246.222528 
L 535.567914 245.751087 
L 538.883422 245.261157 
L 542.19893 244.75274 
L 545.514439 244.225834 
L 548.829947 243.680441 
L 552.145455 243.11656 
L 555.460963 242.53419 
L 558.776471 241.933333 
L 562.091979 241.313988 
L 565.407487 240.676155 
L 568.722995 240.019835 
L 572.038503 239.345026 
L 575.354011 238.651729 
L 578.669519 237.939945 
L 581.985027 237.209672 
L 585.300535 236.460912 
L 588.616043 235.693664 
L 591.931551 234.907928 
L 595.247059 234.103704 
L 598.562567 233.280992 
L 601.878075 232.439792 
L 605.193583 231.580104 
L 608.509091 230.701928 
L 611.824599 229.805265 
L 615.140107 228.890113 
L 618.455615 227.956474 
L 621.771123 227.004346 
L 625.086631 226.033731 
L 628.402139 225.044628 
L 631.717647 224.037037 
L 635.033155 223.010958 
L 638.348663 221.966391 
L 641.664171 220.903336 
L 644.979679 219.821794 
L 648.295187 218.721763 
L 651.610695 217.603245 
L 654.926203 216.466238 
L 658.241711 215.310744 
L 661.557219 214.136762 
L 664.872727 212.944291 
L 668.188235 211.733333 
L 671.503743 210.503887 
L 674.819251 209.255953 
L 678.134759 207.989532 
L 681.450267 206.704622 
L 684.765775 205.401224 
L 688.081283 204.079339 
L 691.396791 202.738965 
L 694.712299 201.380104 
L 698.027807 200.002755 
L 701.343316 198.606918 
L 704.658824 197.192593 
L 707.974332 195.75978 
L 711.28984 194.308479 
L 714.605348 192.83869 
L 717.920856 191.350413 
L 721.236364 189.843649 
L 724.551872 188.318396 
L 727.86738 186.774656 
L 731.182888 185.212427 
L 734.498396 183.631711 
L 737.813904 182.032507 
L 741.129412 180.414815 
L 744.44492 178.778635 
L 747.760428 177.123967 
L 751.075936 175.450811 
L 754.391444 173.759167 
L 757.706952 172.049036 
L 761.02246 170.320416 
L 764.337968 168.573309 
L 767.653476 166.807713 
L 770.968984 165.02363 
L 774.284492 163.221059 
L 777.6 161.4 
" style="fill:none;stroke:#1f77b4;stroke-linecap:square;stroke-width:1.5;"/>
   </g>
   <g id="line2d_37">
    <path clip-path="url(#pf9e04f2002)" d="M 449.364706 252 
L 452.680214 251.999533 
L 455.995722 251.996265 
L 459.31123 251.987395 
L 462.626738 251.970121 
L 465.942246 251.941642 
L 469.257754 251.899157 
L 472.573262 251.839865 
L 475.88877 251.760964 
L 479.204278 251.659654 
L 482.519786 251.533134 
L 485.835294 251.378601 
L 489.150802 251.193255 
L 492.46631 250.974295 
L 495.781818 250.718919 
L 499.097326 250.424326 
L 502.412834 250.087715 
L 505.728342 249.706285 
L 509.04385 249.277235 
L 512.359358 248.797763 
L 515.674866 248.265069 
L 518.990374 247.67635 
L 522.305882 247.028807 
L 525.62139 246.319637 
L 528.936898 245.546039 
L 532.252406 244.705213 
L 535.567914 243.794356 
L 538.883422 242.810669 
L 542.19893 241.751349 
L 545.514439 240.613595 
L 548.829947 239.394607 
L 552.145455 238.091583 
L 555.460963 236.701722 
L 558.776471 235.222222 
L 562.091979 233.650283 
L 565.407487 231.983103 
L 568.722995 230.217881 
L 572.038503 228.351816 
L 575.354011 226.382107 
L 578.669519 224.305952 
L 581.985027 222.12055 
L 585.300535 219.823101 
L 588.616043 217.410802 
L 591.931551 214.880853 
L 595.247059 212.230453 
L 598.562567 209.456799 
L 601.878075 206.557092 
L 605.193583 203.52853 
L 608.509091 200.368311 
L 611.824599 197.073635 
L 615.140107 193.6417 
L 618.455615 190.069705 
L 621.771123 186.354849 
L 625.086631 182.494331 
L 628.402139 178.485349 
L 631.717647 174.325103 
L 635.033155 170.01079 
L 638.348663 165.539611 
L 641.664171 160.908763 
L 644.979679 156.115446 
L 648.295187 151.156858 
L 651.610695 146.030198 
L 654.926203 140.732665 
L 658.241711 135.261458 
L 661.557219 129.613775 
L 664.872727 123.786815 
L 668.188235 117.777778 
L 671.503743 111.583861 
L 674.819251 105.202264 
L 678.134759 98.630186 
L 681.450267 91.864825 
L 684.765775 84.90338 
L 688.081283 77.74305 
L 691.396791 70.381034 
L 694.712299 62.81453 
L 698.027807 55.040738 
L 701.343316 47.056856 
L 704.658824 38.860082 
L 707.974332 30.447617 
L 711.28984 21.816658 
L 714.605348 12.964404 
L 717.920856 3.888054 
L 719.662869 -1 
" style="fill:none;stroke:#ff7f0e;stroke-linecap:square;stroke-width:1.5;"/>
   </g>
   <g id="patch_13">
    <path d="M 580.658824 252 
L 580.658824 34.56 
" style="fill:none;stroke:#000000;stroke-linecap:square;stroke-linejoin:miter;stroke-width:0.8;"/>
   </g>
   <g id="patch_14">
    <path d="M 777.6 252 
L 777.6 34.56 
" style="fill:none;stroke:#000000;stroke-linecap:square;stroke-linejoin:miter;stroke-width:0.8;"/>
   </g>
   <g id="patch_15">
    <path d="M 580.658824 252 
L 777.6 252 
" style="fill:none;stroke:#000000;stroke-linecap:square;stroke-linejoin:miter;stroke-width:0.8;"/>
   </g>
   <g id="patch_16">
    <path d="M 580.658824 34.56 
L 777.6 34.56 
" style="fill:none;stroke:#000000;stroke-linecap:square;stroke-linejoin:miter;stroke-width:0.8;"/>
   </g>
   <g id="text_34">
    <!-- custom axes range -->
    <g transform="translate(613.257261 28.56)scale(0.168 -0.168)">
     <defs>
      <path d="M 34.90625 35 
C 33 35 30.203125 35 30.203125 31.484375 
C 30.203125 28.6875 32.5 27.890625 33.796875 27.890625 
C 34.5 27.890625 37.40625 28.1875 37.40625 31.6875 
C 37.40625 38.6875 30.59375 44 22.90625 44 
C 12.296875 44 3.296875 34.390625 3.296875 21.546875 
C 3.296875 8.140625 12.703125 -1 22.90625 -1 
C 35.296875 -1 38.40625 10.5625 38.40625 11.671875 
C 38.40625 12.078125 38.296875 12.375 37.59375 12.375 
C 36.90625 12.375 36.796875 12.28125 36.40625 10.96875 
C 33.796875 2.8125 28.09375 0.796875 23.796875 0.796875 
C 17.40625 0.796875 9.703125 6.734375 9.703125 21.640625 
C 9.703125 36.84375 17.09375 42.1875 23 42.1875 
C 26.90625 42.1875 32.703125 40.34375 34.90625 35 
z
" id="CMR17-99"/>
      <path d="M 43.09375 21.1875 
C 43.09375 34 33.796875 44 22.90625 44 
C 12 44 2.703125 34 2.703125 21.1875 
C 2.703125 8.59375 12 -1 22.90625 -1 
C 33.796875 -1 43.09375 8.59375 43.09375 21.1875 
z
M 22.90625 0.796875 
C 18.203125 0.796875 14.203125 3.59375 11.90625 7.5 
C 9.40625 12 9.09375 17.59375 9.09375 22 
C 9.09375 26.1875 9.296875 31.390625 11.90625 35.890625 
C 13.90625 39.1875 17.796875 42.390625 22.90625 42.390625 
C 27.40625 42.390625 31.203125 39.890625 33.59375 36.390625 
C 36.703125 31.6875 36.703125 25.09375 36.703125 22 
C 36.703125 18.09375 36.5 12.09375 33.796875 7.296875 
C 31 2.6875 26.703125 0.796875 22.90625 0.796875 
z
" id="CMR17-111"/>
      <path d="M 67.59375 30.53125 
C 67.59375 35.5625 66.703125 44 54.796875 44 
C 48 44 43.296875 39.375 41.5 33.953125 
L 41.40625 33.953125 
C 40.203125 42.1875 34.296875 44 28.703125 44 
C 20.796875 44 16.703125 37.875 15.203125 33.84375 
L 15.09375 33.84375 
L 15.09375 44 
L 3.296875 42.890625 
L 3.296875 40.28125 
C 9.203125 40.28125 10.09375 39.6875 10.09375 34.859375 
L 10.09375 6.921875 
C 10.09375 3.09375 9.703125 2.59375 3.296875 2.59375 
L 3.296875 0 
C 5.703125 0.1875 10.09375 0.1875 12.703125 0.1875 
C 15.296875 0.1875 19.796875 0.1875 22.203125 0 
L 22.203125 2.59375 
C 15.796875 2.59375 15.40625 3 15.40625 6.921875 
L 15.40625 26.21875 
C 15.40625 35.453125 21 42.390625 28 42.390625 
C 35.40625 42.390625 36.203125 35.765625 36.203125 30.9375 
L 36.203125 6.921875 
C 36.203125 3.09375 35.796875 2.59375 29.40625 2.59375 
L 29.40625 0 
C 31.796875 0.1875 36.203125 0.1875 38.796875 0.1875 
C 41.40625 0.1875 45.90625 0.1875 48.296875 0 
L 48.296875 2.59375 
C 41.90625 2.59375 41.5 3 41.5 6.921875 
L 41.5 26.21875 
C 41.5 35.453125 47.09375 42.390625 54.09375 42.390625 
C 61.5 42.390625 62.296875 35.765625 62.296875 30.9375 
L 62.296875 6.921875 
C 62.296875 3.09375 61.90625 2.59375 55.5 2.59375 
L 55.5 0 
C 57.90625 0.1875 62.296875 0.1875 64.90625 0.1875 
C 67.5 0.1875 72 0.1875 74.40625 0 
L 74.40625 2.59375 
C 68 2.59375 67.59375 3 67.59375 6.921875 
z
" id="CMR17-109"/>
     </defs>
     <use transform="scale(0.996264)" xlink:href="#CMR17-99"/>
     <use transform="translate(40.48566 0)scale(0.996264)" xlink:href="#CMR17-117"/>
     <use transform="translate(91.38103 0)scale(0.996264)" xlink:href="#CMR17-115"/>
     <use transform="translate(127.182368 0)scale(0.996264)" xlink:href="#CMR17-116"/>
     <use transform="translate(162.463136 0)scale(0.996264)" xlink:href="#CMR17-111"/>
     <use transform="translate(208.153613 0)scale(0.996264)" xlink:href="#CMR17-109"/>
     <use transform="translate(315.149169 0)scale(0.996264)" xlink:href="#CMR17-97"/>
     <use transform="translate(360.839646 0)scale(0.996264)" xlink:href="#CMR17-120"/>
     <use transform="translate(409.132562 0)scale(0.996264)" xlink:href="#CMR17-101"/>
     <use transform="translate(449.618222 0)scale(0.996264)" xlink:href="#CMR17-115"/>
     <use transform="translate(515.495526 0)scale(0.996264)" xlink:href="#CMR17-114"/>
     <use transform="translate(550.776294 0)scale(0.996264)" xlink:href="#CMR17-97"/>
     <use transform="translate(596.466771 0)scale(0.996264)" xlink:href="#CMR17-110"/>
     <use transform="translate(647.362141 0)scale(0.996264)" xlink:href="#CMR17-103"/>
     <use transform="translate(693.052618 0)scale(0.996264)" xlink:href="#CMR17-101"/>
    </g>
   </g>
  </g>
 </g>
 <defs>
  <clipPath id="pd32539fca7">
   <rect height="217.44" width="196.941176" x="108" y="34.56"/>
  </clipPath>
  <clipPath id="p5e7e38e0e0">
   <rect height="217.44" width="196.941176" x="344.329412" y="34.56"/>
  </clipPath>
  <clipPath id="pf9e04f2002">
   <rect height="217.44" width="196.941176" x="580.658824" y="34.56"/>
  </clipPath>
 </defs>
</svg>
