<?xml version="1.0" encoding="utf-8" standalone="no"?>
<!DOCTYPE svg PUBLIC "-//W3C//DTD SVG 1.1//EN"
  "http://www.w3.org/Graphics/SVG/1.1/DTD/svg11.dtd">
<svg height="288pt" version="1.1" viewBox="0 0 432 288" width="432pt" xmlns="http://www.w3.org/2000/svg" xmlns:xlink="http://www.w3.org/1999/xlink">
 <metadata>
  <rdf:RDF xmlns:cc="http://creativecommons.org/ns#" xmlns:dc="http://purl.org/dc/elements/1.1/" xmlns:rdf="http://www.w3.org/1999/02/22-rdf-syntax-ns#">
   <cc:Work>
    <dc:type rdf:resource="http://purl.org/dc/dcmitype/StillImage"/>
    <dc:date>2021-07-18T18:05:28.691886</dc:date>
    <dc:format>image/svg+xml</dc:format>
    <dc:creator>
     <cc:Agent>
      <dc:title>Matplotlib v3.4.2, https://matplotlib.org/</dc:title>
     </cc:Agent>
    </dc:creator>
   </cc:Work>
  </rdf:RDF>
 </metadata>
 <defs>
  <style type="text/css">*{stroke-linecap:butt;stroke-linejoin:round;}</style>
 </defs>
 <g id="figure_1">
  <g id="patch_1">
   <path d="M 0 288 
L 432 288 
L 432 0 
L 0 0 
z
" style="fill:none;"/>
  </g>
  <g id="axes_1">
   <g id="patch_2">
    <path d="M 54 252 
L 388.8 252 
L 388.8 34.56 
L 54 34.56 
z
" style="fill:#ffffff;"/>
   </g>
   <g id="matplotlib.axis_1">
    <g id="xtick_1">
     <g id="line2d_1">
      <path clip-path="url(#pa5d59f1aa6)" d="M 76.077068 252 
L 76.077068 34.56 
" style="fill:none;stroke:#b0b0b0;stroke-linecap:square;stroke-width:0.8;"/>
     </g>
     <g id="line2d_2">
      <defs>
       <path d="M 0 0 
L 0 3.5 
" id="m8f2887273e" style="stroke:#000000;stroke-width:0.8;"/>
      </defs>
      <g>
       <use style="stroke:#000000;stroke-width:0.8;" x="76.077068" xlink:href="#m8f2887273e" y="143.28"/>
      </g>
     </g>
     <g id="text_1">
      <!-- −3 -->
      <g transform="translate(68.705975 157.878437)scale(0.1 -0.1)">
       <defs>
        <path d="M 678 2272 
L 4684 2272 
L 4684 1741 
L 678 1741 
L 678 2272 
z
" id="DejaVuSans-2212" transform="scale(0.015625)"/>
        <path d="M 2597 2516 
Q 3050 2419 3304 2112 
Q 3559 1806 3559 1356 
Q 3559 666 3084 287 
Q 2609 -91 1734 -91 
Q 1441 -91 1130 -33 
Q 819 25 488 141 
L 488 750 
Q 750 597 1062 519 
Q 1375 441 1716 441 
Q 2309 441 2620 675 
Q 2931 909 2931 1356 
Q 2931 1769 2642 2001 
Q 2353 2234 1838 2234 
L 1294 2234 
L 1294 2753 
L 1863 2753 
Q 2328 2753 2575 2939 
Q 2822 3125 2822 3475 
Q 2822 3834 2567 4026 
Q 2313 4219 1838 4219 
Q 1578 4219 1281 4162 
Q 984 4106 628 3988 
L 628 4550 
Q 988 4650 1302 4700 
Q 1616 4750 1894 4750 
Q 2613 4750 3031 4423 
Q 3450 4097 3450 3541 
Q 3450 3153 3228 2886 
Q 3006 2619 2597 2516 
z
" id="DejaVuSans-33" transform="scale(0.015625)"/>
       </defs>
       <use xlink:href="#DejaVuSans-2212"/>
       <use x="83.789062" xlink:href="#DejaVuSans-33"/>
      </g>
     </g>
    </g>
    <g id="xtick_2">
     <g id="line2d_3">
      <path clip-path="url(#pa5d59f1aa6)" d="M 124.518046 252 
L 124.518046 34.56 
" style="fill:none;stroke:#b0b0b0;stroke-linecap:square;stroke-width:0.8;"/>
     </g>
     <g id="line2d_4">
      <g>
       <use style="stroke:#000000;stroke-width:0.8;" x="124.518046" xlink:href="#m8f2887273e" y="143.28"/>
      </g>
     </g>
     <g id="text_2">
      <!-- −2 -->
      <g transform="translate(117.146952 157.878437)scale(0.1 -0.1)">
       <defs>
        <path d="M 1228 531 
L 3431 531 
L 3431 0 
L 469 0 
L 469 531 
Q 828 903 1448 1529 
Q 2069 2156 2228 2338 
Q 2531 2678 2651 2914 
Q 2772 3150 2772 3378 
Q 2772 3750 2511 3984 
Q 2250 4219 1831 4219 
Q 1534 4219 1204 4116 
Q 875 4013 500 3803 
L 500 4441 
Q 881 4594 1212 4672 
Q 1544 4750 1819 4750 
Q 2544 4750 2975 4387 
Q 3406 4025 3406 3419 
Q 3406 3131 3298 2873 
Q 3191 2616 2906 2266 
Q 2828 2175 2409 1742 
Q 1991 1309 1228 531 
z
" id="DejaVuSans-32" transform="scale(0.015625)"/>
       </defs>
       <use xlink:href="#DejaVuSans-2212"/>
       <use x="83.789062" xlink:href="#DejaVuSans-32"/>
      </g>
     </g>
    </g>
    <g id="xtick_3">
     <g id="line2d_5">
      <path clip-path="url(#pa5d59f1aa6)" d="M 172.959023 252 
L 172.959023 34.56 
" style="fill:none;stroke:#b0b0b0;stroke-linecap:square;stroke-width:0.8;"/>
     </g>
     <g id="line2d_6">
      <g>
       <use style="stroke:#000000;stroke-width:0.8;" x="172.959023" xlink:href="#m8f2887273e" y="143.28"/>
      </g>
     </g>
     <g id="text_3">
      <!-- −1 -->
      <g transform="translate(165.587929 157.878437)scale(0.1 -0.1)">
       <defs>
        <path d="M 794 531 
L 1825 531 
L 1825 4091 
L 703 3866 
L 703 4441 
L 1819 4666 
L 2450 4666 
L 2450 531 
L 3481 531 
L 3481 0 
L 794 0 
L 794 531 
z
" id="DejaVuSans-31" transform="scale(0.015625)"/>
       </defs>
       <use xlink:href="#DejaVuSans-2212"/>
       <use x="83.789062" xlink:href="#DejaVuSans-31"/>
      </g>
     </g>
    </g>
    <g id="xtick_4">
     <g id="line2d_7">
      <path clip-path="url(#pa5d59f1aa6)" d="M 221.4 252 
L 221.4 34.56 
" style="fill:none;stroke:#b0b0b0;stroke-linecap:square;stroke-width:0.8;"/>
     </g>
     <g id="line2d_8">
      <g>
       <use style="stroke:#000000;stroke-width:0.8;" x="221.4" xlink:href="#m8f2887273e" y="143.28"/>
      </g>
     </g>
     <g id="text_4">
      <!-- 0 -->
      <g transform="translate(218.21875 157.878437)scale(0.1 -0.1)">
       <defs>
        <path d="M 2034 4250 
Q 1547 4250 1301 3770 
Q 1056 3291 1056 2328 
Q 1056 1369 1301 889 
Q 1547 409 2034 409 
Q 2525 409 2770 889 
Q 3016 1369 3016 2328 
Q 3016 3291 2770 3770 
Q 2525 4250 2034 4250 
z
M 2034 4750 
Q 2819 4750 3233 4129 
Q 3647 3509 3647 2328 
Q 3647 1150 3233 529 
Q 2819 -91 2034 -91 
Q 1250 -91 836 529 
Q 422 1150 422 2328 
Q 422 3509 836 4129 
Q 1250 4750 2034 4750 
z
" id="DejaVuSans-30" transform="scale(0.015625)"/>
       </defs>
       <use xlink:href="#DejaVuSans-30"/>
      </g>
     </g>
    </g>
    <g id="xtick_5">
     <g id="line2d_9">
      <path clip-path="url(#pa5d59f1aa6)" d="M 269.840977 252 
L 269.840977 34.56 
" style="fill:none;stroke:#b0b0b0;stroke-linecap:square;stroke-width:0.8;"/>
     </g>
     <g id="line2d_10">
      <g>
       <use style="stroke:#000000;stroke-width:0.8;" x="269.840977" xlink:href="#m8f2887273e" y="143.28"/>
      </g>
     </g>
     <g id="text_5">
      <!-- 1 -->
      <g transform="translate(266.659727 157.878437)scale(0.1 -0.1)">
       <use xlink:href="#DejaVuSans-31"/>
      </g>
     </g>
    </g>
    <g id="xtick_6">
     <g id="line2d_11">
      <path clip-path="url(#pa5d59f1aa6)" d="M 318.281954 252 
L 318.281954 34.56 
" style="fill:none;stroke:#b0b0b0;stroke-linecap:square;stroke-width:0.8;"/>
     </g>
     <g id="line2d_12">
      <g>
       <use style="stroke:#000000;stroke-width:0.8;" x="318.281954" xlink:href="#m8f2887273e" y="143.28"/>
      </g>
     </g>
     <g id="text_6">
      <!-- 2 -->
      <g transform="translate(315.100704 157.878437)scale(0.1 -0.1)">
       <use xlink:href="#DejaVuSans-32"/>
      </g>
     </g>
    </g>
    <g id="xtick_7">
     <g id="line2d_13">
      <path clip-path="url(#pa5d59f1aa6)" d="M 366.722932 252 
L 366.722932 34.56 
" style="fill:none;stroke:#b0b0b0;stroke-linecap:square;stroke-width:0.8;"/>
     </g>
     <g id="line2d_14">
      <g>
       <use style="stroke:#000000;stroke-width:0.8;" x="366.722932" xlink:href="#m8f2887273e" y="143.28"/>
      </g>
     </g>
     <g id="text_7">
      <!-- 3 -->
      <g transform="translate(363.541682 157.878437)scale(0.1 -0.1)">
       <use xlink:href="#DejaVuSans-33"/>
      </g>
     </g>
    </g>
   </g>
   <g id="matplotlib.axis_2">
    <g id="ytick_1">
     <g id="line2d_15">
      <path clip-path="url(#pa5d59f1aa6)" d="M 54 230.256 
L 388.8 230.256 
" style="fill:none;stroke:#b0b0b0;stroke-linecap:square;stroke-width:0.8;"/>
     </g>
     <g id="line2d_16">
      <defs>
       <path d="M 0 0 
L -3.5 0 
" id="me1113525b3" style="stroke:#000000;stroke-width:0.8;"/>
      </defs>
      <g>
       <use style="stroke:#000000;stroke-width:0.8;" x="221.4" xlink:href="#me1113525b3" y="230.256"/>
      </g>
     </g>
     <g id="text_8">
      <!-- −4 -->
      <g transform="translate(199.657813 234.055219)scale(0.1 -0.1)">
       <defs>
        <path d="M 2419 4116 
L 825 1625 
L 2419 1625 
L 2419 4116 
z
M 2253 4666 
L 3047 4666 
L 3047 1625 
L 3713 1625 
L 3713 1100 
L 3047 1100 
L 3047 0 
L 2419 0 
L 2419 1100 
L 313 1100 
L 313 1709 
L 2253 4666 
z
" id="DejaVuSans-34" transform="scale(0.015625)"/>
       </defs>
       <use xlink:href="#DejaVuSans-2212"/>
       <use x="83.789062" xlink:href="#DejaVuSans-34"/>
      </g>
     </g>
    </g>
    <g id="ytick_2">
     <g id="line2d_17">
      <path clip-path="url(#pa5d59f1aa6)" d="M 54 186.768 
L 388.8 186.768 
" style="fill:none;stroke:#b0b0b0;stroke-linecap:square;stroke-width:0.8;"/>
     </g>
     <g id="line2d_18">
      <g>
       <use style="stroke:#000000;stroke-width:0.8;" x="221.4" xlink:href="#me1113525b3" y="186.768"/>
      </g>
     </g>
     <g id="text_9">
      <!-- −2 -->
      <g transform="translate(199.657813 190.567219)scale(0.1 -0.1)">
       <use xlink:href="#DejaVuSans-2212"/>
       <use x="83.789062" xlink:href="#DejaVuSans-32"/>
      </g>
     </g>
    </g>
    <g id="ytick_3">
     <g id="line2d_19">
      <path clip-path="url(#pa5d59f1aa6)" d="M 54 143.28 
L 388.8 143.28 
" style="fill:none;stroke:#b0b0b0;stroke-linecap:square;stroke-width:0.8;"/>
     </g>
     <g id="line2d_20">
      <g>
       <use style="stroke:#000000;stroke-width:0.8;" x="221.4" xlink:href="#me1113525b3" y="143.28"/>
      </g>
     </g>
     <g id="text_10">
      <!-- 0 -->
      <g transform="translate(208.0375 147.079219)scale(0.1 -0.1)">
       <use xlink:href="#DejaVuSans-30"/>
      </g>
     </g>
    </g>
    <g id="ytick_4">
     <g id="line2d_21">
      <path clip-path="url(#pa5d59f1aa6)" d="M 54 99.792 
L 388.8 99.792 
" style="fill:none;stroke:#b0b0b0;stroke-linecap:square;stroke-width:0.8;"/>
     </g>
     <g id="line2d_22">
      <g>
       <use style="stroke:#000000;stroke-width:0.8;" x="221.4" xlink:href="#me1113525b3" y="99.792"/>
      </g>
     </g>
     <g id="text_11">
      <!-- 2 -->
      <g transform="translate(208.0375 103.591219)scale(0.1 -0.1)">
       <use xlink:href="#DejaVuSans-32"/>
      </g>
     </g>
    </g>
    <g id="ytick_5">
     <g id="line2d_23">
      <path clip-path="url(#pa5d59f1aa6)" d="M 54 56.304 
L 388.8 56.304 
" style="fill:none;stroke:#b0b0b0;stroke-linecap:square;stroke-width:0.8;"/>
     </g>
     <g id="line2d_24">
      <g>
       <use style="stroke:#000000;stroke-width:0.8;" x="221.4" xlink:href="#me1113525b3" y="56.304"/>
      </g>
     </g>
     <g id="text_12">
      <!-- 4 -->
      <g transform="translate(208.0375 60.103219)scale(0.1 -0.1)">
       <use xlink:href="#DejaVuSans-34"/>
      </g>
     </g>
    </g>
   </g>
   <g id="line2d_25">
    <path clip-path="url(#pa5d59f1aa6)" d="M 95.406751 289 
L 98.278026 280.510639 
L 101.336958 272.004618 
L 104.395889 264.012072 
L 107.45482 256.50112 
L 110.513751 249.4418 
L 113.572682 242.805954 
L 116.631613 236.567111 
L 119.690544 230.700385 
L 122.749475 225.182374 
L 125.808406 219.991067 
L 128.867337 215.105757 
L 131.926268 210.506955 
L 136.514664 204.106122 
L 141.103061 198.251438 
L 145.691457 192.890335 
L 150.279854 187.974675 
L 154.86825 183.460322 
L 159.456647 179.306742 
L 164.045043 175.476641 
L 168.63344 171.935629 
L 173.221836 168.651912 
L 177.810233 165.596005 
L 183.928095 161.828673 
L 190.045957 158.357595 
L 196.163819 155.127332 
L 203.811147 151.349849 
L 212.98794 147.07498 
L 240.518319 134.473709 
L 248.165646 130.644799 
L 254.283508 127.359305 
L 260.40137 123.81953 
L 266.519233 119.968939 
L 271.107629 116.84024 
L 275.696026 113.474142 
L 280.284422 109.840422 
L 284.872819 105.906452 
L 289.461215 101.636911 
L 294.049612 96.993463 
L 298.638008 91.934416 
L 303.226405 86.414343 
L 307.814801 80.383683 
L 310.873732 76.053045 
L 313.932663 71.454243 
L 316.991594 66.568933 
L 320.050525 61.377626 
L 323.109456 55.859615 
L 326.168387 49.992889 
L 329.227318 43.754046 
L 332.286249 37.1182 
L 335.34518 30.05888 
L 338.404111 22.547928 
L 341.463042 14.555382 
L 344.521974 6.049361 
L 346.914183 -1 
L 346.914183 -1 
" style="fill:none;stroke:#ff0000;stroke-linecap:square;stroke-width:2;"/>
   </g>
   <g id="line2d_26">
    <path clip-path="url(#pa5d59f1aa6)" d="M 96.434137 -1 
L 98.278026 4.337386 
L 101.336958 12.731814 
L 104.395889 20.605492 
L 107.45482 27.989829 
L 110.513751 34.91428 
L 113.572682 41.406465 
L 116.631613 47.492283 
L 119.690544 53.19601 
L 122.749475 58.540396 
L 125.808406 63.546761 
L 128.867337 68.235074 
L 131.926268 72.624038 
L 134.985199 76.731159 
L 138.04413 80.57282 
L 141.103061 84.164346 
L 144.161992 87.520063 
L 147.220923 90.653357 
L 151.809319 94.963364 
L 156.397716 98.839543 
L 160.986112 102.316698 
L 165.574509 105.42605 
L 170.162905 108.195516 
L 174.751302 110.649965 
L 179.339698 112.811433 
L 183.928095 114.699328 
L 188.516492 116.330602 
L 193.104888 117.719901 
L 197.693285 118.879699 
L 202.281681 119.820412 
L 206.870078 120.550483 
L 211.458474 121.07647 
L 216.046871 121.403095 
L 220.635267 121.53329 
L 225.223664 121.468225 
L 229.81206 121.207315 
L 234.400457 120.748218 
L 238.988853 120.086811 
L 243.57725 119.217156 
L 248.165646 118.131445 
L 252.754043 116.819928 
L 257.342439 115.27083 
L 261.930836 113.470242 
L 266.519233 111.401997 
L 271.107629 109.047523 
L 275.696026 106.385682 
L 280.284422 103.392572 
L 284.872819 100.041318 
L 289.461215 96.301831 
L 294.049612 92.140534 
L 297.108543 89.113711 
L 300.167474 85.870823 
L 303.226405 82.398932 
L 306.285336 78.68419 
L 309.344267 74.711779 
L 312.403198 70.465854 
L 315.462129 65.929476 
L 318.52106 61.084552 
L 321.579991 55.911755 
L 324.638922 50.390451 
L 327.697853 44.498616 
L 330.756784 38.212748 
L 333.815715 31.507772 
L 336.874646 24.356943 
L 339.933577 16.731737 
L 342.992508 8.601736 
L 346.365863 -1 
L 346.365863 -1 
" style="fill:none;stroke:#0000ff;stroke-linecap:square;stroke-width:2;"/>
   </g>
   <g id="line2d_27">
    <path clip-path="url(#pa5d59f1aa6)" d="M 69.218182 164.94294 
L 99.807492 164.738733 
L 118.161078 164.41987 
L 131.926268 163.968741 
L 142.632526 163.404008 
L 151.809319 162.69767 
L 159.456647 161.896093 
L 167.103974 160.846352 
L 173.221836 159.790354 
L 179.339698 158.511647 
L 185.457561 156.986167 
L 191.575423 155.198307 
L 197.693285 153.146018 
L 203.811147 150.845618 
L 211.458474 147.680899 
L 222.164733 142.936758 
L 232.870991 138.22508 
L 240.518319 135.117709 
L 246.636181 132.87666 
L 252.754043 130.889738 
L 258.871905 129.168283 
L 264.989767 127.706374 
L 271.107629 126.485827 
L 277.225491 125.481189 
L 284.872819 124.485476 
L 292.520146 123.727143 
L 301.696939 123.060331 
L 312.403198 122.528156 
L 326.168387 122.103642 
L 342.992508 121.821267 
L 368.993422 121.633929 
L 373.581818 121.61706 
L 373.581818 121.61706 
" style="fill:none;stroke:#008000;stroke-linecap:square;stroke-width:2;"/>
   </g>
   <g id="patch_3">
    <path d="M 221.4 252 
L 221.4 34.56 
" style="fill:none;stroke:#000000;stroke-linecap:square;stroke-linejoin:miter;stroke-width:0.8;"/>
   </g>
   <g id="patch_4">
    <path d="M 388.8 252 
L 388.8 34.56 
" style="fill:none;"/>
   </g>
   <g id="patch_5">
    <path d="M 54 143.28 
L 388.8 143.28 
" style="fill:none;stroke:#000000;stroke-linecap:square;stroke-linejoin:miter;stroke-width:0.8;"/>
   </g>
   <g id="patch_6">
    <path d="M 54 34.56 
L 388.8 34.56 
" style="fill:none;"/>
   </g>
   <g id="legend_1">
    <g id="patch_7">
     <path d="M 312.9 247 
L 381.8 247 
Q 383.8 247 383.8 245 
L 383.8 201.965625 
Q 383.8 199.965625 381.8 199.965625 
L 312.9 199.965625 
Q 310.9 199.965625 310.9 201.965625 
L 310.9 245 
Q 310.9 247 312.9 247 
z
" style="fill:#ffffff;opacity:0.8;stroke:#cccccc;stroke-linejoin:miter;"/>
    </g>
    <g id="line2d_28">
     <path d="M 314.9 208.064063 
L 334.9 208.064063 
" style="fill:none;stroke:#ff0000;stroke-linecap:square;stroke-width:2;"/>
    </g>
    <g id="line2d_29"/>
    <g id="text_13">
     <!-- $\sinh(x)$ -->
     <g transform="translate(342.9 211.564063)scale(0.1 -0.1)">
      <defs>
       <path d="M 2834 3397 
L 2834 2853 
Q 2591 2978 2328 3040 
Q 2066 3103 1784 3103 
Q 1356 3103 1142 2972 
Q 928 2841 928 2578 
Q 928 2378 1081 2264 
Q 1234 2150 1697 2047 
L 1894 2003 
Q 2506 1872 2764 1633 
Q 3022 1394 3022 966 
Q 3022 478 2636 193 
Q 2250 -91 1575 -91 
Q 1294 -91 989 -36 
Q 684 19 347 128 
L 347 722 
Q 666 556 975 473 
Q 1284 391 1588 391 
Q 1994 391 2212 530 
Q 2431 669 2431 922 
Q 2431 1156 2273 1281 
Q 2116 1406 1581 1522 
L 1381 1569 
Q 847 1681 609 1914 
Q 372 2147 372 2553 
Q 372 3047 722 3315 
Q 1072 3584 1716 3584 
Q 2034 3584 2315 3537 
Q 2597 3491 2834 3397 
z
" id="DejaVuSans-73" transform="scale(0.015625)"/>
       <path d="M 603 3500 
L 1178 3500 
L 1178 0 
L 603 0 
L 603 3500 
z
M 603 4863 
L 1178 4863 
L 1178 4134 
L 603 4134 
L 603 4863 
z
" id="DejaVuSans-69" transform="scale(0.015625)"/>
       <path d="M 3513 2113 
L 3513 0 
L 2938 0 
L 2938 2094 
Q 2938 2591 2744 2837 
Q 2550 3084 2163 3084 
Q 1697 3084 1428 2787 
Q 1159 2491 1159 1978 
L 1159 0 
L 581 0 
L 581 3500 
L 1159 3500 
L 1159 2956 
Q 1366 3272 1645 3428 
Q 1925 3584 2291 3584 
Q 2894 3584 3203 3211 
Q 3513 2838 3513 2113 
z
" id="DejaVuSans-6e" transform="scale(0.015625)"/>
       <path d="M 3513 2113 
L 3513 0 
L 2938 0 
L 2938 2094 
Q 2938 2591 2744 2837 
Q 2550 3084 2163 3084 
Q 1697 3084 1428 2787 
Q 1159 2491 1159 1978 
L 1159 0 
L 581 0 
L 581 4863 
L 1159 4863 
L 1159 2956 
Q 1366 3272 1645 3428 
Q 1925 3584 2291 3584 
Q 2894 3584 3203 3211 
Q 3513 2838 3513 2113 
z
" id="DejaVuSans-68" transform="scale(0.015625)"/>
       <path d="M 1984 4856 
Q 1566 4138 1362 3434 
Q 1159 2731 1159 2009 
Q 1159 1288 1364 580 
Q 1569 -128 1984 -844 
L 1484 -844 
Q 1016 -109 783 600 
Q 550 1309 550 2009 
Q 550 2706 781 3412 
Q 1013 4119 1484 4856 
L 1984 4856 
z
" id="DejaVuSans-28" transform="scale(0.015625)"/>
       <path d="M 3841 3500 
L 2234 1784 
L 3219 0 
L 2559 0 
L 1819 1388 
L 531 0 
L -166 0 
L 1556 1844 
L 641 3500 
L 1300 3500 
L 1972 2234 
L 3144 3500 
L 3841 3500 
z
" id="DejaVuSans-Oblique-78" transform="scale(0.015625)"/>
       <path d="M 513 4856 
L 1013 4856 
Q 1481 4119 1714 3412 
Q 1947 2706 1947 2009 
Q 1947 1309 1714 600 
Q 1481 -109 1013 -844 
L 513 -844 
Q 928 -128 1133 580 
Q 1338 1288 1338 2009 
Q 1338 2731 1133 3434 
Q 928 4138 513 4856 
z
" id="DejaVuSans-29" transform="scale(0.015625)"/>
      </defs>
      <use transform="translate(0 0.015625)" xlink:href="#DejaVuSans-73"/>
      <use transform="translate(52.099609 0.015625)" xlink:href="#DejaVuSans-69"/>
      <use transform="translate(79.882812 0.015625)" xlink:href="#DejaVuSans-6e"/>
      <use transform="translate(143.261719 0.015625)" xlink:href="#DejaVuSans-68"/>
      <use transform="translate(206.640625 0.015625)" xlink:href="#DejaVuSans-28"/>
      <use transform="translate(245.654297 0.015625)" xlink:href="#DejaVuSans-Oblique-78"/>
      <use transform="translate(304.833984 0.015625)" xlink:href="#DejaVuSans-29"/>
     </g>
    </g>
    <g id="line2d_30">
     <path d="M 314.9 222.742188 
L 334.9 222.742188 
" style="fill:none;stroke:#0000ff;stroke-linecap:square;stroke-width:2;"/>
    </g>
    <g id="line2d_31"/>
    <g id="text_14">
     <!-- $\cosh(x)$ -->
     <g transform="translate(342.9 226.242188)scale(0.1 -0.1)">
      <defs>
       <path d="M 3122 3366 
L 3122 2828 
Q 2878 2963 2633 3030 
Q 2388 3097 2138 3097 
Q 1578 3097 1268 2742 
Q 959 2388 959 1747 
Q 959 1106 1268 751 
Q 1578 397 2138 397 
Q 2388 397 2633 464 
Q 2878 531 3122 666 
L 3122 134 
Q 2881 22 2623 -34 
Q 2366 -91 2075 -91 
Q 1284 -91 818 406 
Q 353 903 353 1747 
Q 353 2603 823 3093 
Q 1294 3584 2113 3584 
Q 2378 3584 2631 3529 
Q 2884 3475 3122 3366 
z
" id="DejaVuSans-63" transform="scale(0.015625)"/>
       <path d="M 1959 3097 
Q 1497 3097 1228 2736 
Q 959 2375 959 1747 
Q 959 1119 1226 758 
Q 1494 397 1959 397 
Q 2419 397 2687 759 
Q 2956 1122 2956 1747 
Q 2956 2369 2687 2733 
Q 2419 3097 1959 3097 
z
M 1959 3584 
Q 2709 3584 3137 3096 
Q 3566 2609 3566 1747 
Q 3566 888 3137 398 
Q 2709 -91 1959 -91 
Q 1206 -91 779 398 
Q 353 888 353 1747 
Q 353 2609 779 3096 
Q 1206 3584 1959 3584 
z
" id="DejaVuSans-6f" transform="scale(0.015625)"/>
      </defs>
      <use transform="translate(0 0.015625)" xlink:href="#DejaVuSans-63"/>
      <use transform="translate(54.980469 0.015625)" xlink:href="#DejaVuSans-6f"/>
      <use transform="translate(116.162109 0.015625)" xlink:href="#DejaVuSans-73"/>
      <use transform="translate(168.261719 0.015625)" xlink:href="#DejaVuSans-68"/>
      <use transform="translate(231.640625 0.015625)" xlink:href="#DejaVuSans-28"/>
      <use transform="translate(270.654297 0.015625)" xlink:href="#DejaVuSans-Oblique-78"/>
      <use transform="translate(329.833984 0.015625)" xlink:href="#DejaVuSans-29"/>
     </g>
    </g>
    <g id="line2d_32">
     <path d="M 314.9 237.420313 
L 334.9 237.420313 
" style="fill:none;stroke:#008000;stroke-linecap:square;stroke-width:2;"/>
    </g>
    <g id="line2d_33"/>
    <g id="text_15">
     <!-- $\tanh(x)$ -->
     <g transform="translate(342.9 240.920313)scale(0.1 -0.1)">
      <defs>
       <path d="M 1172 4494 
L 1172 3500 
L 2356 3500 
L 2356 3053 
L 1172 3053 
L 1172 1153 
Q 1172 725 1289 603 
Q 1406 481 1766 481 
L 2356 481 
L 2356 0 
L 1766 0 
Q 1100 0 847 248 
Q 594 497 594 1153 
L 594 3053 
L 172 3053 
L 172 3500 
L 594 3500 
L 594 4494 
L 1172 4494 
z
" id="DejaVuSans-74" transform="scale(0.015625)"/>
       <path d="M 2194 1759 
Q 1497 1759 1228 1600 
Q 959 1441 959 1056 
Q 959 750 1161 570 
Q 1363 391 1709 391 
Q 2188 391 2477 730 
Q 2766 1069 2766 1631 
L 2766 1759 
L 2194 1759 
z
M 3341 1997 
L 3341 0 
L 2766 0 
L 2766 531 
Q 2569 213 2275 61 
Q 1981 -91 1556 -91 
Q 1019 -91 701 211 
Q 384 513 384 1019 
Q 384 1609 779 1909 
Q 1175 2209 1959 2209 
L 2766 2209 
L 2766 2266 
Q 2766 2663 2505 2880 
Q 2244 3097 1772 3097 
Q 1472 3097 1187 3025 
Q 903 2953 641 2809 
L 641 3341 
Q 956 3463 1253 3523 
Q 1550 3584 1831 3584 
Q 2591 3584 2966 3190 
Q 3341 2797 3341 1997 
z
" id="DejaVuSans-61" transform="scale(0.015625)"/>
      </defs>
      <use transform="translate(0 0.015625)" xlink:href="#DejaVuSans-74"/>
      <use transform="translate(39.208984 0.015625)" xlink:href="#DejaVuSans-61"/>
      <use transform="translate(100.488281 0.015625)" xlink:href="#DejaVuSans-6e"/>
      <use transform="translate(163.867188 0.015625)" xlink:href="#DejaVuSans-68"/>
      <use transform="translate(227.246094 0.015625)" xlink:href="#DejaVuSans-28"/>
      <use transform="translate(266.259766 0.015625)" xlink:href="#DejaVuSans-Oblique-78"/>
      <use transform="translate(325.439453 0.015625)" xlink:href="#DejaVuSans-29"/>
     </g>
    </g>
   </g>
  </g>
 </g>
 <defs>
  <clipPath id="pa5d59f1aa6">
   <rect height="217.44" width="334.8" x="54" y="34.56"/>
  </clipPath>
 </defs>
</svg>
