<?xml version="1.0" encoding="utf-8" standalone="no"?>
<!DOCTYPE svg PUBLIC "-//W3C//DTD SVG 1.1//EN"
  "http://www.w3.org/Graphics/SVG/1.1/DTD/svg11.dtd">
<svg xmlns:xlink="http://www.w3.org/1999/xlink" width="432pt" height="288pt" viewBox="0 0 432 288" xmlns="http://www.w3.org/2000/svg" version="1.1">
 <metadata>
  <rdf:RDF xmlns:dc="http://purl.org/dc/elements/1.1/" xmlns:cc="http://creativecommons.org/ns#" xmlns:rdf="http://www.w3.org/1999/02/22-rdf-syntax-ns#">
   <cc:Work>
    <dc:type rdf:resource="http://purl.org/dc/dcmitype/StillImage"/>
    <dc:date>2022-05-05T12:31:21.062490</dc:date>
    <dc:format>image/svg+xml</dc:format>
    <dc:creator>
     <cc:Agent>
      <dc:title>Matplotlib v3.5.1, https://matplotlib.org/</dc:title>
     </cc:Agent>
    </dc:creator>
   </cc:Work>
  </rdf:RDF>
 </metadata>
 <defs>
  <style type="text/css">*{stroke-linejoin: round; stroke-linecap: butt}</style>
 </defs>
 <g id="figure_1">
  <g id="patch_1">
   <path d="M 0 288 
L 432 288 
L 432 0 
L 0 0 
L 0 288 
z
" style="fill: none"/>
  </g>
  <g id="axes_1">
   <g id="patch_2">
    <path d="M 54 252 
L 388.8 252 
L 388.8 34.56 
L 54 34.56 
z
" style="fill: #ffffff"/>
   </g>
   <g id="matplotlib.axis_1">
    <g id="xtick_1">
     <g id="line2d_1">
      <defs>
       <path id="md04bc84bf9" d="M 0 0 
L 0 3.5 
" style="stroke: #000000; stroke-width: 0.8"/>
      </defs>
      <g>
       <use xlink:href="#md04bc84bf9" x="64.295741" y="252" style="stroke: #000000; stroke-width: 0.8"/>
      </g>
     </g>
     <g id="text_1">
      <!-- $\mathdefault{0}$ -->
      <g transform="translate(60.881497 268.685876)scale(0.14 -0.14)">
       <defs>
        <path id="CMR17-30" d="M 2688 2038 
C 2688 2430 2682 3099 2413 3613 
C 2176 4063 1798 4224 1466 4224 
C 1158 4224 768 4082 525 3620 
C 269 3137 243 2539 243 2038 
C 243 1671 250 1112 448 623 
C 723 -39 1216 -128 1466 -128 
C 1760 -128 2208 -7 2470 604 
C 2662 1048 2688 1568 2688 2038 
z
M 1466 -26 
C 1056 -26 813 328 723 816 
C 653 1196 653 1749 653 2109 
C 653 2604 653 3015 736 3407 
C 858 3954 1216 4121 1466 4121 
C 1728 4121 2067 3947 2189 3420 
C 2272 3054 2278 2623 2278 2109 
C 2278 1691 2278 1176 2202 797 
C 2067 96 1690 -26 1466 -26 
z
" transform="scale(0.015625)"/>
       </defs>
       <use xlink:href="#CMR17-30" transform="scale(0.996264)"/>
      </g>
     </g>
    </g>
    <g id="xtick_2">
     <g id="line2d_2">
      <g>
       <use xlink:href="#md04bc84bf9" x="113.520149" y="252" style="stroke: #000000; stroke-width: 0.8"/>
      </g>
     </g>
     <g id="text_2">
      <!-- $\mathdefault{1}$ -->
      <g transform="translate(110.105905 268.685876)scale(0.14 -0.14)">
       <defs>
        <path id="CMR17-31" d="M 1702 4083 
C 1702 4217 1696 4224 1606 4224 
C 1357 3927 979 3833 621 3820 
C 602 3820 570 3820 563 3808 
C 557 3795 557 3782 557 3648 
C 755 3648 1088 3686 1344 3839 
L 1344 467 
C 1344 243 1331 166 781 166 
L 589 166 
L 589 0 
C 896 6 1216 12 1523 12 
C 1830 12 2150 6 2458 0 
L 2458 166 
L 2266 166 
C 1715 166 1702 236 1702 467 
L 1702 4083 
z
" transform="scale(0.015625)"/>
       </defs>
       <use xlink:href="#CMR17-31" transform="scale(0.996264)"/>
      </g>
     </g>
    </g>
    <g id="xtick_3">
     <g id="line2d_3">
      <g>
       <use xlink:href="#md04bc84bf9" x="162.744557" y="252" style="stroke: #000000; stroke-width: 0.8"/>
      </g>
     </g>
     <g id="text_3">
      <!-- $\mathdefault{2}$ -->
      <g transform="translate(159.330313 268.685876)scale(0.14 -0.14)">
       <defs>
        <path id="CMR17-32" d="M 2669 990 
L 2554 990 
C 2490 537 2438 460 2413 422 
C 2381 371 1920 371 1830 371 
L 602 371 
C 832 620 1280 1073 1824 1596 
C 2214 1966 2669 2400 2669 3033 
C 2669 3788 2067 4224 1395 4224 
C 691 4224 262 3603 262 3027 
C 262 2777 448 2745 525 2745 
C 589 2745 781 2783 781 3007 
C 781 3206 614 3264 525 3264 
C 486 3264 448 3257 422 3244 
C 544 3788 915 4057 1306 4057 
C 1862 4057 2227 3616 2227 3033 
C 2227 2477 1901 1998 1536 1583 
L 262 147 
L 262 0 
L 2515 0 
L 2669 990 
z
" transform="scale(0.015625)"/>
       </defs>
       <use xlink:href="#CMR17-32" transform="scale(0.996264)"/>
      </g>
     </g>
    </g>
    <g id="xtick_4">
     <g id="line2d_4">
      <g>
       <use xlink:href="#md04bc84bf9" x="211.968965" y="252" style="stroke: #000000; stroke-width: 0.8"/>
      </g>
     </g>
     <g id="text_4">
      <!-- $\mathdefault{3}$ -->
      <g transform="translate(208.554721 268.685876)scale(0.14 -0.14)">
       <defs>
        <path id="CMR17-33" d="M 1414 2176 
C 1984 2176 2234 1673 2234 1094 
C 2234 322 1824 25 1453 25 
C 1114 25 563 193 390 691 
C 422 678 454 678 486 678 
C 640 678 755 780 755 947 
C 755 1132 614 1216 486 1216 
C 378 1216 211 1164 211 927 
C 211 335 787 -128 1466 -128 
C 2176 -128 2720 432 2720 1087 
C 2720 1718 2208 2176 1600 2246 
C 2086 2347 2554 2776 2554 3353 
C 2554 3856 2048 4224 1472 4224 
C 890 4224 378 3862 378 3347 
C 378 3123 544 3084 627 3084 
C 762 3084 877 3167 877 3334 
C 877 3500 762 3584 627 3584 
C 602 3584 570 3584 544 3571 
C 730 3999 1235 4076 1459 4076 
C 1683 4076 2106 3966 2106 3347 
C 2106 3167 2080 2851 1862 2574 
C 1670 2329 1453 2316 1242 2297 
C 1210 2297 1062 2284 1037 2284 
C 992 2278 966 2272 966 2227 
C 966 2182 973 2176 1101 2176 
L 1414 2176 
z
" transform="scale(0.015625)"/>
       </defs>
       <use xlink:href="#CMR17-33" transform="scale(0.996264)"/>
      </g>
     </g>
    </g>
    <g id="xtick_5">
     <g id="line2d_5">
      <g>
       <use xlink:href="#md04bc84bf9" x="261.193373" y="252" style="stroke: #000000; stroke-width: 0.8"/>
      </g>
     </g>
     <g id="text_5">
      <!-- $\mathdefault{4}$ -->
      <g transform="translate(257.779129 268.685876)scale(0.14 -0.14)">
       <defs>
        <path id="CMR17-34" d="M 2150 4147 
C 2150 4281 2144 4288 2029 4288 
L 128 1254 
L 128 1088 
L 1779 1088 
L 1779 460 
C 1779 230 1766 166 1318 166 
L 1197 166 
L 1197 0 
C 1402 12 1747 12 1965 12 
C 2182 12 2528 12 2733 0 
L 2733 166 
L 2611 166 
C 2163 166 2150 230 2150 460 
L 2150 1088 
L 2803 1088 
L 2803 1254 
L 2150 1254 
L 2150 4147 
z
M 1798 3723 
L 1798 1254 
L 256 1254 
L 1798 3723 
z
" transform="scale(0.015625)"/>
       </defs>
       <use xlink:href="#CMR17-34" transform="scale(0.996264)"/>
      </g>
     </g>
    </g>
    <g id="xtick_6">
     <g id="line2d_6">
      <g>
       <use xlink:href="#md04bc84bf9" x="310.417781" y="252" style="stroke: #000000; stroke-width: 0.8"/>
      </g>
     </g>
     <g id="text_6">
      <!-- $\mathdefault{5}$ -->
      <g transform="translate(307.003537 268.685876)scale(0.14 -0.14)">
       <defs>
        <path id="CMR17-35" d="M 730 3750 
C 794 3724 1056 3641 1325 3641 
C 1920 3641 2246 3961 2432 4140 
C 2432 4191 2432 4224 2394 4224 
C 2387 4224 2374 4224 2323 4198 
C 2099 4102 1837 4032 1517 4032 
C 1325 4032 1037 4055 723 4191 
C 653 4224 640 4224 634 4224 
C 602 4224 595 4217 595 4090 
L 595 2231 
C 595 2113 595 2080 659 2080 
C 691 2080 704 2093 736 2139 
C 941 2435 1222 2560 1542 2560 
C 1766 2560 2246 2415 2246 1293 
C 2246 1087 2246 716 2054 422 
C 1894 159 1645 25 1370 25 
C 947 25 518 319 403 812 
C 429 806 480 793 506 793 
C 589 793 749 838 749 1036 
C 749 1209 627 1280 506 1280 
C 358 1280 262 1190 262 1011 
C 262 454 704 -128 1382 -128 
C 2042 -128 2669 441 2669 1267 
C 2669 2054 2170 2662 1549 2662 
C 1222 2662 947 2540 730 2304 
L 730 3750 
z
" transform="scale(0.015625)"/>
       </defs>
       <use xlink:href="#CMR17-35" transform="scale(0.996264)"/>
      </g>
     </g>
    </g>
    <g id="xtick_7">
     <g id="line2d_7">
      <g>
       <use xlink:href="#md04bc84bf9" x="359.642189" y="252" style="stroke: #000000; stroke-width: 0.8"/>
      </g>
     </g>
     <g id="text_7">
      <!-- $\mathdefault{6}$ -->
      <g transform="translate(356.227945 268.685876)scale(0.14 -0.14)">
       <defs>
        <path id="CMR17-36" d="M 678 2198 
C 678 3712 1395 4076 1811 4076 
C 1946 4076 2272 4049 2400 3782 
C 2298 3782 2106 3782 2106 3558 
C 2106 3385 2246 3328 2336 3328 
C 2394 3328 2566 3353 2566 3571 
C 2566 3987 2246 4224 1805 4224 
C 1043 4224 243 3411 243 2011 
C 243 257 966 -128 1478 -128 
C 2099 -128 2688 431 2688 1295 
C 2688 2101 2170 2688 1517 2688 
C 1126 2688 838 2430 678 1979 
L 678 2198 
z
M 1478 25 
C 691 25 691 1212 691 1450 
C 691 1914 909 2585 1504 2585 
C 1613 2585 1926 2585 2138 2140 
C 2253 1889 2253 1624 2253 1302 
C 2253 954 2253 696 2118 438 
C 1978 173 1773 25 1478 25 
z
" transform="scale(0.015625)"/>
       </defs>
       <use xlink:href="#CMR17-36" transform="scale(0.996264)"/>
      </g>
     </g>
    </g>
   </g>
   <g id="matplotlib.axis_2">
    <g id="ytick_1">
     <g id="line2d_8">
      <defs>
       <path id="m99760ed8dd" d="M 0 0 
L -3.5 0 
" style="stroke: #000000; stroke-width: 0.8"/>
      </defs>
      <g>
       <use xlink:href="#m99760ed8dd" x="54" y="242.147297" style="stroke: #000000; stroke-width: 0.8"/>
      </g>
     </g>
     <g id="text_8">
      <!-- $\mathdefault{1.0}$ -->
      <g transform="translate(29.549418 246.990235)scale(0.14 -0.14)">
       <defs>
        <path id="CMMI12-3a" d="M 1178 307 
C 1178 492 1024 620 870 620 
C 685 620 557 467 557 313 
C 557 128 710 0 864 0 
C 1050 0 1178 153 1178 307 
z
" transform="scale(0.015625)"/>
       </defs>
       <use xlink:href="#CMR17-31" transform="scale(0.996264)"/>
       <use xlink:href="#CMMI12-3a" transform="translate(45.690477 0)scale(0.996264)"/>
       <use xlink:href="#CMR17-30" transform="translate(72.787654 0)scale(0.996264)"/>
      </g>
     </g>
    </g>
    <g id="ytick_2">
     <g id="line2d_9">
      <g>
       <use xlink:href="#m99760ed8dd" x="54" y="192.651811" style="stroke: #000000; stroke-width: 0.8"/>
      </g>
     </g>
     <g id="text_9">
      <!-- $\mathdefault{1.5}$ -->
      <g transform="translate(29.549418 197.494749)scale(0.14 -0.14)">
       <use xlink:href="#CMR17-31" transform="scale(0.996264)"/>
       <use xlink:href="#CMMI12-3a" transform="translate(45.690477 0)scale(0.996264)"/>
       <use xlink:href="#CMR17-35" transform="translate(72.787654 0)scale(0.996264)"/>
      </g>
     </g>
    </g>
    <g id="ytick_3">
     <g id="line2d_10">
      <g>
       <use xlink:href="#m99760ed8dd" x="54" y="143.156326" style="stroke: #000000; stroke-width: 0.8"/>
      </g>
     </g>
     <g id="text_10">
      <!-- $\mathdefault{2.0}$ -->
      <g transform="translate(29.549418 147.999264)scale(0.14 -0.14)">
       <use xlink:href="#CMR17-32" transform="scale(0.996264)"/>
       <use xlink:href="#CMMI12-3a" transform="translate(45.690477 0)scale(0.996264)"/>
       <use xlink:href="#CMR17-30" transform="translate(72.787654 0)scale(0.996264)"/>
      </g>
     </g>
    </g>
    <g id="ytick_4">
     <g id="line2d_11">
      <g>
       <use xlink:href="#m99760ed8dd" x="54" y="93.66084" style="stroke: #000000; stroke-width: 0.8"/>
      </g>
     </g>
     <g id="text_11">
      <!-- $\mathdefault{2.5}$ -->
      <g transform="translate(29.549418 98.503778)scale(0.14 -0.14)">
       <use xlink:href="#CMR17-32" transform="scale(0.996264)"/>
       <use xlink:href="#CMMI12-3a" transform="translate(45.690477 0)scale(0.996264)"/>
       <use xlink:href="#CMR17-35" transform="translate(72.787654 0)scale(0.996264)"/>
      </g>
     </g>
    </g>
    <g id="ytick_5">
     <g id="line2d_12">
      <g>
       <use xlink:href="#m99760ed8dd" x="54" y="44.165355" style="stroke: #000000; stroke-width: 0.8"/>
      </g>
     </g>
     <g id="text_12">
      <!-- $\mathdefault{3.0}$ -->
      <g transform="translate(29.549418 49.008293)scale(0.14 -0.14)">
       <use xlink:href="#CMR17-33" transform="scale(0.996264)"/>
       <use xlink:href="#CMMI12-3a" transform="translate(45.690477 0)scale(0.996264)"/>
       <use xlink:href="#CMR17-30" transform="translate(72.787654 0)scale(0.996264)"/>
      </g>
     </g>
    </g>
   </g>
   <g id="LineCollection_1">
    <path d="M 69.218182 143.156326 
L 69.218182 133.273719 
" clip-path="url(#pe606446358)" style="fill: none; stroke: #000000; stroke-width: 1.5"/>
    <path d="M 76.827273 143.156326 
L 76.827273 118.226577 
" clip-path="url(#pe606446358)" style="fill: none; stroke: #000000; stroke-width: 1.5"/>
    <path d="M 84.436364 143.156326 
L 84.436364 103.773943 
" clip-path="url(#pe606446358)" style="fill: none; stroke: #000000; stroke-width: 1.5"/>
    <path d="M 92.045455 143.156326 
L 92.045455 90.260473 
" clip-path="url(#pe606446358)" style="fill: none; stroke: #000000; stroke-width: 1.5"/>
    <path d="M 99.654545 143.156326 
L 99.654545 78.008427 
" clip-path="url(#pe606446358)" style="fill: none; stroke: #000000; stroke-width: 1.5"/>
    <path d="M 107.263636 143.156326 
L 107.263636 67.309985 
" clip-path="url(#pe606446358)" style="fill: none; stroke: #000000; stroke-width: 1.5"/>
    <path d="M 114.872727 143.156326 
L 114.872727 58.420274 
" clip-path="url(#pe606446358)" style="fill: none; stroke: #000000; stroke-width: 1.5"/>
    <path d="M 122.481818 143.156326 
L 122.481818 51.551291 
" clip-path="url(#pe606446358)" style="fill: none; stroke: #000000; stroke-width: 1.5"/>
    <path d="M 130.090909 143.156326 
L 130.090909 46.866842 
" clip-path="url(#pe606446358)" style="fill: none; stroke: #000000; stroke-width: 1.5"/>
    <path d="M 137.7 143.156326 
L 137.7 44.47864 
" clip-path="url(#pe606446358)" style="fill: none; stroke: #000000; stroke-width: 1.5"/>
    <path d="M 145.309091 143.156326 
L 145.309091 44.443636 
" clip-path="url(#pe606446358)" style="fill: none; stroke: #000000; stroke-width: 1.5"/>
    <path d="M 152.918182 143.156326 
L 152.918182 46.762666 
" clip-path="url(#pe606446358)" style="fill: none; stroke: #000000; stroke-width: 1.5"/>
    <path d="M 160.527273 143.156326 
L 160.527273 51.380425 
" clip-path="url(#pe606446358)" style="fill: none; stroke: #000000; stroke-width: 1.5"/>
    <path d="M 168.136364 143.156326 
L 168.136364 58.186795 
" clip-path="url(#pe606446358)" style="fill: none; stroke: #000000; stroke-width: 1.5"/>
    <path d="M 175.745455 143.156326 
L 175.745455 67.019459 
" clip-path="url(#pe606446358)" style="fill: none; stroke: #000000; stroke-width: 1.5"/>
    <path d="M 183.354545 143.156326 
L 183.354545 77.667784 
" clip-path="url(#pe606446358)" style="fill: none; stroke: #000000; stroke-width: 1.5"/>
    <path d="M 190.963636 143.156326 
L 190.963636 89.877835 
" clip-path="url(#pe606446358)" style="fill: none; stroke: #000000; stroke-width: 1.5"/>
    <path d="M 198.572727 143.156326 
L 198.572727 103.358436 
" clip-path="url(#pe606446358)" style="fill: none; stroke: #000000; stroke-width: 1.5"/>
    <path d="M 206.181818 143.156326 
L 206.181818 117.788109 
" clip-path="url(#pe606446358)" style="fill: none; stroke: #000000; stroke-width: 1.5"/>
    <path d="M 213.790909 143.156326 
L 213.790909 132.822747 
" clip-path="url(#pe606446358)" style="fill: none; stroke: #000000; stroke-width: 1.5"/>
    <path d="M 221.4 143.156326 
L 221.4 148.103812 
" clip-path="url(#pe606446358)" style="fill: none; stroke: #000000; stroke-width: 1.5"/>
    <path d="M 229.009091 143.156326 
L 229.009091 163.266894 
" clip-path="url(#pe606446358)" style="fill: none; stroke: #000000; stroke-width: 1.5"/>
    <path d="M 236.618182 143.156326 
L 236.618182 177.950392 
" clip-path="url(#pe606446358)" style="fill: none; stroke: #000000; stroke-width: 1.5"/>
    <path d="M 244.227273 143.156326 
L 244.227273 191.804145 
" clip-path="url(#pe606446358)" style="fill: none; stroke: #000000; stroke-width: 1.5"/>
    <path d="M 251.836364 143.156326 
L 251.836364 204.497777 
" clip-path="url(#pe606446358)" style="fill: none; stroke: #000000; stroke-width: 1.5"/>
    <path d="M 259.445455 143.156326 
L 259.445455 215.728581 
" clip-path="url(#pe606446358)" style="fill: none; stroke: #000000; stroke-width: 1.5"/>
    <path d="M 267.054545 143.156326 
L 267.054545 225.228731 
" clip-path="url(#pe606446358)" style="fill: none; stroke: #000000; stroke-width: 1.5"/>
    <path d="M 274.663636 143.156326 
L 274.663636 232.771673 
" clip-path="url(#pe606446358)" style="fill: none; stroke: #000000; stroke-width: 1.5"/>
    <path d="M 282.272727 143.156326 
L 282.272727 238.17753 
" clip-path="url(#pe606446358)" style="fill: none; stroke: #000000; stroke-width: 1.5"/>
    <path d="M 289.881818 143.156326 
L 289.881818 241.317386 
" clip-path="url(#pe606446358)" style="fill: none; stroke: #000000; stroke-width: 1.5"/>
    <path d="M 297.490909 143.156326 
L 297.490909 242.116364 
" clip-path="url(#pe606446358)" style="fill: none; stroke: #000000; stroke-width: 1.5"/>
    <path d="M 305.1 143.156326 
L 305.1 240.555409 
" clip-path="url(#pe606446358)" style="fill: none; stroke: #000000; stroke-width: 1.5"/>
    <path d="M 312.709091 143.156326 
L 312.709091 236.671748 
" clip-path="url(#pe606446358)" style="fill: none; stroke: #000000; stroke-width: 1.5"/>
    <path d="M 320.318182 143.156326 
L 320.318182 230.557995 
" clip-path="url(#pe606446358)" style="fill: none; stroke: #000000; stroke-width: 1.5"/>
    <path d="M 327.927273 143.156326 
L 327.927273 222.359945 
" clip-path="url(#pe606446358)" style="fill: none; stroke: #000000; stroke-width: 1.5"/>
    <path d="M 335.536364 143.156326 
L 335.536364 212.273102 
" clip-path="url(#pe606446358)" style="fill: none; stroke: #000000; stroke-width: 1.5"/>
    <path d="M 343.145455 143.156326 
L 343.145455 200.538009 
" clip-path="url(#pe606446358)" style="fill: none; stroke: #000000; stroke-width: 1.5"/>
    <path d="M 350.754545 143.156326 
L 350.754545 187.434516 
" clip-path="url(#pe606446358)" style="fill: none; stroke: #000000; stroke-width: 1.5"/>
    <path d="M 358.363636 143.156326 
L 358.363636 173.275108 
" clip-path="url(#pe606446358)" style="fill: none; stroke: #000000; stroke-width: 1.5"/>
    <path d="M 365.972727 143.156326 
L 365.972727 158.397447 
" clip-path="url(#pe606446358)" style="fill: none; stroke: #000000; stroke-width: 1.5"/>
    <path d="M 373.581818 143.156326 
L 373.581818 143.156326 
" clip-path="url(#pe606446358)" style="fill: none; stroke: #000000; stroke-width: 1.5"/>
   </g>
   <g id="line2d_13">
    <defs>
     <path id="ma5f1802020" d="M 0 2.5 
C 0.663008 2.5 1.29895 2.236584 1.767767 1.767767 
C 2.236584 1.29895 2.5 0.663008 2.5 0 
C 2.5 -0.663008 2.236584 -1.29895 1.767767 -1.767767 
C 1.29895 -2.236584 0.663008 -2.5 0 -2.5 
C -0.663008 -2.5 -1.29895 -2.236584 -1.767767 -1.767767 
C -2.236584 -1.29895 -2.5 -0.663008 -2.5 0 
C -2.5 0.663008 -2.236584 1.29895 -1.767767 1.767767 
C -1.29895 2.236584 -0.663008 2.5 0 2.5 
z
" style="stroke: #1f77b4"/>
    </defs>
    <g clip-path="url(#pe606446358)">
     <use xlink:href="#ma5f1802020" x="69.218182" y="133.273719" style="fill: #1f77b4; stroke: #1f77b4"/>
     <use xlink:href="#ma5f1802020" x="76.827273" y="118.226577" style="fill: #1f77b4; stroke: #1f77b4"/>
     <use xlink:href="#ma5f1802020" x="84.436364" y="103.773943" style="fill: #1f77b4; stroke: #1f77b4"/>
     <use xlink:href="#ma5f1802020" x="92.045455" y="90.260473" style="fill: #1f77b4; stroke: #1f77b4"/>
     <use xlink:href="#ma5f1802020" x="99.654545" y="78.008427" style="fill: #1f77b4; stroke: #1f77b4"/>
     <use xlink:href="#ma5f1802020" x="107.263636" y="67.309985" style="fill: #1f77b4; stroke: #1f77b4"/>
     <use xlink:href="#ma5f1802020" x="114.872727" y="58.420274" style="fill: #1f77b4; stroke: #1f77b4"/>
     <use xlink:href="#ma5f1802020" x="122.481818" y="51.551291" style="fill: #1f77b4; stroke: #1f77b4"/>
     <use xlink:href="#ma5f1802020" x="130.090909" y="46.866842" style="fill: #1f77b4; stroke: #1f77b4"/>
     <use xlink:href="#ma5f1802020" x="137.7" y="44.47864" style="fill: #1f77b4; stroke: #1f77b4"/>
     <use xlink:href="#ma5f1802020" x="145.309091" y="44.443636" style="fill: #1f77b4; stroke: #1f77b4"/>
     <use xlink:href="#ma5f1802020" x="152.918182" y="46.762666" style="fill: #1f77b4; stroke: #1f77b4"/>
     <use xlink:href="#ma5f1802020" x="160.527273" y="51.380425" style="fill: #1f77b4; stroke: #1f77b4"/>
     <use xlink:href="#ma5f1802020" x="168.136364" y="58.186795" style="fill: #1f77b4; stroke: #1f77b4"/>
     <use xlink:href="#ma5f1802020" x="175.745455" y="67.019459" style="fill: #1f77b4; stroke: #1f77b4"/>
     <use xlink:href="#ma5f1802020" x="183.354545" y="77.667784" style="fill: #1f77b4; stroke: #1f77b4"/>
     <use xlink:href="#ma5f1802020" x="190.963636" y="89.877835" style="fill: #1f77b4; stroke: #1f77b4"/>
     <use xlink:href="#ma5f1802020" x="198.572727" y="103.358436" style="fill: #1f77b4; stroke: #1f77b4"/>
     <use xlink:href="#ma5f1802020" x="206.181818" y="117.788109" style="fill: #1f77b4; stroke: #1f77b4"/>
     <use xlink:href="#ma5f1802020" x="213.790909" y="132.822747" style="fill: #1f77b4; stroke: #1f77b4"/>
     <use xlink:href="#ma5f1802020" x="221.4" y="148.103812" style="fill: #1f77b4; stroke: #1f77b4"/>
     <use xlink:href="#ma5f1802020" x="229.009091" y="163.266894" style="fill: #1f77b4; stroke: #1f77b4"/>
     <use xlink:href="#ma5f1802020" x="236.618182" y="177.950392" style="fill: #1f77b4; stroke: #1f77b4"/>
     <use xlink:href="#ma5f1802020" x="244.227273" y="191.804145" style="fill: #1f77b4; stroke: #1f77b4"/>
     <use xlink:href="#ma5f1802020" x="251.836364" y="204.497777" style="fill: #1f77b4; stroke: #1f77b4"/>
     <use xlink:href="#ma5f1802020" x="259.445455" y="215.728581" style="fill: #1f77b4; stroke: #1f77b4"/>
     <use xlink:href="#ma5f1802020" x="267.054545" y="225.228731" style="fill: #1f77b4; stroke: #1f77b4"/>
     <use xlink:href="#ma5f1802020" x="274.663636" y="232.771673" style="fill: #1f77b4; stroke: #1f77b4"/>
     <use xlink:href="#ma5f1802020" x="282.272727" y="238.17753" style="fill: #1f77b4; stroke: #1f77b4"/>
     <use xlink:href="#ma5f1802020" x="289.881818" y="241.317386" style="fill: #1f77b4; stroke: #1f77b4"/>
     <use xlink:href="#ma5f1802020" x="297.490909" y="242.116364" style="fill: #1f77b4; stroke: #1f77b4"/>
     <use xlink:href="#ma5f1802020" x="305.1" y="240.555409" style="fill: #1f77b4; stroke: #1f77b4"/>
     <use xlink:href="#ma5f1802020" x="312.709091" y="236.671748" style="fill: #1f77b4; stroke: #1f77b4"/>
     <use xlink:href="#ma5f1802020" x="320.318182" y="230.557995" style="fill: #1f77b4; stroke: #1f77b4"/>
     <use xlink:href="#ma5f1802020" x="327.927273" y="222.359945" style="fill: #1f77b4; stroke: #1f77b4"/>
     <use xlink:href="#ma5f1802020" x="335.536364" y="212.273102" style="fill: #1f77b4; stroke: #1f77b4"/>
     <use xlink:href="#ma5f1802020" x="343.145455" y="200.538009" style="fill: #1f77b4; stroke: #1f77b4"/>
     <use xlink:href="#ma5f1802020" x="350.754545" y="187.434516" style="fill: #1f77b4; stroke: #1f77b4"/>
     <use xlink:href="#ma5f1802020" x="358.363636" y="173.275108" style="fill: #1f77b4; stroke: #1f77b4"/>
     <use xlink:href="#ma5f1802020" x="365.972727" y="158.397447" style="fill: #1f77b4; stroke: #1f77b4"/>
     <use xlink:href="#ma5f1802020" x="373.581818" y="143.156326" style="fill: #1f77b4; stroke: #1f77b4"/>
    </g>
   </g>
   <g id="line2d_14">
    <path d="M 69.218182 143.156326 
L 373.581818 143.156326 
" clip-path="url(#pe606446358)" style="fill: none; stroke: #000000; stroke-width: 1.5; stroke-linecap: square"/>
   </g>
   <g id="patch_3">
    <path d="M 54 252 
L 54 34.56 
" style="fill: none; stroke: #000000; stroke-width: 0.8; stroke-linejoin: miter; stroke-linecap: square"/>
   </g>
   <g id="patch_4">
    <path d="M 388.8 252 
L 388.8 34.56 
" style="fill: none; stroke: #000000; stroke-width: 0.8; stroke-linejoin: miter; stroke-linecap: square"/>
   </g>
   <g id="patch_5">
    <path d="M 54 252 
L 388.8 252 
" style="fill: none; stroke: #000000; stroke-width: 0.8; stroke-linejoin: miter; stroke-linecap: square"/>
   </g>
   <g id="patch_6">
    <path d="M 54 34.56 
L 388.8 34.56 
" style="fill: none; stroke: #000000; stroke-width: 0.8; stroke-linejoin: miter; stroke-linecap: square"/>
   </g>
  </g>
 </g>
 <defs>
  <clipPath id="pe606446358">
   <rect x="54" y="34.56" width="334.8" height="217.44"/>
  </clipPath>
 </defs>
</svg>
