<?xml version="1.0" encoding="utf-8" standalone="no"?>
<!DOCTYPE svg PUBLIC "-//W3C//DTD SVG 1.1//EN"
  "http://www.w3.org/Graphics/SVG/1.1/DTD/svg11.dtd">
<!-- Created with matplotlib (https://matplotlib.org/) -->
<svg height="288pt" version="1.1" viewBox="0 0 432 288" width="432pt" xmlns="http://www.w3.org/2000/svg" xmlns:xlink="http://www.w3.org/1999/xlink">
 <defs>
  <style type="text/css">
*{stroke-linecap:butt;stroke-linejoin:round;}
  </style>
 </defs>
 <g id="figure_1">
  <g id="patch_1">
   <path d="M 0 288 
L 432 288 
L 432 0 
L 0 0 
z
" style="fill:#ffffff;"/>
  </g>
  <g id="axes_1">
   <g id="patch_2">
    <path d="M 45.3 121.6 
L 208.26031 121.6 
L 208.26031 26.8 
L 45.3 26.8 
z
" style="fill:#ffffff;"/>
   </g>
   <g id="matplotlib.axis_1">
    <g id="xtick_1">
     <g id="line2d_1">
      <defs>
       <path d="M 0 0 
L 0 3.5 
" id="m8a5cdea7f2" style="stroke:#000000;stroke-width:0.8;"/>
      </defs>
      <g>
       <use style="stroke:#000000;stroke-width:0.8;" x="77.816734" xlink:href="#m8a5cdea7f2" y="121.6"/>
      </g>
     </g>
     <g id="text_1">
      <!-- −4 -->
      <defs>
       <path d="M 10.59375 35.5 
L 73.1875 35.5 
L 73.1875 27.203125 
L 10.59375 27.203125 
z
" id="DejaVuSans-8722"/>
       <path d="M 37.796875 64.3125 
L 12.890625 25.390625 
L 37.796875 25.390625 
z
M 35.203125 72.90625 
L 47.609375 72.90625 
L 47.609375 25.390625 
L 58.015625 25.390625 
L 58.015625 17.1875 
L 47.609375 17.1875 
L 47.609375 0 
L 37.796875 0 
L 37.796875 17.1875 
L 4.890625 17.1875 
L 4.890625 26.703125 
z
" id="DejaVuSans-52"/>
      </defs>
      <g transform="translate(70.44564 136.198437)scale(0.1 -0.1)">
       <use xlink:href="#DejaVuSans-8722"/>
       <use x="83.789062" xlink:href="#DejaVuSans-52"/>
      </g>
     </g>
    </g>
    <g id="xtick_2">
     <g id="line2d_2">
      <g>
       <use style="stroke:#000000;stroke-width:0.8;" x="128.035628" xlink:href="#m8a5cdea7f2" y="121.6"/>
      </g>
     </g>
     <g id="text_2">
      <!-- −2 -->
      <defs>
       <path d="M 19.1875 8.296875 
L 53.609375 8.296875 
L 53.609375 0 
L 7.328125 0 
L 7.328125 8.296875 
Q 12.9375 14.109375 22.625 23.890625 
Q 32.328125 33.6875 34.8125 36.53125 
Q 39.546875 41.84375 41.421875 45.53125 
Q 43.3125 49.21875 43.3125 52.78125 
Q 43.3125 58.59375 39.234375 62.25 
Q 35.15625 65.921875 28.609375 65.921875 
Q 23.96875 65.921875 18.8125 64.3125 
Q 13.671875 62.703125 7.8125 59.421875 
L 7.8125 69.390625 
Q 13.765625 71.78125 18.9375 73 
Q 24.125 74.21875 28.421875 74.21875 
Q 39.75 74.21875 46.484375 68.546875 
Q 53.21875 62.890625 53.21875 53.421875 
Q 53.21875 48.921875 51.53125 44.890625 
Q 49.859375 40.875 45.40625 35.40625 
Q 44.1875 33.984375 37.640625 27.21875 
Q 31.109375 20.453125 19.1875 8.296875 
z
" id="DejaVuSans-50"/>
      </defs>
      <g transform="translate(120.664534 136.198437)scale(0.1 -0.1)">
       <use xlink:href="#DejaVuSans-8722"/>
       <use x="83.789062" xlink:href="#DejaVuSans-50"/>
      </g>
     </g>
    </g>
    <g id="xtick_3">
     <g id="line2d_3">
      <g>
       <use style="stroke:#000000;stroke-width:0.8;" x="178.254521" xlink:href="#m8a5cdea7f2" y="121.6"/>
      </g>
     </g>
     <g id="text_3">
      <!-- 0 -->
      <defs>
       <path d="M 31.78125 66.40625 
Q 24.171875 66.40625 20.328125 58.90625 
Q 16.5 51.421875 16.5 36.375 
Q 16.5 21.390625 20.328125 13.890625 
Q 24.171875 6.390625 31.78125 6.390625 
Q 39.453125 6.390625 43.28125 13.890625 
Q 47.125 21.390625 47.125 36.375 
Q 47.125 51.421875 43.28125 58.90625 
Q 39.453125 66.40625 31.78125 66.40625 
z
M 31.78125 74.21875 
Q 44.046875 74.21875 50.515625 64.515625 
Q 56.984375 54.828125 56.984375 36.375 
Q 56.984375 17.96875 50.515625 8.265625 
Q 44.046875 -1.421875 31.78125 -1.421875 
Q 19.53125 -1.421875 13.0625 8.265625 
Q 6.59375 17.96875 6.59375 36.375 
Q 6.59375 54.828125 13.0625 64.515625 
Q 19.53125 74.21875 31.78125 74.21875 
z
" id="DejaVuSans-48"/>
      </defs>
      <g transform="translate(175.073271 136.198437)scale(0.1 -0.1)">
       <use xlink:href="#DejaVuSans-48"/>
      </g>
     </g>
    </g>
   </g>
   <g id="matplotlib.axis_2">
    <g id="ytick_1">
     <g id="line2d_4">
      <defs>
       <path d="M 0 0 
L -3.5 0 
" id="mb40215585b" style="stroke:#000000;stroke-width:0.8;"/>
      </defs>
      <g>
       <use style="stroke:#000000;stroke-width:0.8;" x="45.3" xlink:href="#mb40215585b" y="120.899267"/>
      </g>
     </g>
     <g id="text_4">
      <!-- −100 -->
      <defs>
       <path d="M 12.40625 8.296875 
L 28.515625 8.296875 
L 28.515625 63.921875 
L 10.984375 60.40625 
L 10.984375 69.390625 
L 28.421875 72.90625 
L 38.28125 72.90625 
L 38.28125 8.296875 
L 54.390625 8.296875 
L 54.390625 0 
L 12.40625 0 
z
" id="DejaVuSans-49"/>
      </defs>
      <g transform="translate(10.832813 124.698486)scale(0.1 -0.1)">
       <use xlink:href="#DejaVuSans-8722"/>
       <use x="83.789062" xlink:href="#DejaVuSans-49"/>
       <use x="147.412109" xlink:href="#DejaVuSans-48"/>
       <use x="211.035156" xlink:href="#DejaVuSans-48"/>
      </g>
     </g>
    </g>
    <g id="ytick_2">
     <g id="line2d_5">
      <g>
       <use style="stroke:#000000;stroke-width:0.8;" x="45.3" xlink:href="#mb40215585b" y="84.753768"/>
      </g>
     </g>
     <g id="text_5">
      <!-- 0 -->
      <g transform="translate(31.9375 88.552987)scale(0.1 -0.1)">
       <use xlink:href="#DejaVuSans-48"/>
      </g>
     </g>
    </g>
    <g id="ytick_3">
     <g id="line2d_6">
      <g>
       <use style="stroke:#000000;stroke-width:0.8;" x="45.3" xlink:href="#mb40215585b" y="48.608269"/>
      </g>
     </g>
     <g id="text_6">
      <!-- 100 -->
      <g transform="translate(19.2125 52.407488)scale(0.1 -0.1)">
       <use xlink:href="#DejaVuSans-49"/>
       <use x="63.623047" xlink:href="#DejaVuSans-48"/>
       <use x="127.246094" xlink:href="#DejaVuSans-48"/>
      </g>
     </g>
    </g>
   </g>
   <g id="line2d_7">
    <path clip-path="url(#p834f0257a6)" d="M 52.707287 31.109091 
L 55.218232 45.484317 
L 57.729176 71.181572 
L 60.240121 97.034398 
L 62.751066 113.845293 
L 65.26201 117.290909 
L 67.772955 108.571894 
L 70.2839 92.98572 
L 72.794844 77.305189 
L 75.305789 67.108866 
L 77.816734 65.018994 
L 80.327678 70.307344 
L 82.838623 79.760836 
L 85.349568 89.271559 
L 87.860512 95.455942 
L 90.371457 96.723513 
L 92.882402 93.515967 
L 95.393347 87.782134 
L 97.904291 82.013589 
L 100.415236 78.262571 
L 102.926181 77.49375 
L 105.437125 79.439226 
L 107.94807 82.916971 
L 110.459015 86.41577 
L 112.969959 88.690878 
L 115.480904 89.157191 
L 117.991849 87.977201 
L 120.502793 85.867841 
L 123.013738 83.745712 
L 125.524683 82.36579 
L 128.035628 82.082957 
L 130.546572 82.798657 
L 133.057517 84.078048 
L 135.568462 85.365184 
L 138.079406 86.20215 
L 140.590351 86.373697 
L 143.101296 85.939602 
L 145.61224 85.163613 
L 148.123185 84.382925 
L 150.63413 83.87528 
L 153.145074 83.771231 
L 155.656019 84.034523 
L 158.166964 84.505184 
L 160.677909 84.978695 
L 163.188853 85.286598 
L 165.699798 85.349706 
L 168.210743 85.190012 
L 170.721687 84.904541 
L 173.232632 84.617342 
L 175.743577 84.43059 
L 178.254521 84.392313 
L 180.765466 84.489172 
L 183.276411 84.662319 
L 185.787355 84.836514 
L 188.2983 84.949785 
L 190.809245 84.973001 
L 193.320189 84.914253 
L 195.831134 84.809234 
L 198.342079 84.70358 
L 200.853024 84.634877 
" style="fill:none;stroke:#1f77b4;stroke-linecap:square;stroke-width:1.5;"/>
   </g>
   <g id="patch_3">
    <path d="M 45.3 121.6 
L 45.3 26.8 
" style="fill:none;stroke:#000000;stroke-linecap:square;stroke-linejoin:miter;stroke-width:0.8;"/>
   </g>
   <g id="patch_4">
    <path d="M 208.26031 121.6 
L 208.26031 26.8 
" style="fill:none;stroke:#000000;stroke-linecap:square;stroke-linejoin:miter;stroke-width:0.8;"/>
   </g>
   <g id="patch_5">
    <path d="M 45.3 121.6 
L 208.26031 121.6 
" style="fill:none;stroke:#000000;stroke-linecap:square;stroke-linejoin:miter;stroke-width:0.8;"/>
   </g>
   <g id="patch_6">
    <path d="M 45.3 26.8 
L 208.26031 26.8 
" style="fill:none;stroke:#000000;stroke-linecap:square;stroke-linejoin:miter;stroke-width:0.8;"/>
   </g>
   <g id="text_7">
    <!-- The function f -->
    <defs>
     <path d="M -0.296875 72.90625 
L 61.375 72.90625 
L 61.375 64.59375 
L 35.5 64.59375 
L 35.5 0 
L 25.59375 0 
L 25.59375 64.59375 
L -0.296875 64.59375 
z
" id="DejaVuSans-84"/>
     <path d="M 54.890625 33.015625 
L 54.890625 0 
L 45.90625 0 
L 45.90625 32.71875 
Q 45.90625 40.484375 42.875 44.328125 
Q 39.84375 48.1875 33.796875 48.1875 
Q 26.515625 48.1875 22.3125 43.546875 
Q 18.109375 38.921875 18.109375 30.90625 
L 18.109375 0 
L 9.078125 0 
L 9.078125 75.984375 
L 18.109375 75.984375 
L 18.109375 46.1875 
Q 21.34375 51.125 25.703125 53.5625 
Q 30.078125 56 35.796875 56 
Q 45.21875 56 50.046875 50.171875 
Q 54.890625 44.34375 54.890625 33.015625 
z
" id="DejaVuSans-104"/>
     <path d="M 56.203125 29.59375 
L 56.203125 25.203125 
L 14.890625 25.203125 
Q 15.484375 15.921875 20.484375 11.0625 
Q 25.484375 6.203125 34.421875 6.203125 
Q 39.59375 6.203125 44.453125 7.46875 
Q 49.3125 8.734375 54.109375 11.28125 
L 54.109375 2.78125 
Q 49.265625 0.734375 44.1875 -0.34375 
Q 39.109375 -1.421875 33.890625 -1.421875 
Q 20.796875 -1.421875 13.15625 6.1875 
Q 5.515625 13.8125 5.515625 26.8125 
Q 5.515625 40.234375 12.765625 48.109375 
Q 20.015625 56 32.328125 56 
Q 43.359375 56 49.78125 48.890625 
Q 56.203125 41.796875 56.203125 29.59375 
z
M 47.21875 32.234375 
Q 47.125 39.59375 43.09375 43.984375 
Q 39.0625 48.390625 32.421875 48.390625 
Q 24.90625 48.390625 20.390625 44.140625 
Q 15.875 39.890625 15.1875 32.171875 
z
" id="DejaVuSans-101"/>
     <path id="DejaVuSans-32"/>
     <path d="M 37.109375 75.984375 
L 37.109375 68.5 
L 28.515625 68.5 
Q 23.6875 68.5 21.796875 66.546875 
Q 19.921875 64.59375 19.921875 59.515625 
L 19.921875 54.6875 
L 34.71875 54.6875 
L 34.71875 47.703125 
L 19.921875 47.703125 
L 19.921875 0 
L 10.890625 0 
L 10.890625 47.703125 
L 2.296875 47.703125 
L 2.296875 54.6875 
L 10.890625 54.6875 
L 10.890625 58.5 
Q 10.890625 67.625 15.140625 71.796875 
Q 19.390625 75.984375 28.609375 75.984375 
z
" id="DejaVuSans-102"/>
     <path d="M 8.5 21.578125 
L 8.5 54.6875 
L 17.484375 54.6875 
L 17.484375 21.921875 
Q 17.484375 14.15625 20.5 10.265625 
Q 23.53125 6.390625 29.59375 6.390625 
Q 36.859375 6.390625 41.078125 11.03125 
Q 45.3125 15.671875 45.3125 23.6875 
L 45.3125 54.6875 
L 54.296875 54.6875 
L 54.296875 0 
L 45.3125 0 
L 45.3125 8.40625 
Q 42.046875 3.421875 37.71875 1 
Q 33.40625 -1.421875 27.6875 -1.421875 
Q 18.265625 -1.421875 13.375 4.4375 
Q 8.5 10.296875 8.5 21.578125 
z
M 31.109375 56 
z
" id="DejaVuSans-117"/>
     <path d="M 54.890625 33.015625 
L 54.890625 0 
L 45.90625 0 
L 45.90625 32.71875 
Q 45.90625 40.484375 42.875 44.328125 
Q 39.84375 48.1875 33.796875 48.1875 
Q 26.515625 48.1875 22.3125 43.546875 
Q 18.109375 38.921875 18.109375 30.90625 
L 18.109375 0 
L 9.078125 0 
L 9.078125 54.6875 
L 18.109375 54.6875 
L 18.109375 46.1875 
Q 21.34375 51.125 25.703125 53.5625 
Q 30.078125 56 35.796875 56 
Q 45.21875 56 50.046875 50.171875 
Q 54.890625 44.34375 54.890625 33.015625 
z
" id="DejaVuSans-110"/>
     <path d="M 48.78125 52.59375 
L 48.78125 44.1875 
Q 44.96875 46.296875 41.140625 47.34375 
Q 37.3125 48.390625 33.40625 48.390625 
Q 24.65625 48.390625 19.8125 42.84375 
Q 14.984375 37.3125 14.984375 27.296875 
Q 14.984375 17.28125 19.8125 11.734375 
Q 24.65625 6.203125 33.40625 6.203125 
Q 37.3125 6.203125 41.140625 7.25 
Q 44.96875 8.296875 48.78125 10.40625 
L 48.78125 2.09375 
Q 45.015625 0.34375 40.984375 -0.53125 
Q 36.96875 -1.421875 32.421875 -1.421875 
Q 20.0625 -1.421875 12.78125 6.34375 
Q 5.515625 14.109375 5.515625 27.296875 
Q 5.515625 40.671875 12.859375 48.328125 
Q 20.21875 56 33.015625 56 
Q 37.15625 56 41.109375 55.140625 
Q 45.0625 54.296875 48.78125 52.59375 
z
" id="DejaVuSans-99"/>
     <path d="M 18.3125 70.21875 
L 18.3125 54.6875 
L 36.8125 54.6875 
L 36.8125 47.703125 
L 18.3125 47.703125 
L 18.3125 18.015625 
Q 18.3125 11.328125 20.140625 9.421875 
Q 21.96875 7.515625 27.59375 7.515625 
L 36.8125 7.515625 
L 36.8125 0 
L 27.59375 0 
Q 17.1875 0 13.234375 3.875 
Q 9.28125 7.765625 9.28125 18.015625 
L 9.28125 47.703125 
L 2.6875 47.703125 
L 2.6875 54.6875 
L 9.28125 54.6875 
L 9.28125 70.21875 
z
" id="DejaVuSans-116"/>
     <path d="M 9.421875 54.6875 
L 18.40625 54.6875 
L 18.40625 0 
L 9.421875 0 
z
M 9.421875 75.984375 
L 18.40625 75.984375 
L 18.40625 64.59375 
L 9.421875 64.59375 
z
" id="DejaVuSans-105"/>
     <path d="M 30.609375 48.390625 
Q 23.390625 48.390625 19.1875 42.75 
Q 14.984375 37.109375 14.984375 27.296875 
Q 14.984375 17.484375 19.15625 11.84375 
Q 23.34375 6.203125 30.609375 6.203125 
Q 37.796875 6.203125 41.984375 11.859375 
Q 46.1875 17.53125 46.1875 27.296875 
Q 46.1875 37.015625 41.984375 42.703125 
Q 37.796875 48.390625 30.609375 48.390625 
z
M 30.609375 56 
Q 42.328125 56 49.015625 48.375 
Q 55.71875 40.765625 55.71875 27.296875 
Q 55.71875 13.875 49.015625 6.21875 
Q 42.328125 -1.421875 30.609375 -1.421875 
Q 18.84375 -1.421875 12.171875 6.21875 
Q 5.515625 13.875 5.515625 27.296875 
Q 5.515625 40.765625 12.171875 48.375 
Q 18.84375 56 30.609375 56 
z
" id="DejaVuSans-111"/>
    </defs>
    <g transform="translate(85.186093 20.8)scale(0.12 -0.12)">
     <use xlink:href="#DejaVuSans-84"/>
     <use x="61.083984" xlink:href="#DejaVuSans-104"/>
     <use x="124.462891" xlink:href="#DejaVuSans-101"/>
     <use x="185.986328" xlink:href="#DejaVuSans-32"/>
     <use x="217.773438" xlink:href="#DejaVuSans-102"/>
     <use x="252.978516" xlink:href="#DejaVuSans-117"/>
     <use x="316.357422" xlink:href="#DejaVuSans-110"/>
     <use x="379.736328" xlink:href="#DejaVuSans-99"/>
     <use x="434.716797" xlink:href="#DejaVuSans-116"/>
     <use x="473.925781" xlink:href="#DejaVuSans-105"/>
     <use x="501.708984" xlink:href="#DejaVuSans-111"/>
     <use x="562.890625" xlink:href="#DejaVuSans-110"/>
     <use x="626.269531" xlink:href="#DejaVuSans-32"/>
     <use x="658.056641" xlink:href="#DejaVuSans-102"/>
    </g>
   </g>
  </g>
  <g id="axes_2">
   <g id="patch_7">
    <path d="M 256.81031 121.6 
L 419.770621 121.6 
L 419.770621 26.8 
L 256.81031 26.8 
z
" style="fill:#d3d3d3;"/>
   </g>
   <g id="matplotlib.axis_3">
    <g id="xtick_4">
     <g id="line2d_8">
      <g>
       <use style="stroke:#000000;stroke-width:0.8;" x="289.327044" xlink:href="#m8a5cdea7f2" y="121.6"/>
      </g>
     </g>
     <g id="text_8">
      <!-- −4 -->
      <g transform="translate(281.95595 136.198437)scale(0.1 -0.1)">
       <use xlink:href="#DejaVuSans-8722"/>
       <use x="83.789062" xlink:href="#DejaVuSans-52"/>
      </g>
     </g>
    </g>
    <g id="xtick_5">
     <g id="line2d_9">
      <g>
       <use style="stroke:#000000;stroke-width:0.8;" x="339.545938" xlink:href="#m8a5cdea7f2" y="121.6"/>
      </g>
     </g>
     <g id="text_9">
      <!-- −2 -->
      <g transform="translate(332.174844 136.198437)scale(0.1 -0.1)">
       <use xlink:href="#DejaVuSans-8722"/>
       <use x="83.789062" xlink:href="#DejaVuSans-50"/>
      </g>
     </g>
    </g>
    <g id="xtick_6">
     <g id="line2d_10">
      <g>
       <use style="stroke:#000000;stroke-width:0.8;" x="389.764832" xlink:href="#m8a5cdea7f2" y="121.6"/>
      </g>
     </g>
     <g id="text_10">
      <!-- 0 -->
      <g transform="translate(386.583582 136.198437)scale(0.1 -0.1)">
       <use xlink:href="#DejaVuSans-48"/>
      </g>
     </g>
    </g>
   </g>
   <g id="matplotlib.axis_4">
    <g id="ytick_4">
     <g id="line2d_11">
      <g>
       <use style="stroke:#000000;stroke-width:0.8;" x="256.81031" xlink:href="#mb40215585b" y="98.7699"/>
      </g>
     </g>
     <g id="text_11">
      <!-- −500 -->
      <defs>
       <path d="M 10.796875 72.90625 
L 49.515625 72.90625 
L 49.515625 64.59375 
L 19.828125 64.59375 
L 19.828125 46.734375 
Q 21.96875 47.46875 24.109375 47.828125 
Q 26.265625 48.1875 28.421875 48.1875 
Q 40.625 48.1875 47.75 41.5 
Q 54.890625 34.8125 54.890625 23.390625 
Q 54.890625 11.625 47.5625 5.09375 
Q 40.234375 -1.421875 26.90625 -1.421875 
Q 22.3125 -1.421875 17.546875 -0.640625 
Q 12.796875 0.140625 7.71875 1.703125 
L 7.71875 11.625 
Q 12.109375 9.234375 16.796875 8.0625 
Q 21.484375 6.890625 26.703125 6.890625 
Q 35.15625 6.890625 40.078125 11.328125 
Q 45.015625 15.765625 45.015625 23.390625 
Q 45.015625 31 40.078125 35.4375 
Q 35.15625 39.890625 26.703125 39.890625 
Q 22.75 39.890625 18.8125 39.015625 
Q 14.890625 38.140625 10.796875 36.28125 
z
" id="DejaVuSans-53"/>
      </defs>
      <g transform="translate(222.343123 102.569119)scale(0.1 -0.1)">
       <use xlink:href="#DejaVuSans-8722"/>
       <use x="83.789062" xlink:href="#DejaVuSans-53"/>
       <use x="147.412109" xlink:href="#DejaVuSans-48"/>
       <use x="211.035156" xlink:href="#DejaVuSans-48"/>
      </g>
     </g>
    </g>
    <g id="ytick_5">
     <g id="line2d_12">
      <g>
       <use style="stroke:#000000;stroke-width:0.8;" x="256.81031" xlink:href="#mb40215585b" y="63.646232"/>
      </g>
     </g>
     <g id="text_12">
      <!-- 0 -->
      <g transform="translate(243.44781 67.445451)scale(0.1 -0.1)">
       <use xlink:href="#DejaVuSans-48"/>
      </g>
     </g>
    </g>
    <g id="ytick_6">
     <g id="line2d_13">
      <g>
       <use style="stroke:#000000;stroke-width:0.8;" x="256.81031" xlink:href="#mb40215585b" y="28.522564"/>
      </g>
     </g>
     <g id="text_13">
      <!-- 500 -->
      <g transform="translate(230.72281 32.321783)scale(0.1 -0.1)">
       <use xlink:href="#DejaVuSans-53"/>
       <use x="63.623047" xlink:href="#DejaVuSans-48"/>
       <use x="127.246094" xlink:href="#DejaVuSans-48"/>
      </g>
     </g>
    </g>
   </g>
   <g id="line2d_14">
    <path clip-path="url(#p1b7761d503)" d="M 264.217597 74.071861 
L 266.728542 106.11755 
L 269.239487 117.290909 
L 271.750431 107.41256 
L 274.261376 83.802115 
L 276.772321 57.322769 
L 279.283265 37.886076 
L 281.79421 31.109091 
L 284.305155 37.100612 
L 286.816099 51.421071 
L 289.327044 67.481607 
L 291.837989 79.270557 
L 294.348933 83.381006 
L 296.859878 79.746964 
L 299.370823 71.061167 
L 301.881768 61.31996 
L 304.392712 54.1696 
L 306.903657 51.676487 
L 309.414602 53.880644 
L 311.925546 59.148847 
L 314.436491 65.057188 
L 316.947436 69.3941 
L 319.45838 70.90625 
L 321.969325 69.569361 
L 324.48027 66.374034 
L 326.991214 62.790444 
L 329.502159 60.159974 
L 332.013104 59.242809 
L 334.524049 60.053673 
L 337.034993 61.991737 
L 339.545938 64.165294 
L 342.056883 65.760755 
L 344.567827 66.317043 
L 347.078772 65.825229 
L 349.589717 64.649734 
L 352.100661 63.331405 
L 354.611606 62.36371 
L 357.122551 62.026303 
L 359.633495 62.324604 
L 362.14444 63.037577 
L 364.655385 63.837184 
L 367.16633 64.424122 
L 369.677274 64.628769 
L 372.188219 64.44784 
L 374.699164 64.0154 
L 377.210108 63.530414 
L 379.721053 63.174418 
L 382.231998 63.050294 
L 384.742942 63.160032 
L 387.253887 63.422321 
L 389.764832 63.71648 
L 392.275776 63.932402 
L 394.786721 64.007687 
L 397.297666 63.941127 
L 399.80861 63.782041 
L 402.319555 63.603625 
L 404.8305 63.472662 
L 407.341445 63.426999 
L 409.852389 63.467369 
L 412.363334 63.56386 
" style="fill:none;stroke:#1f77b4;stroke-linecap:square;stroke-width:1.5;"/>
   </g>
   <g id="patch_8">
    <path d="M 256.81031 121.6 
L 256.81031 26.8 
" style="fill:none;stroke:#000000;stroke-linecap:square;stroke-linejoin:miter;stroke-width:0.8;"/>
   </g>
   <g id="patch_9">
    <path d="M 419.770621 121.6 
L 419.770621 26.8 
" style="fill:none;stroke:#000000;stroke-linecap:square;stroke-linejoin:miter;stroke-width:0.8;"/>
   </g>
   <g id="patch_10">
    <path d="M 256.81031 121.6 
L 419.770621 121.6 
" style="fill:none;stroke:#000000;stroke-linecap:square;stroke-linejoin:miter;stroke-width:0.8;"/>
   </g>
   <g id="patch_11">
    <path d="M 256.81031 26.8 
L 419.770621 26.8 
" style="fill:none;stroke:#000000;stroke-linecap:square;stroke-linejoin:miter;stroke-width:0.8;"/>
   </g>
   <g id="text_14">
    <!-- fp, the derivation of f -->
    <defs>
     <path d="M 18.109375 8.203125 
L 18.109375 -20.796875 
L 9.078125 -20.796875 
L 9.078125 54.6875 
L 18.109375 54.6875 
L 18.109375 46.390625 
Q 20.953125 51.265625 25.265625 53.625 
Q 29.59375 56 35.59375 56 
Q 45.5625 56 51.78125 48.09375 
Q 58.015625 40.1875 58.015625 27.296875 
Q 58.015625 14.40625 51.78125 6.484375 
Q 45.5625 -1.421875 35.59375 -1.421875 
Q 29.59375 -1.421875 25.265625 0.953125 
Q 20.953125 3.328125 18.109375 8.203125 
z
M 48.6875 27.296875 
Q 48.6875 37.203125 44.609375 42.84375 
Q 40.53125 48.484375 33.40625 48.484375 
Q 26.265625 48.484375 22.1875 42.84375 
Q 18.109375 37.203125 18.109375 27.296875 
Q 18.109375 17.390625 22.1875 11.75 
Q 26.265625 6.109375 33.40625 6.109375 
Q 40.53125 6.109375 44.609375 11.75 
Q 48.6875 17.390625 48.6875 27.296875 
z
" id="DejaVuSans-112"/>
     <path d="M 11.71875 12.40625 
L 22.015625 12.40625 
L 22.015625 4 
L 14.015625 -11.625 
L 7.71875 -11.625 
L 11.71875 4 
z
" id="DejaVuSans-44"/>
     <path d="M 45.40625 46.390625 
L 45.40625 75.984375 
L 54.390625 75.984375 
L 54.390625 0 
L 45.40625 0 
L 45.40625 8.203125 
Q 42.578125 3.328125 38.25 0.953125 
Q 33.9375 -1.421875 27.875 -1.421875 
Q 17.96875 -1.421875 11.734375 6.484375 
Q 5.515625 14.40625 5.515625 27.296875 
Q 5.515625 40.1875 11.734375 48.09375 
Q 17.96875 56 27.875 56 
Q 33.9375 56 38.25 53.625 
Q 42.578125 51.265625 45.40625 46.390625 
z
M 14.796875 27.296875 
Q 14.796875 17.390625 18.875 11.75 
Q 22.953125 6.109375 30.078125 6.109375 
Q 37.203125 6.109375 41.296875 11.75 
Q 45.40625 17.390625 45.40625 27.296875 
Q 45.40625 37.203125 41.296875 42.84375 
Q 37.203125 48.484375 30.078125 48.484375 
Q 22.953125 48.484375 18.875 42.84375 
Q 14.796875 37.203125 14.796875 27.296875 
z
" id="DejaVuSans-100"/>
     <path d="M 41.109375 46.296875 
Q 39.59375 47.171875 37.8125 47.578125 
Q 36.03125 48 33.890625 48 
Q 26.265625 48 22.1875 43.046875 
Q 18.109375 38.09375 18.109375 28.8125 
L 18.109375 0 
L 9.078125 0 
L 9.078125 54.6875 
L 18.109375 54.6875 
L 18.109375 46.1875 
Q 20.953125 51.171875 25.484375 53.578125 
Q 30.03125 56 36.53125 56 
Q 37.453125 56 38.578125 55.875 
Q 39.703125 55.765625 41.0625 55.515625 
z
" id="DejaVuSans-114"/>
     <path d="M 2.984375 54.6875 
L 12.5 54.6875 
L 29.59375 8.796875 
L 46.6875 54.6875 
L 56.203125 54.6875 
L 35.6875 0 
L 23.484375 0 
z
" id="DejaVuSans-118"/>
     <path d="M 34.28125 27.484375 
Q 23.390625 27.484375 19.1875 25 
Q 14.984375 22.515625 14.984375 16.5 
Q 14.984375 11.71875 18.140625 8.90625 
Q 21.296875 6.109375 26.703125 6.109375 
Q 34.1875 6.109375 38.703125 11.40625 
Q 43.21875 16.703125 43.21875 25.484375 
L 43.21875 27.484375 
z
M 52.203125 31.203125 
L 52.203125 0 
L 43.21875 0 
L 43.21875 8.296875 
Q 40.140625 3.328125 35.546875 0.953125 
Q 30.953125 -1.421875 24.3125 -1.421875 
Q 15.921875 -1.421875 10.953125 3.296875 
Q 6 8.015625 6 15.921875 
Q 6 25.140625 12.171875 29.828125 
Q 18.359375 34.515625 30.609375 34.515625 
L 43.21875 34.515625 
L 43.21875 35.40625 
Q 43.21875 41.609375 39.140625 45 
Q 35.0625 48.390625 27.6875 48.390625 
Q 23 48.390625 18.546875 47.265625 
Q 14.109375 46.140625 10.015625 43.890625 
L 10.015625 52.203125 
Q 14.9375 54.109375 19.578125 55.046875 
Q 24.21875 56 28.609375 56 
Q 40.484375 56 46.34375 49.84375 
Q 52.203125 43.703125 52.203125 31.203125 
z
" id="DejaVuSans-97"/>
    </defs>
    <g transform="translate(274.737341 20.8)scale(0.12 -0.12)">
     <use xlink:href="#DejaVuSans-102"/>
     <use x="35.205078" xlink:href="#DejaVuSans-112"/>
     <use x="98.681641" xlink:href="#DejaVuSans-44"/>
     <use x="130.46875" xlink:href="#DejaVuSans-32"/>
     <use x="162.255859" xlink:href="#DejaVuSans-116"/>
     <use x="201.464844" xlink:href="#DejaVuSans-104"/>
     <use x="264.84375" xlink:href="#DejaVuSans-101"/>
     <use x="326.367188" xlink:href="#DejaVuSans-32"/>
     <use x="358.154297" xlink:href="#DejaVuSans-100"/>
     <use x="421.630859" xlink:href="#DejaVuSans-101"/>
     <use x="483.154297" xlink:href="#DejaVuSans-114"/>
     <use x="524.267578" xlink:href="#DejaVuSans-105"/>
     <use x="552.050781" xlink:href="#DejaVuSans-118"/>
     <use x="611.230469" xlink:href="#DejaVuSans-97"/>
     <use x="672.509766" xlink:href="#DejaVuSans-116"/>
     <use x="711.71875" xlink:href="#DejaVuSans-105"/>
     <use x="739.501953" xlink:href="#DejaVuSans-111"/>
     <use x="800.683594" xlink:href="#DejaVuSans-110"/>
     <use x="864.0625" xlink:href="#DejaVuSans-32"/>
     <use x="895.849609" xlink:href="#DejaVuSans-111"/>
     <use x="957.03125" xlink:href="#DejaVuSans-102"/>
     <use x="992.236328" xlink:href="#DejaVuSans-32"/>
     <use x="1024.023438" xlink:href="#DejaVuSans-102"/>
    </g>
   </g>
  </g>
  <g id="axes_3">
   <g id="patch_12">
    <path d="M 45.3 260.2 
L 208.26031 260.2 
L 208.26031 165.4 
L 45.3 165.4 
z
" style="fill:#ffffff;"/>
   </g>
   <g id="matplotlib.axis_5">
    <g id="xtick_7">
     <g id="line2d_15">
      <g>
       <use style="stroke:#000000;stroke-width:0.8;" x="82.455427" xlink:href="#m8a5cdea7f2" y="260.2"/>
      </g>
     </g>
     <g id="text_15">
      <!-- −2 -->
      <g transform="translate(75.084333 274.798437)scale(0.1 -0.1)">
       <use xlink:href="#DejaVuSans-8722"/>
       <use x="83.789062" xlink:href="#DejaVuSans-50"/>
      </g>
     </g>
    </g>
    <g id="xtick_8">
     <g id="line2d_16">
      <g>
       <use style="stroke:#000000;stroke-width:0.8;" x="141.951707" xlink:href="#m8a5cdea7f2" y="260.2"/>
      </g>
     </g>
     <g id="text_16">
      <!-- 0 -->
      <g transform="translate(138.770457 274.798437)scale(0.1 -0.1)">
       <use xlink:href="#DejaVuSans-48"/>
      </g>
     </g>
    </g>
    <g id="xtick_9">
     <g id="line2d_17">
      <g>
       <use style="stroke:#000000;stroke-width:0.8;" x="201.447986" xlink:href="#m8a5cdea7f2" y="260.2"/>
      </g>
     </g>
     <g id="text_17">
      <!-- 2 -->
      <g transform="translate(198.266736 274.798437)scale(0.1 -0.1)">
       <use xlink:href="#DejaVuSans-50"/>
      </g>
     </g>
    </g>
   </g>
   <g id="matplotlib.axis_6">
    <g id="ytick_7">
     <g id="line2d_18">
      <g>
       <use style="stroke:#000000;stroke-width:0.8;" x="45.3" xlink:href="#mb40215585b" y="238.825902"/>
      </g>
     </g>
     <g id="text_18">
      <!-- −0.5 -->
      <defs>
       <path d="M 10.6875 12.40625 
L 21 12.40625 
L 21 0 
L 10.6875 0 
z
" id="DejaVuSans-46"/>
      </defs>
      <g transform="translate(14.017188 242.62512)scale(0.1 -0.1)">
       <use xlink:href="#DejaVuSans-8722"/>
       <use x="83.789062" xlink:href="#DejaVuSans-48"/>
       <use x="147.412109" xlink:href="#DejaVuSans-46"/>
       <use x="179.199219" xlink:href="#DejaVuSans-53"/>
      </g>
     </g>
    </g>
    <g id="ytick_8">
     <g id="line2d_19">
      <g>
       <use style="stroke:#000000;stroke-width:0.8;" x="45.3" xlink:href="#mb40215585b" y="212.8"/>
      </g>
     </g>
     <g id="text_19">
      <!-- 0.0 -->
      <g transform="translate(22.396875 216.599219)scale(0.1 -0.1)">
       <use xlink:href="#DejaVuSans-48"/>
       <use x="63.623047" xlink:href="#DejaVuSans-46"/>
       <use x="95.410156" xlink:href="#DejaVuSans-48"/>
      </g>
     </g>
    </g>
    <g id="ytick_9">
     <g id="line2d_20">
      <g>
       <use style="stroke:#000000;stroke-width:0.8;" x="45.3" xlink:href="#mb40215585b" y="186.774098"/>
      </g>
     </g>
     <g id="text_20">
      <!-- 0.5 -->
      <g transform="translate(22.396875 190.573317)scale(0.1 -0.1)">
       <use xlink:href="#DejaVuSans-48"/>
       <use x="63.623047" xlink:href="#DejaVuSans-46"/>
       <use x="95.410156" xlink:href="#DejaVuSans-53"/>
      </g>
     </g>
    </g>
   </g>
   <g id="line2d_21">
    <path clip-path="url(#pb30ecf547b)" d="M 52.707287 219.741229 
L 58.061952 228.228791 
L 62.226692 234.387347 
L 65.796468 239.24092 
L 68.771282 242.921787 
L 71.746096 246.223201 
L 74.125948 248.562273 
L 76.505799 250.610546 
L 78.88565 252.348837 
L 81.265501 253.759337 
L 83.05039 254.592177 
L 84.835278 255.224979 
L 86.620166 255.651781 
L 88.405055 255.867054 
L 90.189943 255.865682 
L 91.974832 255.642939 
L 93.75972 255.194459 
L 95.544608 254.516195 
L 97.329497 253.604377 
L 99.114385 252.455451 
L 100.899273 251.066021 
L 102.684162 249.432778 
L 104.46905 247.552426 
L 106.848901 244.655102 
L 109.228753 241.304304 
L 111.608604 237.491597 
L 113.988455 233.209081 
L 116.368306 228.451788 
L 118.748157 223.223812 
L 121.722971 216.074306 
L 128.267562 199.692694 
L 129.457488 197.424962 
L 130.052451 196.560877 
L 130.647413 195.949982 
L 131.242376 195.663686 
L 131.837339 195.788849 
L 132.432302 196.428497 
L 133.027265 197.699537 
L 133.622227 199.723717 
L 134.21719 202.604686 
L 134.812153 206.37805 
L 136.597041 219.75885 
L 137.192004 221.088234 
L 137.786967 217.540767 
L 138.38193 209.926129 
L 138.976893 208.439757 
L 139.571855 216.950545 
L 140.166818 211.006596 
L 140.761781 214.863205 
L 143.141632 210.736795 
L 143.736595 214.593404 
L 144.331558 208.649455 
L 144.926521 217.160243 
L 145.521483 215.673871 
L 146.116446 208.059233 
L 146.711409 204.511766 
L 147.306372 205.84115 
L 147.901335 209.866622 
L 149.09126 219.22195 
L 149.686223 222.995314 
L 150.281186 225.876283 
L 150.876149 227.900463 
L 151.471111 229.171503 
L 152.066074 229.811151 
L 152.661037 229.936314 
L 153.256 229.650018 
L 153.850963 229.039123 
L 155.040888 227.115614 
L 156.230814 224.587225 
L 158.610665 218.696669 
L 163.370367 206.59092 
L 166.345181 199.704284 
L 168.725032 194.710149 
L 171.104884 190.19051 
L 173.484735 186.143788 
L 175.864586 182.563087 
L 178.244437 179.440073 
L 180.624288 176.766386 
L 182.409177 175.05114 
L 184.194065 173.580805 
L 185.978954 172.352083 
L 187.763842 171.361614 
L 189.54873 170.605906 
L 191.333619 170.081267 
L 193.118507 169.783746 
L 194.903396 169.709091 
L 196.688284 169.852698 
L 198.473172 170.209583 
L 200.258061 170.774359 
L 200.853024 171.007823 
L 200.853024 171.007823 
" style="fill:none;stroke:#1f77b4;stroke-linecap:square;stroke-width:1.5;"/>
   </g>
   <g id="patch_13">
    <path d="M 45.3 260.2 
L 45.3 165.4 
" style="fill:none;stroke:#000000;stroke-linecap:square;stroke-linejoin:miter;stroke-width:0.8;"/>
   </g>
   <g id="patch_14">
    <path d="M 208.26031 260.2 
L 208.26031 165.4 
" style="fill:none;stroke:#000000;stroke-linecap:square;stroke-linejoin:miter;stroke-width:0.8;"/>
   </g>
   <g id="patch_15">
    <path d="M 45.3 260.2 
L 208.26031 260.2 
" style="fill:none;stroke:#000000;stroke-linecap:square;stroke-linejoin:miter;stroke-width:0.8;"/>
   </g>
   <g id="patch_16">
    <path d="M 45.3 165.4 
L 208.26031 165.4 
" style="fill:none;stroke:#000000;stroke-linecap:square;stroke-linejoin:miter;stroke-width:0.8;"/>
   </g>
   <g id="text_21">
    <!-- The function g -->
    <defs>
     <path d="M 45.40625 27.984375 
Q 45.40625 37.75 41.375 43.109375 
Q 37.359375 48.484375 30.078125 48.484375 
Q 22.859375 48.484375 18.828125 43.109375 
Q 14.796875 37.75 14.796875 27.984375 
Q 14.796875 18.265625 18.828125 12.890625 
Q 22.859375 7.515625 30.078125 7.515625 
Q 37.359375 7.515625 41.375 12.890625 
Q 45.40625 18.265625 45.40625 27.984375 
z
M 54.390625 6.78125 
Q 54.390625 -7.171875 48.1875 -13.984375 
Q 42 -20.796875 29.203125 -20.796875 
Q 24.46875 -20.796875 20.265625 -20.09375 
Q 16.0625 -19.390625 12.109375 -17.921875 
L 12.109375 -9.1875 
Q 16.0625 -11.328125 19.921875 -12.34375 
Q 23.78125 -13.375 27.78125 -13.375 
Q 36.625 -13.375 41.015625 -8.765625 
Q 45.40625 -4.15625 45.40625 5.171875 
L 45.40625 9.625 
Q 42.625 4.78125 38.28125 2.390625 
Q 33.9375 0 27.875 0 
Q 17.828125 0 11.671875 7.65625 
Q 5.515625 15.328125 5.515625 27.984375 
Q 5.515625 40.671875 11.671875 48.328125 
Q 17.828125 56 27.875 56 
Q 33.9375 56 38.28125 53.609375 
Q 42.625 51.21875 45.40625 46.390625 
L 45.40625 54.6875 
L 54.390625 54.6875 
z
" id="DejaVuSans-103"/>
    </defs>
    <g transform="translate(83.489218 159.4)scale(0.12 -0.12)">
     <use xlink:href="#DejaVuSans-84"/>
     <use x="61.083984" xlink:href="#DejaVuSans-104"/>
     <use x="124.462891" xlink:href="#DejaVuSans-101"/>
     <use x="185.986328" xlink:href="#DejaVuSans-32"/>
     <use x="217.773438" xlink:href="#DejaVuSans-102"/>
     <use x="252.978516" xlink:href="#DejaVuSans-117"/>
     <use x="316.357422" xlink:href="#DejaVuSans-110"/>
     <use x="379.736328" xlink:href="#DejaVuSans-99"/>
     <use x="434.716797" xlink:href="#DejaVuSans-116"/>
     <use x="473.925781" xlink:href="#DejaVuSans-105"/>
     <use x="501.708984" xlink:href="#DejaVuSans-111"/>
     <use x="562.890625" xlink:href="#DejaVuSans-110"/>
     <use x="626.269531" xlink:href="#DejaVuSans-32"/>
     <use x="658.056641" xlink:href="#DejaVuSans-103"/>
    </g>
   </g>
  </g>
  <g id="axes_4">
   <g id="patch_17">
    <path d="M 256.81031 260.2 
L 419.770621 260.2 
L 419.770621 165.4 
L 256.81031 165.4 
z
" style="fill:#d3d3d3;"/>
   </g>
   <g id="matplotlib.axis_7">
    <g id="xtick_10">
     <g id="line2d_22">
      <g>
       <use style="stroke:#000000;stroke-width:0.8;" x="264.217597" xlink:href="#m8a5cdea7f2" y="260.2"/>
      </g>
     </g>
     <g id="text_22">
      <!-- −0.2 -->
      <g transform="translate(252.076191 274.798437)scale(0.1 -0.1)">
       <use xlink:href="#DejaVuSans-8722"/>
       <use x="83.789062" xlink:href="#DejaVuSans-48"/>
       <use x="147.412109" xlink:href="#DejaVuSans-46"/>
       <use x="179.199219" xlink:href="#DejaVuSans-50"/>
      </g>
     </g>
    </g>
    <g id="xtick_11">
     <g id="line2d_23">
      <g>
       <use style="stroke:#000000;stroke-width:0.8;" x="301.346855" xlink:href="#m8a5cdea7f2" y="260.2"/>
      </g>
     </g>
     <g id="text_23">
      <!-- −0.1 -->
      <g transform="translate(289.205448 274.798437)scale(0.1 -0.1)">
       <use xlink:href="#DejaVuSans-8722"/>
       <use x="83.789062" xlink:href="#DejaVuSans-48"/>
       <use x="147.412109" xlink:href="#DejaVuSans-46"/>
       <use x="179.199219" xlink:href="#DejaVuSans-49"/>
      </g>
     </g>
    </g>
    <g id="xtick_12">
     <g id="line2d_24">
      <g>
       <use style="stroke:#000000;stroke-width:0.8;" x="338.476112" xlink:href="#m8a5cdea7f2" y="260.2"/>
      </g>
     </g>
     <g id="text_24">
      <!-- 0.0 -->
      <g transform="translate(330.524549 274.798437)scale(0.1 -0.1)">
       <use xlink:href="#DejaVuSans-48"/>
       <use x="63.623047" xlink:href="#DejaVuSans-46"/>
       <use x="95.410156" xlink:href="#DejaVuSans-48"/>
      </g>
     </g>
    </g>
    <g id="xtick_13">
     <g id="line2d_25">
      <g>
       <use style="stroke:#000000;stroke-width:0.8;" x="375.605369" xlink:href="#m8a5cdea7f2" y="260.2"/>
      </g>
     </g>
     <g id="text_25">
      <!-- 0.1 -->
      <g transform="translate(367.653807 274.798437)scale(0.1 -0.1)">
       <use xlink:href="#DejaVuSans-48"/>
       <use x="63.623047" xlink:href="#DejaVuSans-46"/>
       <use x="95.410156" xlink:href="#DejaVuSans-49"/>
      </g>
     </g>
    </g>
    <g id="xtick_14">
     <g id="line2d_26">
      <g>
       <use style="stroke:#000000;stroke-width:0.8;" x="412.734627" xlink:href="#m8a5cdea7f2" y="260.2"/>
      </g>
     </g>
     <g id="text_26">
      <!-- 0.2 -->
      <g transform="translate(404.783064 274.798437)scale(0.1 -0.1)">
       <use xlink:href="#DejaVuSans-48"/>
       <use x="63.623047" xlink:href="#DejaVuSans-46"/>
       <use x="95.410156" xlink:href="#DejaVuSans-50"/>
      </g>
     </g>
    </g>
   </g>
   <g id="matplotlib.axis_8">
    <g id="ytick_10">
     <g id="line2d_27">
      <g>
       <use style="stroke:#000000;stroke-width:0.8;" x="256.81031" xlink:href="#mb40215585b" y="253.071889"/>
      </g>
     </g>
     <g id="text_27">
      <!-- −0.15 -->
      <g transform="translate(219.164998 256.871108)scale(0.1 -0.1)">
       <use xlink:href="#DejaVuSans-8722"/>
       <use x="83.789062" xlink:href="#DejaVuSans-48"/>
       <use x="147.412109" xlink:href="#DejaVuSans-46"/>
       <use x="179.199219" xlink:href="#DejaVuSans-49"/>
       <use x="242.822266" xlink:href="#DejaVuSans-53"/>
      </g>
     </g>
    </g>
    <g id="ytick_11">
     <g id="line2d_28">
      <g>
       <use style="stroke:#000000;stroke-width:0.8;" x="256.81031" xlink:href="#mb40215585b" y="239.647926"/>
      </g>
     </g>
     <g id="text_28">
      <!-- −0.10 -->
      <g transform="translate(219.164998 243.447145)scale(0.1 -0.1)">
       <use xlink:href="#DejaVuSans-8722"/>
       <use x="83.789062" xlink:href="#DejaVuSans-48"/>
       <use x="147.412109" xlink:href="#DejaVuSans-46"/>
       <use x="179.199219" xlink:href="#DejaVuSans-49"/>
       <use x="242.822266" xlink:href="#DejaVuSans-48"/>
      </g>
     </g>
    </g>
    <g id="ytick_12">
     <g id="line2d_29">
      <g>
       <use style="stroke:#000000;stroke-width:0.8;" x="256.81031" xlink:href="#mb40215585b" y="212.8"/>
      </g>
     </g>
     <g id="text_29">
      <!-- 0.00 -->
      <g transform="translate(227.544685 216.599219)scale(0.1 -0.1)">
       <use xlink:href="#DejaVuSans-48"/>
       <use x="63.623047" xlink:href="#DejaVuSans-46"/>
       <use x="95.410156" xlink:href="#DejaVuSans-48"/>
       <use x="159.033203" xlink:href="#DejaVuSans-48"/>
      </g>
     </g>
    </g>
    <g id="ytick_13">
     <g id="line2d_30">
      <g>
       <use style="stroke:#000000;stroke-width:0.8;" x="256.81031" xlink:href="#mb40215585b" y="185.952074"/>
      </g>
     </g>
     <g id="text_30">
      <!-- 0.10 -->
      <g transform="translate(227.544685 189.751293)scale(0.1 -0.1)">
       <use xlink:href="#DejaVuSans-48"/>
       <use x="63.623047" xlink:href="#DejaVuSans-46"/>
       <use x="95.410156" xlink:href="#DejaVuSans-49"/>
       <use x="159.033203" xlink:href="#DejaVuSans-48"/>
      </g>
     </g>
    </g>
    <g id="ytick_14">
     <g id="line2d_31">
      <g>
       <use style="stroke:#000000;stroke-width:0.8;" x="256.81031" xlink:href="#mb40215585b" y="172.528111"/>
      </g>
     </g>
     <g id="text_31">
      <!-- 0.15 -->
      <g transform="translate(227.544685 176.32733)scale(0.1 -0.1)">
       <use xlink:href="#DejaVuSans-48"/>
       <use x="63.623047" xlink:href="#DejaVuSans-46"/>
       <use x="95.410156" xlink:href="#DejaVuSans-49"/>
       <use x="159.033203" xlink:href="#DejaVuSans-53"/>
      </g>
     </g>
    </g>
   </g>
   <g id="line2d_32">
    <path clip-path="url(#pe565941fa1)" d="M 264.217597 227.930142 
L 267.187938 237.179332 
L 269.415693 243.395961 
L 271.272156 247.886985 
L 272.757326 250.901145 
L 273.871204 252.76019 
L 274.985082 254.227283 
L 276.09896 255.258626 
L 276.841545 255.682481 
L 277.58413 255.880483 
L 278.326715 255.840279 
L 279.0693 255.550084 
L 279.811885 254.998902 
L 280.55447 254.176775 
L 281.297056 253.075071 
L 282.410933 250.883544 
L 283.524811 248.032955 
L 284.638689 244.521793 
L 285.752566 240.365293 
L 287.237737 233.884948 
L 289.0942 224.511233 
L 292.435833 205.860486 
L 294.292296 196.156893 
L 295.406173 191.241991 
L 296.520051 187.39823 
L 297.262636 185.593634 
L 298.005221 184.504999 
L 298.376514 184.256089 
L 298.747807 184.216893 
L 299.119099 184.39566 
L 299.490392 184.799317 
L 299.861684 185.433232 
L 300.604269 187.404027 
L 301.346855 190.310197 
L 302.08944 194.112243 
L 303.203317 201.283102 
L 305.05978 215.581766 
L 306.544951 226.429559 
L 307.287536 230.572923 
L 308.030121 233.292526 
L 308.401413 233.996183 
L 308.772706 234.208199 
L 309.143999 233.898481 
L 309.515291 233.048184 
L 309.886584 231.652138 
L 310.629169 227.284729 
L 311.371754 221.114638 
L 313.599509 200.054359 
L 313.970802 197.764536 
L 314.342095 196.264869 
L 314.713387 195.688114 
L 315.08468 196.12671 
L 315.455972 197.617978 
L 315.827265 200.129987 
L 316.56985 207.675932 
L 317.683728 221.014813 
L 318.05502 224.389062 
L 318.426313 226.504065 
L 318.797605 227.020341 
L 319.168898 225.752882 
L 319.540191 222.736609 
L 320.282776 212.960284 
L 321.025361 203.271647 
L 321.396653 200.844295 
L 321.767946 201.043517 
L 322.139239 204.048424 
L 323.253116 220.90797 
L 323.624409 223.441858 
L 323.995702 221.944675 
L 324.366994 216.656575 
L 325.109579 204.30387 
L 325.480872 203.816723 
L 325.852164 208.967516 
L 326.223457 216.715908 
L 326.59475 221.271895 
L 326.966042 218.341047 
L 327.337335 210.064243 
L 327.708627 205.036938 
L 328.07992 209.776123 
L 328.451212 218.516678 
L 328.822505 217.847436 
L 329.193798 208.32399 
L 329.56509 208.432692 
L 329.936383 218.206622 
L 330.678968 207.839467 
L 331.05026 217.981122 
L 331.421553 209.157653 
L 331.792846 215.438884 
L 332.164138 209.845671 
L 332.535431 216.861124 
L 332.906723 209.702436 
L 333.278016 210.258044 
L 333.649308 212.960291 
L 334.020601 212.538919 
L 334.391894 209.903964 
L 334.763186 215.115109 
L 335.134479 211.824833 
L 335.505771 214.491862 
L 336.248356 211.210292 
L 336.619649 213.453996 
L 336.990942 213.058801 
L 337.362234 213.563398 
L 337.733527 212.32541 
L 338.104819 212.950987 
L 338.847404 212.649013 
L 339.218697 213.27459 
L 339.58999 212.036602 
L 339.961282 212.541199 
L 340.332575 212.146004 
L 340.703867 214.389708 
L 341.446452 211.108138 
L 341.817745 213.775167 
L 342.189038 210.484891 
L 342.56033 215.696036 
L 342.931623 213.061081 
L 343.302915 212.639709 
L 343.674208 215.341956 
L 344.0455 215.897564 
L 344.416793 208.738876 
L 344.788086 215.754329 
L 345.159378 210.161116 
L 345.530671 216.442347 
L 345.901963 207.618878 
L 346.273256 217.760533 
L 347.015841 207.393378 
L 347.387134 217.167308 
L 347.758426 217.27601 
L 348.129719 207.752564 
L 348.501011 207.083322 
L 348.872304 215.823877 
L 349.243596 220.563062 
L 349.614889 215.535757 
L 349.986182 207.258953 
L 350.357474 204.328105 
L 350.728767 208.884092 
L 351.100059 216.632484 
L 351.471352 221.783277 
L 351.842644 221.29613 
L 352.213937 215.956984 
L 352.956522 203.655325 
L 353.327815 202.158142 
L 353.699107 204.69203 
L 355.184278 224.556483 
L 355.55557 224.755705 
L 355.926863 222.328353 
L 356.669448 212.639716 
L 357.412033 202.863391 
L 357.783326 199.847118 
L 358.154618 198.579659 
L 358.525911 199.095935 
L 358.897203 201.210938 
L 359.639789 208.792612 
L 360.753666 222.050243 
L 361.496251 227.982022 
L 361.867544 229.47329 
L 362.238837 229.911886 
L 362.610129 229.335131 
L 362.981422 227.835464 
L 363.724007 222.624513 
L 364.837885 211.797502 
L 365.951762 201.207893 
L 366.694347 195.878757 
L 367.436933 192.551816 
L 367.808225 191.701519 
L 368.179518 191.391801 
L 368.55081 191.603817 
L 368.922103 192.307474 
L 369.293395 193.463785 
L 370.035981 196.94702 
L 370.778566 201.642908 
L 372.263736 212.96013 
L 374.120199 226.879565 
L 375.234077 233.496432 
L 375.976662 236.85842 
L 376.719247 239.299032 
L 377.461832 240.800683 
L 377.833125 241.20434 
L 378.204417 241.383107 
L 378.57571 241.343911 
L 378.947002 241.095001 
L 379.318295 240.645734 
L 380.06088 239.187872 
L 380.803465 237.059966 
L 381.917343 232.822438 
L 383.031221 227.623211 
L 384.887684 217.670262 
L 388.971902 195.315335 
L 390.457072 188.347485 
L 391.942242 182.393311 
L 393.05612 178.664407 
L 394.169998 175.593044 
L 395.283876 173.182883 
L 396.397753 171.423225 
L 397.140338 170.601098 
L 397.882924 170.049916 
L 398.625509 169.759721 
L 399.368094 169.719517 
L 400.110679 169.917519 
L 400.853264 170.341374 
L 401.595849 170.978349 
L 402.709727 172.305074 
L 403.823605 174.038305 
L 405.308775 176.906776 
L 406.793945 180.321464 
L 408.650408 185.215519 
L 410.878164 191.786287 
L 412.363334 196.470614 
L 412.363334 196.470614 
" style="fill:none;stroke:#1f77b4;stroke-linecap:square;stroke-width:1.5;"/>
   </g>
   <g id="patch_18">
    <path d="M 256.81031 260.2 
L 256.81031 165.4 
" style="fill:none;stroke:#000000;stroke-linecap:square;stroke-linejoin:miter;stroke-width:0.8;"/>
   </g>
   <g id="patch_19">
    <path d="M 419.770621 260.2 
L 419.770621 165.4 
" style="fill:none;stroke:#000000;stroke-linecap:square;stroke-linejoin:miter;stroke-width:0.8;"/>
   </g>
   <g id="patch_20">
    <path d="M 256.81031 260.2 
L 419.770621 260.2 
" style="fill:none;stroke:#000000;stroke-linecap:square;stroke-linejoin:miter;stroke-width:0.8;"/>
   </g>
   <g id="patch_21">
    <path d="M 256.81031 165.4 
L 419.770621 165.4 
" style="fill:none;stroke:#000000;stroke-linecap:square;stroke-linejoin:miter;stroke-width:0.8;"/>
   </g>
   <g id="text_32">
    <!-- A closer look at g -->
    <defs>
     <path d="M 34.1875 63.1875 
L 20.796875 26.90625 
L 47.609375 26.90625 
z
M 28.609375 72.90625 
L 39.796875 72.90625 
L 67.578125 0 
L 57.328125 0 
L 50.6875 18.703125 
L 17.828125 18.703125 
L 11.1875 0 
L 0.78125 0 
z
" id="DejaVuSans-65"/>
     <path d="M 9.421875 75.984375 
L 18.40625 75.984375 
L 18.40625 0 
L 9.421875 0 
z
" id="DejaVuSans-108"/>
     <path d="M 44.28125 53.078125 
L 44.28125 44.578125 
Q 40.484375 46.53125 36.375 47.5 
Q 32.28125 48.484375 27.875 48.484375 
Q 21.1875 48.484375 17.84375 46.4375 
Q 14.5 44.390625 14.5 40.28125 
Q 14.5 37.15625 16.890625 35.375 
Q 19.28125 33.59375 26.515625 31.984375 
L 29.59375 31.296875 
Q 39.15625 29.25 43.1875 25.515625 
Q 47.21875 21.78125 47.21875 15.09375 
Q 47.21875 7.46875 41.1875 3.015625 
Q 35.15625 -1.421875 24.609375 -1.421875 
Q 20.21875 -1.421875 15.453125 -0.5625 
Q 10.6875 0.296875 5.421875 2 
L 5.421875 11.28125 
Q 10.40625 8.6875 15.234375 7.390625 
Q 20.0625 6.109375 24.8125 6.109375 
Q 31.15625 6.109375 34.5625 8.28125 
Q 37.984375 10.453125 37.984375 14.40625 
Q 37.984375 18.0625 35.515625 20.015625 
Q 33.0625 21.96875 24.703125 23.78125 
L 21.578125 24.515625 
Q 13.234375 26.265625 9.515625 29.90625 
Q 5.8125 33.546875 5.8125 39.890625 
Q 5.8125 47.609375 11.28125 51.796875 
Q 16.75 56 26.8125 56 
Q 31.78125 56 36.171875 55.265625 
Q 40.578125 54.546875 44.28125 53.078125 
z
" id="DejaVuSans-115"/>
     <path d="M 9.078125 75.984375 
L 18.109375 75.984375 
L 18.109375 31.109375 
L 44.921875 54.6875 
L 56.390625 54.6875 
L 27.390625 29.109375 
L 57.625 0 
L 45.90625 0 
L 18.109375 26.703125 
L 18.109375 0 
L 9.078125 0 
z
" id="DejaVuSans-107"/>
    </defs>
    <g transform="translate(286.315466 159.4)scale(0.12 -0.12)">
     <use xlink:href="#DejaVuSans-65"/>
     <use x="68.408203" xlink:href="#DejaVuSans-32"/>
     <use x="100.195312" xlink:href="#DejaVuSans-99"/>
     <use x="155.175781" xlink:href="#DejaVuSans-108"/>
     <use x="182.958984" xlink:href="#DejaVuSans-111"/>
     <use x="244.140625" xlink:href="#DejaVuSans-115"/>
     <use x="296.240234" xlink:href="#DejaVuSans-101"/>
     <use x="357.763672" xlink:href="#DejaVuSans-114"/>
     <use x="398.876953" xlink:href="#DejaVuSans-32"/>
     <use x="430.664062" xlink:href="#DejaVuSans-108"/>
     <use x="458.447266" xlink:href="#DejaVuSans-111"/>
     <use x="519.628906" xlink:href="#DejaVuSans-111"/>
     <use x="580.810547" xlink:href="#DejaVuSans-107"/>
     <use x="638.720703" xlink:href="#DejaVuSans-32"/>
     <use x="670.507812" xlink:href="#DejaVuSans-97"/>
     <use x="731.787109" xlink:href="#DejaVuSans-116"/>
     <use x="770.996094" xlink:href="#DejaVuSans-32"/>
     <use x="802.783203" xlink:href="#DejaVuSans-103"/>
    </g>
   </g>
  </g>
 </g>
 <defs>
  <clipPath id="p834f0257a6">
   <rect height="94.8" width="162.96031" x="45.3" y="26.8"/>
  </clipPath>
  <clipPath id="p1b7761d503">
   <rect height="94.8" width="162.96031" x="256.81031" y="26.8"/>
  </clipPath>
  <clipPath id="pb30ecf547b">
   <rect height="94.8" width="162.96031" x="45.3" y="165.4"/>
  </clipPath>
  <clipPath id="pe565941fa1">
   <rect height="94.8" width="162.96031" x="256.81031" y="165.4"/>
  </clipPath>
 </defs>
</svg>
